<svg width="283" height="82" viewBox="0 0 283 82" version="1.1" xmlns="http://www.w3.org/2000/svg" xmlns:xlink="http://www.w3.org/1999/xlink">
<title>circle</title>
<desc>Created using Figma</desc>
<g id="Canvas" transform="translate(-18661 -1969)">
<g id="circle">
<use xlink:href="#path0_fill" transform="translate(18661 1969)" fill="#FF4338"/>
</g>
</g>
<defs>
<path id="path0_fill" d="M 283 31.1661C 283 30.8516 282.921 30.4585 282.921 30.144C 282.686 28.7288 282.214 27.4709 281.585 26.3702C 280.249 24.0901 278.52 22.3604 276.555 20.8666L 276.476 20.788L 276.397 20.7094C 275.611 20.2377 274.825 19.6873 273.961 19.2942C 269.874 16.8569 265.472 14.97 260.913 13.6334C 260.363 13.4762 259.813 13.3189 259.262 13.1617L 257.69 12.6114L 254.389 11.5893C 252.188 10.9603 249.987 10.3313 247.708 9.70234C 243.228 8.52302 238.747 7.50094 234.189 6.71472L 227.429 5.53539L 224.049 4.90642L 220.669 4.35607C 208.643 2.39052 196.46 1.44706 184.277 0.89671C 172.565 -0.203995 160.775 -0.203995 149.063 0.424979C 146.155 0.582223 143.247 0.818088 140.26 0.975331C 137.352 1.2112 134.443 1.44706 131.535 1.76155L 127.369 2.15466L 123.046 2.54777C 120.138 2.78363 117.23 3.09812 114.243 3.41261C 105.832 4.35607 97.3435 5.37815 89.0117 6.87196C 87.9899 7.02921 86.9681 7.26507 85.9463 7.50094C 84.9245 7.7368 83.9812 7.81542 82.8808 8.05129C 80.7586 8.4444 78.6363 8.83751 76.5141 9.30924C 72.3482 10.3313 68.261 11.6679 64.2523 13.3189C 62.9947 13.7121 61.6584 14.1838 60.4794 14.5769C 59.2218 14.97 57.8856 15.4417 56.6279 15.9921C 54.0341 17.0928 51.5975 18.3507 49.2394 19.9232C 48.0604 20.7094 46.96 21.5742 45.8596 22.4391C 45.3093 22.9108 44.8377 23.3825 44.2875 23.8543L 43.5015 24.5619L 42.7155 25.3481C 42.4797 25.5839 42.2439 25.8984 41.9295 26.2129C 41.6937 26.5274 41.4579 26.7633 41.3007 27.0778C 40.9077 27.6281 40.4361 28.2571 40.0431 28.8074C 39.257 29.9868 38.6282 31.2447 37.9994 32.5813C 37.9208 35.8048 38.471 37.22 39.0212 37.1413C 39.65 37.0627 40.4361 35.4903 42.0867 32.8171C 42.5583 32.0309 43.1085 31.2447 43.5801 30.4585C 44.0517 29.6723 44.6805 28.8074 45.2307 28.1785C 46.0954 27.3922 47.1172 26.5274 48.139 25.7412C 51.2831 23.697 54.5843 21.9673 58.0428 20.6308C 58.9074 20.3163 59.772 20.0018 60.7152 19.6873C 61.6584 19.4514 62.6017 19.0583 63.5449 18.7438C 65.3527 18.1149 67.2391 17.4859 69.1256 16.9355C 72.8984 15.8348 76.6713 14.8128 80.5228 14.0265C 81.466 13.8693 82.4092 13.6334 83.431 13.4762C 84.3742 13.3189 85.4747 13.1617 86.4179 13.0045C 88.4615 12.6114 90.348 12.2182 92.313 11.9038C 100.723 10.4886 109.448 10.1741 117.544 7.7368L 117.858 7.7368C 121.081 7.81542 124.147 7.7368 127.291 7.65818C 130.435 7.50094 133.579 7.18645 136.644 6.87196C 142.775 6.24299 148.906 5.37815 155.037 4.59193C 156.373 4.8278 157.788 4.90642 159.203 4.90642C 160.618 4.90642 162.032 4.8278 163.526 4.67055C 166.277 4.59193 169.028 4.59193 171.779 4.59193C 174.53 4.67055 177.203 4.74918 179.954 4.90642L 184.198 5.14228C 185.534 5.29953 186.87 5.45677 188.207 5.45677C 194.888 6.87196 201.569 7.57956 208.486 7.42231C 215.01 9.15199 221.691 10.3313 228.529 11.6679C 230.258 11.9824 231.988 12.2182 233.638 12.5327C 235.368 12.8472 237.018 13.1617 238.747 13.4762C 242.127 14.1838 245.507 14.97 248.808 15.9135C 251.009 16.4638 253.131 17.0928 255.254 17.7218C 256.276 18.0363 257.455 18.4294 258.634 18.6652C 259.734 18.9011 260.756 19.2156 261.778 19.5301C 265.865 20.788 269.795 22.5963 273.411 24.8763C 275.218 26.2129 276.79 27.864 277.498 29.5936C 277.891 30.4585 278.048 31.3233 277.97 32.0309C 277.891 32.8171 277.577 33.682 277.105 34.3896C 276.319 35.6475 274.825 36.9055 273.018 38.0062C 272.074 38.5565 271.131 39.1069 270.109 39.7359C 269.088 40.2862 267.987 40.8366 266.965 41.3869C 255.49 47.3622 242.992 51.765 230.573 56.0106C 218.075 60.1775 205.42 63.5582 192.53 66.0741C 175.552 69.1404 158.338 71.0273 141.124 72.757C 139.238 72.9142 137.352 73.5432 135.465 73.9363C 132.164 74.0149 128.627 73.7791 125.64 74.2508C 109.055 77.0026 91.92 76.8453 75.2565 77.2384C 69.9902 77.3957 64.7239 77.317 59.5362 77.0812C 54.3485 76.8453 49.0822 76.3736 43.8945 75.8232C 38.6282 75.2729 33.4405 74.7225 28.41 73.8577C 23.6154 72.9142 18.5849 71.7349 14.1832 69.6907C 12.1396 68.7473 10.1745 67.5679 8.60249 66.1528C 7.03046 64.7376 5.93004 63.1651 5.30123 61.3568C 4.67242 59.6272 4.51521 57.583 4.67242 55.4602C 4.67242 54.9885 4.75102 54.4381 4.75102 53.8878C 4.82962 53.416 4.90822 52.9443 4.98682 52.394C 5.22263 51.3719 5.61563 50.3498 5.93004 49.2491C 6.71605 48.3842 7.65927 47.598 8.36668 46.6546C 10.1745 44.2959 12.2182 42.0159 14.3404 39.8145C 16.384 37.6917 18.6635 35.7261 21.1001 33.9178C 23.5368 32.1095 26.1306 30.4585 28.7244 28.8074C 31.3183 27.1564 33.9907 25.5839 36.6632 24.0115C 47.2744 17.7218 58.2786 11.9824 69.9902 7.81542C 70.9334 7.50094 71.798 7.10783 72.6626 6.71472C 73.5273 6.32161 74.3919 5.9285 75.2565 5.53539C 78.4791 4.27744 80.7586 3.41261 82.0948 2.62639C 83.431 1.91879 83.7454 1.36844 83.1166 0.89671C 82.4092 0.424979 81.2302 0.267736 79.7368 0.424979C 78.2433 0.582223 76.5141 0.975332 74.8635 1.52568C 66.2173 4.19882 57.9642 7.89404 49.9468 11.9038C 44.8377 14.4983 39.8858 17.3287 35.0126 20.2377C 32.5759 21.6528 30.1393 23.1467 27.7812 24.7191C 25.4232 26.2129 22.9865 27.7067 20.6285 29.3578C 18.2705 31.0088 15.991 32.8171 13.7902 34.7827C 12.6898 35.7261 11.6679 36.8268 10.7247 37.8489C 9.78151 38.871 8.83829 39.9717 7.89507 41.0724C 6.00864 43.2738 4.20081 45.5539 2.78598 48.1484C 2.23577 49.4849 1.60696 50.9001 1.13535 52.394C 0.899549 53.1802 0.820948 53.8878 0.663745 54.5954C 0.506542 55.303 0.506542 56.0892 0.427941 56.7968C 0.270738 57.1899 0.192137 57.5044 0.192137 57.8975C 0.113535 58.2906 0.113535 58.6837 0.034934 58.9982C -0.0436675 59.3913 0.034934 59.7844 0.034934 60.1775C 0.034934 60.5706 0.034934 60.9637 0.192137 61.3568C 0.506542 62.9293 1.21396 64.4231 2.31437 65.681C 3.6506 68.2755 5.69424 70.3197 7.97368 71.9708C 10.2531 73.6218 12.7684 74.8011 15.3622 75.8232C 20.4713 77.7888 25.8162 78.8895 31.1611 79.5971C 33.8335 79.9902 36.4274 80.2261 39.0998 80.5405C 41.6937 80.7764 44.3661 81.0123 46.96 81.2481C 52.2263 81.7199 57.4926 81.9557 62.7589 81.9557C 88.6973 82.2702 114.557 80.9336 140.024 77.1598L 152.679 76.1377L 154.251 76.1377L 155.902 75.9019C 155.98 75.8232 156.059 75.8232 156.059 75.7446C 166.984 75.9805 178.224 73.3073 189.307 71.6563C 190.801 71.3418 192.294 71.0273 193.787 70.7128C 197.639 69.9266 201.49 69.0618 205.342 68.1183C 206.992 67.7252 208.564 67.3321 210.215 66.939C 221.062 64.4231 231.752 61.2782 242.127 57.5044C 252.503 53.8091 262.878 49.4063 272.153 43.4311C 274.118 42.4876 276.162 41.5442 278.127 40.129C 279.07 39.4214 280.013 38.5565 280.799 37.6131C 281.585 36.591 282.293 35.4117 282.607 34.1537C 282.764 33.8392 282.764 33.5247 282.843 33.2102C 282.921 32.8958 283 32.5813 283 32.1882C 283 31.8737 283 31.4806 283 31.1661Z"/>
</defs>
</svg>
