<?xml version="1.0" encoding="utf-8"?>
<svg version="1.1" xmlns="http://www.w3.org/2000/svg" xmlns:xlink="http://www.w3.org/1999/xlink" x="0px" y="0px"
   viewBox="0 0 550 309" enable-background="new 0 0 550 309" xml:space="preserve">
<defs>
<rect id="bg" x="0" y="0" height="309" width="550" fill="#0e1741" />
<g id="right-spotlight">
  <polygon fill="#C7FEFF" points="452,0 352,544 0,525  "/>
</g>
<g id="left-spotlight">
  <polygon fill="#C7FEFF" points="0,0 139.3,512.7 384.7,461.3  "/>
</g>
<g id="trophy">
  <g>
    <path fill="#D3AF2A" d="M141.7,21.5C137.8,38.6,117,36.9,117,36.9l0.8,5.7c22.9,0,28.3-15,28.3-15h10.8
      c0,94.7-64.6,84.9-64.6,84.9v6.6c78.6,5.8,71.6-97.7,71.6-97.7H141.7z"/>
    <path fill="#F4E238" d="M141.7,21.5h22.2c0,0,4.6,41-17.2,73.6c0,0,15.8-23.9,13.8-70.1l-16.8-1.1L141.7,21.5z"/>
  </g>
  <g>
    <path fill="#D3AF2A" d="M22.6,21.5c3.9,17.1,24.7,15.5,24.7,15.5l-0.8,5.7c-22.9,0-28.3-15-28.3-15H7.4
      c0,94.7,64.6,84.9,64.6,84.9v6.6C-6.5,124.9,0.4,21.5,0.4,21.5L22.6,21.5z"/>
    <path fill="#F4E238" d="M22.6,21.5l-22.2,0c0,0-4.6,41,17.2,73.6c0,0-15.8-23.9-13.8-70.1l16.8-1.1L22.6,21.5z"/>
  </g>
  <path fill="#D3AF2A" d="M122.2,2.2c0,0-15.8,14.4,9,19.3H71.5L81.9,5L122.2,2.2z"/>
  <path fill="#D3AF2A" d="M41,2.2c0,0,16.4,14.4-8.3,19.3l49.2,0V5L41,2.2z"/>
  <g>
    <rect x="41" fill="#F4E238" width="81.1" height="7.8"/>
    <rect x="41" y="3.9" fill="#E7C222" width="81.1" height="3.9"/>
  </g>
  <path fill="#8C722C" d="M117.4,10l0.7-2.3H45.3c0,0,2.9,5.3-1.3,9L117.4,10"/>
  <g>
    <path fill="#D3AF2A" d="M131.2,21.5l-44.4-2.8l-54.1,2.8c0,0-1.1,106.1,49.2,131.5l0-0.1v0.1C132.2,127.6,131.2,21.5,131.2,21.5z"
      />
    <path fill="#F4E238" d="M131.2,21.5l-98.5,0l0,2.9l95.4,4.2C128.5,22.7,131.2,21.5,131.2,21.5z"/>
    <path fill="#F4E238" d="M131.2,21.5l-17.1,3.8c0,106.9-32.1,127.7-32.1,127.7C134.3,127.2,131.2,21.5,131.2,21.5z"/>
    <path fill="#F4E238" d="M59.3,24.3H46.2C46,96.2,75.9,133.8,75.9,133.8S59.3,100.4,59.3,24.3z"/>
  </g>
  <path fill="#F4E238" d="M117.4,10l-3.2,0.3c0,0-1.1,10.1,9.8,14.2l7.2-3.1C131.2,21.5,116.7,19.3,117.4,10z"/>
  <g>
    <rect x="65.8" y="147.1" fill="#F4E238" width="31.7" height="7.8"/>
    <rect x="65.8" y="151" fill="#E7C222" width="31.7" height="3.9"/>
  </g>
  <g>
    <path fill="#F4E238" d="M90.5,154.9H78.9l3.1,29.2h27.3C81.2,174.9,90.5,154.9,90.5,154.9z"/>
    <path fill="#E7C222" d="M73.3,154.9h8.6l0,29.2H54.6C82.6,174.9,73.3,154.9,73.3,154.9z"/>
    <g>
      <rect x="43.9" y="184.1" fill="#F4E238" width="76.1" height="7.8"/>
      <rect x="43.9" y="188" fill="#E7C222" width="76.1" height="3.9"/>
    </g>
  </g>
</g>
<g id="baseball">
    <g>
      <path fill="#E8C223" d="M97.4,42L55.9,0.5C53.6,0.2,51.3,0,48.9,0C21.9,0,0,21.9,0,48.9c0,27,21.9,48.9,48.9,48.9
        c27,0,48.9-21.9,48.9-48.9C97.9,46.6,97.7,44.3,97.4,42z"/>
      <path fill="#F4E237" d="M61.8,72.2c-19.9,0-36.1-16.2-36.1-36.1c0-17.9,13-32.8,30.1-35.6c21.5,3,38.5,20,41.5,41.5
        C94.5,59.1,79.7,72.2,61.8,72.2z"/>
    </g>
    <g>
      <path fill="#FFF8A1" d="M97.9,48.9c0-2.3-0.2-4.7-0.5-6.9v0c-3-21.5-20-38.5-41.5-41.5C53.6,0.2,51.3,0,48.9,0
        c-7.8,0-15.1,1.8-21.6,5c5.3-2,11-3,17-3c2.3,0,4.7,0.2,6.9,0.5c21.5,3,38.5,20,41.5,41.5v0c0.3,2.3,0.5,4.6,0.5,6.9
        c0,19.3-11.1,35.9-27.3,43.9C84.6,87.9,97.9,70,97.9,48.9z"/>
    </g>
    <g>
      <path fill="#C4940E" d="M14.3,14.8c-6.9,8.4-11,19.2-11,30.9c0,27,21.9,48.9,48.9,48.9c13.5,0,25.5-5.5,34.4-14.4
        c-9,11-22.3,18-37.7,18C21.9,98.2,0,76.3,0,49.3C0,35.8,5.5,23.6,14.3,14.8z"/>
    </g>
    <g>
      <path fill="#C4940E" d="M2.1,63.9c0.1,0.3,0.2,0.7,0.4,1C2.3,64.6,2.2,64.2,2.1,63.9z"/>
      <path fill="#C4940E" d="M84.6,64.7c0.4-0.4,0.9-0.8,1.2-1.1c0.3-0.3,0.5-0.5,0.5-0.5c0.1-0.1,0.3-0.1,0.4,0c0,0,0.1,0.1,0.1,0.2
        c0.1,0.1,0.1,0.3,0.2,0.4c0.2,0.3,0.3,0.6,0.3,0.6c0,0,0,0,0,0c0,0,0.1,0,0.1,0c0,0,0.3,0,0.7-0.1c0.4-0.1,1-0.1,1.6-0.2
        C90.9,64,92,64,92,64c0.2,0,0.4,0.2,0.5,0.4l0.5,1.8c0.1,0.2-0.1,0.4-0.3,0.4c0,0-1.2-0.1-2.3-0.2c-1.2,0-2.3,0-2.3,0
        c-0.2,0-0.4-0.1-0.4-0.3c0,0,0-0.1-0.1-0.2c0-0.1-0.1-0.3-0.2-0.4c-0.1-0.3-0.2-0.6-0.2-0.6c0,0-0.1,0.1-0.1,0.1
        c0,0-0.9,0.7-1.9,1.3c-1,0.6-1.9,1.2-1.9,1.2c-0.2,0.1-0.3,0.1-0.4,0c0,0-0.1-0.2-0.2-0.5c-0.1-0.2-0.2-0.4-0.2-0.4
        c-0.1-0.1,0-0.3,0.2-0.4C82.8,66.1,83.7,65.5,84.6,64.7z"/>
      <path fill="#C4940E" d="M81.2,63c0.2-0.4,0.5-0.9,0.7-1.4c0.5-1,0.9-2.1,0.9-2.1c0.1-0.2,0.3-0.2,0.4-0.1c0,0,0.3,0.2,0.6,0.4
        c0.3,0.2,0.5,0.5,0.5,0.5l0,0c0,0,0,0,0.1-0.1c0,0,1-0.6,2.1-1.1c0.5-0.3,1.1-0.5,1.5-0.7c0.4-0.2,0.7-0.3,0.7-0.3
        c0.2-0.1,0.5,0,0.6,0.2c0,0,0.3,0.4,0.6,0.8c0.3,0.4,0.5,0.8,0.5,0.8c0.1,0.2,0.1,0.4-0.1,0.5c0,0-1.2,0.2-2.3,0.6
        c-0.6,0.2-1.1,0.4-1.5,0.5c-0.4,0.2-0.7,0.3-0.7,0.3c-0.2,0.1-0.4,0-0.6-0.1c0,0-0.2-0.3-0.4-0.5c-0.1-0.1-0.2-0.2-0.3-0.3
        c-0.1-0.1-0.1-0.1-0.1-0.1c0,0,0,0.1,0,0.1c0,0-0.2,0.2-0.4,0.6c-0.2,0.4-0.5,0.8-0.9,1.3c-0.7,0.9-1.4,1.8-1.4,1.8
        c-0.1,0.1-0.3,0.2-0.4,0.1c0,0-0.1-0.2-0.3-0.3C81,64.2,80.8,64,80.8,64c-0.1-0.1-0.1-0.3,0.1-0.4C80.9,63.6,81,63.3,81.2,63z"/>
      <path fill="#C4940E" d="M78.4,57.4c0-0.2,0.2-0.3,0.3-0.3c0,0,0.3,0.1,0.7,0.2c0.2,0.1,0.3,0.1,0.5,0.2c0.1,0.1,0.2,0.1,0.2,0.1
        l0,0c0,0,0-0.1,0.1-0.1c0,0,0.7-0.9,1.5-1.8c0.8-0.9,1.6-1.7,1.6-1.7c0.2-0.2,0.5-0.2,0.7,0c0,0,1.7,1,1.7,1
        c0.2,0.2,0.2,0.4,0.1,0.5c0,0-0.2,0.2-0.6,0.4c-0.4,0.3-0.8,0.6-1.3,1c-0.9,0.7-1.7,1.6-1.7,1.6c-0.1,0.1-0.4,0.2-0.5,0.1
        c0,0-1.2-0.6-1.2-0.6c0,0,0,0.1,0,0.1c0,0-0.2,1.1-0.5,2.2c-0.1,0.6-0.3,1.1-0.4,1.5c-0.1,0.4-0.2,0.7-0.2,0.7
        c-0.1,0.2-0.2,0.3-0.3,0.2c0,0-0.2-0.1-0.4-0.2c-0.2-0.1-0.4-0.2-0.4-0.2c-0.1-0.1-0.2-0.2-0.2-0.4c0,0,0.2-1.1,0.3-2.2
        C78.4,58.5,78.4,57.4,78.4,57.4z"/>
      <path fill="#C4940E" d="M73.8,56.4c0,0,0.4,0,0.7,0c0.2,0,0.4,0,0.5,0c0.1,0,0.2,0,0.2,0c0,0,0,0,0,0c0,0,0-0.1,0-0.1
        c0,0,0.4-1.1,0.9-2.1c0.5-1.1,1-2.1,1-2.1c0.1-0.2,0.4-0.3,0.6-0.3l1.8,0.4c0.2,0.1,0.3,0.3,0.2,0.4c0,0-0.2,0.2-0.4,0.6
        c-0.2,0.4-0.6,0.9-0.8,1.4c-0.6,1-1.1,2-1.1,2c-0.1,0.2-0.3,0.3-0.5,0.3c0,0-1.3-0.2-1.3-0.2c0,0,0,0.1,0,0.1
        c0,0,0.2,1.1,0.3,2.3c0,0.6,0.1,1.1,0.1,1.6c0,0.4,0,0.7,0,0.7c0,0.2-0.1,0.3-0.2,0.3l-1.1-0.1c-0.1,0-0.3-0.2-0.3-0.4
        c0,0-0.2-1.1-0.4-2.2c-0.2-1.1-0.5-2.2-0.5-2.2C73.5,56.5,73.6,56.4,73.8,56.4z"/>
      <path fill="#C4940E" d="M68.8,56.7l1.4-0.2c0,0,0,0,0,0c0,0,0-0.1,0-0.1c0,0,0.2-1.2,0.4-2.3c0.2-1.1,0.5-2.3,0.5-2.3
        c0-0.2,0.3-0.4,0.5-0.4c0,0,0.4,0,0.8,0c0.4,0,0.9,0,0.9,0c0.2,0,0.4,0.2,0.3,0.4c0,0-0.4,1.1-0.7,2.2c-0.3,1.1-0.6,2.2-0.6,2.2
        c0,0.2-0.2,0.4-0.4,0.4l-1.3,0.1c0,0,0,0.1,0.1,0.1c0,0,0.4,1.1,0.7,2.2c0.3,1.1,0.6,2.2,0.6,2.2c0,0.2,0,0.3-0.2,0.4
        c0,0-1.2,0.1-1.2,0.1c-0.2,0-0.3-0.1-0.4-0.3c0,0-0.4-1.1-0.8-2.1c-0.4-1.1-0.9-2.1-0.9-2.1C68.5,56.9,68.6,56.7,68.8,56.7z"/>
      <path fill="#C4940E" d="M65.2,57.4C65.2,57.4,65.2,57.4,65.2,57.4c0,0,0-0.1,0-0.1c0,0,0-1.2,0.1-2.3c0.1-1.1,0.2-2.3,0.2-2.3
        c0-0.2,0.2-0.4,0.4-0.4c0,0,0.4-0.1,0.8-0.1c0.4-0.1,0.8-0.2,0.8-0.2c0.2,0,0.4,0.1,0.3,0.3c0,0-0.2,1.1-0.3,2.3
        c-0.1,1.2-0.2,2.3-0.2,2.3c0,0.2-0.2,0.4-0.4,0.4l-1.3,0.3c0,0,0,0.1,0.1,0.1c0,0,0.5,1,1,2.1c0.5,1,1,2.1,1,2.1
        c0.1,0.2,0,0.3-0.1,0.4c0,0-0.3,0.1-0.6,0.1c-0.3,0.1-0.6,0.2-0.6,0.2c-0.2,0-0.4-0.1-0.5-0.2c0,0-0.5-1-1.1-2
        c-0.6-1-1.1-2-1.1-2c-0.1-0.2,0-0.4,0.2-0.4L65.2,57.4z"/>
      <path fill="#C4940E" d="M59.1,59.5c0,0,0.3-0.2,0.6-0.3c0.3-0.1,0.7-0.3,0.7-0.3c0,0,0,0,0,0c0,0,0-0.1,0-0.1
        c0,0-0.2-1.1-0.3-2.3C60,55.3,60,54.1,60,54.1c0-0.2,0.2-0.4,0.4-0.5c0,0,1.7-0.6,1.6-0.5c0.2-0.1,0.4,0.1,0.4,0.3
        c0,0,0,1.2,0,2.3c0,1.2,0.1,2.3,0.1,2.3c0,0.2-0.1,0.4-0.3,0.5c0,0-0.3,0.1-0.6,0.2c-0.3,0.1-0.6,0.2-0.6,0.2c0,0,0.1,0,0.1,0.1
        c0,0,0.7,0.9,1.3,1.9c0.6,1,1.2,1.9,1.2,1.9c0.1,0.2,0.1,0.3-0.1,0.4c0,0-1.1,0.4-1.1,0.4c-0.1,0.1-0.3,0-0.5-0.2
        c0,0-0.7-0.9-1.4-1.8c-0.7-0.9-1.5-1.8-1.5-1.8C58.9,59.7,58.9,59.5,59.1,59.5z"/>
      <path fill="#C4940E" d="M54.7,62c0,0,0.3-0.2,0.6-0.4c0.3-0.2,0.6-0.4,0.6-0.4l0,0c0,0,0-0.1,0-0.1c0,0-0.4-1.1-0.7-2.2
        c-0.3-1.1-0.6-2.2-0.6-2.2c0-0.2,0.1-0.4,0.3-0.5c0,0,0.4-0.2,0.7-0.4c0.4-0.2,0.7-0.4,0.7-0.4c0.2-0.1,0.4,0,0.4,0.2
        c0,0,0.2,1.2,0.4,2.3c0.2,1.1,0.5,2.3,0.5,2.3c0,0.2,0,0.4-0.2,0.5c0,0-0.3,0.2-0.6,0.3c-0.3,0.2-0.6,0.3-0.6,0.3
        c0,0,0.1,0,0.1,0.1c0,0,0.8,0.8,1.6,1.6c0.8,0.8,1.6,1.7,1.6,1.7c0.1,0.1,0.1,0.3,0,0.4c0,0-0.3,0.1-0.5,0.3
        c-0.3,0.2-0.5,0.3-0.5,0.3c-0.1,0.1-0.4,0.1-0.5-0.1c0,0-0.8-0.8-1.7-1.6c-0.9-0.8-1.7-1.5-1.7-1.5C54.6,62.3,54.6,62.1,54.7,62z
        "/>
      <path fill="#C4940E" d="M50.7,65l1.1-0.9l0,0c0,0,0-0.1-0.1-0.1c0,0-0.4-1.1-0.9-2.1c-0.4-1.1-0.9-2.1-0.9-2.1
        c-0.1-0.2,0-0.4,0.2-0.6c0,0,0.3-0.2,0.6-0.5c0.3-0.2,0.6-0.5,0.6-0.5c0.2-0.1,0.4-0.1,0.4,0.1c0,0,0.4,1.1,0.8,2.2
        c0.4,1.1,0.8,2.2,0.8,2.2c0.1,0.2,0,0.4-0.1,0.5l-1.1,0.8c0,0,0.1,0,0.1,0.1c0,0,0.9,0.7,1.8,1.4C55.1,66.3,56,67,56,67
        c0.2,0.1,0.2,0.3,0,0.4l-1,0.8c-0.1,0.1-0.4,0.1-0.5,0c0,0-0.9-0.7-1.8-1.4c-0.9-0.7-1.9-1.4-1.9-1.4
        C50.6,65.4,50.6,65.2,50.7,65z"/>
      <path fill="#C4940E" d="M46.9,68.4l1.1-1l0,0c0,0,0-0.1-0.1-0.1c0,0-0.5-1-1-2.1c-0.5-1-1-2.1-1-2.1c-0.1-0.2,0-0.4,0.1-0.6
        l1.1-1c0.2-0.1,0.4-0.1,0.4,0.1c0,0,0.5,1,1,2.1c0.5,1,1,2.1,1,2.1c0.1,0.2,0,0.4-0.1,0.5c0,0-0.3,0.2-0.5,0.4
        c-0.2,0.2-0.5,0.4-0.5,0.4c0,0,0.1,0,0.1,0c0,0,1,0.6,1.9,1.3c1,0.7,1.9,1.3,1.9,1.3c0.2,0.1,0.2,0.3,0.1,0.4l-1,0.9
        c-0.1,0.1-0.4,0.1-0.5,0c0,0-1-0.6-1.9-1.3c-1-0.6-1.9-1.2-1.9-1.2C46.8,68.7,46.8,68.5,46.9,68.4z"/>
      <path fill="#C4940E" d="M43.3,71.8l1-1l0,0c0,0,0,0-0.1-0.1L42,66.7c-0.1-0.2-0.1-0.4,0.1-0.6l1.1-1c0.1-0.1,0.3-0.1,0.4,0.1
        l2.2,4.1c0.1,0.2,0.1,0.4-0.1,0.6l-1,0.9c0,0,0.1,0,0.1,0l3.9,2.4c0.2,0.1,0.2,0.3,0.1,0.4l-1,1c-0.1,0.1-0.4,0.1-0.6,0l-3.9-2.4
        C43.1,72.1,43.1,72,43.3,71.8z"/>
      <path fill="#C4940E" d="M39.6,75.3l1.1-1l0,0c0,0,0,0-0.1-0.1l-2.2-4.1c-0.1-0.2-0.1-0.4,0.1-0.5l1-1c0.1-0.1,0.3-0.1,0.4,0.1
        l2.2,4c0.1,0.2,0.1,0.4-0.1,0.6l-1,0.9c0,0,0.1,0,0.1,0l3.9,2.4c0.2,0.1,0.2,0.3,0.1,0.4l-1.1,1c-0.1,0.1-0.4,0.2-0.6,0l-3.9-2.5
        C39.5,75.6,39.4,75.4,39.6,75.3z"/>
      <path fill="#C4940E" d="M35.8,78.6l1.1-0.9l0,0c0,0,0-0.1-0.1-0.1c0,0-0.5-1-1-2.1c-0.5-1-1-2.1-1-2.1c-0.1-0.2-0.1-0.4,0.1-0.5
        l1-0.9c0.1-0.1,0.3-0.1,0.4,0.1c0,0,0.5,1,1.1,2c0.5,1,1.1,2,1.1,2c0.1,0.2,0,0.4-0.1,0.5c0,0-0.2,0.2-0.5,0.4
        c-0.3,0.2-0.5,0.4-0.5,0.4c0,0,0.1,0,0.1,0.1c0,0,1,0.6,1.9,1.3c1,0.6,1.9,1.3,1.9,1.3c0.2,0.1,0.2,0.3,0,0.4
        c0,0-0.3,0.2-0.6,0.5c-0.3,0.2-0.6,0.5-0.6,0.5c-0.2,0.1-0.4,0.1-0.6,0c0,0-0.9-0.7-1.9-1.3c-0.9-0.7-1.9-1.3-1.9-1.3
        C35.7,78.9,35.6,78.7,35.8,78.6z"/>
      <path fill="#C4940E" d="M31.8,81.5l1.2-0.8l0,0c0,0,0-0.1-0.1-0.1c0,0-0.4-1.1-0.8-2.1c-0.4-1.1-0.9-2.1-0.9-2.1
        c-0.1-0.2,0-0.4,0.1-0.5c0,0,0.3-0.2,0.5-0.4c0.3-0.2,0.5-0.4,0.5-0.4c0.1-0.1,0.3-0.1,0.4,0.1c0,0,0.5,1,1,2.1
        c0.5,1.1,0.9,2.1,0.9,2.1c0.1,0.2,0,0.4-0.1,0.5l-1.1,0.8c0,0,0.1,0,0.1,0.1c0,0,0.9,0.7,1.8,1.4c0.9,0.7,1.8,1.4,1.8,1.4
        c0.2,0.1,0.2,0.3,0,0.4L35.9,85c-0.2,0.1-0.4,0.1-0.6,0c0,0-0.9-0.7-1.8-1.5c-0.9-0.8-1.7-1.5-1.7-1.5
        C31.6,81.8,31.6,81.6,31.8,81.5z"/>
      <path fill="#C4940E" d="M28,83.7c0.3-0.1,0.6-0.3,0.6-0.3l0,0c0,0,0-0.1,0-0.1c0,0-0.2-1.1-0.5-2.2c-0.3-1.1-0.6-2.2-0.6-2.2
        c-0.1-0.2,0-0.4,0.1-0.5l1-0.6c0.1-0.1,0.3,0,0.4,0.2c0,0,0.4,1.1,0.7,2.2c0.4,1.1,0.7,2.2,0.7,2.2c0.1,0.2,0,0.4-0.2,0.5
        c0,0-0.3,0.2-0.6,0.3c-0.3,0.2-0.6,0.3-0.6,0.3c0,0,0.1,0,0.1,0.1c0,0,0.8,0.8,1.6,1.7c0.8,0.8,1.7,1.6,1.7,1.6
        c0.1,0.1,0.1,0.3-0.1,0.4L30.9,88c-0.2,0.1-0.5,0.1-0.6-0.1c0,0-0.8-0.9-1.6-1.7c-0.8-0.9-1.5-1.8-1.5-1.8
        c-0.1-0.2-0.1-0.3,0.1-0.4C27.4,84,27.7,83.8,28,83.7z"/>
      <path fill="#C4940E" d="M23.3,85.3c0.4-0.1,0.7-0.2,0.7-0.2c0,0,0,0,0,0c0,0,0-0.1,0-0.1c0,0,0-1.2-0.1-2.3
        c-0.1-1.1-0.2-2.3-0.2-2.3c0-0.2,0.1-0.4,0.2-0.4c0,0,0.3-0.1,0.5-0.2c0.1,0,0.3-0.1,0.4-0.1c0.1,0,0.2-0.1,0.2-0.1
        c0.1-0.1,0.3,0,0.3,0.2c0,0,0.2,1.1,0.4,2.3c0.2,1.1,0.3,2.3,0.3,2.3c0,0.2-0.1,0.4-0.3,0.5c0,0-0.3,0.1-0.6,0.2
        c-0.3,0.1-0.6,0.2-0.6,0.2c0,0,0.1,0.1,0.1,0.1c0,0,0.6,1,1.2,2c0.7,1,1.3,1.9,1.3,1.9c0.1,0.2,0,0.4-0.2,0.4c0,0-0.1,0-0.3,0.1
        c-0.2,0-0.4,0.1-0.6,0.2c-0.4,0.1-0.8,0.2-0.8,0.2c-0.2,0.1-0.5,0-0.6-0.2c0,0-0.6-1-1.2-2c-0.6-1-1-2.1-1-2.1
        c-0.1-0.2,0-0.4,0.2-0.4C22.6,85.5,23,85.4,23.3,85.3z"/>
      <path fill="#C4940E" d="M77.1,17.4c0,0.2-0.2,0.4-0.4,0.4l-1.3,0.1c0,0,0,0.1,0,0.1c0,0,0.4,1.1,0.8,2.2c0.4,1.1,0.8,2.2,0.8,2.2
        c0.1,0.2,0,0.4-0.2,0.4l-1.5,0.1c-0.2,0-0.4-0.1-0.5-0.3c0,0-0.4-1.1-0.7-2.2c-0.4-1.1-0.7-2.2-0.7-2.2c-0.1-0.2,0.1-0.3,0.2-0.3
        l1.4-0.1c0,0,0,0,0,0c0,0,0-0.1,0-0.1c0,0,0.2-1.1,0.4-2.3c0.2-1.1,0.4-2.3,0.4-2.3c0-0.2,0.2-0.4,0.4-0.4l1.3-0.1
        c0.2,0,0.3,0.1,0.3,0.3c0,0-0.2,1.1-0.3,2.3C77.3,16.3,77.1,17.4,77.1,17.4z"/>
      <path fill="#C4940E" d="M68.5,17.7c0,0,0.4,0,0.7,0.1c0.4,0,0.7,0,0.7,0c0,0,0,0,0,0c0,0,0-0.1,0-0.1c0,0,0.3-1.1,0.7-2.2
        c0.3-1.1,0.6-2.2,0.6-2.2c0-0.2,0.2-0.3,0.4-0.3l1.3,0c0.2,0,0.3,0.2,0.2,0.3c0,0-0.2,1.1-0.5,2.2c-0.3,1.1-0.5,2.2-0.5,2.2
        C72,17.9,71.8,18,71.7,18l-1.3,0c0,0,0,0.1,0,0.1c0,0,0.3,1.1,0.6,2.2c0.3,1.1,0.6,2.2,0.6,2.2c0.1,0.2-0.1,0.3-0.3,0.3l-1.6,0
        c-0.2,0-0.4-0.2-0.5-0.4c0,0-0.1-0.3-0.2-0.7c-0.1-0.4-0.2-1-0.3-1.6c-0.2-1.1-0.4-2.3-0.4-2.3C68.2,17.8,68.3,17.7,68.5,17.7z"
        />
      <path fill="#C4940E" d="M63.2,17.3c0-0.2,0.1-0.3,0.3-0.3l1.4,0.3c0,0,0,0,0,0c0,0,0-0.1,0-0.1c0,0,0.1-0.3,0.3-0.7
        c0.2-0.4,0.4-0.9,0.6-1.5c0.4-1.1,0.8-2.2,0.8-2.2c0.1-0.2,0.3-0.3,0.4-0.3l1.3,0.1c0.2,0,0.3,0.2,0.2,0.4c0,0-0.4,1.1-0.7,2.2
        c-0.4,1.1-0.8,2.2-0.8,2.2c-0.1,0.2-0.3,0.3-0.5,0.3l-1.3-0.1c0,0,0,0.1,0,0.1c0,0,0.1,1.1,0.3,2.3c0.2,1.1,0.4,2.3,0.4,2.3
        c0,0.2-0.1,0.3-0.3,0.3c0,0-0.4,0-0.8-0.1c-0.2,0-0.4,0-0.5-0.1c-0.1,0-0.2-0.1-0.2-0.1c-0.2,0-0.4-0.2-0.4-0.4
        c0,0-0.1-1.2-0.2-2.3C63.3,18.4,63.2,17.3,63.2,17.3z"/>
      <path fill="#C4940E" d="M63.1,14.5c-0.5,1-1,2.1-1,2.1c-0.1,0.2-0.3,0.3-0.5,0.3c0,0-0.3-0.1-0.7-0.1c-0.2,0-0.3-0.1-0.4-0.1
        c-0.1,0-0.2-0.1-0.2-0.1c0,0,0,0.1,0,0.1c0,0,0,0.3,0,0.7c0,0.4,0,1,0,1.6c0.1,1.2,0.1,2.3,0.1,2.3c0,0.2-0.1,0.3-0.4,0.3
        c0,0-0.4-0.1-0.8-0.2c-0.4-0.1-0.7-0.2-0.7-0.2c-0.2-0.1-0.4-0.3-0.4-0.5c0,0,0-1.2,0-2.3c0-1.2,0-2.3,0-2.3
        c0-0.2,0.2-0.3,0.3-0.3l1.4,0.4c0,0,0,0,0,0c0,0,0-0.1,0-0.1c0,0,0.6-1,1.1-2c0.5-1,1.1-2,1.1-2c0.1-0.2,0.3-0.3,0.5-0.3l1.3,0.3
        c0.2,0,0.2,0.2,0.2,0.4C64.1,12.5,63.6,13.5,63.1,14.5z"/>
      <path fill="#C4940E" d="M58.5,13.3c-0.6,1-1.2,2-1.2,2c-0.1,0.2-0.3,0.3-0.5,0.2c0,0-0.3-0.1-0.6-0.2c-0.3-0.1-0.6-0.2-0.6-0.2
        c0,0,0,0.1,0,0.1c0,0-0.1,1.2-0.1,2.3c0,1.1-0.1,2.3-0.1,2.3c0,0.2-0.2,0.3-0.4,0.3c0,0-1.4-0.5-1.4-0.5
        c-0.2-0.1-0.3-0.3-0.3-0.5c0,0,0.1-1.2,0.2-2.3c0.1-1.2,0.2-2.3,0.2-2.3c0-0.2,0.2-0.3,0.4-0.2l1.3,0.5c0,0,0,0,0,0
        c0,0,0-0.1,0-0.1c0,0,0.6-1,1.3-1.9c0.3-0.5,0.6-1,0.9-1.3c0.2-0.4,0.4-0.6,0.4-0.6c0.1-0.2,0.3-0.3,0.5-0.2l1.3,0.4
        c0.2,0,0.2,0.2,0.1,0.4C59.6,11.3,59,12.3,58.5,13.3z"/>
      <path fill="#C4940E" d="M53.8,11.7c-0.7,1-1.3,1.9-1.3,1.9c-0.1,0.2-0.4,0.2-0.5,0.2l-1.3-0.5c0,0,0,0.1,0,0.1
        c0,0-0.1,1.1-0.2,2.3c-0.1,1.1-0.2,2.3-0.2,2.3c0,0.2-0.2,0.3-0.4,0.2l-1.3-0.5c-0.2-0.1-0.3-0.3-0.2-0.5c0,0,0.1-1.1,0.2-2.3
        c0.1-1.1,0.2-2.3,0.2-2.3c0-0.2,0.2-0.3,0.3-0.2l1.4,0.5c0,0,0,0,0,0c0,0,0-0.1,0.1-0.1c0,0,0.7-0.9,1.4-1.9
        c0.7-0.9,1.3-1.9,1.3-1.9C53.3,9,53.5,8.9,53.7,9L55,9.4c0.2,0.1,0.2,0.2,0.1,0.4C55.1,9.8,54.5,10.8,53.8,11.7z"/>
      <path fill="#C4940E" d="M49,10c-0.6,1-1.3,1.9-1.3,1.9c-0.1,0.2-0.3,0.3-0.5,0.2l-1.3-0.4c0,0,0,0.1,0,0.1c0,0,0,1.2-0.1,2.3
        c-0.1,1.1-0.1,2.3-0.1,2.3c0,0.2-0.2,0.3-0.3,0.3c0,0-0.3-0.1-0.6-0.2c-0.3-0.1-0.6-0.2-0.6-0.2c-0.2-0.1-0.3-0.3-0.3-0.4
        c0,0,0-1.1,0-2.3c0-1.1,0-2.3,0-2.3c0-0.2,0.1-0.3,0.3-0.3c0,0,0.3,0.1,0.7,0.2c0.3,0.1,0.7,0.2,0.7,0.2c0,0,0,0,0,0
        c0,0,0-0.1,0-0.1c0,0,0.6-1,1.2-2c0.6-1,1.2-2,1.2-2c0.1-0.2,0.4-0.3,0.5-0.2l1.5,0.5c0.2,0.1,0.3,0.2,0.1,0.4
        C50.3,8.1,49.6,9.1,49,10z"/>
      <path fill="#C4940E" d="M43.9,8.6c-0.6,1-1.1,2-1.1,2c-0.1,0.2-0.3,0.3-0.5,0.2L41,10.5c0,0,0,0.1,0,0.1c0,0,0,1.2,0.1,2.3
        c0,1.1,0.1,2.3,0.1,2.3c0,0.2-0.1,0.3-0.3,0.3l-1.3-0.3c-0.2,0-0.3-0.2-0.3-0.4c0,0-0.1-1.2-0.1-2.3C39,11.4,39,10.2,39,10.2
        c0-0.2,0.1-0.3,0.3-0.3c0,0,0.4,0.1,0.7,0.1c0.4,0.1,0.7,0.1,0.7,0.1s0,0,0,0c0,0,0-0.1,0-0.1c0,0,0.5-1,1.1-2.1
        c0.5-1,1.1-2,1.1-2c0.1-0.2,0.3-0.3,0.5-0.2l1.5,0.4c0.2,0.1,0.3,0.2,0.2,0.4C45.1,6.6,44.5,7.6,43.9,8.6z"/>
      <path fill="#C4940E" d="M38.8,7.5c-0.5,1.1-1,2.1-1,2.1c-0.1,0.2-0.3,0.3-0.5,0.3c0,0-0.3-0.1-0.7-0.1c-0.3,0-0.7-0.1-0.7-0.1
        c0,0,0,0.1,0,0.1c0,0,0.1,1.1,0.3,2.3c0.1,1.1,0.2,2.3,0.2,2.3c0,0.2-0.1,0.3-0.3,0.3c0,0-0.3,0-0.6-0.1c-0.3,0-0.6-0.1-0.6-0.1
        c-0.2,0-0.3-0.2-0.4-0.4c0,0-0.2-1.1-0.3-2.3C34.2,10.7,34,9.5,34,9.5c0-0.2,0.1-0.3,0.3-0.3c0,0,0.4,0,0.7,0.1
        c0.4,0,0.7,0.1,0.7,0.1c0,0,0,0,0,0c0,0,0-0.1,0-0.1c0,0,0.4-1.1,0.9-2.1C37.1,6.1,37.5,5,37.5,5c0.1-0.2,0.3-0.3,0.5-0.3
        c0,0,0.4,0.1,0.8,0.1C39.2,4.9,39.6,5,39.6,5c0.2,0,0.3,0.2,0.2,0.4C39.8,5.4,39.3,6.4,38.8,7.5z"/>
      <path fill="#C4940E" d="M32.8,9c-0.1,0.2-0.3,0.3-0.5,0.3c0,0-0.3,0-0.7,0c-0.3,0-0.7,0-0.7,0c0,0,0,0.1,0,0.1
        c0,0,0.3,1.1,0.5,2.2c0.2,1.1,0.4,2.3,0.4,2.3c0,0.2-0.1,0.3-0.2,0.3c0,0-0.3,0-0.6,0c-0.3,0-0.6,0-0.6,0c-0.2,0-0.3-0.2-0.4-0.4
        c0,0-0.3-1.1-0.5-2.2c-0.3-1.1-0.6-2.2-0.6-2.2C28.9,9.2,29,9,29.2,9c0,0,0.4,0,0.7,0c0.4,0,0.7,0,0.7,0s0,0,0,0c0,0,0-0.1,0-0.1
        c0,0,0.3-1.1,0.7-2.2c0.4-1.1,0.7-2.2,0.7-2.2c0.1-0.2,0.3-0.3,0.5-0.3c0,0,0.4,0,0.8,0c0.4,0,0.8,0.1,0.8,0.1
        c0.2,0,0.3,0.2,0.2,0.4c0,0-0.4,1.1-0.8,2.2C33.2,7.9,32.8,9,32.8,9z"/>
      <path fill="#C4940E" d="M82.8,79.3c-0.2,0-0.3-0.2-0.3-0.3c0,0,0.1-0.3,0.2-0.6c0.1-0.3,0.2-0.6,0.2-0.6c0-0.2,0.2-0.3,0.4-0.3
        c0,0,1.1,0.1,2.3,0c1.1,0,2.3,0,2.3,0c0.2,0,0.3,0.1,0.3,0.3c0,0-0.1,0.4-0.2,0.7c0,0.1,0,0.2-0.1,0.3c-0.2,0.3-0.4,0.5-0.6,0.8
        c-0.1,0-1.2,0-2.3-0.1C83.9,79.4,82.8,79.3,82.8,79.3z"/>
      <path fill="#C4940E" d="M88.3,76c0,0,0.1-0.3,0.1-0.6c0-0.3,0.1-0.7,0.1-0.7c0,0-0.1,0-0.1,0c0,0-1.1,0.2-2.3,0.3
        c-1.1,0.1-2.3,0.2-2.3,0.2c-0.2,0-0.3-0.1-0.3-0.3c0,0,0.1-1.1,0.1-1.1c0-0.2,0.2-0.3,0.4-0.3c0,0,1.1-0.2,2.3-0.4
        c1.1-0.2,2.2-0.5,2.2-0.5c0.2,0,0.3,0.1,0.3,0.3c0,0,0,0.4,0,0.7c0,0.4-0.1,0.7-0.1,0.7s0,0,0,0c0,0,0.1,0,0.1,0
        c0,0,0.8,0.3,1.7,0.7c-0.4,0.6-0.8,1.2-1.2,1.8c-0.5-0.2-0.8-0.4-0.8-0.4C88.4,76.4,88.2,76.2,88.3,76z"/>
      <path fill="#C4940E" d="M88.9,71.4c-0.2-0.1-0.4-0.2-0.4-0.4c0,0,0-0.3,0-0.7c0-0.3-0.1-0.7-0.1-0.7c0,0-0.1,0-0.1,0.1
        c0,0-1.1,0.4-2.2,0.8c-1.1,0.4-2.2,0.6-2.2,0.6c-0.2,0.1-0.4,0-0.4-0.2c0,0,0-0.1,0-0.2c0-0.1,0-0.2,0-0.4c0-0.3-0.1-0.5-0.1-0.5
        c0-0.1,0.1-0.3,0.3-0.4c0,0,1.1-0.4,2.1-0.8c1-0.5,2.1-1,2.1-1c0.2-0.1,0.3,0,0.4,0.2c0,0,0.1,0.4,0.1,0.7
        c0.1,0.4,0.1,0.7,0.1,0.7c0,0,0,0,0,0c0,0,0.1,0,0.1,0c0,0,1.1,0.1,2.3,0.4c1,0.2,1.9,0.4,2.2,0.5c-0.4,0.7-0.7,1.5-1.1,2.2
        c-0.3-0.1-0.6-0.2-1-0.3C90.1,71.7,88.9,71.4,88.9,71.4z"/>
      <path fill="#C4940E" d="M80.8,83.1c-0.2-0.1-0.3-0.2-0.2-0.3c0,0,0.1-0.3,0.3-0.5c0.1-0.3,0.3-0.5,0.3-0.5
        c0.1-0.1,0.3-0.2,0.5-0.2c0,0,1.1,0.2,2.2,0.4c0.4,0.1,0.7,0.1,1,0.2c-0.5,0.6-1,1.1-1.6,1.7c-0.1,0-0.2,0-0.3-0.1
        C81.9,83.4,80.8,83.1,80.8,83.1z"/>
      <path fill="#C4940E" d="M16.1,81c0.1-0.2,0.2-0.3,0.4-0.3c0,0,0.3,0.1,0.5,0.1c0.3,0,0.5,0,0.5,0c0.1,0,0.2,0.2,0.2,0.4
        c0,0-0.3,1.1-0.7,2.2c-0.2,0.5-0.4,1.1-0.6,1.5c-0.2,0.4-0.3,0.7-0.3,0.7c0,0-0.1,0.1-0.1,0.1c-0.5-0.5-1-0.9-1.5-1.4
        c0.2-0.3,0.4-0.7,0.6-1.2C15.7,82,16.1,81,16.1,81z"/>
      <path fill="#C4940E" d="M17.6,85.8c0,0,0.4,0,0.7,0c0.4,0,0.7,0,0.7,0c0,0,0,0,0,0c0,0,0-0.1,0-0.1c0,0,0.3-1.1,0.5-2.2
        c0.2-1.1,0.4-2.3,0.4-2.3c0-0.2,0.2-0.4,0.3-0.4c0,0,1.1-0.1,1.1-0.1c0.1,0,0.2,0.1,0.2,0.3c0,0,0,1.1-0.1,2.3
        c-0.1,1.1-0.3,2.3-0.3,2.3c0,0.2-0.2,0.4-0.4,0.4c0,0-0.3,0-0.7,0.1c-0.3,0-0.7,0-0.7,0c0,0,0,0.1,0,0.1c0,0,0.3,1.1,0.7,2.2
        c0.1,0.3,0.2,0.5,0.3,0.8c-1-0.7-2-1.5-3-2.3c-0.1-0.4-0.1-0.7-0.1-0.7C17.3,85.9,17.5,85.7,17.6,85.8z"/>
      <path fill="#C4940E" d="M16,17.8c0.2,0.1,0.2,0.3,0.1,0.4c0,0-0.8,0.7-0.8,0.7c-0.1,0.1-0.3,0.1-0.5,0c0,0-0.9-0.6-1.9-1.2
        c-0.4-0.2-0.8-0.5-1.1-0.6c0.4-0.5,0.9-1,1.3-1.5c0.3,0.2,0.7,0.5,1.2,0.8C15.1,17.1,16,17.8,16,17.8z"/>
      <path fill="#C4940E" d="M19.3,15.8c0.1,0.2,0.1,0.3,0,0.4c0,0-1,0.5-1,0.5c-0.1,0.1-0.3,0-0.5-0.1c0,0-0.8-0.8-1.6-1.7
        c-0.5-0.5-1-1-1.3-1.3c0.5-0.5,1-0.9,1.5-1.4c0,0,0.8,0.9,1.5,1.7C18.7,14.9,19.3,15.8,19.3,15.8z"/>
      <path fill="#C4940E" d="M82.1,16.8c0,0.2-0.2,0.4-0.4,0.4l-1.3,0.2c0,0,0,0.1,0.1,0.1c0,0,0.5,1.1,0.9,2.1
        c0.5,1.1,0.9,2.1,0.9,2.1c0.1,0.2,0,0.4-0.2,0.4l-1.5,0.2c-0.2,0-0.4-0.1-0.5-0.3c0,0-0.4-1.1-0.9-2.1c-0.4-1.1-0.9-2.1-0.9-2.1
        c-0.1-0.2,0-0.4,0.2-0.4l1.4-0.2c0,0,0,0,0,0c0,0,0-0.1,0-0.1c0,0,0.1-1.1,0.3-2.3c0.1-1.1,0.2-2.3,0.2-2.3
        c0-0.2,0.2-0.4,0.4-0.4c0,0,0.1,0,0.2,0c0.4,0.4,0.9,0.8,1.3,1.2c0,0.4-0.1,0.8-0.1,1.2C82.2,15.6,82.1,16.8,82.1,16.8z"/>
      <path fill="#C4940E" d="M85.5,16.7l2,4.2c0.1,0.2,0,0.4-0.2,0.4l-1.4,0.3c-0.2,0-0.4-0.1-0.5-0.3L83.4,17c-0.1-0.2,0-0.4,0.2-0.4
        l1.4-0.3c0,0,0,0,0,0c0,0,0-0.1,0-0.1l0-0.4c0.2,0.2,0.4,0.4,0.6,0.7L85.5,16.7C85.4,16.6,85.5,16.6,85.5,16.7z"/>
      <path fill="#C4940E" d="M28.2,6.7C28,7.8,27.7,9,27.7,9c0,0.2-0.2,0.4-0.4,0.4c0,0-0.3,0-0.7,0c-0.3,0-0.7,0.1-0.7,0.1
        c0,0,0,0.1,0.1,0.1c0,0,0.4,1.1,0.8,2.2c0.4,1.1,0.7,2.2,0.7,2.2c0.1,0.2,0,0.4-0.2,0.4c0,0-0.3,0-0.6,0.1
        c-0.3,0-0.6,0.1-0.6,0.1c-0.2,0-0.3-0.1-0.4-0.3c0,0-0.4-1.1-0.8-2.1c-0.4-1.1-0.9-2.1-0.9-2.1c-0.1-0.2,0-0.4,0.2-0.4
        c0,0,0.4-0.1,0.7-0.1c0.4,0,0.7-0.1,0.7-0.1s0,0,0,0c0,0,0-0.1,0-0.1c0,0,0.2-1.1,0.4-2.3c0.1-0.5,0.2-0.9,0.3-1.3
        c0.8-0.4,1.7-0.8,2.5-1.2c0,0.1,0,0.1,0,0.2C28.8,4.5,28.5,5.6,28.2,6.7z"/>
      <path fill="#C4940E" d="M22.3,10c0,0-0.3,0.1-0.6,0.2c-0.3,0.1-0.6,0.2-0.6,0.2c0,0,0,0.1,0.1,0.1c0,0,0.6,1,1.1,2
        c0.5,1,1,2.1,1,2.1c0.1,0.2,0,0.3-0.1,0.4L22,15.2c-0.1,0.1-0.3-0.1-0.4-0.2c0,0-0.6-1-1.2-2c-0.6-1-1.3-1.9-1.3-1.9
        c-0.1-0.2-0.1-0.3,0.1-0.4c0,0,0.3-0.1,0.7-0.2c0.3-0.1,0.7-0.2,0.7-0.2c0,0,0,0,0,0c0,0,0-0.1,0-0.1c0,0,0-0.5,0-1.1
        c0.7-0.5,1.5-1,2.2-1.5c-0.1,1.1-0.2,2.1-0.2,2.1C22.7,9.8,22.5,10,22.3,10z"/>
    </g>
</g>
<g id="star3">
  <polygon fill="#FFFFFF" points="10.5,11.7 18.3,12 11.4,8.3 11.7,0 7.9,7.3 0,7.1 7,10.8 6.6,19.1   "/>
</g>
<g id="star2">
  <polygon fill="#FFFFFF" points="7.8,8.4 13.4,7.8 8.1,5.9 7.6,0 5.6,5.6 0,6.2 5.3,8.1 5.9,14   "/>
</g>
<g id="star1">
  <polygon fill="#FFFFFF" points="6.2,5.7 9.9,3.3 5.5,3.9 3,0 3.7,4.6 0,7 4.4,6.4 6.9,10.3  "/>
</g>
<clipPath id="canvas">
  <polygon points="550,309 0,309 0,0 550,0 "/>
</clipPath>
</defs>
<!-- Baseball -->
<g id="14-baseball" clip-path="url(#canvas)">
<use xlink:href="#bg" />
<g transform="translate(99,-50)">
  <use xlink:href="#left-spotlight">
    <animate attributeName="opacity" values=".13;.23;.13" dur="2s" repeatCount="indefinite" fill="freeze"/>
    <animateTransform id="" attributeName="transform" type="rotate" dur="3.5s" values="-12 0 0;2.6 0 0;-12 0 0" repeatCount="indefinite" additive="sum"/>
  </use>
</g>
<g transform="translate(-7,-44)">
  <use xlink:href="#right-spotlight">
    <animate attributeName="opacity" values=".13;.23;.13" dur="2s" repeatCount="indefinite" fill="freeze"/>
    <animateTransform id="" attributeName="transform" type="rotate" dur="3.5s" values="10 452 0;-2.8 452 0;10 452 0" repeatCount="indefinite" additive="sum"/>
  </use>
</g>
<g transform="translate(191,138)">
  <use xlink:href="#trophy" />
</g>
<g transform="translate(226,39)">
  <use xlink:href="#baseball">
    <animateTransform id="throwballin" attributeName="transform" type="translate" fill="freeze" dur=".3" values="350,0;75,0;0,0" begin="0;throwballout.end+1" repeatCount="0" additive="sum"/>
    <animateTransform id="spinball" attributeName="transform" type="rotate" dur=".3" values="270 48.9 49.1;0 48.9 49.1" repeatCount="0" begin="0s" additive="sum"/>
  </use>
</g>

<g transform="translate(227,37)">
<use xlink:href="#star1" visibility="hidden">
  <set attributeName="visibility" from="hidden" to="visible" begin="throwballin.end" />
  <animateTransform attributeName="transform" type="rotate" dur=".6s" values="0 5 5;360 5 5" repeatCount="0" begin="fadestar3.end;"/>
  <animate id="fadestar1" attributeName="opacity" values="0;1;0" dur=".6s" repeatCount="0" begin="0s;fadestar3.end" fill="freeze"/>
</use>
</g>
<g transform="translate(244,86)">
<use xlink:href="#star2" visibility="hidden">
  <set attributeName="visibility" from="hidden" to="visible" begin="fadestar1.end" />
  <animateTransform attributeName="transform" type="rotate" dur=".6s" values="0 6.7 7;360 6.7 7" repeatCount="0" begin="fadestar1.end-.25"/>
  <animate id="fadestar2" attributeName="opacity" values="0;1;0" dur=".6s" repeatCount="0" fill="freeze" begin="fadestar1.end-.25"/>
</use>
</g>
<g transform="translate(307,63)">
  <use xlink:href="#star3" visibility="hidden">
    <set attributeName="visibility" from="hidden" to="visible" begin="fadestar2.end" />
    <animateTransform attributeName="transform" type="rotate" dur=".6s" values="0 9.15 9.5;360 9.15 9.5" repeatCount="0" begin="fadestar2.end-.25"/>
    <animate id="fadestar3" attributeName="opacity" values="0;1;0" dur=".6s" repeatCount="0" fill="freeze" begin="fadestar2.end-.25"/>
  </use>
</g>
</g>
</svg>
