<?xml version="1.0" encoding="utf-8"?>
<svg version="1.1" xmlns="http://www.w3.org/2000/svg" xmlns:xlink="http://www.w3.org/1999/xlink" x="0px" y="0px"
   viewBox="0 0 550 309" enable-background="new 0 0 550 309" xml:space="preserve">
<defs>
<rect id="bg" x="0" y="0" height="309" width="550" fill="#0e1741" />
<g id="handle">
  <g>
    <path fill="#A88800" d="M48.8,0.6v13c0,9.2-7.5,16.7-16.7,16.7H21.6c-9.2,0-16.7-7.5-16.7-16.7v-13L0,0v14.7
      c0,10.8,8.8,19.6,19.6,19.6h14.6c10.8,0,19.6-8.8,19.6-19.6V0L48.8,0.6z"/>
    <path fill="#FFCE04" d="M21.6,30.3h10.5c9.2,0,16.7-4.6,16.7-16.7v-13h-3.9v14c0,5.9-4.8,10.7-10.7,10.7H19.6
      c-5.9,0-10.7-4.8-10.7-10.7v-14H4.9v13C4.9,24.8,12.4,30.3,21.6,30.3z"/>
  </g>
</g>
<g id="hinge">
  <g>
    <polygon fill="#CCA500" points="27.6,0 36.3,21.6 18.1,21.6 18.1,0     "/>
    <polygon fill="#FFCE04" points="8.6,0 0,21.6 18.1,21.6 21.4,0     "/>
    <polygon fill="#FFFFFF" points="8.6,0 27.6,0 28.6,2.5 10.4,3.5 3.7,19.1 0,21.6    "/>
  </g>
</g>
<g id="medallion">
  <path fill="#8C722C" d="M156,46.9c-7.5-13.7-18.8-25-32.6-32.4c-3-1.6-6.1-3-9.4-4.3c-4.6-1.8-9.4-3.1-14.4-4
  C95,5.4,90.3,4.9,85.4,4.9C41,4.9,5.1,40.9,5.1,85.3c0,4.9,0.4,9.6,1.3,14.3c0.9,5,2.2,9.8,4,14.4c1.2,3.2,2.7,6.3,4.3,9.4
  c7.4,13.8,18.7,25.1,32.4,32.6c11.4,6.2,24.5,9.8,38.4,9.8c44.4,0,80.4-36,80.4-80.4C165.8,71.4,162.2,58.3,156,46.9z"/>
<path fill="#FECF0C" d="M80.4,0C36,0,0,36,0,80.4c0,4.9,0.4,9.6,1.3,14.3L94.6,1.3C90,0.4,85.2,0,80.4,0z"/>
<path fill="#FECF0C" d="M118.4,9.5c-3-1.6-6.1-3-9.4-4.3L5.3,109c1.2,3.2,2.7,6.3,4.3,9.4L118.4,9.5z"/>
<path fill="#FECF0C" d="M94.6,1.3L1.3,94.6c0.9,5,2.2,9.8,4,14.4L109,5.3"/>
<path fill="#FECF0C" d="M41.9,150.9c11.4,6.2,24.5,9.8,38.4,9.8c44.4,0,80.4-36,80.4-80.4c0-13.9-3.5-27-9.8-38.4L41.9,150.9z"/>
<path fill="#FEE992" d="M118.4,9.5L9.5,118.4c7.4,13.8,18.7,25.1,32.4,32.6l109-109C143.5,28.2,132.1,16.9,118.4,9.5z"/>
<circle fill="#CBA62C" cx="79.9" cy="80.6" r="74.9"/>
<path fill="#A7892F" d="M132.9,27.6l-106,106c29.3,29.3,76.7,29.3,106,0C162.2,104.4,162.2,56.9,132.9,27.6z"/>
<path fill="#E9BD1F" d="M79.9,11c-38.4,0-69.6,31.2-69.6,69.6c0,9.3,1.8,18.2,5.1,26.3l90.7-90.7C98.1,12.9,89.2,11,79.9,11z"/>
<path fill="#E9BD1F" d="M38.4,136.5c11.6,8.6,25.9,13.7,41.5,13.7c38.4,0,69.6-31.2,69.6-69.6c0-15.6-5.1-29.9-13.7-41.5L38.4,136.5
  z"/>
<path fill="#DCB427" d="M106.2,16.2l-90.7,90.7c4.8,11.8,12.8,22.1,22.9,29.6l97.4-97.4C128.2,29,118,21,106.2,16.2z"/>
<path fill="#FFFFFF" d="M104.9,19.5c12.4,5.1,23.1,13.4,31,24c6.9,9.2,11.6,20.2,13.5,32.1c-1-13.6-5.8-26.2-13.5-36.5
  C128.3,29,118.1,21,106.2,16.2C98.1,12.9,89.2,11,80,11c-17.8,0-34,6.7-46.3,17.7C45.8,19.6,61,14.1,77.4,14.1
  C87.1,14.1,96.4,16.1,104.9,19.5z"/>
<path fill="#FEE992" d="M54.8,142.2c-12.4-5.1-23.1-13.4-31-24c-6.9-9.2-11.6-20.2-13.5-32.1c1,13.6,5.8,26.2,13.5,36.5
  c7.5,10.1,17.8,18.1,29.6,22.9c8.1,3.3,17,5.1,26.3,5.1c17.8,0,34-6.7,46.3-17.7c-12.2,9.1-27.3,14.6-43.7,14.6
  C72.6,147.5,63.3,145.6,54.8,142.2z"/>
<path fill="#121841" d="M128.3,107.3c0-0.5,0-1-0.1-1.4c0-0.1,0-0.2,0-0.2c0,0,0-0.1,0-0.1c0-0.5-0.1-1-0.2-1.4c0-0.1,0-0.2,0-0.2
  c-0.1-0.4-0.1-0.7-0.2-1.1c0-0.1-0.1-0.3-0.1-0.4c-0.1-0.3-0.2-0.6-0.3-0.8c0-0.1-0.1-0.2-0.1-0.3c-0.1-0.4-0.3-0.7-0.4-1.1
  c0,0,0,0,0,0c-0.2-0.3-0.3-0.6-0.5-1c-0.1-0.1-0.1-0.2-0.2-0.3c-0.1-0.2-0.3-0.4-0.4-0.6c-0.1-0.1-0.1-0.2-0.2-0.3
  c-0.2-0.2-0.3-0.4-0.5-0.6c0,0-0.1-0.1-0.1-0.1c-0.2-0.2-0.4-0.5-0.6-0.7c0,0,0,0,0,0c0,0-0.1,0-0.1-0.1c-0.3-0.3-0.5-0.5-0.8-0.8
  l0,0l-7.2-6.4c0,0,0.6,2.1,0,0c0.6,2.2-3.3-2.1-3.5-2.2c3.5,3.6,4,8.4,1.1,11.9c-3.5,2.7-7.2,3.8-10.9,3.9l0.2-0.2
  c-0.7,0.1-1.5,0.1-2.3,0.1c-0.3,0-0.6,0-0.8,0c-7.7-0.7-15.6-4.6-22.8-4.6c-0.4,0-0.9,0-1.3,0c0,0,0,0,0,0c0.5-0.3,1-0.7,1.6-1
  c0.1,0,0.2-0.1,0.2-0.1c0.5-0.3,0.9-0.6,1.4-0.8c0.1-0.1,0.3-0.2,0.4-0.2c0.5-0.3,1.1-0.6,1.6-0.9c0.1,0,0.1-0.1,0.2-0.1
  c0.5-0.3,1-0.5,1.5-0.8c0.1-0.1,0.3-0.1,0.4-0.2c0.6-0.3,1.1-0.5,1.7-0.8c0,0,0,0,0.1,0c0.6-0.2,1.1-0.5,1.7-0.7
  c0.1-0.1,0.3-0.1,0.4-0.2c0.6-0.2,1.1-0.5,1.7-0.7c0,0,0,0,0,0c0.6-0.3,1.3-0.5,1.9-0.8c0.1-0.1,0.3-0.1,0.4-0.2l0,0
  c0.1-0.1,0.3-0.1,0.4-0.2c0.2-0.1,0.5-0.2,0.7-0.3c0.1,0,0.1-0.1,0.2-0.1c0.1,0,0.1,0,0.2-0.1c0.6-0.2,1.1-0.5,1.6-0.7
  c0.1,0,0.2-0.1,0.3-0.1c0,0,0.1,0,0.1-0.1c0.1,0,0.2-0.1,0.3-0.1c0.4-0.2,0.7-0.3,1.1-0.5c0.1,0,0.1,0,0.2-0.1c0,0,0.1,0,0.1,0
  c0.5-0.2,1.1-0.5,1.6-0.7c0.1-0.1,0.3-0.1,0.4-0.2c0.5-0.2,0.9-0.4,1.3-0.7c0,0,0.1,0,0.1-0.1c0,0,0.1,0,0.1-0.1
  c0.5-0.3,1-0.5,1.5-0.8c0.1-0.1,0.2-0.1,0.4-0.2c0.2-0.1,0.4-0.2,0.5-0.3c0.2-0.1,0.5-0.3,0.7-0.4c0.1-0.1,0.2-0.1,0.3-0.2
  c0.3-0.2,0.6-0.4,0.9-0.6c0.2-0.1,0.3-0.2,0.5-0.3c0.1-0.1,0.2-0.1,0.3-0.2c0.4-0.3,0.8-0.6,1.1-0.8c0.1-0.1,0.2-0.2,0.3-0.2
  c0.4-0.3,0.9-0.7,1.3-1.1c0,0,0,0,0,0c0.1-0.1,0.2-0.1,0.2-0.2c0.1-0.1,0.2-0.2,0.3-0.3c0.1-0.1,0.2-0.2,0.3-0.3
  c0.1-0.1,0.1-0.1,0.2-0.2c0-0.1,0.1-0.1,0.1-0.2c0.2-0.2,0.4-0.4,0.6-0.7c0.1-0.1,0.2-0.3,0.3-0.4c0.1-0.1,0.2-0.2,0.3-0.3
  c0.2-0.2,0.4-0.5,0.6-0.7l0,0c0,0,0,0,0,0c0.1-0.1,0.2-0.3,0.3-0.4c0.1-0.2,0.2-0.4,0.4-0.5c0.1-0.1,0.2-0.3,0.3-0.4
  c0.3-0.5,0.6-1,0.9-1.6c0,0,0,0,0-0.1c0.4-0.7,0.7-1.4,1-2.1c0.1-0.2,0.2-0.4,0.3-0.6c0.2-0.4,0.4-0.9,0.5-1.3c0-0.1,0-0.1,0.1-0.2
  c0.1-0.3,0.2-0.5,0.3-0.8c0.2-0.5,0.3-0.9,0.4-1.4c0.1-0.3,0.2-0.6,0.2-0.8c0.1-0.3,0.1-0.5,0.2-0.8c0-0.2,0.1-0.4,0.1-0.6
  c0.1-0.3,0.1-0.6,0.2-0.9c0.1-0.4,0.1-0.8,0.2-1.3c0-0.3,0.1-0.6,0.1-0.9c0-0.1,0-0.3,0.1-0.4c0-0.2,0-0.4,0-0.7
  c0-0.4,0.1-0.8,0.1-1.3c0-0.4,0-0.7,0-1.1c0-0.4,0-0.8,0-1.2c0-0.2,0-0.3,0-0.5c0-0.2-0.1-0.4-0.1-0.6c0-0.3-0.1-0.6-0.1-0.9
  c-0.1-0.4-0.1-0.8-0.2-1.2c-0.1-0.3-0.1-0.6-0.2-0.9c-0.1-0.4-0.2-0.8-0.3-1.2c-0.1-0.3-0.2-0.6-0.3-0.9c-0.1-0.4-0.3-0.8-0.4-1.2
  c-0.1-0.3-0.2-0.5-0.3-0.8c-0.2-0.4-0.4-0.8-0.6-1.2c-0.1-0.2-0.2-0.5-0.3-0.7c-0.2-0.5-0.5-0.9-0.8-1.3c-0.1-0.2-0.2-0.3-0.3-0.5
  c-0.4-0.6-0.8-1.2-1.2-1.7c-0.1-0.1-0.2-0.3-0.3-0.4c-0.3-0.4-0.6-0.8-1-1.2c0,0-0.1-0.1-0.1-0.1c-0.5-0.6-1.1-1.1-1.7-1.7l-7.2-6.4
  c0.1,0.1,0.2,0.2,0.3,0.3c0,0-0.1-0.1-0.1-0.1c-0.2-0.2-0.4-0.4-0.6-0.5c-0.2-0.2-0.5-0.4-0.7-0.6c-0.2-0.2-0.4-0.3-0.6-0.5
  c-0.4-0.3-0.7-0.5-1.1-0.8c-0.2-0.1-0.4-0.3-0.7-0.4c-0.4-0.2-0.7-0.5-1.1-0.7c-0.2-0.1-0.4-0.2-0.6-0.3c-0.3-0.2-0.7-0.4-1-0.5
  c-0.2-0.1-0.4-0.2-0.7-0.3c-0.4-0.2-0.9-0.4-1.3-0.6c-0.1-0.1-0.3-0.1-0.4-0.2c-0.6-0.2-1.2-0.5-1.8-0.7c-0.2-0.1-0.4-0.1-0.6-0.2
  c-0.5-0.1-0.9-0.3-1.4-0.4c-0.2-0.1-0.5-0.1-0.7-0.2c-0.5-0.1-1-0.2-1.5-0.4c-0.2,0-0.4-0.1-0.6-0.1c-0.7-0.1-1.4-0.3-2.2-0.4
  c-0.2,0-0.3,0-0.5-0.1c-0.6-0.1-1.2-0.2-1.8-0.2c-0.3,0-0.5,0-0.8-0.1c-0.6-0.1-1.1-0.1-1.7-0.1c-0.2,0-0.5,0-0.7,0
  c-0.8,0-1.7-0.1-2.5-0.1h0l0,0h0c-0.6,0-1.3,0-1.9,0.1c-0.2,0-0.4,0-0.6,0c-0.4,0-0.8,0.1-1.3,0.1c-0.2,0-0.4,0.1-0.7,0.1
  c-0.4,0-0.8,0.1-1.1,0.2c-0.2,0-0.4,0.1-0.7,0.1c-0.4,0.1-0.8,0.1-1.1,0.2c-0.2,0-0.4,0.1-0.6,0.1c-0.5,0.1-0.9,0.2-1.4,0.4
  c-0.1,0-0.2,0-0.3,0.1c-0.5,0.2-1.1,0.3-1.6,0.5c-0.2,0.1-0.3,0.1-0.4,0.2c-0.4,0.1-0.7,0.3-1.1,0.4c-0.2,0.1-0.4,0.2-0.5,0.2
  c-0.3,0.1-0.6,0.3-0.9,0.4c-0.2,0.1-0.4,0.2-0.5,0.3c-0.3,0.2-0.6,0.3-0.9,0.5c-0.2,0.1-0.3,0.2-0.5,0.3c-0.3,0.2-0.6,0.4-0.9,0.6
  c-0.1,0.1-0.2,0.2-0.4,0.2c-0.4,0.3-0.8,0.6-1.2,0.8c-0.1,0.1-0.2,0.2-0.4,0.3c-0.3,0.2-0.5,0.4-0.8,0.6c-0.2,0.1-0.3,0.3-0.4,0.4
  c-0.2,0.2-0.4,0.4-0.6,0.6c-0.2,0.1-0.3,0.3-0.4,0.4c-0.2,0.2-0.4,0.4-0.6,0.6c-0.1,0.1-0.3,0.3-0.4,0.5c-0.2,0.2-0.4,0.4-0.5,0.6
  c-0.1,0.1-0.3,0.3-0.4,0.4c-0.2,0.3-0.5,0.6-0.7,0.9c-0.1,0.2-0.3,0.4-0.4,0.6c-0.2,0.2-0.3,0.4-0.4,0.7c-0.1,0.2-0.2,0.4-0.3,0.6
  c-0.1,0.2-0.2,0.4-0.3,0.6c-0.1,0.2-0.2,0.4-0.3,0.6c-0.1,0.2-0.2,0.4-0.3,0.6c-0.1,0.2-0.2,0.4-0.3,0.6c-0.1,0.2-0.2,0.4-0.2,0.5
  c-0.1,0.2-0.2,0.4-0.3,0.6c-0.1,0.2-0.1,0.3-0.2,0.5c-0.2,0.4-0.3,0.9-0.5,1.4c0,0.1-0.1,0.3-0.1,0.4c-0.1,0.2-0.1,0.5-0.2,0.7
  c0,0.2-0.1,0.3-0.1,0.5c-0.1,0.2-0.1,0.5-0.1,0.7c0,0.2-0.1,0.3-0.1,0.5c0,0.2-0.1,0.5-0.1,0.7c0,0.2,0,0.3,0,0.5
  c0,0.2,0,0.5-0.1,0.7c0,0.1,0,0.3,0,0.4c-0.1,2.8,0.5,5.5,1.8,7.8c0.7,1.3,1.6,2.3,2.5,3.1c0,0,0,0-0.1,0l0,0l0,0l7.2,6.4
  c0.3,0.2,0.6,0.5,0.9,0.7c0.9,0.6,1.9,1.1,2.9,1.5c0.3,0.1,0.7,0.2,1,0.3c1,0.3,2.1,0.4,3.2,0.4c0.4,0,0.8,0,1.2-0.1
  c0.1,0,0.2,0,0.4,0c0.3,0,0.5-0.1,0.8-0.1c0.1,0,0.3-0.1,0.4-0.1c0.3-0.1,0.5-0.1,0.8-0.2c0.1,0,0.1,0,0.2-0.1c0.1,0,0.1,0,0.2-0.1
  c0.1,0,0.2-0.1,0.3-0.1c0.2-0.1,0.4-0.1,0.7-0.2c0,0,0.1,0,0.1,0c0.4-0.1,0.7-0.3,1.1-0.5c0,0,0.1,0,0.1-0.1c0.1,0,0.1-0.1,0.2-0.1
  c0.2-0.1,0.5-0.3,0.7-0.4c0.1-0.1,0.2-0.2,0.4-0.2c0.2-0.2,0.4-0.3,0.7-0.5c0.1-0.1,0.2-0.2,0.3-0.3c0.1,0,0.1-0.1,0.1-0.1
  c0.2-0.2,0.4-0.4,0.6-0.5c0,0,0.1-0.1,0.1-0.1c0,0,0,0,0,0c0.1-0.1,0.2-0.2,0.2-0.3c0.2-0.2,0.3-0.3,0.5-0.5
  c0.1-0.1,0.2-0.2,0.3-0.3c0.1-0.1,0.2-0.3,0.3-0.4c0,0,0-0.1,0-0.1c0.3-0.4,0.5-0.8,0.8-1.2c0,0,0-0.1,0.1-0.1
  c0-0.1,0.1-0.1,0.1-0.2c0.2-0.3,0.3-0.7,0.4-1c0-0.1,0.1-0.1,0.1-0.2c0,0,0-0.1,0-0.1c0.2-0.4,0.3-0.9,0.4-1.4c0,0,0-0.1,0-0.1
  c0-0.1,0-0.1,0-0.2c0.1-0.3,0.1-0.5,0.2-0.8c0-0.1,0-0.2,0.1-0.3c0-0.2,0.1-0.4,0.1-0.6c0-0.1,0-0.1,0-0.2c0,0,0-0.1,0-0.1
  c0-0.3,0-0.5,0-0.8c0-0.1,0-0.1,0-0.2c0-0.3,0-0.6,0-0.9c0,0,0,0,0-0.1c0-0.1,0-0.1,0-0.2c0-0.2,0-0.3-0.1-0.5c0-0.1,0-0.2,0-0.3
  c0-0.1-0.1-0.3-0.1-0.4c0-0.1,0-0.2-0.1-0.3c0-0.1-0.1-0.3-0.1-0.4c0-0.1-0.1-0.2-0.1-0.2c0-0.1-0.1-0.3-0.2-0.4
  c0-0.1-0.1-0.1-0.1-0.2c-0.1-0.2-0.2-0.3-0.2-0.5c0,0,0-0.1,0-0.1c-0.1-0.2-0.2-0.3-0.3-0.5c0,0-0.1-0.1-0.1-0.1
  c-0.1-0.1-0.2-0.2-0.2-0.3c0-0.1-0.1-0.1-0.1-0.2c-0.1-0.1-0.2-0.2-0.2-0.3c0,0,0,0-0.1-0.1c0,0,0,0-0.1-0.1
  c-0.2-0.2-0.3-0.3-0.5-0.5l-4.7-4.1c0.1-0.1,0.1-0.2,0.2-0.3c0,0,0.1-0.1,0.1-0.1c0.1-0.1,0.2-0.3,0.4-0.4c0.1-0.1,0.1-0.1,0.2-0.2
  c0.1-0.1,0.2-0.3,0.4-0.4c0.1-0.1,0.1-0.2,0.2-0.2c0.1-0.1,0.2-0.2,0.3-0.3c0.1-0.1,0.3-0.3,0.4-0.4c0.1-0.1,0.2-0.2,0.4-0.3
  c0.2-0.1,0.3-0.3,0.5-0.4c0.1-0.1,0.3-0.2,0.4-0.3c0.2-0.1,0.4-0.3,0.5-0.4c0.1-0.1,0.3-0.2,0.5-0.3c0.2-0.1,0.4-0.2,0.6-0.3
  c0.2-0.1,0.3-0.2,0.5-0.3c0.2-0.1,0.5-0.2,0.7-0.3c0.2-0.1,0.3-0.1,0.5-0.2c0.3-0.1,0.5-0.2,0.8-0.2c0.2-0.1,0.3-0.1,0.5-0.2
  c0.3-0.1,0.6-0.1,0.9-0.2c0.2,0,0.3-0.1,0.5-0.1c0.5-0.1,1-0.1,1.5-0.1c1.4,0,2.8,0.2,4.4,0.7c0,0,0,0,0,0c0.1,0.2,0.2,0.5,0.3,0.7
  c0,0,0,0,0,0.1c0.1,0.2,0.2,0.4,0.2,0.7c0,0,0,0.1,0,0.1c0.1,0.5,0.3,1,0.4,1.6c0,0,0,0.1,0,0.1c0,0.3,0.1,0.5,0.1,0.8
  c1,8.8-5.2,22.3-25.9,37.1c-27.4,19.6-17.7,42.2-17.3,43.3l0,0l7.2,6.4c0.3-0.3,0.6-0.7,0.9-1c0.1-0.1,0.2-0.2,0.3-0.3
  c0.2-0.2,0.4-0.4,0.6-0.6c0.1-0.1,0.3-0.2,0.4-0.4c0.2-0.2,0.3-0.3,0.5-0.5c0.1-0.1,0.2-0.2,0.4-0.3c0.2-0.2,0.3-0.3,0.5-0.4
  c0.1-0.1,0.2-0.2,0.4-0.3c0.2-0.1,0.3-0.3,0.5-0.4c0.1-0.1,0.2-0.2,0.3-0.3c0.2-0.1,0.4-0.3,0.5-0.4c0.1-0.1,0.2-0.1,0.3-0.2
  c0.2-0.2,0.4-0.3,0.7-0.4c0,0,0.1-0.1,0.1-0.1c0.3-0.2,0.5-0.3,0.8-0.5c0.1,0,0.1-0.1,0.2-0.1c0.2-0.1,0.4-0.2,0.5-0.3
  c0.1,0,0.2-0.1,0.3-0.1c0.2-0.1,0.3-0.1,0.5-0.2c0.1,0,0.2-0.1,0.3-0.1c0.1-0.1,0.3-0.1,0.4-0.2c0.1,0,0.2-0.1,0.3-0.1
  c0.1,0,0.3-0.1,0.4-0.1c0.1,0,0.2-0.1,0.3-0.1c0.1,0,0.3-0.1,0.4-0.1c0.1,0,0.2,0,0.3-0.1c0.1,0,0.3-0.1,0.4-0.1c0.1,0,0.2,0,0.3,0
  c0.2,0,0.3,0,0.5,0c0.1,0,0.1,0,0.2,0c0.2,0,0.5,0,0.7,0c6,0,11.4,4.8,19.7,7.3c3,0.9,6.3,1.5,10.1,1.5c0.7,0,1.4,0,2.1,0
  c0.2,0,0.4,0,0.7,0c0.5,0,0.9,0,1.4-0.1c0.3,0,0.5,0,0.8-0.1c0.4,0,0.8-0.1,1.2-0.1c0.3,0,0.5-0.1,0.8-0.1c0.4,0,0.7-0.1,1.1-0.1
  c0.3,0,0.5-0.1,0.8-0.1c0.3-0.1,0.7-0.1,1-0.2c0.2,0,0.5-0.1,0.7-0.1c0.3-0.1,0.6-0.1,1-0.2c0.2-0.1,0.5-0.1,0.7-0.2
  c0.3-0.1,0.6-0.2,0.9-0.2c0.2-0.1,0.4-0.1,0.6-0.2c0.3-0.1,0.6-0.2,0.9-0.3c0.2-0.1,0.4-0.1,0.6-0.2c0.3-0.1,0.6-0.2,1-0.3
  c0.1-0.1,0.3-0.1,0.4-0.2c0.5-0.2,0.9-0.4,1.3-0.6c0,0,0.1,0,0.1,0c0.4-0.2,0.8-0.4,1.2-0.6c0.1-0.1,0.3-0.1,0.4-0.2
  c0.3-0.1,0.5-0.3,0.8-0.4c0.2-0.1,0.3-0.2,0.4-0.3c0.2-0.1,0.5-0.3,0.7-0.4c0.2-0.1,0.3-0.2,0.4-0.3c0.2-0.1,0.4-0.3,0.6-0.4
  c0.1-0.1,0.3-0.2,0.4-0.3c0.2-0.2,0.4-0.3,0.6-0.5c0.1-0.1,0.3-0.2,0.4-0.4c0.2-0.2,0.4-0.3,0.5-0.5c0.1-0.1,0.2-0.1,0.2-0.2
  c0,0,0.1-0.1,0.1-0.1c0.3-0.4,0.7-0.7,1-1.1c0,0,0.1-0.1,0.1-0.1c0.3-0.4,0.6-0.7,0.8-1.1c0-0.1,0.1-0.1,0.1-0.2
  c0-0.1,0.1-0.1,0.1-0.2c0.2-0.3,0.4-0.6,0.6-0.9c0.1-0.1,0.1-0.2,0.2-0.3c0.2-0.4,0.5-0.8,0.7-1.2c0,0,0,0,0,0
  c0-0.1,0.1-0.1,0.1-0.2c0.2-0.4,0.4-0.7,0.5-1.1c0.1-0.1,0.1-0.3,0.2-0.4c0.2-0.4,0.3-0.7,0.4-1.1c0-0.1,0.1-0.1,0.1-0.2
  c0,0,0,0,0-0.1c0.2-0.5,0.4-1.1,0.6-1.6c0-0.1,0.1-0.2,0.1-0.4c0.2-0.6,0.3-1.1,0.5-1.7c0,0,0,0,0,0c0-0.1,0-0.1,0-0.2
  c0.1-0.5,0.2-0.9,0.3-1.4c0-0.1,0.1-0.3,0.1-0.4c0.1-0.5,0.2-1.1,0.3-1.6c0.1-0.4,0.1-0.9,0.2-1.3c0,0,0-0.1,0-0.1
  c0.1-0.6,0.1-1.3,0.1-1.8C128.3,107.6,128.3,107.5,128.3,107.3z M121,99.2C121,99.2,121,99.2,121,99.2c0,0.1,0,0.1,0,0.1
  C121,99.3,121,99.2,121,99.2z M120.8,97.8C120.8,97.8,120.8,97.7,120.8,97.8C120.8,97.7,120.8,97.8,120.8,97.8
  C120.8,97.8,120.8,97.8,120.8,97.8z M120.1,94.9C120.1,94.9,120.1,94.9,120.1,94.9C120.1,94.9,120.1,94.9,120.1,94.9
  C120.1,94.9,120.1,94.9,120.1,94.9z M119.7,93.9C119.7,93.9,119.7,93.9,119.7,93.9C119.7,93.9,119.7,93.9,119.7,93.9
  C119.7,93.8,119.7,93.8,119.7,93.9C119.7,93.9,119.7,93.9,119.7,93.9z M119.2,92.9C119.2,92.9,119.2,92.9,119.2,92.9L119.2,92.9
  L119.2,92.9z M118,91.1c0,0-0.1-0.1-0.1-0.1c0,0,0,0,0,0C117.9,91,118,91.1,118,91.1z M87,127.9c-0.1,0-0.1,0-0.2,0
  C86.9,127.9,87,127.9,87,127.9z M55.9,108.3C55.9,108.3,55.9,108.3,55.9,108.3c0.5-1.4,1.1-2.7,1.8-4c-0.1,0.3-0.3,0.6-0.4,0.8
  c-0.1,0.3-0.3,0.6-0.4,0.8c-0.2,0.5-0.5,1-0.7,1.6C56.1,107.8,56,108,55.9,108.3z M57.8,104c0.7-1.3,1.4-2.5,2.2-3.6
  c-0.1,0.2-0.2,0.4-0.4,0.5c-0.2,0.3-0.4,0.6-0.6,0.8c-0.2,0.4-0.5,0.7-0.7,1.1c-0.2,0.3-0.3,0.6-0.5,0.9
  C57.9,103.9,57.8,103.9,57.8,104z M60.1,100.3c1-1.4,2.1-2.7,3.3-3.8c-0.1,0.1-0.2,0.2-0.3,0.4c-0.4,0.4-0.8,0.8-1.1,1.2
  c-0.2,0.2-0.4,0.5-0.6,0.7c-0.3,0.4-0.6,0.8-1,1.2C60.3,100.1,60.2,100.2,60.1,100.3z M73,51.9c0,0.1,0,0.1,0,0.2c0,0,0,0,0,0.1
  C72.9,52.1,72.9,52,73,51.9C73,51.9,73,51.9,73,51.9C73,51.8,73,51.9,73,51.9z M72.9,53C72.9,53,72.9,53,72.9,53
  C72.9,53,72.9,53,72.9,53C72.9,53,72.9,53,72.9,53z M72.8,53.7C72.8,53.7,72.8,53.7,72.8,53.7C72.8,53.8,72.8,53.8,72.8,53.7
  C72.8,53.8,72.8,53.7,72.8,53.7C72.8,53.7,72.8,53.7,72.8,53.7z M58.8,64.9C58.8,64.9,58.8,64.9,58.8,64.9
  C58.8,64.9,58.7,64.9,58.8,64.9C58.7,64.9,58.7,64.9,58.8,64.9z M67.1,62.8C67.1,62.8,67.1,62.8,67.1,62.8
  C67,62.8,67,62.8,67.1,62.8C67.1,62.8,67.1,62.8,67.1,62.8z M69.3,61L69.3,61C69.3,61,69.3,61,69.3,61C69.3,61,69.3,61,69.3,61z
   M70.6,59.5L70.6,59.5c-0.1,0.2-0.2,0.3-0.4,0.5c0,0,0,0,0,0C70.4,59.8,70.5,59.6,70.6,59.5z M72,56.8c0,0,0,0.1,0,0.1c0,0,0,0,0,0
  C72,56.9,72,56.8,72,56.8z M72.6,54.8C72.6,54.8,72.6,54.9,72.6,54.8c0,0.2,0,0.2-0.1,0.3C72.6,55,72.6,54.9,72.6,54.8z M70.1,37.2
  c-0.2,0.1-0.3,0.2-0.5,0.3c-0.2,0.1-0.4,0.2-0.5,0.4c-0.1,0.1-0.3,0.2-0.4,0.3c-0.2,0.1-0.3,0.3-0.5,0.4c0.7-0.6,1.6-1.2,2.5-1.7
  C70.5,37,70.3,37.1,70.1,37.2z M67.9,38.9c-0.2,0.1-0.3,0.3-0.4,0.4c0.2-0.2,0.4-0.4,0.6-0.6C68,38.8,67.9,38.9,67.9,38.9z
   M66.9,39.9c0,0.1-0.1,0.1-0.1,0.2c0.1-0.1,0.2-0.3,0.4-0.4C67,39.8,66.9,39.8,66.9,39.9z M65.2,42c0,0-0.1,0.1-0.1,0.1
  c0.1-0.1,0.2-0.3,0.3-0.4C65.3,41.8,65.3,41.9,65.2,42z M65.8,41.1c0,0,0.1-0.1,0.1-0.1C65.9,41,65.9,41.1,65.8,41.1z M66.3,40.5
  c0.1-0.1,0.1-0.1,0.2-0.2C66.4,40.4,66.4,40.5,66.3,40.5z M64.6,42.9C64.6,42.9,64.6,42.9,64.6,42.9C64.6,42.9,64.6,42.9,64.6,42.9
  L64.6,42.9z M64.8,42.7C64.8,42.6,64.8,42.6,64.8,42.7C64.8,42.6,64.8,42.6,64.8,42.7z M64.9,42.4c0-0.1,0.1-0.1,0.1-0.2
  C65,42.3,65,42.3,64.9,42.4z M55.8,64.3c0,0-0.1,0-0.1,0c0,0-0.1,0-0.1,0C55.6,64.2,55.7,64.2,55.8,64.3z M53.5,63.2
  c0.1,0,0.2,0.1,0.2,0.1C53.7,63.3,53.6,63.3,53.5,63.2z M56.5,64.5C56.5,64.5,56.5,64.5,56.5,64.5c0.1,0,0.1,0,0.2,0.1
  c0,0,0,0-0.1,0C56.6,64.5,56.5,64.5,56.5,64.5z M57.8,64.8c0,0-0.1,0-0.1,0c0,0,0,0-0.1,0C57.7,64.7,57.8,64.8,57.8,64.8z
   M72.7,49.7c0,0,0-0.1,0-0.1C72.7,49.6,72.7,49.6,72.7,49.7C72.7,49.6,72.7,49.7,72.7,49.7C72.7,49.7,72.7,49.7,72.7,49.7z
   M72.5,48.9C72.5,48.9,72.5,48.9,72.5,48.9C72.5,48.9,72.5,48.9,72.5,48.9C72.5,48.9,72.5,48.9,72.5,48.9z M71.2,36.7
  c0.2-0.1,0.4-0.2,0.7-0.3C71.7,36.5,71.5,36.5,71.2,36.7z M75.3,35.5c-0.1,0-0.1,0-0.2,0C75.2,35.5,75.3,35.5,75.3,35.5z
   M109.5,57.4C109.5,57.4,109.5,57.4,109.5,57.4c0,0.1,0,0.1,0,0.1C109.5,57.4,109.5,57.4,109.5,57.4z M108.5,62.5c0,0.1,0,0.1,0,0.2
  c0,0.1,0,0.1,0,0.2C108.4,62.7,108.5,62.6,108.5,62.5z M107.9,64.5c0,0.1-0.1,0.2-0.1,0.4c0,0.1,0,0.1-0.1,0.2
  C107.7,64.8,107.8,64.6,107.9,64.5z M107.1,66.5c-0.1,0.2-0.1,0.3-0.2,0.5c0,0,0,0.1-0.1,0.1C106.9,66.9,107,66.7,107.1,66.5z
   M109,48.7c0-0.1,0-0.1,0-0.2C109,48.6,109,48.6,109,48.7C109,48.7,109,48.7,109,48.7z M108.5,46.8c0-0.1-0.1-0.2-0.1-0.3
  c0,0,0,0.1,0,0.1C108.4,46.7,108.5,46.8,108.5,46.8z M107.8,44.9c0-0.1-0.1-0.2-0.1-0.2c0,0,0,0,0,0
  C107.7,44.7,107.8,44.8,107.8,44.9z M105.8,41.1c-0.1-0.1-0.2-0.3-0.3-0.4c0,0,0,0,0,0c0.1,0.1,0.1,0.2,0.2,0.3
  C105.8,41,105.8,41,105.8,41.1z M104.7,39.4C104.7,39.4,104.7,39.4,104.7,39.4c-0.1-0.2-0.3-0.3-0.4-0.5c0,0,0,0,0,0
  c0.1,0.1,0.2,0.2,0.3,0.3C104.6,39.3,104.6,39.4,104.7,39.4z M103.3,37.8c-0.1-0.2-0.3-0.3-0.5-0.5c0.1,0.1,0.2,0.2,0.3,0.3
  C103.2,37.7,103.2,37.7,103.3,37.8z M101.8,36.3c0.2,0.2,0.4,0.4,0.6,0.6c-0.1-0.1-0.2-0.2-0.3-0.3C102,36.5,101.9,36.4,101.8,36.3z
   M52.9,62.8c0,0-0.1-0.1-0.1-0.1c0,0,0,0,0,0C52.7,62.7,52.8,62.8,52.9,62.8z M72.9,51.2c0-0.1,0-0.2,0-0.3c0,0,0,0.1,0,0.1
  C72.9,51.1,72.9,51.1,72.9,51.2z M72.9,50.4c0-0.1,0-0.2,0-0.2c0,0,0,0.1,0,0.1C72.8,50.3,72.9,50.4,72.9,50.4z M72.4,36.1
  c0.3-0.1,0.7-0.2,1.1-0.3c-0.1,0-0.2,0.1-0.3,0.1C72.9,36,72.7,36.1,72.4,36.1z M73.7,35.8c0.3-0.1,0.6-0.1,0.9-0.2
  C74.4,35.6,74,35.7,73.7,35.8z M82.5,36.7c-0.4-0.2-0.7-0.3-1.1-0.4C81.8,36.4,82.2,36.5,82.5,36.7c0.1,0,0.1,0.1,0.2,0.1
  c0.2,0.1,0.4,0.2,0.6,0.3c0,0,0,0,0.1,0c0.2,0.1,0.4,0.2,0.6,0.3c0,0,0,0,0,0c0.2,0.1,0.4,0.2,0.5,0.4c0,0,0.1,0,0.1,0.1
  c0.4,0.3,0.7,0.6,1.1,0.9c0,0,0.1,0,0.1,0.1c0.2,0.1,0.3,0.3,0.4,0.5c0,0,0,0,0,0c0.1,0.1,0.2,0.2,0.3,0.3l-1.8-1.6
  C84.1,37.5,83.4,37,82.5,36.7z M83.6,84.7c-0.6,0.2-1.2,0.5-1.7,0.7c0,0,0,0-0.1,0c-0.5,0.2-1.1,0.5-1.6,0.7
  c-0.2,0.1-0.3,0.1-0.5,0.2c-0.6,0.2-1.1,0.5-1.7,0.7c0,0,0,0-0.1,0c-0.6,0.3-1.1,0.5-1.7,0.8c-0.1,0.1-0.3,0.1-0.4,0.2
  c-0.5,0.2-1,0.5-1.5,0.8c-0.1,0-0.1,0.1-0.2,0.1c-0.6,0.3-1.1,0.6-1.6,0.9c-0.1,0.1-0.3,0.2-0.4,0.2c-0.5,0.3-1,0.5-1.4,0.8
  c-0.1,0-0.2,0.1-0.2,0.1c-0.5,0.3-1.1,0.7-1.6,1c-0.1,0.1-0.3,0.2-0.4,0.3c-0.4,0.3-0.9,0.6-1.3,0.9c-0.1,0.1-0.2,0.1-0.3,0.2
  c-0.5,0.4-1,0.8-1.5,1.2c-0.1,0.1-0.2,0.2-0.3,0.3c-0.4,0.4-0.8,0.7-1.2,1.1c-0.1,0.1-0.2,0.2-0.3,0.3c0,0,0,0,0,0
  C69.2,90.6,76.5,87.6,83.6,84.7z M55.8,108.5c-0.3,0.7-0.5,1.5-0.8,2.2c0,0,0,0,0,0C55.2,110,55.5,109.3,55.8,108.5z M52.6,121.3
  c0,0-0.1,0.1-0.1,0.1C52.5,121.4,52.5,121.4,52.6,121.3z M51.8,121.9c-0.1,0.1-0.2,0.1-0.3,0.2C51.6,122,51.7,122,51.8,121.9z
   M50.1,123.2c-0.1,0.1-0.2,0.2-0.4,0.3C49.9,123.4,50,123.3,50.1,123.2z M48.3,124.8c-0.1,0.1-0.2,0.2-0.4,0.4
  C48.1,125,48.2,124.9,48.3,124.8z M47,126.1c0.1-0.1,0.3-0.3,0.4-0.4c-0.1,0.1-0.2,0.2-0.3,0.3C47,126.1,47,126.1,47,126.1z
   M48.9,124.3c0.3-0.3,0.5-0.5,0.8-0.7c-0.2,0.1-0.3,0.3-0.5,0.4C49.1,124,49,124.1,48.9,124.3z M50.5,122.9c0.2-0.1,0.3-0.2,0.5-0.4
  c-0.1,0.1-0.2,0.2-0.3,0.3C50.6,122.8,50.5,122.8,50.5,122.9z M53.3,120.9c0,0-0.1,0.1-0.1,0.1c0.1-0.1,0.2-0.1,0.3-0.2
  C53.5,120.8,53.4,120.8,53.3,120.9z M54.1,120.5c0,0-0.1,0.1-0.1,0.1c0.1-0.1,0.3-0.1,0.4-0.2C54.3,120.4,54.2,120.4,54.1,120.5z
   M54.4,120.3c0.2-0.1,0.5-0.2,0.7-0.3c-0.1,0-0.2,0.1-0.3,0.1C54.7,120.2,54.6,120.2,54.4,120.3z M56.3,119.6
  c-0.1,0-0.3,0.1-0.4,0.1c-0.1,0-0.2,0.1-0.3,0.1c0.3-0.1,0.7-0.2,1-0.3C56.6,119.5,56.4,119.5,56.3,119.6z M57.1,119.4
  c0.1,0,0.2,0,0.3-0.1C57.3,119.3,57.2,119.4,57.1,119.4z M58.1,119.2c-0.1,0-0.2,0-0.3,0C57.9,119.2,58.1,119.2,58.1,119.2
  C58.1,119.2,58.1,119.2,58.1,119.2z M58.8,119.1c-0.1,0-0.1,0-0.2,0c0.2,0,0.4,0,0.6,0C59,119.1,58.9,119.1,58.8,119.1z M59.5,119.1
  L59.5,119.1c0.3,0,0.7,0,1,0.1C60.2,119.1,59.8,119.1,59.5,119.1z M60.8,119.2c0.3,0,0.7,0.1,1,0.1
  C61.4,119.3,61.1,119.2,60.8,119.2z M61.9,119.4c0.3,0.1,0.6,0.1,0.9,0.2C62.5,119.5,62.2,119.4,61.9,119.4z M63.1,119.7
  c0.3,0.1,0.7,0.2,1,0.3C63.7,119.8,63.4,119.7,63.1,119.7z M64.3,120c0.3,0.1,0.5,0.2,0.8,0.3C64.8,120.2,64.6,120.1,64.3,120z
   M65.4,120.5c0.3,0.1,0.6,0.3,0.9,0.4C66,120.7,65.7,120.6,65.4,120.5z M67.4,121.3c-0.2-0.1-0.4-0.2-0.6-0.3
  C66.9,121.1,67.2,121.2,67.4,121.3z M80.4,126.8L80.4,126.8L80.4,126.8L80.4,126.8z M84.7,127.6c-0.1,0-0.1,0-0.2,0
  C84.6,127.6,84.7,127.6,84.7,127.6z M82.5,127.3c0,0-0.1,0-0.1,0C82.4,127.3,82.5,127.3,82.5,127.3z M91.5,127.9c0.1,0,0.3,0,0.4,0
  C91.7,127.9,91.6,127.9,91.5,127.9L91.5,127.9z M96.1,127.6C96.1,127.6,96.2,127.6,96.1,127.6L96.1,127.6
  C96.2,127.6,96.1,127.6,96.1,127.6z M109.6,123.5C109.6,123.5,109.6,123.5,109.6,123.5c0.2-0.1,0.3-0.2,0.4-0.3c0,0,0,0,0,0
  C109.9,123.3,109.8,123.4,109.6,123.5z M111,122.6c0.1,0,0.1-0.1,0.2-0.1c0,0,0,0,0,0C111.1,122.5,111.1,122.6,111,122.6z
   M112.9,121.1c0.1-0.1,0.2-0.2,0.3-0.3c0,0,0,0,0,0C113.1,121,113,121,112.9,121.1z M113.7,120.4
  C113.7,120.4,113.7,120.4,113.7,120.4c0.1-0.1,0.2-0.2,0.3-0.3c0,0,0,0,0,0C114,120.2,113.8,120.3,113.7,120.4z M116,117.8
  C116,117.8,116,117.8,116,117.8c0.1-0.1,0.2-0.2,0.2-0.3l0,0C116.2,117.5,116.1,117.6,116,117.8z M116.8,116.6
  C116.8,116.6,116.8,116.6,116.8,116.6c0,0,0-0.1,0.1-0.1C116.9,116.5,116.8,116.5,116.8,116.6z M118.5,113.4
  C118.5,113.4,118.5,113.4,118.5,113.4L118.5,113.4C118.5,113.4,118.5,113.4,118.5,113.4z M119,112.1C119,112,119,112,119,112.1
  L119,112.1C119,112,119,112,119,112.1z M120.2,108.3C120.2,108.3,120.2,108.3,120.2,108.3C120.2,108.3,120.2,108.3,120.2,108.3
  C120.2,108.3,120.2,108.3,120.2,108.3z M120.5,106.7L120.5,106.7c0-0.1,0.1-0.3,0.1-0.4c0,0,0,0,0,0
  C120.6,106.4,120.5,106.5,120.5,106.7z M120.8,104.6C120.8,104.6,120.8,104.6,120.8,104.6C120.8,104.6,120.8,104.6,120.8,104.6
  C120.8,104.6,120.8,104.6,120.8,104.6C120.8,104.6,120.8,104.6,120.8,104.6z"/>
<g>
  <g>
    <g>
      <path fill="#B68D2E" d="M61,66c0.4,0,0.8,0,1.2-0.1c0.1,0,0.2,0,0.4,0c0.3,0,0.5-0.1,0.8-0.1c0.1,0,0.3-0.1,0.4-0.1
        c0.3-0.1,0.5-0.1,0.8-0.2c0.1,0,0.3-0.1,0.4-0.1c0.3-0.1,0.7-0.2,1-0.3c0,0,0.1,0,0.1,0c0.4-0.1,0.7-0.3,1.1-0.5
        c0.1-0.1,0.2-0.1,0.3-0.2c0.2-0.1,0.5-0.3,0.7-0.4c0.1-0.1,0.2-0.2,0.4-0.2c0.2-0.2,0.4-0.3,0.7-0.5c0.1-0.1,0.2-0.2,0.3-0.3
        c0.3-0.2,0.5-0.4,0.7-0.7c0,0,0.1-0.1,0.1-0.1c0,0,0,0,0,0c0.1-0.1,0.2-0.2,0.2-0.3c0.2-0.2,0.3-0.3,0.5-0.5
        c0.1-0.1,0.2-0.2,0.3-0.3c0.1-0.1,0.2-0.3,0.3-0.4c0,0,0-0.1,0-0.1c0.3-0.4,0.5-0.8,0.8-1.2c0,0,0-0.1,0.1-0.1
        c0-0.1,0.1-0.1,0.1-0.2c0.2-0.3,0.3-0.7,0.4-1c0-0.1,0.1-0.1,0.1-0.2c0,0,0-0.1,0-0.1c0.2-0.4,0.3-0.9,0.4-1.4c0,0,0-0.1,0-0.1
        c0-0.1,0-0.1,0-0.2c0.1-0.3,0.1-0.5,0.2-0.8c0-0.1,0-0.2,0.1-0.3c0-0.2,0.1-0.4,0.1-0.6c0-0.1,0-0.1,0-0.2c0,0,0-0.1,0-0.1
        c0-0.3,0-0.5,0-0.8c0-0.1,0-0.1,0-0.2c0-0.3,0-0.6,0-0.9c0,0,0,0,0-0.1c0-0.1,0-0.1,0-0.2c0-0.2,0-0.3-0.1-0.5c0-0.1,0-0.2,0-0.3
        c0-0.1-0.1-0.3-0.1-0.4c0-0.1,0-0.2-0.1-0.3c0-0.1-0.1-0.3-0.1-0.4c0-0.1-0.1-0.2-0.1-0.2c0-0.1-0.1-0.3-0.2-0.4
        c0-0.1-0.1-0.1-0.1-0.2c-0.1-0.2-0.2-0.3-0.2-0.5c0,0,0-0.1,0-0.1c-0.1-0.2-0.2-0.3-0.3-0.5c0,0-0.1-0.1-0.1-0.1
        c-0.1-0.1-0.2-0.2-0.2-0.3c0-0.1-0.1-0.1-0.1-0.2c-0.1-0.1-0.2-0.2-0.2-0.3c0,0,0,0-0.1-0.1c0,0,0,0-0.1-0.1
        c-0.2-0.2-0.3-0.3-0.5-0.5l-4.7-4.1c0.1-0.1,0.1-0.2,0.2-0.3c0,0,0.1-0.1,0.1-0.1c0.1-0.1,0.2-0.3,0.4-0.4
        c0.1-0.1,0.1-0.1,0.2-0.2c0.1-0.1,0.2-0.3,0.4-0.4c0.1-0.1,0.1-0.2,0.2-0.2c0.1-0.1,0.2-0.2,0.3-0.3c0.1-0.1,0.3-0.3,0.4-0.4
        c0.1-0.1,0.2-0.2,0.4-0.3c0.2-0.1,0.3-0.3,0.5-0.4c0.1-0.1,0.3-0.2,0.4-0.3c0.2-0.1,0.4-0.3,0.5-0.4c0.1-0.1,0.3-0.2,0.5-0.3
        c0.2-0.1,0.4-0.2,0.6-0.3c0.2-0.1,0.3-0.2,0.5-0.3c0.2-0.1,0.5-0.2,0.7-0.3c0.2-0.1,0.3-0.1,0.5-0.2c0.3-0.1,0.5-0.2,0.8-0.2
        c0.2-0.1,0.3-0.1,0.5-0.2c0.3-0.1,0.6-0.1,0.9-0.2c0.2,0,0.3-0.1,0.5-0.1c0.5-0.1,1-0.1,1.5-0.1c1.8,0,3.7,0.4,5.9,1.3
        c0.8,0.4,1.6,0.8,2.2,1.4L79,32.6c-0.6-0.6-1.7-0.9-2.5-1.2c-2.1-0.9-4.1-1.3-5.9-1.3c-0.5,0-1,0-1.5,0.1c-0.2,0-0.3,0.1-0.5,0.1
        c-0.3,0-0.6,0.1-0.9,0.2c-0.2,0-0.4,0.1-0.5,0.2c-0.3,0.1-0.5,0.1-0.8,0.2C66.2,30.9,66,31,65.9,31c-0.2,0.1-0.5,0.2-0.7,0.3
        c-0.2,0.1-0.3,0.2-0.5,0.3c-0.2,0.1-0.4,0.2-0.6,0.3c-0.2,0.1-0.3,0.2-0.5,0.3c-0.2,0.1-0.4,0.2-0.5,0.4
        c-0.1,0.1-0.3,0.2-0.4,0.3c-0.2,0.1-0.3,0.3-0.5,0.4c-0.1,0.1-0.2,0.2-0.4,0.3c-0.2,0.1-0.3,0.3-0.4,0.4
        c-0.1,0.1-0.1,0.1-0.2,0.2c0,0-0.1,0.1-0.1,0.1c-0.1,0.1-0.1,0.2-0.2,0.2c-0.1,0.1-0.3,0.3-0.4,0.4c-0.1,0.1-0.1,0.1-0.2,0.2
        c-0.1,0.2-0.2,0.3-0.4,0.4c0,0-0.1,0.1-0.1,0.1c-0.1,0.2-0.3,0.4-0.4,0.5c0,0,0,0,0,0c-0.1,0.1-0.1,0.2-0.2,0.3
        c0,0.1-0.1,0.1-0.1,0.2c-0.1,0.1-0.1,0.2-0.2,0.3c0,0-0.1,0.1-0.1,0.1c-0.1,0.1-0.1,0.2-0.1,0.2c0,0,0,0.1,0,0.1
        c0,0.1-0.1,0.1-0.1,0.2l7.2,6.4c0,0,0-0.1,0.1-0.2c0,0,0,0,0-0.1c0-0.1,0.1-0.1,0.1-0.2c0,0,0.1-0.1,0.1-0.1
        c0.1-0.1,0.1-0.2,0.2-0.3c0,0,0-0.1,0.1-0.1c0,0.1,0.1,0.2,0.1,0.2c0,0.1,0.1,0.2,0.1,0.2c0,0.1,0.1,0.3,0.1,0.4
        c0,0.1,0,0.2,0.1,0.3c0,0.1,0.1,0.3,0.1,0.4c0,0.1,0,0.2,0,0.3c0,0.2,0,0.3,0.1,0.5c0,0.1,0,0.2,0,0.3c0,0.3,0,0.6,0,0.9
        c0,0.1,0,0.1,0,0.2c0,0.2,0,0.5,0,0.7c0,0.1,0,0.2,0,0.3c0,0.2,0,0.4-0.1,0.6c0,0.1,0,0.2-0.1,0.3c0,0.3-0.1,0.5-0.2,0.8
        c0,0.1,0,0.2-0.1,0.3c-0.1,0.5-0.3,0.9-0.4,1.4c0,0.1-0.1,0.2-0.1,0.4c-0.1,0.3-0.3,0.7-0.4,1c-0.1,0.1-0.1,0.2-0.2,0.3
        c-0.2,0.4-0.5,0.8-0.8,1.2c-0.1,0.2-0.2,0.3-0.4,0.5c-0.1,0.1-0.2,0.2-0.3,0.3c-0.2,0.2-0.3,0.4-0.5,0.5
        c-0.1,0.1-0.1,0.2-0.2,0.2c-0.1,0.1-0.1,0.1-0.2,0.2c-0.2,0.2-0.5,0.5-0.7,0.7c-0.1,0.1-0.2,0.2-0.3,0.3
        c-0.2,0.2-0.4,0.3-0.7,0.5c-0.1,0.1-0.2,0.2-0.4,0.2c-0.2,0.2-0.5,0.3-0.7,0.4c-0.1,0.1-0.2,0.1-0.3,0.2
        c-0.4,0.2-0.7,0.4-1.1,0.5c0,0-0.1,0-0.1,0c-0.3,0.1-0.7,0.2-1,0.3c-0.1,0-0.2,0.1-0.4,0.1c-0.3,0.1-0.5,0.1-0.8,0.2
        c-0.1,0-0.3,0.1-0.4,0.1c-0.3,0-0.5,0.1-0.8,0.1c-0.1,0-0.2,0-0.4,0c-0.4,0-0.8,0.1-1.2,0.1c-1.4,0-2.9-0.2-4.2-0.7
        c-1.3-0.5-2.6-1.2-3.7-2.2l7.2,6.4C55.3,65,58.1,66,61,66z"/>
      <path fill="#B68D2E" d="M85.1,76.2c-0.5,0.2-1.1,0.5-1.6,0.7c-0.1,0-0.2,0.1-0.3,0.1c-0.5,0.2-1,0.4-1.5,0.6
        c-0.1,0.1-0.3,0.1-0.4,0.2c-0.6,0.2-1.1,0.5-1.7,0.7c-0.1,0-0.1,0.1-0.2,0.1c-0.6,0.2-1.2,0.5-1.8,0.7c-0.6,0.2-1.2,0.5-1.8,0.8
        c0,0,0,0-0.1,0c-0.5,0.2-1.1,0.5-1.6,0.7C74,80.9,73.8,81,73.7,81c-0.6,0.2-1.1,0.5-1.7,0.7c0,0,0,0-0.1,0
        c-0.6,0.3-1.1,0.5-1.7,0.8c-0.1,0.1-0.3,0.1-0.4,0.2c-0.5,0.2-1,0.5-1.5,0.8c-0.1,0-0.1,0.1-0.2,0.1c-0.6,0.3-1.1,0.6-1.6,0.9
        c-0.1,0.1-0.3,0.2-0.4,0.2c-0.5,0.3-1,0.5-1.4,0.8c-0.1,0-0.2,0.1-0.2,0.1c-0.5,0.3-1.1,0.7-1.6,1c-0.1,0.1-0.3,0.2-0.4,0.3
        c-0.4,0.3-0.9,0.6-1.3,0.9c-0.1,0.1-0.2,0.1-0.3,0.2c-0.5,0.4-1,0.8-1.5,1.2c-0.1,0.1-0.2,0.2-0.3,0.3c-0.4,0.4-0.8,0.7-1.2,1.1
        c-0.1,0.1-0.2,0.2-0.3,0.3c0,0-0.1,0.1-0.1,0.1c-0.1,0.1-0.3,0.3-0.4,0.4c-0.4,0.4-0.8,0.8-1.1,1.2c-0.2,0.2-0.4,0.5-0.6,0.7
        c-0.3,0.4-0.6,0.8-1,1.2c-0.1,0.1-0.2,0.2-0.3,0.4c-0.1,0.2-0.3,0.4-0.4,0.6c-0.2,0.3-0.4,0.6-0.6,0.8c-0.2,0.4-0.5,0.7-0.7,1.1
        c-0.2,0.3-0.3,0.6-0.5,0.9c-0.1,0.1-0.1,0.2-0.2,0.3c-0.2,0.3-0.3,0.6-0.5,1c-0.1,0.3-0.3,0.6-0.4,0.8c-0.2,0.5-0.5,1-0.7,1.6
        c-0.1,0.2-0.2,0.5-0.3,0.7c0,0,0,0.1,0,0.1c-0.3,0.8-0.6,1.6-0.8,2.4c0,0,0,0,0,0l7.2,6.4c0.3-0.9,0.6-1.7,0.9-2.5
        c0.1-0.3,0.2-0.5,0.3-0.7c0.2-0.5,0.4-1.1,0.7-1.6c0.1-0.3,0.3-0.6,0.4-0.8c0.2-0.4,0.4-0.9,0.7-1.3c0.2-0.3,0.3-0.6,0.5-0.9
        c0.2-0.4,0.4-0.8,0.7-1.1c0.2-0.3,0.4-0.6,0.6-0.8c0.2-0.3,0.4-0.6,0.7-0.9c0.3-0.4,0.6-0.8,1-1.2c0.2-0.2,0.4-0.5,0.6-0.7
        c0.4-0.4,0.7-0.8,1.1-1.2c0.2-0.2,0.4-0.4,0.6-0.6c0.1-0.1,0.2-0.2,0.3-0.3c0.4-0.4,0.8-0.7,1.2-1.1c0.1-0.1,0.2-0.2,0.3-0.3
        c0.5-0.4,1-0.8,1.5-1.2c0.1-0.1,0.2-0.1,0.3-0.2c0.4-0.3,0.9-0.6,1.3-0.9c0.1-0.1,0.3-0.2,0.4-0.3c0.5-0.3,1-0.7,1.6-1
        c0.1,0,0.2-0.1,0.2-0.1c0.5-0.3,0.9-0.6,1.4-0.8c0.1-0.1,0.3-0.2,0.4-0.2c0.5-0.3,1.1-0.6,1.6-0.9c0.1,0,0.1-0.1,0.2-0.1
        c0.5-0.3,1-0.5,1.5-0.8c0.1-0.1,0.3-0.1,0.4-0.2c0.6-0.3,1.1-0.5,1.7-0.8c0,0,0,0,0.1,0c0.6-0.2,1.1-0.5,1.7-0.7
        c0.1-0.1,0.3-0.1,0.4-0.2c0.6-0.2,1.1-0.5,1.7-0.7c0,0,0,0,0,0c0.6-0.3,1.3-0.5,1.9-0.8c0.5-0.2,1.1-0.4,1.6-0.7
        c0.1,0,0.2-0.1,0.4-0.1c0.6-0.2,1.1-0.5,1.6-0.7c0.1-0.1,0.3-0.1,0.4-0.2c0.5-0.2,1-0.4,1.4-0.6c0.1,0,0.2-0.1,0.3-0.1
        c0.5-0.2,1.1-0.5,1.6-0.7c0.1-0.1,0.3-0.1,0.4-0.2c0.5-0.2,0.9-0.4,1.3-0.7c0.1,0,0.2-0.1,0.3-0.1c0.5-0.3,1-0.5,1.5-0.8
        c0.1-0.1,0.2-0.1,0.4-0.2c0.4-0.2,0.8-0.5,1.2-0.7c0.1-0.1,0.2-0.1,0.3-0.2c0.5-0.3,0.9-0.6,1.4-0.9c0.1-0.1,0.2-0.1,0.3-0.2
        c0.4-0.3,0.8-0.6,1.1-0.8c0.1-0.1,0.2-0.2,0.3-0.2c0.4-0.3,0.9-0.7,1.3-1.1c0.1-0.1,0.2-0.2,0.2-0.2c0.2-0.2,0.4-0.3,0.6-0.5
        c0.1-0.1,0.2-0.2,0.3-0.3c0.2-0.2,0.4-0.4,0.6-0.7c0.2-0.2,0.4-0.5,0.6-0.7c0.2-0.2,0.4-0.5,0.6-0.7c0.1-0.1,0.2-0.3,0.3-0.4
        c0.1-0.2,0.2-0.4,0.4-0.5c0.1-0.1,0.2-0.3,0.3-0.4c0.3-0.5,0.6-1,0.9-1.6c0,0,0,0,0-0.1c0.4-0.7,0.7-1.4,1-2.1
        c0.1-0.2,0.2-0.4,0.3-0.6c0.2-0.4,0.4-0.9,0.5-1.3c0-0.1,0-0.1,0.1-0.2c0.1-0.3,0.2-0.5,0.3-0.8c0.2-0.5,0.3-0.9,0.4-1.4
        c0.1-0.3,0.2-0.6,0.2-0.8c0.1-0.3,0.1-0.5,0.2-0.8c0-0.2,0.1-0.4,0.1-0.6c0.1-0.3,0.1-0.6,0.2-0.9c0.1-0.4,0.1-0.8,0.2-1.3
        c0-0.3,0.1-0.6,0.1-0.9c0-0.1,0-0.3,0.1-0.4c0-0.2,0-0.4,0-0.7c0-0.4,0.1-0.8,0.1-1.3c0-0.4,0-0.7,0-1.1c0-0.4,0-0.8,0-1.2
        c0-0.2,0-0.3,0-0.5c0-0.2-0.1-0.4-0.1-0.6c0-0.3-0.1-0.6-0.1-0.9c-0.1-0.4-0.1-0.8-0.2-1.2c-0.1-0.3-0.1-0.6-0.2-0.9
        c-0.1-0.4-0.2-0.8-0.3-1.2c-0.1-0.3-0.2-0.6-0.3-0.9c-0.1-0.4-0.3-0.8-0.4-1.2c-0.1-0.3-0.2-0.5-0.3-0.8
        c-0.2-0.4-0.4-0.8-0.6-1.2c-0.1-0.2-0.2-0.5-0.3-0.7c-0.2-0.5-0.5-0.9-0.8-1.3c-0.1-0.2-0.2-0.3-0.3-0.5
        c-0.4-0.6-0.8-1.2-1.2-1.7c-0.1-0.1-0.2-0.3-0.3-0.4c-0.3-0.4-0.6-0.8-1-1.2c0,0-0.1-0.1-0.1-0.1c-0.5-0.6-1.1-1.1-1.7-1.7
        l-7.2-6.4c0.6,0.5,1.2,1.1,1.7,1.7c0.4,0.4,0.7,0.8,1.1,1.2c0.1,0.1,0.2,0.3,0.3,0.4c0.4,0.6,0.9,1.1,1.2,1.7
        c0.1,0.2,0.2,0.3,0.3,0.5c0.3,0.4,0.5,0.9,0.8,1.3c0.1,0.2,0.2,0.5,0.3,0.7c0.2,0.4,0.4,0.8,0.6,1.2c0.1,0.3,0.2,0.5,0.3,0.8
        c0.1,0.4,0.3,0.8,0.4,1.2c0.1,0.3,0.2,0.6,0.3,0.9c0.1,0.4,0.2,0.8,0.3,1.2c0.1,0.3,0.1,0.6,0.2,0.9c0.1,0.4,0.1,0.8,0.2,1.2
        c0,0.3,0.1,0.6,0.1,0.9c0,0.4,0.1,0.7,0.1,1.1c0,0.4,0,0.8,0,1.2c0,0.3,0,0.7,0,1.1c0,0.4,0,0.8-0.1,1.3c0,0.4,0,0.7-0.1,1.1
        c0,0.3-0.1,0.6-0.1,0.9c-0.1,0.4-0.1,0.8-0.2,1.3c-0.1,0.3-0.1,0.6-0.2,0.9c-0.1,0.4-0.2,0.9-0.3,1.3c-0.1,0.3-0.1,0.6-0.2,0.8
        c-0.1,0.5-0.3,0.9-0.4,1.4c-0.1,0.3-0.2,0.5-0.3,0.8c-0.2,0.5-0.4,1-0.6,1.5c-0.1,0.2-0.2,0.4-0.3,0.6c-0.3,0.7-0.7,1.5-1.1,2.2
        c-0.3,0.5-0.6,1.1-0.9,1.6c-0.1,0.1-0.2,0.3-0.3,0.4c-0.2,0.3-0.4,0.6-0.7,0.9c-0.2,0.3-0.4,0.5-0.6,0.7
        c-0.2,0.3-0.4,0.5-0.6,0.7c-0.2,0.2-0.4,0.5-0.6,0.7c-0.3,0.3-0.6,0.6-0.9,0.9C95.1,69.9,95,70,94.9,70c-0.4,0.4-0.8,0.7-1.3,1.1
        c-0.1,0.1-0.2,0.2-0.3,0.2c-0.4,0.3-0.7,0.6-1.1,0.8c-0.1,0.1-0.2,0.1-0.3,0.2c-0.5,0.3-0.9,0.6-1.4,0.9
        c-0.1,0.1-0.2,0.1-0.3,0.2c-0.4,0.2-0.8,0.5-1.2,0.7c-0.1,0.1-0.2,0.1-0.4,0.2c-0.5,0.3-1,0.5-1.5,0.8c-0.1,0-0.2,0.1-0.3,0.1
        c-0.4,0.2-0.9,0.4-1.3,0.7C85.3,76.1,85.2,76.2,85.1,76.2z"/>
    </g>
  </g>
</g>
<path fill="#A97F2C" d="M86.9,84.9c0.6-0.2,1.1-0.5,1.6-0.7c0.1-0.1,0.3-0.1,0.4-0.2c0.5-0.2,1-0.4,1.4-0.6c0.1,0,0.2-0.1,0.3-0.1
  c0.5-0.2,1.1-0.5,1.6-0.7c0.1-0.1,0.3-0.1,0.4-0.2c0.5-0.2,0.9-0.4,1.3-0.7c0.1,0,0.2-0.1,0.3-0.1c0.5-0.3,1-0.5,1.5-0.8
  c0.1-0.1,0.2-0.1,0.4-0.2c0.4-0.2,0.8-0.5,1.2-0.7c0.1-0.1,0.2-0.1,0.3-0.2c0.5-0.3,0.9-0.6,1.4-0.9c0.1-0.1,0.2-0.1,0.3-0.2
  c0.4-0.3,0.8-0.6,1.1-0.8c0.1-0.1,0.2-0.2,0.3-0.2c0.4-0.3,0.9-0.7,1.3-1.1c0.1-0.1,0.2-0.2,0.2-0.2c0.2-0.2,0.4-0.3,0.6-0.5
  c0.1-0.1,0.2-0.2,0.3-0.3c0.2-0.2,0.4-0.4,0.6-0.7c0.2-0.2,0.4-0.5,0.6-0.7c0.2-0.2,0.4-0.5,0.6-0.7l-6.8-6.9
  c-0.1,0.2-0.3,0.4-0.4,0.6c-0.2,0.3-0.4,0.5-0.6,0.7c-0.2,0.3-0.4,0.5-0.6,0.7c-0.2,0.2-0.4,0.5-0.6,0.7c-0.3,0.3-0.6,0.6-0.9,0.9
  C95.1,69.9,95,70,94.9,70c-0.4,0.4-0.8,0.7-1.3,1.1c-0.1,0.1-0.2,0.2-0.3,0.2c-0.4,0.3-0.7,0.6-1.1,0.8c-0.1,0.1-0.2,0.1-0.3,0.2
  c-0.5,0.3-0.9,0.6-1.4,0.9c-0.1,0.1-0.2,0.1-0.3,0.2c-0.4,0.2-0.8,0.5-1.2,0.7c-0.1,0.1-0.2,0.1-0.4,0.2c-0.5,0.3-1,0.5-1.5,0.8
  c-0.1,0-0.2,0.1-0.3,0.1c-0.4,0.2-0.9,0.4-1.3,0.7c-0.1,0.1-0.3,0.1-0.4,0.2c-0.5,0.2-1.1,0.5-1.6,0.7c-0.1,0-0.2,0.1-0.3,0.1
  c-0.5,0.2-1,0.4-1.5,0.6c-0.1,0.1-0.3,0.1-0.4,0.2c-0.6,0.2-1.1,0.5-1.7,0.7c-0.1,0-0.1,0.1-0.2,0.1c0,0-0.1,0-0.1,0l6,6.8
  c0.4-0.2,0.8-0.3,1.2-0.5C86.6,85,86.8,85,86.9,84.9z"/>
<path fill="#A97F2C" d="M62,56.8c-0.2,0.2-0.4,0.3-0.7,0.5c-0.1,0.1-0.2,0.2-0.4,0.2c-0.2,0.2-0.5,0.3-0.7,0.4
  c-0.1,0.1-0.2,0.1-0.3,0.2c-0.4,0.2-0.7,0.4-1.1,0.5c0,0-0.1,0-0.1,0c-0.3,0.1-0.7,0.2-1,0.3c-0.1,0-0.2,0.1-0.4,0.1
  c-0.3,0.1-0.5,0.1-0.8,0.2c-0.1,0-0.3,0.1-0.4,0.1c-0.3,0-0.5,0.1-0.8,0.1c-0.1,0-0.2,0-0.4,0c-0.4,0-0.8,0.1-1.2,0.1
  c-1.4,0-2.9-0.2-4.2-0.7c-1.3-0.5-2.6-1.2-3.7-2.2l7.2,6.4c2.2,2,5.1,2.9,7.9,2.9c0.4,0,0.8,0,1.2-0.1c0.1,0,0.2,0,0.4,0
  c0.3,0,0.5-0.1,0.8-0.1c0.1,0,0.3-0.1,0.4-0.1c0.3-0.1,0.5-0.1,0.8-0.2c0.1,0,0.3-0.1,0.4-0.1c0.3-0.1,0.7-0.2,1-0.3
  c0,0,0.1,0,0.1,0c0.4-0.1,0.7-0.3,1.1-0.5c0.1-0.1,0.2-0.1,0.3-0.2c0.2-0.1,0.5-0.3,0.7-0.4c0.1-0.1,0.2-0.2,0.4-0.2
  c0.2-0.2,0.4-0.3,0.7-0.5c0.1-0.1,0.2-0.2,0.3-0.3c0.1-0.1,0.2-0.2,0.3-0.2L63,55.9c-0.2,0.2-0.5,0.4-0.7,0.6
  C62.2,56.6,62.1,56.7,62,56.8z"/>
<path fill="#B68D2E" d="M122.2,102c0-0.5,0-1-0.1-1.4c0-0.1,0-0.2,0-0.2c0,0,0-0.1,0-0.1c0-0.5-0.1-1-0.2-1.4c0-0.1,0-0.2,0-0.2
  c-0.1-0.4-0.1-0.7-0.2-1.1c0-0.1-0.1-0.3-0.1-0.4c-0.1-0.3-0.2-0.6-0.3-0.8c0-0.1-0.1-0.2-0.1-0.3c-0.1-0.4-0.3-0.7-0.4-1.1
  c0,0,0,0,0,0c-0.2-0.3-0.3-0.6-0.5-1c-0.1-0.1-0.1-0.2-0.2-0.3c-0.1-0.2-0.3-0.4-0.4-0.6c-0.1-0.1-0.1-0.2-0.2-0.3
  c-0.2-0.2-0.3-0.4-0.5-0.6c0,0-0.1-0.1-0.1-0.1c-0.2-0.2-0.4-0.5-0.6-0.7c0,0,0,0,0,0c0,0-0.1,0-0.1-0.1c-0.3-0.3-0.5-0.5-0.8-0.8
  l0,0l-5.9-5.2l0.2,0.5c0,0,0.1,0.1,0.1,0.1c0.2,0.2,0.3,0.4,0.5,0.6c0.1,0.1,0.1,0.2,0.2,0.3c0.1,0.2,0.3,0.4,0.4,0.6
  c0.1,0.1,0.1,0.2,0.2,0.3c0.2,0.3,0.3,0.6,0.5,1c0,0,0,0,0,0c0.2,0.3,0.3,0.7,0.4,1.1c0,0.1,0.1,0.2,0.1,0.3
  c0.1,0.3,0.2,0.6,0.3,0.8c0,0.1,0.1,0.3,0.1,0.4c0.1,0.3,0.2,0.7,0.2,1.1c0,0.1,0,0.2,0,0.2c0.1,0.4,0.1,0.9,0.2,1.4
  c0,0.1,0,0.2,0,0.3c0,0.5,0,0.9,0.1,1.4c0,0.1,0,0.3,0,0.4c0,0.6,0,1.2-0.1,1.8c0,0.5-0.1,0.9-0.2,1.4c-0.1,0.6-0.2,1.1-0.3,1.6
  c0,0.1-0.1,0.3-0.1,0.4c-0.1,0.5-0.2,0.9-0.3,1.4c0,0.1,0,0.2-0.1,0.2c-0.1,0.6-0.3,1.2-0.5,1.7c0,0.1-0.1,0.2-0.1,0.4
  c-0.2,0.6-0.4,1.1-0.5,1.6c0,0.1-0.1,0.2-0.1,0.3c-0.1,0.4-0.3,0.7-0.4,1.1c-0.1,0.1-0.1,0.3-0.2,0.4c-0.2,0.4-0.3,0.7-0.5,1.1
  c0,0.1-0.1,0.1-0.1,0.2c-0.2,0.4-0.4,0.8-0.7,1.2c-0.1,0.1-0.1,0.2-0.2,0.3c-0.2,0.3-0.4,0.6-0.6,0.9c-0.1,0.1-0.2,0.2-0.2,0.3
  c-0.3,0.4-0.5,0.7-0.8,1.1c0,0-0.1,0.1-0.1,0.1c-0.3,0.4-0.7,0.7-1,1.1c-0.1,0.1-0.2,0.2-0.3,0.3c-0.2,0.2-0.3,0.3-0.5,0.5
  c-0.1,0.1-0.3,0.2-0.4,0.4c-0.2,0.2-0.4,0.3-0.6,0.5c-0.1,0.1-0.3,0.2-0.4,0.3c-0.2,0.2-0.4,0.3-0.6,0.4c-0.1,0.1-0.3,0.2-0.4,0.3
  c-0.2,0.1-0.4,0.3-0.7,0.4c-0.1,0.1-0.3,0.2-0.4,0.3c-0.3,0.2-0.5,0.3-0.8,0.4c-0.1,0.1-0.3,0.2-0.4,0.2c-0.4,0.2-0.8,0.4-1.2,0.6
  c0,0-0.1,0-0.1,0c-0.4,0.2-0.9,0.4-1.3,0.6c-0.1,0.1-0.3,0.1-0.4,0.2c-0.3,0.1-0.6,0.2-1,0.3c-0.2,0.1-0.4,0.1-0.6,0.2
  c-0.3,0.1-0.6,0.2-0.9,0.3c-0.2,0.1-0.4,0.1-0.6,0.2c-0.3,0.1-0.6,0.2-0.9,0.2c-0.2,0.1-0.5,0.1-0.7,0.2c-0.3,0.1-0.6,0.1-1,0.2
  c-0.2,0-0.5,0.1-0.7,0.1c-0.3,0.1-0.7,0.1-1,0.2c-0.3,0-0.5,0.1-0.8,0.1c-0.4,0-0.7,0.1-1.1,0.1c-0.3,0-0.5,0.1-0.8,0.1
  c-0.4,0-0.8,0.1-1.2,0.1c-0.3,0-0.5,0-0.8,0.1c-0.4,0-0.9,0-1.4,0.1c-0.2,0-0.4,0-0.7,0c-0.7,0-1.4,0-2.1,0c-3.4,0-6.3-0.5-9-1.2
  l6,6c3,0.9,6.3,1.5,10.1,1.5c0.7,0,1.4,0,2.1,0c0.2,0,0.4,0,0.7,0c0.5,0,0.9,0,1.4-0.1c0.3,0,0.5,0,0.8-0.1c0.4,0,0.8-0.1,1.2-0.1
  c0.3,0,0.5-0.1,0.8-0.1c0.4,0,0.7-0.1,1.1-0.1c0.3,0,0.5-0.1,0.8-0.1c0.3-0.1,0.7-0.1,1-0.2c0.2,0,0.5-0.1,0.7-0.1
  c0.3-0.1,0.6-0.1,1-0.2c0.2-0.1,0.5-0.1,0.7-0.2c0.3-0.1,0.6-0.2,0.9-0.2c0.2-0.1,0.4-0.1,0.6-0.2c0.3-0.1,0.6-0.2,0.9-0.3
  c0.2-0.1,0.4-0.1,0.6-0.2c0.3-0.1,0.6-0.2,1-0.3c0.1-0.1,0.3-0.1,0.4-0.2c0.5-0.2,0.9-0.4,1.3-0.6c0,0,0.1,0,0.1,0
  c0.4-0.2,0.8-0.4,1.2-0.6c0.1-0.1,0.3-0.1,0.4-0.2c0.3-0.1,0.5-0.3,0.8-0.4c0.2-0.1,0.3-0.2,0.4-0.3c0.2-0.1,0.5-0.3,0.7-0.4
  c0.2-0.1,0.3-0.2,0.4-0.3c0.2-0.1,0.4-0.3,0.6-0.4c0.1-0.1,0.3-0.2,0.4-0.3c0.2-0.2,0.4-0.3,0.6-0.5c0.1-0.1,0.3-0.2,0.4-0.4
  c0.2-0.2,0.4-0.3,0.5-0.5c0.1-0.1,0.2-0.1,0.2-0.2c0,0,0.1-0.1,0.1-0.1c0.3-0.4,0.7-0.7,1-1.1c0,0,0.1-0.1,0.1-0.1
  c0.3-0.4,0.6-0.7,0.8-1.1c0-0.1,0.1-0.1,0.1-0.2c0-0.1,0.1-0.1,0.1-0.2c0.2-0.3,0.4-0.6,0.6-0.9c0.1-0.1,0.1-0.2,0.2-0.3
  c0.2-0.4,0.5-0.8,0.7-1.2c0,0,0,0,0,0c0-0.1,0.1-0.1,0.1-0.2c0.2-0.4,0.4-0.7,0.5-1.1c0.1-0.1,0.1-0.3,0.2-0.4
  c0.2-0.4,0.3-0.7,0.4-1.1c0-0.1,0.1-0.1,0.1-0.2c0,0,0,0,0-0.1c0.2-0.5,0.4-1.1,0.6-1.6c0-0.1,0.1-0.2,0.1-0.4
  c0.2-0.6,0.3-1.1,0.5-1.7c0,0,0,0,0,0c0-0.1,0-0.1,0-0.2c0.1-0.5,0.2-0.9,0.3-1.4c0-0.1,0.1-0.3,0.1-0.4c0.1-0.5,0.2-1.1,0.3-1.6
  c0.1-0.4,0.1-0.9,0.2-1.3c0,0,0-0.1,0-0.1c0.1-0.6,0.1-1.3,0.1-1.8C122.2,102.3,122.2,102.1,122.2,102z"/>
<path fill="#A97F2C" d="M53.4,113.8c-0.2,0-0.5,0-0.7,0c-0.1,0-0.2,0-0.2,0c-0.2,0-0.3,0-0.5,0c-0.1,0-0.2,0-0.3,0
  c-0.1,0-0.3,0-0.4,0.1c-0.1,0-0.2,0-0.3,0.1c-0.1,0-0.3,0.1-0.4,0.1c-0.1,0-0.2,0.1-0.3,0.1c-0.1,0-0.3,0.1-0.4,0.1
  c-0.1,0-0.2,0.1-0.3,0.1c-0.1,0.1-0.3,0.1-0.4,0.2c-0.1,0-0.2,0.1-0.3,0.1c-0.2,0.1-0.3,0.1-0.5,0.2c-0.1,0-0.2,0.1-0.3,0.1
  c-0.2,0.1-0.4,0.2-0.5,0.3c-0.1,0-0.1,0.1-0.2,0.1c-0.3,0.1-0.5,0.3-0.8,0.5c0,0-0.1,0.1-0.1,0.1c-0.2,0.1-0.4,0.3-0.7,0.4
  c-0.1,0.1-0.2,0.1-0.3,0.2c-0.2,0.1-0.4,0.3-0.5,0.4c-0.1,0.1-0.2,0.2-0.3,0.3c-0.2,0.1-0.3,0.3-0.5,0.4c-0.1,0.1-0.2,0.2-0.4,0.3
  c-0.2,0.1-0.3,0.3-0.5,0.4c-0.1,0.1-0.2,0.2-0.4,0.3c-0.2,0.2-0.3,0.3-0.5,0.5c-0.1,0.1-0.2,0.2-0.4,0.4c-0.1,0.1-0.1,0.1-0.2,0.2
  c-0.1,0.1-0.3,0.3-0.4,0.4c-0.1,0.1-0.2,0.2-0.3,0.3c-0.3,0.3-0.6,0.6-0.9,1l7.2,6.4c0.3-0.3,0.6-0.7,0.9-1c0.1-0.1,0.2-0.2,0.3-0.3
  c0.2-0.2,0.4-0.4,0.6-0.6c0.1-0.1,0.3-0.2,0.4-0.4c0.2-0.2,0.3-0.3,0.5-0.5c0.1-0.1,0.2-0.2,0.4-0.3c0.2-0.2,0.3-0.3,0.5-0.4
  c0.1-0.1,0.2-0.2,0.4-0.3c0.2-0.1,0.3-0.3,0.5-0.4c0.1-0.1,0.2-0.2,0.3-0.3c0.2-0.1,0.4-0.3,0.5-0.4c0.1-0.1,0.2-0.1,0.3-0.2
  c0.2-0.2,0.4-0.3,0.7-0.4c0,0,0.1-0.1,0.1-0.1c0.3-0.2,0.5-0.3,0.8-0.5c0.1,0,0.1-0.1,0.2-0.1c0.2-0.1,0.4-0.2,0.5-0.3
  c0.1,0,0.2-0.1,0.3-0.1c0.2-0.1,0.3-0.1,0.5-0.2c0.1,0,0.2-0.1,0.3-0.1c0.1-0.1,0.3-0.1,0.4-0.2c0.1,0,0.2-0.1,0.3-0.1
  c0.1,0,0.3-0.1,0.4-0.1c0.1,0,0.2-0.1,0.3-0.1c0.1,0,0.3-0.1,0.4-0.1c0.1,0,0.2,0,0.3-0.1c0.1,0,0.3-0.1,0.4-0.1c0.1,0,0.2,0,0.3,0
  c0.2,0,0.3,0,0.5,0c0.1,0,0.2,0,0.2,0c0.2,0,0.5,0,0.7,0c6,0,11.4,4.8,19.7,7.3l-6-6C65.3,119.1,59.7,113.8,53.4,113.8z"/>
<path fill="#FECF0C" d="M69.7,22.4c-22.1,0-32.8,19.7-26.4,31.2c2.3,4.1,6.3,6,10.4,6c5.6,0,11.2-3.5,12.7-9.7
  c2.6-10.8-7.5-12.1-8-12.1c0.2-0.4,4.1-7.6,12.1-7.6c1.8,0,3.7,0.4,5.9,1.3c5.7,2.4,9.1,9.7,5.3,19.7l16.9-16.9
  C93.4,27.2,83.7,22.4,69.7,22.4z"/>
<path fill="#FECF0C" d="M107.3,82.5c6.1,6.2,2.6,15.8-11.4,15.8c-3.8,0-8.3-0.7-13.7-2.5c-4.7-1.5-8.9-2.2-12.4-2.2
  c-15.6,0-20.6,11.3-20.9,11.9c1.2-3.8,2.7-7,4.6-9.8l-15.4,15.4c0.1,6,1.8,10.1,2,10.6c5.3-5.9,9.4-7.9,13.3-7.9
  c8.1,0,15.1,8.8,29.9,8.8c21.8,0,30.6-9.1,32.5-22.9C117.7,85.9,107.8,82.6,107.3,82.5z"/>
<path fill="#FFFFFF" d="M48.9,105.5c0,0,4.1-12.4,22.3-12.4c11.7,0,24.9,10,36.7,0.8c0,0-3.5,5.4-11.6,5.4
  C79.9,99.3,61.6,87.5,48.9,105.5z"/>
<path fill="#FECF0C" d="M99.7,63.9c3.2-6,4.4-12.2,3.6-18L62.1,87.1C75.1,78.1,92.6,77.2,99.7,63.9z"/>
<path fill="#FECF0C" d="M62.1,87.1l27-23l14.2-18.3c-0.5-4.2-4.1-9.9-6.7-13.3L81.8,51.1c-3,7.8-10.3,17.2-24.4,27.3
  C41.3,89.9,38,102.5,38.1,111.1l15.4-15.4C56,92.1,58.9,89.4,62.1,87.1z"/>
<path fill="#FFFFFF" d="M69.7,25.2c21.8,0,33.1,11.6,33.8,25.3c0.7-14.8-10.6-28-33.8-28c-18.6,0-29.1,13.9-28.2,25.2
  C42.4,37,52.6,25.2,69.7,25.2z"/>
<path fill="#FFFFFF" d="M78.6,32.6c0,0,7.4,5,3.1,17.9c-4.4,12.9-18.4,22.9-30.7,32.6s-16,26.3-10.8,38.6c0,0-8-20.5,12.2-37.1
  s26-19.8,30.7-34.2C87.4,37.3,78.6,32.6,78.6,32.6z"/>
</g>
<g id="two">
  <path fill="#FFFFFF" d="M80.4,0C36,0,0,36,0,80.4c0,44.4,36,80.4,80.4,80.4s80.4-36,80.4-80.4C160.7,36,124.7,0,80.4,0z
     M79.9,155.6C38.5,155.6,5,122,5,80.6C5,39.2,38.5,5.7,79.9,5.7s74.9,33.6,74.9,74.9C154.8,122,121.3,155.6,79.9,155.6z
     M116.2,99.4c-1.9,13.8-10.8,22.9-32.5,22.9c-14.8,0-21.8-8.8-29.9-8.8c-3.9,0-8,2-13.3,7.9c0-0.1-0.2-0.5-0.4-1.1
    c-4.6-12.1-0.8-28.1,11.2-37.5C63.6,73.1,77.6,63,82,50.1c3.7-10.8-1-16-2.6-17.5c-0.1-0.1-0.1-0.1-0.2-0.2
    c-0.3-0.2-0.5-0.4-0.8-0.6c-0.1-0.1-0.2-0.2-0.4-0.2c-0.3-0.2-0.6-0.3-0.9-0.5c-0.1-0.1-0.2-0.1-0.4-0.2c-2.1-0.9-4.1-1.3-5.9-1.3
    c-8,0-11.9,7.2-12.1,7.6c0.4,0,5.2,0.6,7.4,4.5l0,0c0,0,0,0,0,0c0.1,0.2,0.2,0.4,0.3,0.6c0,0.1,0,0.1,0.1,0.2
    c0.1,0.2,0.1,0.3,0.2,0.5c0,0.1,0.1,0.2,0.1,0.2c0.1,0.2,0.1,0.4,0.1,0.5c0,0.1,0,0.2,0.1,0.2c0,0.3,0.1,0.5,0.1,0.8c0,0,0,0,0,0
    c0,0.3,0,0.6,0,0.9c0,0.1,0,0.2,0,0.3c0,0.2,0,0.5,0,0.7c0,0.1,0,0.2,0,0.3c0,0.2-0.1,0.5-0.1,0.7c0,0.1,0,0.2,0,0.3
    c-0.1,0.4-0.1,0.7-0.2,1.1c-1.5,6.2-7.2,9.7-12.7,9.7c0,0-0.1,0-0.1,0c-0.4,0-0.8,0-1.2-0.1c-0.2,0-0.3,0-0.5-0.1
    c-0.3,0-0.6-0.1-0.9-0.2c-0.2,0-0.3-0.1-0.5-0.1c-0.4-0.1-0.8-0.2-1.2-0.4c-2.4-0.9-4.5-2.6-6-5.2c-6.4-11.4,4.3-31.2,26.4-31.2
    c6.7,0,12.3,1.1,17,3c0,0,0.1,0,0.1,0.1c0.4,0.2,0.9,0.4,1.3,0.6c0.1,0,0.2,0.1,0.3,0.1c0.4,0.2,0.8,0.4,1.2,0.6
    c0.1,0,0.2,0.1,0.2,0.1c1.2,0.6,2.3,1.3,3.3,2.1c0.1,0.1,0.2,0.2,0.4,0.3c0.3,0.2,0.5,0.4,0.8,0.6c0.1,0.1,0.2,0.1,0.2,0.2l0,0
    c1.6,1.3,2.9,2.7,4.1,4.2l-0.5,0.5c2.3,3.4,4.7,7.7,5.2,11.2c0.7,5.8-0.5,12-3.6,18C93,76.9,75.4,77.7,62.5,86.8
    c-3.2,2.2-6.1,5-8.6,8.6c-1.9,2.7-3.4,5.9-4.6,9.8c0,0,4.2-12.4,22.3-12.4c11.7,0,24.9,10,36.7,0.8c0,0-0.5,0.7-1.5,1.6
    c4.7-3.3,4.9-8.9,0.9-13C108.2,82.3,118.1,85.6,116.2,99.4z"/>
</g>
<g id="highlight">
  <path fill="#FFFFFF" d="M388.3,7.9H0V0h388.3V7.9z M388.3,43.5H0v17.6h388.3V43.5z"/>
</g>
<g id="ribbon">
  <g>
    <polygon fill="#E83D3D" points="0,0 0,57.1 49.6,69.7 49.6,0     "/>
    <polygon fill="#E83D3D" points="99.1,0 99.1,57.1 49.5,69.7 49.5,0     "/>
    <polygon fill="#00B4EB" points="49.5,0 49.5,0 47,0 43.6,0 43.6,0 31.6,0 31.6,65.2 49.5,69.7 67.4,65.2 67.4,0    "/>
    <polygon opacity="0.22" fill="#0E1741" points="84.2,0 84.2,60.9 99.1,57.1 99.1,0    "/>
    <polygon opacity="0.22" fill="#0E1741" points="16.7,0 16.7,61.3 31.6,65.2 31.6,0    "/>
    <polygon fill="#FFFFFF" points="39.2,0 31.6,0 31.6,65.2 39.3,67.1     "/>
    <polygon fill="#FFFFFF" points="59.8,0 67.4,0 67.4,65.2 59.7,67.1     "/>
  </g>
</g>
<g id="star">
  <polygon fill="#FFFFFF" points="10.8,11 18,9.1 10.7,7.6 8.8,0 7.2,7.7 0,9.6 7.3,11.1 9.3,18.7   "/>
</g>

<clipPath id="highlight-clip">
      <path fill="#FFFFFF" d="M80.4,0C36,0,0,36,0,80.4c0,44.4,36,80.4,80.4,80.4s80.4-36,80.4-80.4C160.7,36,124.7,0,80.4,0z
     M79.9,155.6C38.5,155.6,5,122,5,80.6C5,39.2,38.5,5.7,79.9,5.7s74.9,33.6,74.9,74.9C154.8,122,121.3,155.6,79.9,155.6z
     M116.2,99.4c-1.9,13.8-10.8,22.9-32.5,22.9c-14.8,0-21.8-8.8-29.9-8.8c-3.9,0-8,2-13.3,7.9c0-0.1-0.2-0.5-0.4-1.1
    c-4.6-12.1-0.8-28.1,11.2-37.5C63.6,73.1,77.6,63,82,50.1c3.7-10.8-1-16-2.6-17.5c-0.1-0.1-0.1-0.1-0.2-0.2
    c-0.3-0.2-0.5-0.4-0.8-0.6c-0.1-0.1-0.2-0.2-0.4-0.2c-0.3-0.2-0.6-0.3-0.9-0.5c-0.1-0.1-0.2-0.1-0.4-0.2c-2.1-0.9-4.1-1.3-5.9-1.3
    c-8,0-11.9,7.2-12.1,7.6c0.4,0,5.2,0.6,7.4,4.5l0,0c0,0,0,0,0,0c0.1,0.2,0.2,0.4,0.3,0.6c0,0.1,0,0.1,0.1,0.2
    c0.1,0.2,0.1,0.3,0.2,0.5c0,0.1,0.1,0.2,0.1,0.2c0.1,0.2,0.1,0.4,0.1,0.5c0,0.1,0,0.2,0.1,0.2c0,0.3,0.1,0.5,0.1,0.8c0,0,0,0,0,0
    c0,0.3,0,0.6,0,0.9c0,0.1,0,0.2,0,0.3c0,0.2,0,0.5,0,0.7c0,0.1,0,0.2,0,0.3c0,0.2-0.1,0.5-0.1,0.7c0,0.1,0,0.2,0,0.3
    c-0.1,0.4-0.1,0.7-0.2,1.1c-1.5,6.2-7.2,9.7-12.7,9.7c0,0-0.1,0-0.1,0c-0.4,0-0.8,0-1.2-0.1c-0.2,0-0.3,0-0.5-0.1
    c-0.3,0-0.6-0.1-0.9-0.2c-0.2,0-0.3-0.1-0.5-0.1c-0.4-0.1-0.8-0.2-1.2-0.4c-2.4-0.9-4.5-2.6-6-5.2c-6.4-11.4,4.3-31.2,26.4-31.2
    c6.7,0,12.3,1.1,17,3c0,0,0.1,0,0.1,0.1c0.4,0.2,0.9,0.4,1.3,0.6c0.1,0,0.2,0.1,0.3,0.1c0.4,0.2,0.8,0.4,1.2,0.6
    c0.1,0,0.2,0.1,0.2,0.1c1.2,0.6,2.3,1.3,3.3,2.1c0.1,0.1,0.2,0.2,0.4,0.3c0.3,0.2,0.5,0.4,0.8,0.6c0.1,0.1,0.2,0.1,0.2,0.2l0,0
    c1.6,1.3,2.9,2.7,4.1,4.2l-0.5,0.5c2.3,3.4,4.7,7.7,5.2,11.2c0.7,5.8-0.5,12-3.6,18C93,76.9,75.4,77.7,62.5,86.8
    c-3.2,2.2-6.1,5-8.6,8.6c-1.9,2.7-3.4,5.9-4.6,9.8c0,0,4.2-12.4,22.3-12.4c11.7,0,24.9,10,36.7,0.8c0,0-0.5,0.7-1.5,1.6
    c4.7-3.3,4.9-8.9,0.9-13C108.2,82.3,118.1,85.6,116.2,99.4z"/>
</clipPath>
<clipPath id="canvas">
  <polygon points="550,309 0,309 0,0 550,0 "/>
</clipPath>
</defs>
<!-- Number TWO-->
<g id="10-numberTWO" clip-path="url(#canvas)">
<use xlink:href="#bg" />
<g id="medal" transform="translate(196,-2)">
<g transform="translate(53,58)">
  <use xlink:href="#handle" />
</g>
<g transform="translate(31,0)">
  <use xlink:href="#ribbon" />
</g>
<g id="penant">
<g transform="translate(62,79)">
  <use xlink:href="#hinge" />
</g>
<g transform="translate(0,95)">
  <use xlink:href="#medallion" />
  <g clip-path="url(#highlight-clip)">
    <g transform="translate(-200,100) rotate(-48,0,0)">
      <use xlink:href="#highlight">
        <animate attributeName="opacity" values=".50;1;.50" dur="1.6s" repeatCount="1" fill="freeze" begin="0;glimmer.end+1"/>
      <animateTransform id="glimmer" attributeName="transform" type="translate" dur="1.6" fill="freeze" values="0,0;0,300" repeatCount="1" begin="0;glimmer.end+1" additive="sum"/>
      </use>
  </g>
</g>
<animateTransform attributeName="transform" type="rotate" dur="3" values="-2 80 0;2 80 0;-2 80 0" repeatCount="indefinite" begin="0s" additive="sum"/>
</g>
</g>
<animateTransform attributeName="transform" type="rotate" dur="3" values="-1 80 0;1 80 0;-1 80 0" repeatCount="indefinite" begin="0s" additive="sum"/>
</g>
<g transform="translate(195,98)">
  <use xlink:href="#star" id="star1a">
    <animateTransform attributeName="transform" type="rotate" dur=".6s" values="0 11.5 12;360 11.5 12" repeatCount="0" begin="0s;fadestar3b.end-.25"/>
    <animate id="fadestar1a" attributeName="opacity" values="0;1;0" dur=".6s" repeatCount="0" begin="0s;fadestar3b.end-.25" fill="freeze"/>
  </use>
</g>
<g transform="translate(197,237)">
  <use xlink:href="#star" id="star3a" visibility="hidden">
    <set attributeName="visibility" from="hidden" to="visible" begin="fadestar2b.end" />
    <animateTransform attributeName="transform" type="rotate" dur=".6s" values="0 11.5 12;360 11.5 12" repeatCount="0" begin="fadestar2b.end-.25"/>
    <animate id="fadestar2a" attributeName="opacity" values="0;1;0" dur=".6s" repeatCount="0" begin="fadestar2b.end-.25" fill="freeze"/>
  </use>
</g>
<g transform="translate(227,155)">
  <use xlink:href="#star" id="star2a" visibility="hidden">
    <set attributeName="visibility" from="hidden" to="visible" begin="fadestar1b.end" />
    <animateTransform attributeName="transform" type="rotate" dur=".6s" values="0 11.5 12;360 11.5 12" repeatCount="0" begin="0s;fadestar1b.end-.25"/>
    <animate id="fadestar2a" attributeName="opacity" values="0;1;0" dur=".6s" repeatCount="0" begin="fadestar1b.end-.25" fill="freeze"/>
  </use>
</g>
<g transform="translate(285,202)">
  <use xlink:href="#star" id="star1b">
    <animateTransform attributeName="transform" type="rotate" dur=".6s" values="0 11.5 12;360 11.5 12" repeatCount="0" begin="0s;fadestar3b.end-.25"/>
    <animate id="fadestar1b" attributeName="opacity" values="0;1;0" dur=".6s" repeatCount="0" begin="0s;fadestar3b.end-.25" fill="freeze"/>
  </use>
</g>
<g transform="translate(361,134)">
  <use xlink:href="#star" id="star3b" visibility="hidden">
    <set attributeName="visibility" from="hidden" to="visible" begin="fadestar2b.end" />
    <animateTransform attributeName="transform" type="rotate" dur=".6s" values="0 11.5 12;360 11.5 12" repeatCount="0" begin="fadestar2b.end-.25"/>
    <animate id="fadestar3b" attributeName="opacity" values="0;1;0" dur=".6s" repeatCount="0" begin="fadestar2b.end-.25" fill="freeze"/>

  </use>
</g>
<g transform="translate(281,116)">
  <use xlink:href="#star" id="star2b" visibility="hidden">
    <set attributeName="visibility" from="hidden" to="visible" begin="fadestar1b.end" />
    <animateTransform attributeName="transform" type="rotate" dur=".6s" values="0 11.5 12;360 11.5 12" repeatCount="0" begin="0s;fadestar1b.end-.25"/>
    <animate id="fadestar2b" attributeName="opacity" values="0;1;0" dur=".6s" repeatCount="0" begin="fadestar1b.end-.25" fill="freeze"/>
  </use>
</g>
</g>
</svg>
