<?xml version="1.0" encoding="utf-8"?>
<svg version="1.1" xmlns="http://www.w3.org/2000/svg" xmlns:xlink="http://www.w3.org/1999/xlink" x="0px" y="0px"
	 viewBox="0 0 550 309" enable-background="new 0 0 550 309" xml:space="preserve">
<defs>
<rect id="bg" x="0" y="0" height="309" width="550" fill="#0e1741" />
<g id="ring">
	<g>
		<path fill="none" d="M142.2,137.3c-50.5-3.6-106.4,44-81.9,66.7c24.5,22.7,116.3-3.1,119.2-43.9
			C180,153.6,170.7,139.3,142.2,137.3z"/>
		<path fill="#0E1741" d="M120.6,123.9C120.6,123.9,120.6,123.9,120.6,123.9C120.6,123.9,120.6,123.9,120.6,123.9L120.6,123.9z"/>
		<g>
			<path fill="#7A6300" d="M147.7,172c-6.2,6.8-14.8,13.2-26.7,18.1l0,0l0,0c-41.9,14.7-68.6-14.8-30.9-51.6
				c33.4-32.5-18.3,7.2-20.1,9.8c-1.8,2.6-22.8,24.1-22.8,24.1s6.9,25.2,6.9,25.2l0,0c0.1,0.9,0.3,1.8,0.5,2.7
				c6.5,6.8,13,15,30.5,16.2c15.2,1.1,34.6-3.7,48.5-8.7C173.8,190.2,170.4,165.9,147.7,172z"/>
			<path fill="#5E4C00" d="M187.7,151c-3.2-4.5-7.3-7.1-12-9.7c-3.9-2.1-30-9.4-34.2-10.9c-0.1,2.3,29.9,12.6,6.2,41.6
				c3,8.7-0.5,26.4-14.2,35.8c27.4-9.8,49.5-29.5,55.2-51.6c0.2-0.9-2.1,1.5-1.9,0.6C186.3,155.9,188.3,151.8,187.7,151z"/>
		</g>
		<path fill="#AA8900" d="M205.5,111.6l-19.4-17.1l-97.6,10.4l-59.7,32.7l-15.4,21.5c0,0,15.7,42.5,50.4,55.8
			c38.1,14.6,100.4-5.5,121.8-37.8c0,0,0,0,0,0C206.5,148.8,205.5,111.6,205.5,111.6z M179.5,160.1c-2.9,40.8-93.4,64.2-117.9,41.4
			c-24.5-22.7,30.1-67.8,80.6-64.2C170.7,139.3,180.3,149.1,179.5,160.1z"/>
		<path opacity="0.22" fill="#FFD833" d="M184.5,112.6c0,0-12.4,11.1-17.8,29.8c0,0-25.2-8.7-47.4-3.7c0,0,2-11.3,12.6-22.5
			C131.9,116.3,152.1,111.8,184.5,112.6z"/>
		<g>
			<path fill="#FFFFFF" d="M154,55.8c1,0,2,0,2.9,0C155.1,55.8,154,55.8,154,55.8z"/>
		</g>
		<path fill="#FFD833" d="M151.7,0.4c0,0-81.6-7.6-150.8,42.6c0,0-5.2,50.6,12.6,116c0,0,91.6-64.5,192.1-47.5
			C205.5,111.6,193.8,44.3,151.7,0.4z"/>
		<path fill="#BC9C13" d="M16.3,49c0,0-3.7,48,8.3,84.6c0,0,70.1-50.1,153.1-42.9c0,0-13.4-45.1-35.2-75.6
			C142.6,15.1,86.9,10.4,16.3,49z"/>
		<path fill="#FFFFFF" d="M0.8,43.1c0,0,55.2-48.1,150.8-42.6c0,0,29.8,28.2,44.2,78.7c0,0-18.4-50-45.8-74.6
			C150.1,4.5,71.8-2,0.8,43.1z"/>
		<g>
			<path fill="#BC9C13" d="M141.7,90c10.1-0.8,25.2-0.1,36,0.7c0,0-7.9-17.3-15.7-37.6L141.7,90z"/>
		</g>
		<path fill="#FFF8DC" d="M11.5,47.2l4.8,1.9c0,0-2.3,36.6,2.9,61.8C19.2,110.8,13.2,92.6,11.5,47.2z"/>
		<path fill="#9E8002" d="M142.6,15.1l-1.9,3.1c10.6,14.4,29.6,47.6,37.1,72.5l7.4,6.6C185.1,97.3,179.6,63,142.6,15.1z"/>
		<path fill="#9E8002" d="M20.4,51.8l-4-2.8c0,0-4,45.1,8.3,84.6l3.4-9C28.1,124.6,16.9,86.7,20.4,51.8z"/>
		<path fill="#FFFFFF" d="M177.7,90.7c-48.6-5.8-105.3,10.9-149.6,33.9l-3.4,9c93.2-49.9,160.5-36.3,160.5-36.3L177.7,90.7z"/>
		<path fill="#9E8002" d="M16.3,49l4,2.8c63.8-35.5,120.3-33.6,120.3-33.6l1.9-3.1C76.6,11.8,16.3,49,16.3,49z"/>
		<path fill="#D1B12A" d="M11.5,47.2l4.8,1.9c0,0,57.1-36.2,126.2-33.9l2.2-3.1C144.7,12,82.6,4.7,11.5,47.2z"/>
		<path fill="#FFF8DC" d="M144.7,12l-2.2,3.1c0,0,19.8,25.1,32.1,52C174.6,67.1,165.9,38.8,144.7,12z"/>
		<path fill="#F4CC25" d="M0.8,43.1l10.7,4.1c0,0,0.2,44.1,13.2,86.4l-11.3,25.5C13.4,159.1-4,113.2,0.8,43.1z"/>
	</g>
</g>
<g id="highlight">
  	<path fill="#FFFFFF" d="M588,50H0V0h588V50z M588,66.7H0V89h588V66.7z"/>
</g>
<!--
<g id="border-clip">
	<path fill="#FFD833" d="M151.5,0.4c0,0-81.6-7.6-150.8,42.6c0,0-5.2,50.6,12.6,116c0,0,91.6-64.5,192.1-47.5
		C205.4,111.5,193.7,44.3,151.5,0.4z M24.5,133.6L24.5,133.6L24.5,133.6c-2.4-7.4-4.2-15.3-5.5-23.1c-0.8-2.5-6.1-21.2-7.6-63.3
		C82.5,4.6,144.6,12,144.6,12c21.1,26.7,29.9,55.1,29.9,55.1c-0.2-0.3-0.3-0.7-0.5-1c9,19.4,11,31.2,11,31.2S117.8,83.7,24.5,133.6z
		"/>
</g>
-->
<!--
<g id="face-clip">
	<g>
		<path fill="#BC9C13" d="M0.7,33.6c-3.4,34.8,7.8,72.8,7.8,72.8v0C52.8,83.4,109.5,66.7,158,72.5c0,0,0,0,0,0
			c-0.2-0.8-0.5-1.5-0.7-2.3c0,0,0-0.1,0-0.1C149.4,45.5,131.2,14,120.9,0v0C120.9,0,64.5-1.9,0.7,33.6z"/>
	</g>
</g>
-->
<g id="three">
	<g>
		<g>
			<g enable-background="new    ">
				<g>
					<polygon fill="#8E781C" points="62.6,11.9 60.3,18.1 46.3,25.8 48.5,19.6 					"/>
				</g>
				<g enable-background="new    ">
					<defs>
						<path id="SVGID_1_" enable-background="new    " d="M44.6,12.3l-2.2,6.2c-13.7,1.2-29.5,5.9-37.7,9.9l2.2-6.2
							C15.1,18.2,30.9,13.5,44.6,12.3z"/>
					</defs>
					<clipPath id="SVGID_2_">
						<use xlink:href="#SVGID_1_"  overflow="visible"/>
					</clipPath>
					<g clip-path="url(#SVGID_2_)" enable-background="new    ">
						<path fill="#85701B" d="M44.6,12.3l-2.2,6.2c-8.5,0.8-17.8,2.8-25.6,5.2l2.2-6.2C26.8,15.1,36.1,13.1,44.6,12.3"/>
						<path fill="#8A751C" d="M19,17.6l-2.2,6.2c-4.8,1.5-9,3.1-12.2,4.6l2.2-6.2C10,20.7,14.2,19,19,17.6"/>
					</g>
				</g>
				<g>
					<polygon fill="#806C1A" points="6.9,22.2 4.6,28.5 0,21.9 2.2,15.6 					"/>
				</g>
				<g enable-background="new    ">
					<defs>
						<path id="SVGID_3_" enable-background="new    " d="M61.6,37.7l-2.2,6.2c1.4-3.8-1.8-7.6-9.9-8.8c-2.7-0.4-5.2-0.6-7.6-0.6
							c-14.2,0-21.8,6.2-22.2,6.6l2.2-6.2c0.4-0.3,8-6.6,22.2-6.6c2.4,0,4.9,0.2,7.6,0.6C59.8,30.1,63,33.8,61.6,37.7z"/>
					</defs>
					<clipPath id="SVGID_4_">
						<use xlink:href="#SVGID_3_"  overflow="visible"/>
					</clipPath>
					<g clip-path="url(#SVGID_4_)" enable-background="new    ">
						<path fill="#85701B" d="M61.6,37.7l-2.2,6.2c1.4-3.8-1.8-7.6-9.9-8.8c-2.7-0.4-5.2-0.6-7.6-0.6c-5.1,0-9.3,0.8-12.7,1.9
							l2.2-6.2c3.4-1,7.6-1.9,12.7-1.9c2.4,0,4.9,0.2,7.6,0.6C59.8,30.1,63,33.8,61.6,37.7"/>
						<path fill="#8A751C" d="M31.4,30.1l-2.2,6.2c-6,1.9-9.2,4.5-9.5,4.7l2.2-6.2C22.2,34.6,25.4,32,31.4,30.1"/>
					</g>
				</g>
				<g>
					<polygon fill="#806C1A" points="22,34.8 19.7,41.1 14.4,35.1 16.6,28.8 					"/>
				</g>
				<g enable-background="new    ">
					<defs>
						<path id="SVGID_5_" enable-background="new    " d="M76.6,38.2l-2.2,6.2C73,48.1,69.7,52,63.7,56.3C53.9,63.2,39.2,65,26.9,65
							c-12.6,0-22.2-1.7-22.7-1.8l2.2-6.2c0.5,0.1,10.1,1.8,22.7,1.8c12.3,0,27-1.7,36.8-8.7C72,45.8,75.3,41.8,76.6,38.2z"/>
					</defs>
					<clipPath id="SVGID_6_">
						<use xlink:href="#SVGID_5_"  overflow="visible"/>
					</clipPath>
					<g clip-path="url(#SVGID_6_)" enable-background="new    ">
						<path fill="#8A751C" d="M76.6,38.2l-2.2,6.2C73,48.1,69.7,52,63.7,56.3c-3.3,2.3-7.2,4.1-11.3,5.4l2.2-6.2
							c4.2-1.3,8-3,11.3-5.4C72,45.8,75.3,41.8,76.6,38.2"/>
						<path fill="#85701B" d="M54.6,55.4l-2.2,6.2C44.2,64.2,35.1,65,26.9,65c-12.6,0-22.2-1.7-22.7-1.8l2.2-6.2
							c0.5,0.1,10.1,1.8,22.7,1.8C37.3,58.7,46.5,58,54.6,55.4"/>
					</g>
				</g>
				<g>
					<path fill="#F5D031" d="M56,0l6.6,11.9l-14.1,7.7c1.3-0.2,2.6-0.3,4-0.3c16.5,0,38.5,13.1,13.5,30.8
						c-9.8,6.9-24.5,8.7-36.8,8.7c-12.6,0-22.2-1.7-22.7-1.8l7.1-10.4c6.9,1.2,13.1,1.7,18.6,1.7c30.6,0,38.5-16.4,19.5-19.4
						c-2.7-0.4-5.2-0.6-7.6-0.6c-14.2,0-21.8,6.2-22.2,6.6l-5.4-6c7.6-7.1,27-16.1,28-16.5c-13.7,1.2-29.5,5.9-37.7,9.9l-4.6-6.6
						C29.7,1.3,54.7,0.1,56,0z"/>
				</g>
			</g>
		</g>
		<g>
			<path fill="none" d="M58.6,31.1L49.3,46C61.8,42.4,65.2,35.1,58.6,31.1z"/>
			<path fill="#F5D031" d="M56,0C54.7,0.1,29.7,1.3,2.2,15.6l4.6,6.6c8.2-4,24-8.7,37.7-9.9c-1,0.5-20.4,9.4-28,16.5l5.4,6
				c0.4-0.3,6.4-5.2,17.6-6.3l18-25.6L56,0z"/>
			<path fill="#F5D031" d="M13.6,46.5L6.4,56.9c0.4,0.1,5.1,0.9,12.1,1.4L25.8,48C22,47.7,17.9,47.2,13.6,46.5z"/>
			<path fill="#F5D031" d="M49.3,46l-7.4,12c8.8-1,17.5-3.3,24.1-8c19-13.4,10.9-24.2-1.3-28.6l-6,9.7C65.2,35.1,61.8,42.4,49.3,46z
				"/>
			<path fill="#FFDD50" d="M32.2,48.2c-2,0-4.1-0.1-6.3-0.2l-7.3,10.3c3.1,0.2,6.7,0.4,10.6,0.4c4.1,0,8.4-0.2,12.7-0.7l7.4-12
				C44.8,47.4,39.1,48.2,32.2,48.2z"/>
			<path fill="#FFDD50" d="M48.5,19.6l14.1-7.7l-5-8.9l-18,25.6c1.4-0.1,3-0.2,4.6-0.2c2.4,0,4.9,0.2,7.6,0.6c3,0.5,5.3,1.3,6.9,2.3
				l6-9.7c-3.9-1.4-8.2-2.2-12.1-2.2C51.1,19.3,49.8,19.4,48.5,19.6z"/>
		</g>
		<path fill="#FFFFFF" d="M56,0C24.7,2.3,2.2,15.6,2.2,15.6C30.6,3,54.4,2.9,54.4,2.9l8.2,8.9L56,0z"/>
		<path fill="#FFFFFF" d="M16.6,28.8l1.9,2.1c8.9-9.9,26.1-18.7,26.1-18.7C28.2,19,16.6,28.8,16.6,28.8z"/>
		<path fill="#FFFFFF" d="M48.5,19.6c0,0,17.3-3,26.9,9.4c6.8,8.7-5.2,19-13.5,23.5c0,0,17.9-11,11.5-21.9
			C67,19.8,48.5,19.6,48.5,19.6z"/>
		<path fill="#FFFFFF" d="M13.6,46.5l-1.7,2.4c27.5,3.7,41.7-4.4,41.7-4.4C35,51.3,13.6,46.5,13.6,46.5z"/>
	</g>
</g>
<g id="star4">
	<polygon fill="#FFFFFF" points="14.1,14.4 23.6,12 14,10 11.5,0 9.5,10.1 0,12.6 9.6,14.6 12.1,24.6 	"/>
</g>
<g id="star3">
	<polygon fill="#FFFFFF" points="15.4,15.7 25.7,13 15.2,10.9 12.5,0 10.3,11 0,13.7 10.5,15.8 13.2,26.7 	"/>
</g>
<g id="star2">
	<polygon fill="#FFFFFF" points="8.5,8.7 14.3,7.2 8.5,6 6.9,0 5.7,6.1 0,7.6 5.8,8.8 7.3,14.8 	"/>
</g>
<g id="star1">
	<polygon fill="#FFFFFF" points="8.5,8.7 14.3,7.2 8.5,6 6.9,0 5.7,6.1 0,7.6 5.8,8.8 7.3,14.8 	"/>
</g>
<clipPath id="border-clip">
	<path fill="#FFD833" d="M151.5,0.4c0,0-81.6-7.6-150.8,42.6c0,0-5.2,50.6,12.6,116c0,0,91.6-64.5,192.1-47.5
		C205.4,111.5,193.7,44.3,151.5,0.4z M24.5,133.6L24.5,133.6L24.5,133.6c-2.4-7.4-4.2-15.3-5.5-23.1c-0.8-2.5-6.1-21.2-7.6-63.3
		C82.5,4.6,144.6,12,144.6,12c21.1,26.7,29.9,55.1,29.9,55.1c-0.2-0.3-0.3-0.7-0.5-1c9,19.4,11,31.2,11,31.2S117.8,83.7,24.5,133.6z
		"/>
</clipPath>
<clipPath id="face-clip">
  <path fill="#BC9C13" d="M0.7,33.6c-3.4,34.8,7.8,72.8,7.8,72.8v0C52.8,83.4,109.5,66.7,158,72.5c0,0,0,0,0,0
			c-0.2-0.8-0.5-1.5-0.7-2.3c0,0,0-0.1,0-0.1C149.4,45.5,131.2,14,120.9,0v0C120.9,0,64.5-1.9,0.7,33.6z"/>
</clipPath>
</defs>
<!-- Number THREE -->
<use xlink:href="#bg" />
<g id="superbowlring" transform="translate(284.25,167)">
  <g id="thering" transform="translate(-102.5,-110)">
    <use xlink:href="#ring" />
    <g clip-path="url(#border-clip)">
      <g transform="translate(-170,100) rotate(-48,0,0)">
        <use xlink:href="#highlight">
          <animate attributeName="opacity" values=".22;.44;.22" dur="1.6s" repeatCount="0" fill="freeze" begin="0;glimmer1.end+1"/>
          <animateTransform id="glimmer1" attributeName="transform" type="translate" dur="1.6" fill="freeze" values="0,0;0,300" repeatCount="0" begin="0;glimmer1.end+1" additive="sum"/>
        </use>
      </g>
    </g>
    <g clip-path="url(#face-clip)" transform="translate(19.966,18.169)">
      <g transform="translate(-170,100) rotate(-48,0,0)">
        <use xlink:href="#highlight" visibility="hidden">
          <set attributeName="visibility" from="hidden" to="visible" begin="glimmer1.begin + .5" />
          <animate attributeName="opacity" values=".02;.15;.02" dur="1.6s" repeatCount="0" fill="freeze" begin="glimmer1.begin + .25"/>
          <animateTransform id="glimmer2" attributeName="transform" type="translate" dur="1.6" fill="freeze" values="0,0;0,300" repeatCount="0" begin="glimmer1.begin + .5" additive="sum"/>
        </use>
      </g>
    </g>
    <g transform="translate(52,27)">
      <use xlink:href="#three" />
    </g>
    <animateTransform attributeType="xml" attributeName="transform" type="scale" values=".93 .93;1 1;.93 .93" dur="4s" fill="freeze" repeatCount="indefinite" additive="sum"/>
  </g>
  <animateTransform attributeName="transform" type="translate" dur="4s" fill="freeze" values="0,15;0,-2;0,15" repeatCount="indefinite" additive="sum"/>
</g>
<g transform="translate(196,46)">
<use xlink:href="#star1">
  <animateTransform attributeName="transform" type="rotate" dur=".6s" values="0 7.1 7.4;360 7.1 7.4" repeatCount="0" begin="0s;fadestar4.end"/>
  <animate id="fadestar1" attributeName="opacity" values="0;1;0" dur=".6s" repeatCount="0" begin="0s;fadestar4.end" fill="freeze"/>
</use>
</g>
<g transform="translate(323,125)">
<use xlink:href="#star2" visibility="hidden">
  <set attributeName="visibility" from="hidden" to="visible" begin="fadestar1.end" />
  <animateTransform attributeName="transform" type="rotate" dur=".6s" values="0 7.1 7.4;360 7.1 7.4" repeatCount="0" begin="fadestar1.end-.25"/>
  <animate id="fadestar2" attributeName="opacity" values="0;1;0" dur=".6s" repeatCount="0" fill="freeze" begin="fadestar1.end-.25"/>
</use>
</g>
<g transform="translate(140,145)">
  <use xlink:href="#star3" visibility="hidden">
    <set attributeName="visibility" from="hidden" to="visible" begin="fadestar2.end" />
    <animateTransform attributeName="transform" type="rotate" dur=".6s" values="0 13 13.35;360 13 13.35" repeatCount="0" begin="fadestar2.end-.25"/>
    <animate id="fadestar3" attributeName="opacity" values="0;1;0" dur=".6s" repeatCount="0" fill="freeze" begin="fadestar2.end-.25"/>
  </use>
</g>
<g transform="translate(349,42)">
  <use xlink:href="#star4" visibility="hidden">
    <set attributeName="visibility" from="hidden" to="visible" begin="fadestar3.end" />
    <animateTransform attributeName="transform" type="rotate" dur=".6s" values="0 11.8 12.25;360 11.8 12.25" repeatCount="0" begin="fadestar3.end-.25"/>
    <animate id="fadestar4" attributeName="opacity" values="0;1;0" dur=".6s" repeatCount="0" fill="freeze" begin="fadestar3.end-.25"/>
  </use>
</g>
</svg>
