<?xml version="1.0" encoding="utf-8"?>
<svg version="1.1" xmlns="http://www.w3.org/2000/svg" xmlns:xlink="http://www.w3.org/1999/xlink" x="0px" y="0px"
   viewBox="0 0 550 309" enable-background="new 0 0 550 309" xml:space="preserve">
<defs>
<rect id="bg" x="0" y="0" height="309" width="550" fill="#0e1741" />
<g id="BG">
  <rect fill="#0E1741" width="550" height="309"/>
</g>
<g id="liquid">
  <g>
    <polygon fill="#FFB206" points="57.2,25.7 43.8,62.6 53,62.6 57.9,29.2     "/>
    <polygon fill="#FFB206" points="32.1,11.8 29.7,9.2 18.2,62 1.3,0 0,3.4 2,68.3 22.7,78.5 18.9,64.8 37,57.1     "/>
  </g>
</g>
<g id="highlight">
  <g>
    <polygon fill="#FECF0C" points="51.5,23.1 39.4,56.4 47.8,56.4 52.2,26.3   "/>
    <polygon fill="#FECF0C" points="28.9,10.7 26.7,8.2 16.4,55.8 1.2,0 0,3 1.8,61.5 20.4,70.7 17.1,58.3 33.4,51.4   "/>
  </g>
</g>
<ellipse id="drop" fill="#FFFFFF" cx="2.3" cy="3.5" rx="2.3" ry="3.5"/>
<g id="right-beer">
  <g>
    <path fill="#A06345" d="M38.9,20.7C28.4,24.6,0,33,0,33l0.8,3.5l0.5,2.2c0,0,29.4-3.9,40.5-4.6c11.1-0.7,6.3,3.5,30.7-1.7
      s37-7.9,37-7.9l-1.5-7.2l-0.7-3.4l-3-13.9c0,0-12.6,2.7-37,7.9S49.3,16.8,38.9,20.7z"/>
    <path fill="#4C3B41" d="M1.5,40.1c0,0,29.4-3.8,40.5-4.6c11.1-0.7,6.7,5.3,31.1,0.1s37-7.9,37-7.9l-1.3-6c0,0-12.6,2.7-37,7.9
      s-19.4,0.2-30.7,1.9L1,37.8L1.5,40.1z"/>
    <polygon fill="#DD8E4E" points="0,33 1.5,40.1 3.1,39.9 1.5,32.6     "/>
    <g>
      <path fill="#FFCE04" d="M81,4.9c3.6-0.8,6.7-1.4,9.5-2C87.8,3.5,84.6,4.2,81,4.9z"/>
      <path fill="#FFCE04" d="M71.6,7c-1.5,0.3-2.9,0.6-4.5,1c-3.2,0.7-5.8,1.3-8.1,2c0,0,0,0,0,0c2.3-0.6,5-1.3,8.3-2
        C68.7,7.6,70.2,7.3,71.6,7z"/>
      <path fill="#FFCE04" d="M92.4,5.1C86.4,6.4,77.9,6.8,67.5,9c-3.8,0.8-6.7,3-9.2,3.8c0,0.8,0,1.6,0.2,2.4c1.1,5,6,8.2,11,7.2
        l16.7-3.6c5-1.1,8.2-6,7.2-11C93.2,6.8,92.9,5.9,92.4,5.1z"/>
      <path fill="#DD8E4E" d="M71.6,7c3.4-0.7,6.6-1.4,9.5-2C78.1,5.6,75,6.2,71.6,7z"/>
      <path fill="#DD8E4E" d="M92.4,5.1c8.2-1.7,12.4-2.6,12.4-2.6L104.3,0c0,0-4.7,1-13.8,2.9c0.1,0,0.1,0,0.2,0
        C91.4,3.5,92,4.3,92.4,5.1z"/>
      <path fill="#DD8E4E" d="M38.9,20.7C28.4,24.6,0,33,0,33l0.5,2.5c0,0,28.4-8.5,38.9-12.3c8.8-3.3,5.6-6.4,19-10.5
        c0.1-1,0.3-1.9,0.6-2.8C44.3,14.1,47.9,17.4,38.9,20.7z"/>
      <path fill="#FFF0B3" d="M92.4,5.1c-0.5-0.8-1.1-1.6-1.8-2.2c-0.1,0-0.1,0-0.2,0c-2.8,0.6-5.9,1.3-9.5,2c-2.9,0.6-6.1,1.3-9.5,2
        c-1.4,0.3-2.8,0.6-4.3,0.9c-3.3,0.7-6,1.4-8.3,2c-0.3,0.9-0.6,1.8-0.6,2.8c2.5-0.8,5.6-1.5,9.4-2.3C78.1,8.2,86.4,6.4,92.4,5.1z"
        />
    </g>
  </g>
</g>
<g id="middle-beer">
  <g>
    <path fill="#A06345" d="M27.4,50.8C20.3,59.4,0,81.1,0,81.1l2.4,2.7l1.5,1.6c0,0,23.4-18.2,32.7-24.4c9.2-6.2,7.2-0.1,25.7-16.9
      s28-25.5,28-25.5l-5-5.5L83,10.5L73.5,0c0,0-9.6,8.7-28,25.5S34.5,42.2,27.4,50.8z"/>
    <path fill="#4C3B41" d="M4.9,86.4c0,0,23.5-18.1,32.7-24.4c9.2-6.2,8.5,1.2,27-15.5s28-25.5,28-25.5l-4.1-4.5c0,0-9.6,8.7-28,25.5
      s-16.6,10-25.5,17.1L3.3,84.7L4.9,86.4z"/>
    <polygon fill="#DD8E4E" points="0,81.1 4.9,86.4 6.1,85.4 1.1,79.9     "/>
    <g>
      <path fill="#FFCE04" d="M55.9,16c2.7-2.4,5.1-4.6,7.2-6.5C61,11.4,58.6,13.5,55.9,16z"/>
      <path fill="#FFCE04" d="M48.7,22.5c-1.1,1-2.2,2-3.4,3.1c-2.4,2.2-4.4,4.1-6,5.8c0,0,0,0,0,0c1.6-1.7,3.6-3.7,6.1-5.9
        C46.6,24.4,47.6,23.5,48.7,22.5z"/>
      <path fill="#FFCE04" d="M65.8,10.4c-4.6,4.2-11.7,8.7-19.6,15.9c-2.9,2.6-4.3,6-6,7.9c0.4,0.7,0.8,1.4,1.4,2
        c3.4,3.8,9.4,4.1,13.1,0.6l12.6-11.5c3.8-3.4,4.1-9.4,0.6-13.1C67.3,11.4,66.6,10.9,65.8,10.4z"/>
      <path fill="#DD8E4E" d="M48.7,22.5c2.6-2.4,5-4.5,7.2-6.5C53.7,18,51.3,20.1,48.7,22.5z"/>
      <path fill="#DD8E4E" d="M65.8,10.4c6.2-5.6,9.4-8.5,9.4-8.5L73.5,0c0,0-3.5,3.2-10.4,9.5c0,0,0.1-0.1,0.1-0.1
        C64.1,9.6,65,9.9,65.8,10.4z"/>
      <path fill="#DD8E4E" d="M27.4,50.8C20.3,59.4,0,81.1,0,81.1l1.7,1.9c0,0,20.3-21.6,27.4-30.2c6-7.3,1.6-8.4,11.1-18.6
        c-0.4-0.9-0.7-1.8-0.9-2.7C28.7,42.4,33.5,43.4,27.4,50.8z"/>
      <path fill="#FFF0B3" d="M65.8,10.4c-0.8-0.5-1.7-0.8-2.6-1c0,0-0.1,0.1-0.1,0.1c-2.1,1.9-4.5,4.1-7.2,6.5c-2.2,2-4.6,4.2-7.2,6.5
        c-1.1,1-2.2,2-3.3,3c-2.5,2.3-4.5,4.2-6.1,5.9c0.2,0.9,0.5,1.9,0.9,2.7c1.8-1.9,4-4.1,6.9-6.8C55,20.2,61.2,14.6,65.8,10.4z"/>
    </g>
  </g>
</g>
<g id="left-beer">
  <g>
    <path fill="#A06345" d="M71.5,31.5c9.7,5.6,36.2,18.8,36.2,18.8l-1.3,3.4l-0.8,2.1c0,0-28.3-8.9-39.1-11.5
      c-10.8-2.6-6.8,2.4-30-6.9S1.2,23.3,1.2,23.3L4,16.4l1.3-3.2L10.6,0c0,0,12,4.8,35.2,14.1S61.8,26,71.5,31.5z"/>
    <path fill="#4C3B41" d="M105,57c0,0-28.3-8.8-39.2-11.4C55,43,58.3,49.7,35.2,40.4S0,26.3,0,26.3l2.3-5.7c0,0,12,4.8,35.2,14.1
      s19,3.5,29.9,7.1l38.5,13L105,57z"/>
    <polygon fill="#DD8E4E" points="107.7,50.3 105,57 103.5,56.6 106.2,49.6     "/>
    <g>
      <path fill="#FFCE04" d="M32.6,8.8c-3.4-1.4-6.4-2.6-9-3.6C26.2,6.3,29.2,7.5,32.6,8.8z"/>
      <path fill="#FFCE04" d="M41.6,12.4c1.4,0.6,2.8,1.1,4.3,1.7c3,1.2,5.5,2.3,7.6,3.3c0,0,0,0,0,0c-2.1-1-4.7-2.2-7.8-3.4
        C44.3,13.5,42.9,13,41.6,12.4z"/>
      <path fill="#FFCE04" d="M21.4,7.1c5.7,2.3,14,4.1,23.9,8c3.6,1.5,6.1,4.1,8.4,5.3c-0.1,0.8-0.3,1.6-0.6,2.4
        c-1.9,4.7-7.3,7.1-12.1,5.2l-15.8-6.3c-4.7-1.9-7.1-7.3-5.2-12.1C20.3,8.6,20.8,7.8,21.4,7.1z"/>
      <path fill="#DD8E4E" d="M41.6,12.4c-3.2-1.3-6.2-2.5-9-3.6C35.4,9.9,38.4,11.1,41.6,12.4z"/>
      <path fill="#DD8E4E" d="M21.4,7.1C13.6,4,9.6,2.4,9.6,2.4L10.6,0c0,0,4.4,1.8,13.1,5.2c0,0-0.1,0-0.2-0.1
        C22.7,5.7,22,6.3,21.4,7.1z"/>
      <path fill="#DD8E4E" d="M71.5,31.5c9.7,5.6,36.2,18.8,36.2,18.8l-0.9,2.4c0,0-26.6-13.2-36.2-18.8c-8.1-4.7-4.4-7.3-16.9-13.5
        c0.1-1,0.1-1.9-0.1-2.9C67.3,24.1,63.1,26.7,71.5,31.5z"/>
      <path fill="#FFF0B3" d="M21.4,7.1c0.6-0.7,1.3-1.4,2.1-1.9c0,0,0.1,0,0.2,0.1c2.6,1,5.6,2.2,9,3.6c2.7,1.1,5.7,2.3,9,3.6
        c1.3,0.5,2.7,1.1,4.1,1.6c3.1,1.2,5.7,2.4,7.8,3.4c0.2,0.9,0.2,1.9,0.1,2.9c-2.3-1.2-5.2-2.5-8.9-3.9
        C34.9,12.5,27.1,9.4,21.4,7.1z"/>
    </g>
  </g>
</g>
<g id="trophy">
  <g>
    <polygon fill="#D3DDD5" points="101.1,78.2 101.1,78.2 101.1,78.2    "/>
    <g>
      <path fill="#FFD833" d="M42,22l10.2,3.2l-5.6-0.3v20H34v29.9h66V44.9h-7.3V27.5l-6.4-0.4l6.4-2.2c19.6,0,24-24.9,24-24.9H67.3v0
        H18C18,0,22.4,22,42,22z"/>
      <rect x="11.3" y="88.2" fill="#FFD833" width="112" height="107.4"/>
    </g>
    <rect x="103.2" y="88.2" fill="#FFF466" width="20.1" height="107.4"/>
    <rect x="79.9" y="44.9" fill="#FFF466" width="20.1" height="29.9"/>
    <rect x="72.5" y="25.1" fill="#FFF466" width="20.1" height="18.4"/>
    <path fill="#7A6300" d="M35.5,195.6V174l87.7,0.1v-2.6H35.5v-26.5l87.7,0.1v-2.6H35.5l0-26.1l87.7-0.3v-2.6H35.5V88.2h87.7
      l-16-13.4H45.9V44.9h5.2h41.4v-3H51.1v-9.8l41.4-4.6v-2.6H59.2c-19.6,0-24-24.9-24-24.9H17.9c0,0,4.4,24.9,24,24.9h0l0,8.2v8.8v3
      h-8v29.9h-6.7l-16,13.4h-0.1l0,107.4H0v23.6h52.1v-23.6H35.5z"/>
    <g>
      <path fill="#FFF466" d="M68.7,24.9c-2.2,0-3.2,0-3.2,0S66.7,25,68.7,24.9z"/>
      <path fill="#FFF466" d="M97.9,0c0,21.7-21,24.6-29.2,24.9c3.8,0,11.3,0,23.9,0c19.8,0,24.1-24.9,24.1-24.9L97.9,0z"/>
    </g>
    <rect x="52.1" y="195.2" fill="#FFD833" width="80.6" height="23.9"/>
    <rect x="112.6" y="195.2" fill="#FFF466" width="20.1" height="23.9"/>
  </g>
</g>
<g id="foam">
  <path fill="#FFFFFF" d="M98.7,0.5C64.7,5.2,20.9,0,3,0C1.6,0,0.1,1.2,0,2.9h0C0,2.9,0,3,0,3c0,0.4,0,0.8,0.1,1.2
    C0.7,14,7.7,24,12.6,24.2c6.8,0.3,1.2-14.1,14.3-17c9-2,37.9-2.7,66.8,4.9c7.2,1.9,11.5,0.2,13.5-5.4C108.8,2.1,107.7-0.8,98.7,0.5
    z"/>
  <ellipse fill="#FFFFFF" cx="2.3" cy="3.5" rx="2.3" ry="3.5"/>
</g>
<path id="foam-drop" fill="#FFFFFF" d="M5,16.7c-1.7,2.1-6.3,0.7-4.7-7.1c1-4.9,1.8-11.5,4-9S8.7,12.1,5,16.7z"/>
<polygon id="star1" fill="#FFFFFF" points="18.3,19 30.8,16.4 18.4,13.2 15.8,0 12.5,13 0,15.6 12.4,18.8 15,32"/>
<polygon id="star2" fill="#FFFFFF" points="13.9,14.4 23.4,12.5 14,10 12,0 9.5,9.9 0,11.9 9.4,14.3 11.4,24.4"/>
<polygon id="star3" fill="#FFFFFF" points="9.2,9.5 15.4,8.2 9.2,6.6 7.9,0 6.3,6.5 0,7.8 6.2,9.4 7.5,16.1"/>
<clipPath id="canvas">
  <polygon points="550,309 0,309 0,0 550,0 "/>
</clipPath>
</defs>
<!-- Hockey -->
<g id="12-hockey" clip-path="url(#canvas)">
<use xlink:href="#bg" />

<g id="pouring">
  <g transform="translate(244,90)">
    <use xlink:href="#liquid" />
  </g>
  <g transform="translate(247,106)">
    <use xlink:href="#highlight">
      <animateTransform attributeName="transform" type="translate" dur="2" fill="freeze" values="0,-2;0,8;0,-2" repeatCount="indefinite" additive="sum"/>
    </use>
  </g>
  <g transform="translate(139,36)">
    <use xlink:href="#left-beer">
      <animateTransform id="" attributeName="transform" type="rotate" dur="1.5" values="-1 245 90;0 245 90;-1 245 90" repeatCount="indefinite" additive="sum"/>
    </use>
  </g>
  <g transform="translate(271,18)">
    <use xlink:href="#middle-beer">
      <animateTransform id="" attributeName="transform" type="rotate" dur="1.5" values="-.5 274 90;.5 274 90;-.5 274 90" repeatCount="indefinite" additive="sum"/>
    </use>
  </g>
  <g transform="translate(300,79)">
    <use xlink:href="#right-beer">
      <animateTransform id="" attributeName="transform" type="rotate" dur="1.5" values="0 301 116;-.5 301 116;0 301 116" repeatCount="indefinite" additive="sum"/>
    </use>
  </g>
  <animateTransform attributeName="transform" type="translate" dur="6" fill="freeze" values="0,-4;0,10;0,-4" repeatCount="indefinite" additive="sum"/>
</g>
<g>
  <g transform="translate(206,144)">
    <use xlink:href="#trophy"/>
  </g>
  <g transform="translate(218,139)">
    <use xlink:href="#foam"/>
  </g>
  <g transform="translate(218,139)">
    <path fill="white">
      <animate id="spill" attributeName="d" dur="4s"  repeatCount="1" begin="0s;droplet.end" values="M98.7,0.5C64.7,5.2,20.9,0,3,0C1.6,0,0.1,1.2,0,2.9h0C0,2.9,0,3,0,3c0,0.4,0,0.8,0.1,1.2
    C0.7,14,7.7,24,12.6,24.2c6.8,0.3,1.2-14.1,14.3-17c9-2,37.9-2.7,66.8,4.9c7.2,1.9,11.5,0.2,13.5-5.4C108.8,2.1,107.7-0.8,98.7,0.5
    z; M98.7,0.5C64.7,5.2,20.9,0,3,0C1.6,0,0.1,1.2,0,2.9h0C0,2.9,0,3,0,3c0,0.4,0,0.8,0.1,1.2C0.7,14,7.7,36,12.6,36.2
  c6.8,0.3,1.2-26.1,14.3-29c9-2,37.9-2.7,66.8,4.9c7.2,1.9,11.5,0.2,13.5-5.4C108.8,2.1,107.7-0.8,98.7,0.5z;"/>
    </path>
  </g>
  <g transform="translate(242,151)">
    <use xlink:href="#drop" />
  </g>
  <g transform="translate(227,146)">
    <use xlink:href="#foam-drop">
      <animateTransform id="droplet" attributeName="transform" type="translate" dur=".8" values="0,0; 0,200;" begin="spill.end-.10" repeatCount="1"/>
    </use>
  </g>
  <animateTransform attributeName="transform" type="translate" dur="2" fill="freeze" values="0,0; 0,2;0,0" repeatCount="indefinite" additive="sum"/>
</g>
<g transform="translate(193,166)">
  <use xlink:href="#star1">
    <animateTransform attributeName="transform" type="rotate" dur=".6s" values="0 15.35 16;360 15.35 16" repeatCount="0" begin="0s;fadestar3.end"/>
    <animate id="fadestar1" attributeName="opacity" values="0;1;0" dur=".6s" repeatCount="0" begin="0s;fadestar3.end" fill="freeze"/>
  </use>
</g>
<g transform="translate(230,262)">
  <use xlink:href="#star2" visibility="hidden">
    <set attributeName="visibility" from="hidden" to="visible" begin="fadestar1.end" />
    <animateTransform attributeName="transform" type="rotate" dur=".6s" values="0 12.7 12.15;360 12.7 12.15" repeatCount="0" begin="fadestar1.end-.25"/>
    <animate id="fadestar2" attributeName="opacity" values="0;1;0" dur=".6s" repeatCount="0" fill="freeze" begin="fadestar1.end-.25"/>
  </use>
</g>
<g transform="translate(315,193)">
  <use xlink:href="#star3" visibility="hidden">
    <set attributeName="visibility" from="hidden" to="visible" begin="fadestar2.end" />
    <animateTransform attributeName="transform" type="rotate" dur=".6s" values="0 7.7 8;360 7.7 8" repeatCount="0" begin="fadestar2.end-.25"/>
    <animate id="fadestar3" attributeName="opacity" values="0;1;0" dur=".6s" repeatCount="0" fill="freeze" begin="fadestar2.end-.25"/>
  </use>
</g>
</g>
</svg>
