<?xml version="1.0" encoding="utf-8"?>
<svg version="1.1" xmlns="http://www.w3.org/2000/svg" xmlns:xlink="http://www.w3.org/1999/xlink" x="0px" y="0px"
   viewBox="0 0 550 309" enable-background="new 0 0 550 309" xml:space="preserve">
<defs>
<rect id="bg" x="0" y="0" height="309" width="550" fill="#0e1741" />
<g id="right-spotlight">
  <polygon fill="#C7FEFF" points="188.7,0 109.6,351.5 0,335.6  "/>
</g>
<g id="left-spotlight">
  <polygon fill="#C7FEFF" points="0,0 86,368 208,382   "/>
</g>
<g id="right-stadium-light">
  <g>
    <g>
      <path fill="#C7FEFF" d="M4.4,18.3c-3.2,1-5,5-4.2,9.1c0.8,4,3.9,6.7,7.1,5.9c3.3-0.8,5.3-4.9,4.5-9.1C11,19.9,7.7,17.3,4.4,18.3z
        "/>
      <path fill="#C7FEFF" d="M21.1,13.1c-3.6,1.1-5.7,5.5-4.9,9.8c0.8,4.3,4.4,7.1,8,6.2c3.7-0.9,6.1-5.4,5.3-9.9
        C28.5,14.7,24.7,12,21.1,13.1z"/>
      <path fill="#C7FEFF" d="M40.1,7.2c-4.1,1.3-6.6,6-5.8,10.6c0.9,4.6,4.9,7.5,9,6.5c4.3-1.1,7.1-5.9,6.2-10.7
        C48.6,8.7,44.3,5.9,40.1,7.2z"/>
      <path fill="#C7FEFF" d="M65.6,18.8c5-1.2,8.3-6.5,7.3-11.7c-1-5.2-5.9-8.2-10.8-6.7c-4.8,1.5-7.7,6.7-6.8,11.6
        C56.2,17,60.8,20,65.6,18.8z"/>
      <path fill="#C7FEFF" d="M8.5,39.4c-3.2,0.7-5.1,4.6-4.3,8.6s4,6.9,7.2,6.4c3.3-0.5,5.4-4.4,4.6-8.6C15.1,41.5,11.7,38.6,8.5,39.4
        z"/>
      <path fill="#C7FEFF" d="M25.4,35.6c-3.6,0.8-5.9,4.9-5,9.2c0.8,4.3,4.4,7.3,8.1,6.7c3.8-0.6,6.2-4.8,5.4-9.3
        C32.9,37.7,29.1,34.8,25.4,35.6z"/>
      <path fill="#C7FEFF" d="M44.7,31.3c-4.2,0.9-6.8,5.4-5.9,10s4.9,7.8,9.2,7.1c4.3-0.7,7.2-5.2,6.3-10.1
        C53.3,33.5,49,30.3,44.7,31.3z"/>
      <path fill="#C7FEFF" d="M67,26.3c-4.8,1.1-7.9,5.9-6.9,10.9s5.6,8.3,10.5,7.5C75.6,44,79,39,78,33.8S72,25.2,67,26.3z"/>
      <path fill="#C7FEFF" d="M12.5,60.4c-3.3,0.4-5.2,4.1-4.4,8.1s4,7.1,7.3,6.9c3.4-0.3,5.5-3.9,4.7-8.1C19.3,63,15.8,60,12.5,60.4z"
        />
      <path fill="#C7FEFF" d="M29.7,58.1c-3.7,0.5-6,4.4-5.1,8.7c0.8,4.3,4.5,7.6,8.2,7.3c3.8-0.3,6.3-4.2,5.5-8.7S33.5,57.5,29.7,58.1
        z"/>
      <path fill="#C7FEFF" d="M49.3,55.4c-4.2,0.6-6.9,4.8-6,9.4s5,8.1,9.3,7.7c4.4-0.3,7.3-4.6,6.4-9.4C58.1,58.2,53.7,54.8,49.3,55.4
        z"/>
      <path fill="#C7FEFF" d="M72,52.3c-4.9,0.7-8,5.2-7.1,10.2c0.9,4.9,5.6,8.7,10.6,8.3c5.1-0.4,8.6-5,7.6-10.2
        C82.1,55.2,77.1,51.6,72,52.3z"/>
    </g>
  </g>
</g>
<g id="left-stadium-light">
  <g>
    <g>
      <path fill="#C7FEFF" d="M78.9,18.3c3.2,1,5,5,4.2,9.1c-0.8,4-3.9,6.7-7.1,5.9c-3.3-0.8-5.3-4.9-4.5-9.1
        C72.3,19.9,75.7,17.3,78.9,18.3z"/>
      <path fill="#C7FEFF" d="M62.2,13.1c3.6,1.1,5.7,5.5,4.9,9.8c-0.8,4.3-4.4,7.1-8,6.2c-3.7-0.9-6.1-5.4-5.3-9.9
        C54.8,14.7,58.6,12,62.2,13.1z"/>
      <path fill="#C7FEFF" d="M43.2,7.2c4.1,1.3,6.6,6,5.8,10.6c-0.9,4.6-4.9,7.5-9,6.5c-4.3-1.1-7.1-5.9-6.2-10.7
        C34.7,8.7,39,5.9,43.2,7.2z"/>
      <path fill="#C7FEFF" d="M17.7,18.8c-5-1.2-8.3-6.5-7.3-11.7c1-5.2,5.9-8.2,10.8-6.7C26,1.9,29,7.1,28.1,12
        C27.1,17,22.5,20,17.7,18.8z"/>
      <path fill="#C7FEFF" d="M74.8,39.4c3.2,0.7,5.1,4.6,4.3,8.6c-0.8,4-4,6.9-7.2,6.4c-3.3-0.5-5.4-4.4-4.6-8.6
        C68.2,41.5,71.6,38.6,74.8,39.4z"/>
      <path fill="#C7FEFF" d="M57.9,35.6c3.6,0.8,5.9,4.9,5,9.2s-4.4,7.3-8.1,6.7c-3.8-0.6-6.2-4.8-5.4-9.3S54.2,34.8,57.9,35.6z"/>
      <path fill="#C7FEFF" d="M38.6,31.3c4.2,0.9,6.8,5.4,5.9,10c-0.9,4.6-4.9,7.8-9.2,7.1c-4.3-0.7-7.2-5.2-6.3-10.1
        S34.3,30.3,38.6,31.3z"/>
      <path fill="#C7FEFF" d="M16.3,26.3c4.8,1.1,7.9,5.9,6.9,10.9c-0.9,4.9-5.6,8.3-10.5,7.5C7.7,44,4.3,39,5.3,33.8
        S11.3,25.2,16.3,26.3z"/>
      <path fill="#C7FEFF" d="M70.8,60.4c3.3,0.4,5.2,4.1,4.4,8.1c-0.8,4-4,7.1-7.3,6.9c-3.4-0.3-5.5-3.9-4.7-8.1S67.5,60,70.8,60.4z"
        />
      <path fill="#C7FEFF" d="M53.6,58.1c3.7,0.5,6,4.4,5.1,8.7c-0.8,4.3-4.5,7.6-8.2,7.3c-3.8-0.3-6.3-4.2-5.5-8.7
        C46,60.8,49.8,57.5,53.6,58.1z"/>
      <path fill="#C7FEFF" d="M34,55.4c4.2,0.6,6.9,4.8,6,9.4c-0.9,4.6-5,8.1-9.3,7.7c-4.4-0.3-7.3-4.6-6.4-9.4
        C25.2,58.2,29.6,54.8,34,55.4z"/>
      <path fill="#C7FEFF" d="M11.3,52.3c4.9,0.7,8,5.2,7.1,10.2s-5.6,8.7-10.6,8.3c-5.1-0.4-8.6-5-7.6-10.2S6.2,51.6,11.3,52.3z"/>
    </g>
  </g>
</g>
<g id="red_platform">
  <g>
    <polygon fill="#E83D3D" points="132.9,0 248.9,39.6 106.8,92.1 0,28.9    "/>
    <polygon fill="#A32C2C" points="248.9,39.6 106.8,92.1 106.8,132.2 248.9,61.3    "/>
    <polygon fill="#A32C2C" points="132.1,25.7 86.8,30.6 47.1,57 106.8,92.1 149.2,76.4 159.5,48     "/>
    <polygon fill="#7C1D1D" points="0,28.9 0,52 106.8,132.2 106.8,92.1    "/>
  </g>
</g>
<g id="helmet">
  <g>
    <polygon fill="#B78D16" points="72.7,43.8 73.7,49.7 46,64.5 52,31.9     "/>
    <g>
      <path fill="#8C7100" d="M50.1,177.5l7.8-145.5l-10.1-3.8L25.9,148.9l6.3,5.8c0,0-4.6,9.6,1.2,11.3
        C39.2,167.6,46.1,171,50.1,177.5z"/>
      <path fill="#E8C223" d="M23.1,164.5c0,0,6.2,0.1,10.4,1.5l1.6-22.4l-9.2,5.3L23.1,164.5z"/>
      <path fill="#EABD00" d="M85.2,118.8L65.3,107l8.4-57.3l-18-17.8l-4.2,69.8l-2.4,39L46,191.9c0,0,18.8-16,49.7-10L85.2,118.8z"/>
      <path fill="#CCA500" d="M57.9,185.2l1.9-128.1l7-3.8l12,127.3C78.9,180.6,67.8,181.1,57.9,185.2z"/>
      <polygon fill="#8C7100" points="73.1,119.3 68.4,120.7 77.5,166      "/>
      <polygon fill-rule="evenodd" clip-rule="evenodd" fill="#8C7100" points="83.1,105.4 77.4,116.3 67.9,118.3 54,115.1 33.7,107
        33,109.8 25.9,148.9 38,142 38.3,140.7 48.2,132.9 85.2,118.8       "/>
    </g>
    <path fill-rule="evenodd" clip-rule="evenodd" fill="#EABD00" d="M97.3,51.9c0.6-1.1,2.1-1.1,3.3-1.4c5.4-1.1,10.9-1.4,16.5-1.6
      c-0.9-5.3-2.6-10.6-5.1-15.6C98.9,1.1,66.7-7.6,33.2,6.5C3.7,19.3-4.7,48.7,2.4,74.4c0.3,1,0.6,2,0.9,3L5.2,86l0,0.8l11,9.7
      l2.3,3.6c8.2,4.6,17.9,7.6,25.2,13.1c15.4,9.7,41.5,7.8,45-8.9c3.6-15.1-8.1-35.2,6.9-48.2c0.9-0.4,1.6,1,2.5,0.7
      C97.6,55.2,96.7,53,97.3,51.9z"/>
    <g>
      <path fill="#EABD00" d="M84.4,4.1C69.7-2.1,51.7-1.2,33.2,6.5C3.7,19.3-4.7,48.7,2.4,74.4c0.3,1,0.6,2,0.9,3L5.2,86l0,0.8
        l6.6,5.8L8.7,79.8L84.4,4.1z"/>
      <path fill="#EABD00" d="M105.3,21.1l-81,81l-1.2,0.7c6.4,3.9,12.1,7.1,18.9,10.9c16.6,9.1,43.2,7.3,46.8-9.4
        c3.6-15.1-8.1-35.2,6.9-48.2c0.9-0.4,1.6,1,2.5,0.7c-0.6-1.6-1.5-3.8-0.8-4.9c0.6-1.1,2.1-1.1,3.3-1.4c5.4-1.1,10.9-1.4,16.5-1.6
        c-0.9-5.3-2.6-10.6-5.1-15.6C110.1,28.8,107.9,24.7,105.3,21.1z"/>
      <path fill="#F4CC25" d="M105.3,21.1c-5.6-7.9-12.7-13.5-20.9-17L8.7,79.8l3.1,12.7l4.5,3.9l0.4,2.5c1.6,0.9,4.9,2.9,6.5,3.9
        l1.2-0.7L105.3,21.1z"/>
    </g>
    <g>
      <path fill="#FFDF5A" d="M15.9,76.7c-0.3-0.8-0.5-1.6-0.7-2.4c-5.8-21,1.1-44.9,25.1-55.3c27.3-11.5,53.5-4.4,64.1,21.8
        c1.4,2.9,2.5,5.8,3.3,8.8c3.1-0.3,6.3-0.4,9.5-0.5c-0.9-5.3-2.6-10.6-5.1-15.6C98.9,1.1,66.7-7.6,33.2,6.5
        C3.7,19.3-4.7,48.7,2.4,74.4c0.3,1,0.6,2,0.9,3L5.2,86l-0.1,5.8l9.7,6l1.8,1.1l0.8-15.4L15.9,76.7z"/>
    </g>
    <circle fill-rule="evenodd" clip-rule="evenodd" fill="#CCA500" cx="54" cy="82.2" r="18"/>
    <path fill-rule="evenodd" clip-rule="evenodd" fill="#FFEA92" d="M46,82.3c0-4.5,3.6-8.1,8.1-8.1c3.9,0,7.1,2.7,7.9,6.3
      c2-3.2,3.9-6.4,5.9-9.7c-3.3-4-8.3-6.6-13.9-6.6c-9.9,0-18,8-18,18c0,0.9,0.1,1.7,0.2,2.6l9.9-1.1C46,83.3,46,82.8,46,82.3z"/>
    <path fill-rule="evenodd" clip-rule="evenodd" fill="#8C7100" d="M59.8,76.6L48.4,88c3.2,3.2,8.3,3.2,11.5,0
      C63,84.9,63,79.7,59.8,76.6z"/>
    <path fill-rule="evenodd" clip-rule="evenodd" fill="#EABD00" d="M48.4,76.6c-3.2,3.2-3.2,8.3,0,11.5l11.5-11.5
      C56.7,73.4,51.5,73.4,48.4,76.6z"/>
    <g>
      <path fill="none" d="M119.8,53.7c-0.1-0.5-0.3-0.9-0.5-1.5c-7.6,0.4-11.6,0.9-19.2,1.7l0.4,2C108.4,55.1,112,54.4,119.8,53.7z"/>
      <path fill="none" d="M95.3,54.4c-2.2,0.3-4.4,0.6-6.7,0.9c-3.7,0.6-6.5,2.2-8.6,5.4c-0.2,0.4-0.5,0.7-0.7,1.1l14.3,16.3l6.7-0.8
        L95.3,54.4z"/>
    </g>
    <g>
      <path fill="none" d="M120,54c-0.1-0.5-0.5-1.4-0.7-2c-7.6,0.6-11.5,1-19.1,1.8l0.4,2C108.4,55.1,112.1,54.8,120,54z"/>
      <path fill="none" d="M100.3,77.3l-5-22.9c-2.2,0.3-4.4,0.6-6.7,0.9c-3.7,0.6-6.5,2.2-8.6,5.4c-0.2,0.4-0.5,0.7-0.7,1.1l14.3,16.3
        L100.3,77.3z"/>
      <path fill="none" d="M97.6,82.5L97.6,82.5l-5.9,0.7l-3.9-4.4h0L76.6,66.1c-4,6.3-7.8,12.7-11.8,19.1l14.4,9.7
        c1.6,1.1,3.4,1.4,5.3,0.6l18-8.7l-1-4.6L97.6,82.5z"/>
      <g>
        <path fill="none" d="M97.6,82.5L97.6,82.5l-5.9,0.7l-3.9-4.4h0L76.6,66.1c-4,6.3-7.8,12.7-11.8,19.1l14.4,9.7
          c1.6,1.1,3.4,1.4,5.3,0.6l18-8.7l-1-4.6L97.6,82.5z"/>
        <path fill="none" d="M100.3,77.3l-5-22.9c-2.2,0.3-4.4,0.6-6.7,0.9c-3.7,0.6-6.5,2.2-8.6,5.4c-0.2,0.4-0.5,0.7-0.7,1.1
          l14.3,16.3L100.3,77.3z"/>
        <path fill="none" d="M107.4,90.6l3.3,21.7l21.7,6.6c2.1-10.5,3.8-21.2,4.1-28.3L107.4,90.6z"/>
        <path fill="none" d="M120,54c-0.1-0.5-0.5-1.4-0.7-2c-7.6,0.6-11.5,1-19.1,1.8l0.4,2C108.4,55.1,112.1,54.8,120,54z"/>
        <g>
          <path fill="none" d="M120,54c-0.1-0.5-0.5-1.4-0.7-2c-7.6,0.6-11.5,1-19.1,1.8l0.4,2C108.4,55.1,112.1,54.8,120,54z"/>
          <path fill="none" d="M100.3,77.3l-5-22.9c-2.2,0.3-4.4,0.6-6.7,0.9c-3.7,0.6-6.5,2.2-8.6,5.4c-0.2,0.4-0.5,0.7-0.7,1.1
            l14.3,16.3L100.3,77.3z"/>
          <path fill="none" d="M107,85.7l0.1,0l0.1,0l0,0l29.7,0c0-1,0.1-4.1,0.1-7.1l-30.8,3.1L107,85.7z"/>
          <path fill="none" d="M97.6,82.5L97.6,82.5l-5.9,0.7l-3.9-4.4h0L76.6,66.1c-4,6.3-7.8,12.7-11.8,19.1l14.4,9.7
            c1.6,1.1,3.4,1.4,5.3,0.6l18-8.7l-1-4.6L97.6,82.5z"/>
          <path fill="none" d="M110.7,112.2l21.7,6.6c2.1-10.5,3.8-21.2,4.1-28.3l-29.2,0L110.7,112.2z"/>
          <path fill="#FFFFFF" d="M136.9,73.7l-31.8,3.2l-3.5-16.2c5.3-0.5,9-1.1,13.2-1.6c4.4-0.3,11-1.3,11-1.3l-4.1-10.6
            c0,0-2.4,0-9.2,0.6c0,0,0,0,0,0c-8.3,0.6-15.4,1.4-24.6,2.8c-5.1,0.8-9.1,3.2-11.9,7.5c-5.7,8.7-11,17.6-16.5,26.5l-1.3,2
            l0.1,0l0,0.1l2,1.3l16.3,10.9c3.1,2.1,6.7,2.5,10.1,0.9l16.6-7.9l2.7,18.9l0.6,5.3l29.8,9.1c0.3-1.5,0.6-3.1,1-4.8
            c2.2-11.7,3.8-29.4,4.4-42.2c0.1-1.8,0.1-3.4,0.2-4.9L136.9,73.7z M119.2,52c0.2,0.6,0.6,1.5,0.7,2c-7.8,0.8-11.6,1.1-19.4,1.9
            l-0.4-2C107.7,53.1,111.6,52.6,119.2,52z M80,60.8c2.1-3.2,4.9-4.8,8.6-5.4c2.2-0.4,4.4-0.7,6.7-0.9l5,22.9l-6.7,0.8L79.3,61.8
            C79.6,61.5,79.8,61.1,80,60.8z M84.4,95.4c-1.8,0.9-3.6,0.5-5.3-0.6l-14.4-9.7c3.9-6.4,7.8-12.7,11.8-19.1l11.1,12.7h0l3.9,4.4
            l5.9-0.7h0l3.8-0.4l1,4.6L84.4,95.4z M133,118.9l-22.3-6.6l-3.3-21.7l29.2,0C136.2,97.6,134.9,109.7,133,118.9z M136.6,85.7
            l-29.5,0l0,0l-0.1,0l-0.1,0l-0.9-4.1l30.8-3.1C136.9,81.6,136.6,84.7,136.6,85.7z"/>
        </g>
      </g>
    </g>
    <g>
      <path fill="#FFFFFF" d="M112,33.3C98.9,1.1,66.7-7.6,33.2,6.5C3.7,19.4-4.7,48.7,2.4,74.5c0.3,1,0.6,2,0.9,3L5.2,86l-0.1,5.8
        l3.3,2.1l0.4-10.3L7,75.6c-0.3-0.9-0.6-1.9-0.8-2.8c-6.6-24,1.3-51.4,28.8-63.3c31.2-13.1,61.3-5.1,73.5,25
        c2.3,4.7,3.9,9.6,4.8,14.6l3.9,0C116.2,43.7,114.5,38.4,112,33.3z"/>
    </g>
  </g>
</g>
<g id="star4">
  <polygon fill="#FFFFFF" points="7.4,7.6 12.4,6.5 7.4,5.3 6.2,0 5,5.3 0,6.5 5,7.6 6.2,12.9   "/>
</g>
<g id="star3">
  <polygon fill="#FFFFFF" points="10.7,11.1 18,9.4 10.7,7.7 9,0 7.3,7.7 0,9.4 7.3,11.1 9,18.8   "/>
</g>
<g id="star2">
  <polygon fill="#FFFFFF" points="7.4,7.6 12.4,6.5 7.4,5.3 6.2,0 5,5.3 0,6.5 5,7.6 6.2,12.9   "/>
</g>
<g id="star1">
  <polygon fill="#FFFFFF" points="13.7,14.1 23,12 13.7,9.8 11.5,0 9.3,9.8 0,11.9 9.3,14.1 11.5,23.9   "/>
</g>
<clipPath id="canvas">
  <polygon points="550,309 0,309 0,0 550,0 "/>
</clipPath>
</defs>
<!-- Football -->
<g id="13-football" clip-path="url(#canvas)">
<use xlink:href="#bg" />
<g transform="translate(98,101)">
  <use xlink:href="#left-stadium-light">
    <animate attributeName="opacity" values=".86;.24;.86" dur="4s" repeatCount="indefinite" fill="freeze"/>
  </use>
</g>
<g transform="translate(368,100)">
  <use xlink:href="#right-stadium-light">
    <animate attributeName="opacity" values=".86;.24;.86" dur="4s" repeatCount="indefinite" fill="freeze"/>
  </use>
</g>
<g transform="translate(110,-98)">
  <use xlink:href="#left-spotlight">
    <animate attributeName="opacity" values=".13;.23;.13" dur="2s" repeatCount="indefinite" fill="freeze"/>
    <animateTransform id="" attributeName="transform" type="rotate" dur="3.5s" values="-12 0 0;2.6 0 0;-12 0 0" repeatCount="indefinite" additive="sum"/>
  </use>
</g>
<g transform="translate(243,-80)">
  <use xlink:href="#right-spotlight">
    <animate attributeName="opacity" values=".13;.23;.13" dur="2s" repeatCount="indefinite" fill="freeze"/>
    <animateTransform id="" attributeName="transform" type="rotate" dur="3.5s" values="10 188.7 0;-2.8 188.7 0;10 188.7 0" repeatCount="indefinite" additive="sum"/>
  </use>
</g>
<g transform="translate(150,197)">
  <use xlink:href="#red_platform" />
</g>
<g transform="translate(214,63)">
  <use xlink:href="#helmet" />
</g>
<g transform="translate(235,60)">
<use xlink:href="#star1">
  <animateTransform attributeName="transform" type="rotate" dur=".6s" values="0 11.5 12;360 11.5 12" repeatCount="0" begin="0s;fadestar4.end"/>
  <animate id="fadestar1" attributeName="opacity" values="0;1;0" dur=".6s" repeatCount="0" begin="0s;fadestar4.end" fill="freeze"/>
</use>
</g>
<g transform="translate(313,186)">
<use xlink:href="#star2" visibility="hidden">
  <set attributeName="visibility" from="hidden" to="visible" begin="fadestar1.end" />
  <animateTransform attributeName="transform" type="rotate" dur=".6s" values="0 6.2 6.5;360 6.2 6.5" repeatCount="0" begin="fadestar1.end-.25"/>
  <animate id="fadestar2" attributeName="opacity" values="0;1;0" dur=".6s" repeatCount="0" fill="freeze" begin="fadestar1.end-.25"/>
</use>
</g>
<g transform="translate(280,89)">
  <use xlink:href="#star3" visibility="hidden">
    <set attributeName="visibility" from="hidden" to="visible" begin="fadestar2.end" />
    <animateTransform attributeName="transform" type="rotate" dur=".6s" values="0 9 9.35;360 9 9.35" repeatCount="0" begin="fadestar2.end-.25"/>
    <animate id="fadestar3" attributeName="opacity" values="0;1;0" dur=".6s" repeatCount="0" fill="freeze" begin="fadestar2.end-.25"/>
  </use>
</g>
<g transform="translate(227,173)">
  <use xlink:href="#star4" visibility="hidden">
    <set attributeName="visibility" from="hidden" to="visible" begin="fadestar3.end" />
    <animateTransform attributeName="transform" type="rotate" dur=".6s" values="0 6.2 6.45;360 6.2 6.45" repeatCount="0" begin="fadestar3.end-.25"/>
    <animate id="fadestar4" attributeName="opacity" values="0;1;0" dur=".6s" repeatCount="0" fill="freeze" begin="fadestar3.end-.25"/>
  </use>
</g>
</g>
</svg>
