<?xml version="1.0" encoding="utf-8"?>
<!-- Generator: Adobe Illustrator 18.1.1, SVG Export Plug-In . SVG Version: 6.00 Build 0)  -->
<svg version="1.1" xmlns="http://www.w3.org/2000/svg" xmlns:xlink="http://www.w3.org/1999/xlink" x="0px" y="0px"
	 viewBox="0 0 550 309" enable-background="new 0 0 550 309" xml:space="preserve">
<defs>
<rect id="bg" x="0" y="0" height="309" width="550" fill="#0e1741" />
<g id="basketball">
  <circle cx="74" cy="74" r="74" fill="#7C1D1D"/>
</g>
<g id="highlight">
	<circle cx="65" cy="65" r="65" fill="#E83D3D"/>
</g>
<g id="seam">
	<path fill="#121841" d="M131.8,53.1c-10.5-8.9-17.3-8.9-28.9-5.3l0,0c-3.1-6-6.2-11-9.1-15.2c0.4,0.5,0.8,1.2,1.1,1.7
	c0,0,24-12.6,38.2-6.5c0,0-2.3-3.1-2.6-3.3c0,0-14.2-4.8-37.3,7.5c0,0,0.1,0.1,0.2,0.3c-3.6-5.2-6.9-9-9.7-11.9c0,0,0,0,0,0
	C103.4,11.8,97.6,1,97.6,1c-1.3-0.5-2.8-1-2.8-1c2.3,10.3-6.6,14.7-9.2,16.1c-2.6,1.4-6.4-0.3-6.4-0.3l0,0c-1.7-1.5-2.7-2.4-2.9-2.7
	C75.3,11.2,62,0.9,48.5,0.2c0,0-3.9,1.3-4.5,1.6c0,0,15.3-1.6,32.4,14.9l0,0c0,0,0.3,0.3-1.1,3.4c-1.4,3.1-10.5,6.1-29.3,6.4
	C18.2,26.8,3.1,41.1,2.4,42.6C1.8,44.2,0,49.3,0,49.3c5.9-9.8,23.2-20.1,45.9-20.2c26-0.1,34.5-7.8,34.7-7.9c1.7,2,3.5,4.2,5.2,6.6
	c1.4,2,2.7,3.9,4,5.7C89.7,33.6,7.2,76,6.5,109.3c0,0,1.3,2.1,1.6,2.6c0,0-4.2-30.3,83.4-75.9c3.2,4.9,5.9,9.4,8.2,13.5
	c-5.7,3.2-8.4,6-13.3,12.7c-4.2,5.8-13.1,28.4-20.9,51.4S49,143.5,49,143.5l3,0.9c12.9-11.2,30.2-65.3,33.2-72.6
	c3-7.1,8.7-13.5,12.7-15.7c4.2-2.3,5.7,1,5.8,1.1c5.5,11.5,7.6,19.8,9.5,26.1c3.2,10.8,6.9,39.7-7.3,55.8c0,0,4.2-2.4,5.2-3
	c0,0,18.2-18.8,2.4-63.6c-2.5-7-5.1-13.2-7.7-18.8c0,0,0,0,0,0c0,0-1.1-2,1.5-3.5c1.5-0.9,13.5-6.4,28.1,9.8c0,0,8.9,9.8,11.2,21.9
	c0,0,0.4-3.7,0.5-4.3C147,77.6,142.3,62,131.8,53.1z M90.5,34.5c0.3,0.4,0.6,0.8,0.8,1.2L90.5,34.5z"/>
</g>
<g id="crown">
	<g>
		<g>
			<polygon fill="#FFCE04" points="24.5,115.1 7.9,62.8 69,99.4 			"/>
			<polygon fill="#FFCE04" points="134.4,76.6 115.7,22.4 89,92.3 			"/>
			<polygon fill="#FFCE04" points="44.1,108.2 46.4,7.9 120.6,81.4 			"/>
		</g>
		<polygon fill="#B78D16" points="46.4,7.9 58,103.3 24.5,115.1 7.9,62.8 44.5,84.6 		"/>
		<polygon fill="#B78D16" points="100.8,61.5 110.8,71.7 112.9,29.8 		"/>
		<polygon fill="#FFED48" points="52,13.4 120.6,81.4 104.8,86.8 		"/>
		<polygon fill="#FFCE04" points="14.7,66.9 44.1,94.2 44.5,84.6 		"/>
		<polygon fill="#FFED48" points="118.3,29.9 126.3,79.4 134.4,76.6 		"/>
		<g>
			<path fill="#FFCE04" d="M54.1,6.4l-6.3-6.3c-0.5-0.1-1-0.1-1.5-0.1c-4.4,0-7.9,3.5-7.9,7.9s3.5,7.9,7.9,7.9s7.9-3.5,7.9-7.9
				C54.2,7.4,54.2,6.9,54.1,6.4z"/>
			<path fill="#FFED48" d="M43.8,5.2c0,2.9,2.3,5.2,5.2,5.2c2.5,0,4.6-1.7,5.1-4.1c-0.6-3.2-3.1-5.7-6.3-6.3
				C45.5,0.7,43.8,2.8,43.8,5.2z"/>
		</g>
		<g>
			<path fill="#FFCE04" d="M123.5,21l-6.3-6.3c-0.5-0.1-1-0.1-1.5-0.1c-4.4,0-7.9,3.5-7.9,7.9s3.5,7.9,7.9,7.9s7.9-3.5,7.9-7.9
				C123.6,21.9,123.5,21.4,123.5,21z"/>
			<path fill="#FFED48" d="M113.1,19.8c0,2.9,2.3,5.2,5.2,5.2c2.5,0,4.6-1.7,5.1-4.1c-0.6-3.2-3.1-5.7-6.3-6.3
				C114.9,15.2,113.1,17.3,113.1,19.8z"/>
		</g>
		<g>
			<path fill="#FFCE04" d="M15.6,61.3l-6.3-6.3c-0.5-0.1-1-0.1-1.5-0.1c-4.4,0-7.9,3.5-7.9,7.9s3.5,7.9,7.9,7.9s7.9-3.5,7.9-7.9
				C15.8,62.3,15.7,61.8,15.6,61.3z"/>
			<path fill="#FFED48" d="M5.3,60.2c0,2.9,2.3,5.2,5.2,5.2c2.5,0,4.6-1.7,5.1-4.1c-0.6-3.2-3.1-5.7-6.3-6.3
				C7,55.6,5.3,57.7,5.3,60.2z"/>
		</g>
	</g>
</g>
<g id="star4">
  <polygon fill="#FFFFFF" points="7.4,7.6 12.4,6.5 7.4,5.3 6.2,0 5,5.3 0,6.5 5,7.6 6.2,12.9   "/>
</g>
<g id="star3">
  <polygon fill="#FFFFFF" points="10.7,11.1 18,9.4 10.7,7.7 9,0 7.3,7.7 0,9.4 7.3,11.1 9,18.8   "/>
</g>
<g id="star2">
  <polygon fill="#FFFFFF" points="7.4,7.6 12.4,6.5 7.4,5.3 6.2,0 5,5.3 0,6.5 5,7.6 6.2,12.9   "/>
</g>
<g id="star1">
  <polygon fill="#FFFFFF" points="13.7,14.1 23,12 13.7,9.8 11.5,0 9.3,9.8 0,11.9 9.3,14.1 11.5,23.9   "/>
</g>
</defs>

<!-- Basketball -->
<use xlink:href="#bg" />
<g id="ball" transform="translate(216,126)">
  <g transform="translate(-1,-1)">
    <use xlink:href="#basketball">
  </use>
  </g>
  <g transform="translate(2,2)">
    <use xlink:href="#highlight">
    </use>
  </g>
  <g>
    <use xlink:href="#seam">
    	<animateTransform id="" attributeName="transform" type="rotate" dur="1.4s" values="-30 74.35 73.6;30 74.35 73.6;-30 74.35 73.6" repeatCount="indefinite" additive="sum"/>
    </use>
  </g>
  <animateTransform id="drop-2" attributeName="transform" type="translate" dur=".7" fill="freeze" values="0,90;0,30;0,0;0,30;0,90" repeatCount="indefinite" additive="sum"/>
  <!--
  <animateTransform id="" attributeName="transform" type="rotate" dur="1.4s" values="-20 74.35 73.6;20 74.35 73.6;-20 74.35 73.6" repeatCount="indefinite" additive="sum"/>
-->
</g>
<g transform="translate(198,43)">
  <use xlink:href="#crown">
  	<animateTransform id="drop-2" attributeName="transform" type="translate" dur=".7" fill="freeze" values="0,-25;0,-22;0,10;0,-22;0,-25" repeatCount="indefinite" additive="sum"/>
  	<animateTransform id="" attributeName="transform" type="rotate" dur="1.4s" values="-16 90 65;31 90 65;-16 90 65" repeatCount="indefinite" additive="sum"/>
  </use>
</g>
<g>
<g transform="translate(203,75)">
<use xlink:href="#star1">
  <animateTransform attributeName="transform" type="rotate" dur=".6s" values="0 11.5 12;360 11.5 12" repeatCount="0" begin="0s;fadestar4.end"/>
  <animate id="fadestar1" attributeName="opacity" values="0;1;0" dur=".6s" repeatCount="0" begin="0s;fadestar4.end" fill="freeze"/>
</use>
</g>
<g transform="translate(257,111)">
<use xlink:href="#star2" visibility="hidden">
  <set attributeName="visibility" from="hidden" to="visible" begin="fadestar1.end" />
  <animateTransform attributeName="transform" type="rotate" dur=".6s" values="0 6.2 6.5;360 6.2 6.5" repeatCount="0" begin="fadestar1.end-.25"/>
  <animate id="fadestar2" attributeName="opacity" values="0;1;0" dur=".6s" repeatCount="0" fill="freeze" begin="fadestar1.end-.25"/>
</use>
</g>
<g transform="translate(257,31)">
  <use xlink:href="#star3" visibility="hidden">
    <set attributeName="visibility" from="hidden" to="visible" begin="fadestar2.end" />
    <animateTransform attributeName="transform" type="rotate" dur=".6s" values="0 9 9.35;360 9 9.35" repeatCount="0" begin="fadestar2.end-.25"/>
    <animate id="fadestar3" attributeName="opacity" values="0;1;0" dur=".6s" repeatCount="0" fill="freeze" begin="fadestar2.end-.25"/>
  </use>
</g>
<g transform="translate(319,76)">
  <use xlink:href="#star4" visibility="hidden">
    <set attributeName="visibility" from="hidden" to="visible" begin="fadestar3.end" />
    <animateTransform attributeName="transform" type="rotate" dur=".6s" values="0 6.2 6.45;360 6.2 6.45" repeatCount="0" begin="fadestar3.end-.25"/>
    <animate id="fadestar4" attributeName="opacity" values="0;1;0" dur=".6s" repeatCount="0" fill="freeze" begin="fadestar3.end-.25"/>
  </use>
</g>
</g>
</svg>
