<?xml version="1.0" encoding="utf-8"?>
<!-- Generator: Adobe Illustrator 18.1.1, SVG Export Plug-In . SVG Version: 6.00 Build 0)  -->
<svg version="1.1" xmlns="http://www.w3.org/2000/svg" xmlns:xlink="http://www.w3.org/1999/xlink" x="0px" y="0px"
	 viewBox="0 0 550 309" enable-background="new 0 0 550 309" xml:space="preserve">
<defs>
<rect id="bg" x="0" y="0" height="309" width="550" fill="#0e1741" />
<g id="finger-blue">
	<g>

			<rect x="-26.9" y="166.6" transform="matrix(8.356788e-03 -1 1 8.356788e-03 -142.6755 217.2624)" fill="#00B4EB" width="130.2" height="27.9"/>
		<polygon fill="#B78D16" points="56.7,0 50.3,38.1 0.4,47.2 0,96.3 9.4,104.6 12.8,124.2 64.4,124.6 67.2,104.9 76,96.2 76.8,0.2
					"/>
		<polygon fill="#FFCE04" points="15,101.9 18.4,118.2 50.3,118.4 52.8,102.2 70,92.2 70.3,56.2 56,52.8 35.1,67.1 43.6,74.2
			57.5,71.2 31.9,97.9 35.4,77.7 16.9,78.7 9.3,66.9 18.2,72.4 16.1,50.8 4.9,52.4 4.5,93.1 		"/>
		<polygon fill="#FFCE04" points="61,6 55,45.4 70.3,49.7 70.7,6.1 		"/>
		<polygon fill="#FFCE04" points="21,49.3 22.9,70.9 31,71 34.5,47 		"/>
		<polygon fill="#FFCE04" points="39.3,46 37,60.9 49.7,51.4 49.8,44.3 		"/>
		<polygon fill="#0E1741" points="24.7,124.3 24.6,132.4 52.6,128.6 52.6,124.5 		"/>

			<rect x="24.2" y="124.3" transform="matrix(1 8.356896e-03 -8.356896e-03 1 1.5466 -0.234)" opacity="0.33" fill="#0E1741" width="9.2" height="121.3"/>
		<polygon fill="#FFFFFF" points="61,6 60.3,10.8 67.4,9.4 70.3,49.7 70.7,6.1 		"/>
		<polygon fill="#FFFFFF" points="39.3,46 38.7,50 49.7,46.2 49.8,44.3 		"/>
		<polygon fill="#FFFFFF" points="21,49.3 21.3,53.2 34.2,49 34.5,47 		"/>
		<polygon fill="#FFFFFF" points="56,52.8 35.1,67.1 56,56.9 67.4,59.3 70,92.2 70.3,56.2 		"/>
		<polygon fill="#FFFFFF" points="4.9,52.4 4.8,56.4 16.3,52.9 16.1,50.8 		"/>
	</g>
</g>
<g id="finger-white">
	<g>

		<rect x="-27.2" y="166.5" transform="matrix(1.156634e-02 -0.9999 0.9999 1.156634e-02 -142.9999 216.3513)" fill="#FFFFFF" width="130.2" height="27.9"/>
		<polygon fill="#B78D16" points="57,0 50.5,38.1 0.6,47 0,96.1 9.4,104.5 12.7,124 64.3,124.6 67.2,104.9 76,96.3 77.1,0.2 		"/>
		<polygon fill="#FFCE04" points="14.9,101.7 18.3,118 50.3,118.4 52.8,102.2 70,92.3 70.4,56.2 56.2,52.8 35.2,67.1 43.6,74.1
			57.5,71.2 31.8,97.8 35.5,77.6 17,78.6 9.4,66.8 18.3,72.2 16.3,50.7 5,52.2 4.5,92.9 		"/>
		<polygon fill="#FFCE04" points="61.3,6 55.2,45.4 70.5,49.7 71,6.1 		"/>
		<polygon fill="#FFCE04" points="21.1,49.2 22.9,70.8 31.1,70.9 34.7,46.9 		"/>
		<polygon fill="#FFCE04" points="39.5,45.9 37.1,60.8 49.8,51.4 49.9,44.2 		"/>
		<polygon fill="#0E1741" points="24.6,124.2 24.5,132.3 52.5,128.5 52.6,124.5 		"/>

		<rect x="23.9" y="124.2" transform="matrix(0.9999 1.156646e-02 -1.156646e-02 0.9999 2.1401 -0.3172)" opacity="0.33" fill="#0E1741" width="9.2" height="121.3"/>
		<polygon fill="#FFFFFF" points="61.3,6 60.6,10.8 67.6,9.4 70.5,49.7 71,6.1 		"/>
		<polygon fill="#FFFFFF" points="39.5,45.9 38.8,50 49.9,46.2 49.9,44.2 		"/>
		<polygon fill="#FFFFFF" points="21.1,49.2 21.4,53.1 34.4,49 34.7,46.9 		"/>
		<polygon fill="#FFFFFF" points="5,52.2 5,56.3 16.5,52.7 16.3,50.7 		"/>
		<polygon fill="#FFFFFF" points="56.2,52.8 35.2,67.1 56.1,56.9 67.5,59.3 70,92.3 70.4,56.2 		"/>
	</g>
</g>
<g id="finger-red">
	<g>
		<rect x="24.9" y="115.6" fill="#E83D3D" width="27.9" height="173.1"/>
		<polygon fill="#B78D16" points="55.9,0 49.8,38.2 0,47.7 0,96.7 9.5,105 13,124.5 64.6,124.5 67.3,104.8 76,96.1 76,0 		"/>
		<polygon fill="#FFCE04" points="15,102.2 18.6,118.5 50.5,118.5 52.9,102.2 69.9,92.1 69.9,56.1 55.7,52.8 34.8,67.3 43.4,74.3
			57.2,71.2 31.9,98.1 35.2,77.8 16.8,79 9.1,67.3 18,72.7 15.8,51.2 4.5,52.8 4.5,93.5 		"/>
		<polygon fill="#FFCE04" points="60.3,6 54.6,45.4 69.9,49.6 69.9,6 		"/>
		<polygon fill="#FFCE04" points="20.6,49.6 22.6,71.2 30.8,71.2 34.1,47.2 		"/>
		<polygon fill="#FFCE04" points="38.9,46.1 36.7,61.1 49.3,51.5 49.3,44.3 		"/>
		<polygon fill="#0E1741" points="24.9,124.5 24.9,132.6 52.9,128.6 52.9,124.5 		"/>
		<polygon fill="#FFFFFF" points="60.3,6 59.6,10.7 66.6,9.3 69.9,49.6 69.9,6 		"/>
		<polygon fill="#FFFFFF" points="38.9,46.1 38.3,50.2 49.3,46.2 49.3,44.3 		"/>
		<polygon fill="#FFFFFF" points="20.6,49.6 20.9,53.5 33.8,49.2 34.1,47.2 		"/>
		<polygon fill="#FFFFFF" points="4.5,52.8 4.5,56.9 16,53.2 15.8,51.2 		"/>
		<polygon fill="#FFFFFF" points="55.7,52.8 34.8,67.3 55.7,56.9 67.1,59.2 69.9,92.1 69.9,56.1 		"/>
		<rect x="24.9" y="124.5" opacity="0.33" fill="#0E1741" width="9.2" height="164.1"/>
	</g>
</g>
<polygon id="star" fill="#FFFFFF" points="13.7,14.1 23,12 13.7,9.8 11.5,0 9.3,9.8 0,11.9 9.3,14.1 11.5,23.9 "/>
</defs>
<use xlink:href="#bg" />
<g transform="translate(43,162)">
  <use xlink:href="#star">
    <animateTransform id="atr-star-1" attributeName="transform" type="rotate" dur=".6s" values="0 11.5 12;360 11.5 12" repeatCount="0" begin="0s"/>
    <animate id="ato-star-1" attributeName="opacity" values="0;1;0" dur=".6s" repeatCount="0" begin="0s;fadestar3.end" fill="freeze"/>
  </use>
</g>
<g transform="translate(74,91)">
  <use xlink:href="#star">
    <animateTransform id="atr-star-2" attributeName="transform" type="rotate" dur=".6s" values="0 11.5 12;360 11.5 12" repeatCount="0" begin="0s"/>
    <animate id="ato-star-2" attributeName="opacity" values="0;1;0" dur=".6s" repeatCount="0" begin="0s;fadestar3.end" fill="freeze"/>
  </use>
</g>
<g transform="translate(175,96)">
  <use xlink:href="#star">
    <animateTransform id="atr-star-3" attributeName="transform" type="rotate" dur=".6s" values="0 11.5 12;360 11.5 12" repeatCount="0" begin="atr-star-1.begin+.25"/>
    <animate id="ato-star-3" attributeName="opacity" values="0;1;0" dur=".6s" repeatCount="0" begin="atr-star-1.begin+.25" fill="freeze"/>
  </use>
</g>
<g transform="translate(253,48)">
  <use xlink:href="#star">
    <animateTransform id="atr-star-4" attributeName="transform" type="rotate" dur=".6s" values="0 11.5 12;360 11.5 12" repeatCount="0" begin="0s"/>
    <animate id="ato-star-4" attributeName="opacity" values="0;1;0" dur=".6s" repeatCount="0" begin="0s;fadestar3.end" fill="freeze"/>
  </use>
</g>
<g transform="translate(351,96)">
  <use xlink:href="#star">
    <animateTransform id="atr-star-5" attributeName="transform" type="rotate" dur=".6s" values="0 11.5 12;360 11.5 12" repeatCount="0" begin="0s"/>
    <animate id="ato-star-5" attributeName="opacity" values="0;1;0" dur=".6s" repeatCount="0" begin="0s;fadestar3.end" fill="freeze"/>
  </use>
</g>
<g transform="translate(478,148)">
  <use xlink:href="#star">
    <animateTransform id="atr-star-6" attributeName="transform" type="rotate" dur=".6s" values="0 11.5 12;360 11.5 12" repeatCount="0" begin="0s"/>
    <animate id="ato-star-6" attributeName="opacity" values="0;1;0" dur=".6s" repeatCount="0" begin="0s;fadestar3.end" fill="freeze"/>
  </use>
</g>
<g transform="translate(285,78) scale(-1,1) rotate(54, 36, 245)">
  <use xlink:href="#finger-blue" id="left-blue">
        <animateTransform id="drop-2" attributeName="transform" type="translate" dur="1" fill="freeze" values="0,-4;0,4;0,-4" repeatCount="indefinite" additive="sum"/>
    <!--
    <animateTransform id="atr-left-blue" attributeName="transform" type="rotate" dur="1.5" values="-20 36 245;20 36 245;-20 36 245" repeatCount="indefinite" begin="0" additive="sum"/>
-->
  </use>
</g>

<g transform="translate(265,78) rotate(54, 36, 245)">
  <use xlink:href="#finger-blue" id="right-blue">
    <animateTransform id="drop-2" attributeName="transform" type="translate" dur="1" fill="freeze" values="0,-4;0,4;0,-4" repeatCount="indefinite" additive="sum"/>
  	<!--
    <animateTransform id="atr-right-blue" attributeName="transform" type="rotate" dur="1.5" values="-20 36 245;20 36 245;-20 36 245" repeatCount="indefinite" begin="0" additive="sum"/>
-->
  </use>
</g>
<g transform="translate(282,81) scale(-1,1) rotate(18, 36, 245)">
	<use xlink:href="#finger-white" id="left-white">
        <animateTransform id="drop-2" attributeName="transform" type="translate" dur="1" fill="freeze" values="0,-6;0,6;0,-6" repeatCount="indefinite" additive="sum"/>
		<!--
    <animateTransform id="atr-left-white" attributeName="transform" type="rotate" dur="1.5" values="-20 36 245;20 36 245;-20 36 245" repeatCount="indefinite" begin="0" additive="sum"/>
-->
  </use>
</g>
<g transform="translate(267,81) rotate(18, 36, 245)">
  <use xlink:href="#finger-white" id="right-white">
    <animateTransform id="drop-2" attributeName="transform" type="translate" dur="1" fill="freeze" values="0,-6;0,6;0,-6" repeatCount="indefinite" additive="sum"/>
  	<!--
    <animateTransform id="atr-right-white" attributeName="transform" type="rotate" dur="1.5" values="-20 36 245;20 36 245;-20 36 245" repeatCount="indefinite" begin="0" additive="sum"/>
-->
  </use>
</g>
<g transform="translate(235,41)">
  <use xlink:href="#finger-red">
    <animateTransform id="drop-2" attributeName="transform" type="translate" dur="1" fill="freeze" values="0,-8;0,8;0,-8" repeatCount="indefinite" additive="sum"/>
  	<!--
  <animateTransform id="" attributeName="transform" type="rotate" dur="1.5" values="-20 39 288;20 39 288;-20 39 288" repeatCount="indefinite" begin=".75" additive="sum"/>
-->
  </use>
</g>

</svg>
