<?xml version="1.0" encoding="utf-8"?>
<svg version="1.1" xmlns="http://www.w3.org/2000/svg" xmlns:xlink="http://www.w3.org/1999/xlink" x="0px" y="0px"
	 viewBox="0 0 550 309" enable-background="new 0 0 550 309" xml:space="preserve">
<defs>
<rect id="bg" x="0" y="0" fill="#0e1741" height="309" width="550" />
<g id="sign">
	<g>
		<path fill="#00B4EB" d="M37.3,0h10.1v312.1H37.3V0z M234.8,312.1h10.1V0h-10.1V312.1z M136.1,312.1h10.1V0h-10.1V312.1z"/>
		<g>
			<polygon fill="#00B4EB" points="264.3,32.9 17.9,32.9 0,50.8 0,175.8 17.9,193.7 264.3,193.7 282.2,175.8 282.2,50.8 			"/>
			<polygon fill="#FFCE04" points="264.3,22.2 17.9,22.2 0,40.1 0,165 17.9,182.9 264.3,182.9 282.2,165 282.2,40.1 			"/>
		</g>
		<polygon fill="#FFFFFF" points="264.3,22.2 17.9,22.2 12.4,27.7 260.2,27.7 275.9,43.4 282.2,132.8 282.2,40.1 		"/>
	</g>
</g>
<g id="numbers">
	<g>
		<g>
			<rect fill="#0E1741" width="68.5" height="59.2"/>
			<rect y="59.2" fill="#FFFFFF" width="68.5" height="4.2"/>
		</g>
		<g>
			<rect x="93.8" y="10.8" fill="#0E1741" width="43.3" height="59.2"/>
			<rect x="93.8" y="70" fill="#FFFFFF" width="43.3" height="4.2"/>
		</g>
		<g>
			<rect x="162.1" fill="#0E1741" width="68.7" height="59.2"/>
			<rect x="162.1" y="59.2" fill="#FFFFFF" width="68.7" height="4.2"/>
		</g>
	</g>
</g>
<g id="baseball">
	<g id="ball">
		<g>
			<path fill="#ECECEC" d="M22.5,9.7l-9.6-9.6C12.4,0,11.9,0,11.3,0C5.1,0,0,5.1,0,11.3s5.1,11.3,11.3,11.3s11.3-5.1,11.3-11.3
				C22.7,10.8,22.6,10.3,22.5,9.7z"/>
			<path fill="#F3F3F3" d="M14.3,16.7c-4.6,0-8.4-3.7-8.4-8.4c0-4.1,3-7.6,7-8.2c5,0.7,8.9,4.6,9.6,9.6
				C21.9,13.7,18.4,16.7,14.3,16.7z"/>
			<g>
				<path fill="#FFFFFF" d="M22.7,11.3c0-0.5,0-1.1-0.1-1.6l0,0c-0.7-5-4.6-8.9-9.6-9.6C12.4,0,11.9,0,11.3,0c-1.8,0-3.5,0.4-5,1.2
					c1.2-0.5,2.5-0.7,3.9-0.7c0.5,0,1.1,0,1.6,0.1c5,0.7,8.9,4.6,9.6,9.6l0,0c0.1,0.5,0.1,1.1,0.1,1.6c0,4.5-2.6,8.3-6.3,10.2
					C19.6,20.3,22.7,16.2,22.7,11.3z"/>
			</g>
			<g>
				<path fill="#D2D3D3" d="M3.3,3.4c-1.6,1.9-2.5,4.4-2.5,7.2c0,6.2,5.1,11.3,11.3,11.3c3.1,0,5.9-1.3,8-3.3
					c-2.1,2.5-5.2,4.2-8.7,4.2C5.1,22.7,0,17.7,0,11.4C0,8.3,1.3,5.5,3.3,3.4z"/>
			</g>
		</g>
	</g>
	<g id="laces">
		<path fill="#E73E3D" d="M0.5,14.8c0,0.1,0,0.2,0.1,0.2C0.5,15,0.5,14.9,0.5,14.8z"/>
		<path fill="#E73E3D" d="M19.6,15c0.1-0.1,0.2-0.2,0.3-0.3c0.1-0.1,0.1-0.1,0.1-0.1c0,0,0.1,0,0.1,0c0,0,0,0,0,0c0,0,0,0.1,0,0.1
			c0,0.1,0.1,0.1,0.1,0.1l0,0h0c0,0,0.1,0,0.2,0c0.1,0,0.2,0,0.4,0c0.3,0,0.5,0,0.5,0c0,0,0.1,0,0.1,0.1l0.1,0.4c0,0,0,0.1-0.1,0.1
			c0,0-0.3,0-0.5,0c-0.3,0-0.5,0-0.5,0c0,0-0.1,0-0.1-0.1c0,0,0,0,0,0c0,0,0-0.1,0-0.1c0-0.1,0-0.1,0-0.1l0,0c0,0-0.2,0.2-0.4,0.3
			c-0.2,0.1-0.4,0.3-0.4,0.3c0,0-0.1,0-0.1,0c0,0,0,0,0-0.1c0,0,0-0.1,0-0.1c0,0,0-0.1,0-0.1C19.2,15.3,19.4,15.2,19.6,15z"/>
		<path fill="#E73E3D" d="M18.8,14.6c0-0.1,0.1-0.2,0.2-0.3c0.1-0.2,0.2-0.5,0.2-0.5c0,0,0.1,0,0.1,0c0,0,0.1,0,0.1,0.1
			c0.1,0,0.1,0.1,0.1,0.1l0,0c0,0,0,0,0,0c0,0,0.2-0.1,0.5-0.3c0.1-0.1,0.3-0.1,0.3-0.2c0.1,0,0.2-0.1,0.2-0.1c0,0,0.1,0,0.1,0
			c0,0,0.1,0.1,0.1,0.2c0.1,0.1,0.1,0.2,0.1,0.2c0,0,0,0.1,0,0.1c0,0-0.3,0-0.5,0.1c-0.1,0-0.3,0.1-0.3,0.1c-0.1,0-0.2,0.1-0.2,0.1
			c0,0-0.1,0-0.1,0c0,0,0-0.1-0.1-0.1c0,0,0,0-0.1-0.1c0,0,0,0,0,0v0c0,0,0,0-0.1,0.1c0,0.1-0.1,0.2-0.2,0.3
			c-0.2,0.2-0.3,0.4-0.3,0.4c0,0-0.1,0-0.1,0c0,0,0,0-0.1-0.1c0,0-0.1-0.1-0.1-0.1c0,0,0-0.1,0-0.1C18.7,14.7,18.7,14.6,18.8,14.6z"
			/>
		<path fill="#E73E3D" d="M18.2,13.3C18.2,13.2,18.2,13.2,18.2,13.3c0.1-0.1,0.1,0,0.2,0c0,0,0.1,0,0.1,0c0,0,0,0,0,0l0,0
			c0,0,0,0,0,0c0,0,0.2-0.2,0.3-0.4c0.2-0.2,0.4-0.4,0.4-0.4c0,0,0.1,0,0.2,0l0.4,0.2c0,0,0,0.1,0,0.1c0,0,0,0-0.1,0.1
			c-0.1,0.1-0.2,0.1-0.3,0.2c-0.2,0.2-0.4,0.4-0.4,0.4c0,0-0.1,0-0.1,0l-0.3-0.1v0c0,0,0,0.3-0.1,0.5c0,0.1-0.1,0.3-0.1,0.3
			c0,0.1,0,0.2,0,0.2c0,0,0,0.1-0.1,0c0,0,0,0-0.1,0c0,0-0.1,0-0.1,0c0,0,0,0,0-0.1c0,0,0-0.3,0.1-0.5
			C18.2,13.5,18.2,13.3,18.2,13.3z"/>
		<path fill="#E73E3D" d="M17.1,13.1c0,0,0.1,0,0.2,0c0,0,0.1,0,0.1,0s0,0,0,0l0,0v0c0,0,0.1-0.3,0.2-0.5c0.1-0.3,0.2-0.5,0.2-0.5
			c0,0,0.1-0.1,0.1-0.1l0.4,0.1c0,0,0.1,0.1,0,0.1c0,0,0,0-0.1,0.1s-0.1,0.2-0.2,0.3c-0.1,0.2-0.3,0.5-0.3,0.5c0,0-0.1,0.1-0.1,0.1
			l-0.3,0v0c0,0,0,0.3,0.1,0.5c0,0.1,0,0.3,0,0.4c0,0.1,0,0.2,0,0.2c0,0,0,0.1,0,0.1l-0.3,0c0,0-0.1,0-0.1-0.1c0,0,0-0.3-0.1-0.5
			C17.1,13.4,17,13.1,17.1,13.1C17,13.1,17,13.1,17.1,13.1z"/>
		<path fill="#E73E3D" d="M15.9,13.1l0.3,0l0,0v0c0,0,0-0.3,0.1-0.5s0.1-0.5,0.1-0.5c0,0,0.1-0.1,0.1-0.1c0,0,0.1,0,0.2,0
			s0.2,0,0.2,0c0,0,0.1,0,0.1,0.1c0,0-0.1,0.3-0.2,0.5c-0.1,0.3-0.1,0.5-0.1,0.5c0,0,0,0.1-0.1,0.1l-0.3,0c0,0,0,0,0,0
			c0,0,0.1,0.3,0.2,0.5c0.1,0.3,0.1,0.5,0.1,0.5c0,0,0,0.1,0,0.1l-0.3,0c0,0-0.1,0-0.1-0.1c0,0-0.1-0.3-0.2-0.5
			c-0.1-0.3-0.2-0.5-0.2-0.5C15.9,13.2,15.9,13.1,15.9,13.1z"/>
		<path fill="#E73E3D" d="M15.1,13.3L15.1,13.3L15.1,13.3c0,0,0-0.3,0-0.6c0-0.3,0-0.5,0-0.5c0,0,0-0.1,0.1-0.1c0,0,0.1,0,0.2,0
			c0.1,0,0.2,0,0.2,0c0,0,0.1,0,0.1,0.1c0,0,0,0.3-0.1,0.5c0,0.3,0,0.5,0,0.5c0,0,0,0.1-0.1,0.1L15.1,13.3c0.1,0,0.1,0.1,0.1,0.1
			c0,0,0.1,0.2,0.2,0.5c0.1,0.2,0.2,0.5,0.2,0.5c0,0,0,0.1,0,0.1c0,0-0.1,0-0.1,0c-0.1,0-0.1,0-0.1,0c0,0-0.1,0-0.1,0
			c0,0-0.1-0.2-0.3-0.5c-0.1-0.2-0.3-0.5-0.3-0.5c0,0,0-0.1,0-0.1L15.1,13.3z"/>
		<path fill="#E73E3D" d="M13.7,13.8c0,0,0.1,0,0.1-0.1c0.1,0,0.2-0.1,0.2-0.1l0,0v0c0,0,0-0.3-0.1-0.5s0-0.5,0-0.5
			c0,0,0-0.1,0.1-0.1c0,0,0.4-0.1,0.4-0.1c0,0,0.1,0,0.1,0.1c0,0,0,0.3,0,0.5c0,0.3,0,0.5,0,0.5c0,0,0,0.1-0.1,0.1c0,0-0.1,0-0.1,0
			c-0.1,0-0.1,0-0.1,0s0,0,0,0c0,0,0.2,0.2,0.3,0.4c0.1,0.2,0.3,0.4,0.3,0.4c0,0,0,0.1,0,0.1l-0.3,0.1c0,0-0.1,0-0.1,0
			c0,0-0.2-0.2-0.3-0.4C13.8,14.1,13.6,13.9,13.7,13.8C13.6,13.8,13.7,13.8,13.7,13.8z"/>
		<path fill="#E73E3D" d="M12.7,14.3c0,0,0.1,0,0.1-0.1c0.1,0,0.1-0.1,0.1-0.1l0,0v0c0,0-0.1-0.3-0.2-0.5c-0.1-0.3-0.1-0.5-0.1-0.5
			c0,0,0-0.1,0.1-0.1c0,0,0.1,0,0.2-0.1c0.1,0,0.2-0.1,0.2-0.1c0,0,0.1,0,0.1,0c0,0,0,0.3,0.1,0.5s0.1,0.5,0.1,0.5c0,0,0,0.1,0,0.1
			c0,0-0.1,0-0.1,0.1c-0.1,0-0.1,0.1-0.1,0.1s0,0,0,0c0,0,0.2,0.2,0.4,0.4c0.2,0.2,0.4,0.4,0.4,0.4c0,0,0,0.1,0,0.1
			c0,0-0.1,0-0.1,0.1c-0.1,0-0.1,0.1-0.1,0.1c0,0-0.1,0-0.1,0c0,0-0.2-0.2-0.4-0.4c-0.2-0.2-0.4-0.3-0.4-0.3
			C12.6,14.4,12.6,14.4,12.7,14.3z"/>
		<path fill="#E73E3D" d="M11.8,15l0.3-0.2l0,0c0,0,0,0,0,0c0,0-0.1-0.3-0.2-0.5c-0.1-0.3-0.2-0.5-0.2-0.5c0,0,0-0.1,0-0.1
			c0,0,0.1,0,0.1-0.1c0.1,0,0.1-0.1,0.1-0.1c0,0,0.1,0,0.1,0c0,0,0.1,0.3,0.2,0.5c0.1,0.3,0.2,0.5,0.2,0.5c0,0,0,0.1,0,0.1l-0.3,0.2
			c0,0,0,0,0,0c0,0,0.2,0.2,0.4,0.3c0.2,0.2,0.4,0.3,0.4,0.3c0,0,0,0.1,0,0.1l-0.2,0.2c0,0-0.1,0-0.1,0c0,0-0.2-0.2-0.4-0.3
			C12,15.3,11.7,15.1,11.8,15C11.7,15.1,11.7,15.1,11.8,15z"/>
		<path fill="#E73E3D" d="M10.9,15.8l0.3-0.2l0,0c0,0,0,0,0,0c0,0-0.1-0.2-0.2-0.5c-0.1-0.2-0.2-0.5-0.2-0.5c0,0,0-0.1,0-0.1
			l0.3-0.2c0,0,0.1,0,0.1,0c0,0,0.1,0.2,0.2,0.5c0.1,0.2,0.2,0.5,0.2,0.5c0,0,0,0.1,0,0.1c0,0-0.1,0-0.1,0.1c0,0-0.1,0.1-0.1,0.1h0
			c0,0,0.2,0.1,0.4,0.3c0.2,0.2,0.4,0.3,0.4,0.3c0,0,0,0.1,0,0.1l-0.2,0.2c0,0.1-0.1,0.1-0.1,0.1c0,0-0.2-0.1-0.4-0.3
			C11.1,16.1,10.9,15.9,10.9,15.8C10.9,15.9,10.8,15.9,10.9,15.8z"/>
		<path fill="#E73E3D" d="M10,16.6l0.2-0.2l0,0c0,0,0,0,0,0l-0.5-0.9c0,0,0-0.1,0-0.1l0.3-0.2c0,0,0.1,0,0.1,0l0.5,0.9
			c0,0,0,0.1,0,0.1l-0.2,0.2h0l0.9,0.6c0,0,0,0.1,0,0.1l-0.2,0.2c0,0-0.1,0-0.1,0L10,16.6C10,16.7,10,16.7,10,16.6z"/>
		<path fill="#E73E3D" d="M9.2,17.4l0.3-0.2l0,0c0,0,0,0,0,0l-0.5-0.9c0,0,0-0.1,0-0.1l0.2-0.2c0,0,0.1,0,0.1,0l0.5,0.9
			c0,0,0,0.1,0,0.1l-0.2,0.2h0l0.9,0.6c0,0,0,0.1,0,0.1l-0.3,0.2c0,0-0.1,0-0.1,0L9.2,17.4C9.1,17.5,9.1,17.5,9.2,17.4z"/>
		<path fill="#E73E3D" d="M8.3,18.2L8.5,18l0,0c0,0,0,0,0,0c0,0-0.1-0.2-0.2-0.5C8.2,17.2,8.1,17,8.1,17c0,0,0-0.1,0-0.1l0.2-0.2
			c0,0,0.1,0,0.1,0c0,0,0.1,0.2,0.3,0.5c0.1,0.2,0.3,0.5,0.3,0.5c0,0,0,0.1,0,0.1c0,0,0,0-0.1,0.1c-0.1,0-0.1,0.1-0.1,0.1s0,0,0,0
			c0,0,0.2,0.1,0.4,0.3c0.2,0.1,0.4,0.3,0.4,0.3c0,0,0,0.1,0,0.1c0,0-0.1,0-0.1,0.1c-0.1,0-0.1,0.1-0.1,0.1c0,0-0.1,0-0.1,0
			c0,0-0.2-0.2-0.4-0.3C8.5,18.4,8.3,18.3,8.3,18.2C8.3,18.3,8.3,18.2,8.3,18.2z"/>
		<path fill="#E73E3D" d="M7.4,18.9l0.3-0.2l0,0c0,0,0,0,0,0c0,0-0.1-0.3-0.2-0.5c-0.1-0.3-0.2-0.5-0.2-0.5c0,0,0-0.1,0-0.1
			c0,0,0.1,0,0.1-0.1c0.1,0,0.1-0.1,0.1-0.1c0,0,0.1,0,0.1,0c0,0,0.1,0.2,0.2,0.5C7.9,18.1,8,18.4,8,18.4c0,0,0,0.1,0,0.1l-0.3,0.2
			c0,0,0,0,0,0c0,0,0.2,0.2,0.4,0.3c0.2,0.2,0.4,0.3,0.4,0.3c0,0,0,0.1,0,0.1l-0.3,0.2c0,0-0.1,0-0.1,0c0,0-0.2-0.2-0.4-0.3
			C7.5,19.1,7.3,19,7.4,18.9C7.3,18.9,7.3,18.9,7.4,18.9z"/>
		<path fill="#E73E3D" d="M6.5,19.4c0.1,0,0.1-0.1,0.1-0.1l0,0v0c0,0,0-0.3-0.1-0.5c-0.1-0.3-0.1-0.5-0.1-0.5c0,0,0-0.1,0-0.1
			L6.6,18c0,0,0.1,0,0.1,0c0,0,0.1,0.3,0.2,0.5c0.1,0.3,0.2,0.5,0.2,0.5c0,0,0,0.1,0,0.1c0,0-0.1,0-0.1,0.1c0,0-0.1,0-0.1,0s0,0,0,0
			c0,0,0.2,0.2,0.4,0.4c0.2,0.2,0.4,0.4,0.4,0.4c0,0,0,0.1,0,0.1l-0.3,0.2c0,0-0.1,0-0.1,0c0,0-0.2-0.2-0.4-0.4
			c-0.2-0.2-0.3-0.4-0.3-0.4c0,0,0-0.1,0-0.1C6.3,19.4,6.4,19.4,6.5,19.4z"/>
		<path fill="#E73E3D" d="M5.4,19.7c0.1,0,0.2,0,0.2,0l0,0v0c0,0,0-0.3,0-0.5c0-0.3,0-0.5,0-0.5c0,0,0-0.1,0-0.1c0,0,0.1,0,0.1,0
			c0,0,0.1,0,0.1,0c0,0,0,0,0,0c0,0,0.1,0,0.1,0c0,0,0,0.3,0.1,0.5c0,0.3,0,0.5,0,0.5c0,0,0,0.1-0.1,0.1c0,0-0.1,0-0.1,0
			c-0.1,0-0.1,0-0.1,0l0,0c0,0,0.1,0.2,0.3,0.5c0.2,0.2,0.3,0.4,0.3,0.4c0,0,0,0.1,0,0.1c0,0,0,0-0.1,0c0,0-0.1,0-0.1,0
			c-0.1,0-0.2,0-0.2,0c0,0-0.1,0-0.1,0c0,0-0.1-0.2-0.3-0.5s-0.2-0.5-0.2-0.5c0,0,0-0.1,0-0.1C5.3,19.8,5.3,19.8,5.4,19.7z"/>
		<path fill="#E73E3D" d="M17.9,4C17.9,4.1,17.8,4.1,17.9,4l-0.4,0.1v0c0,0,0.1,0.3,0.2,0.5c0.1,0.3,0.2,0.5,0.2,0.5
			c0,0,0,0.1,0,0.1l-0.3,0c0,0-0.1,0-0.1-0.1c0,0-0.1-0.3-0.2-0.5C17.1,4.5,17,4.2,17,4.2c0,0,0-0.1,0-0.1l0.3,0l0,0v0
			c0,0,0-0.3,0.1-0.5c0-0.3,0.1-0.5,0.1-0.5c0,0,0-0.1,0.1-0.1l0.3,0c0,0,0.1,0,0.1,0.1c0,0,0,0.3-0.1,0.5C17.9,3.8,17.9,4,17.9,4z"
			/>
		<path fill="#E73E3D" d="M15.9,4.1c0,0,0.1,0,0.2,0c0.1,0,0.2,0,0.2,0l0,0v0c0,0,0.1-0.3,0.2-0.5c0.1-0.3,0.1-0.5,0.1-0.5
			c0,0,0-0.1,0.1-0.1h0.3c0,0,0.1,0,0,0.1c0,0,0,0.3-0.1,0.5c-0.1,0.3-0.1,0.5-0.1,0.5c0,0,0,0.1-0.1,0.1h-0.3v0
			c0,0,0.1,0.3,0.1,0.5c0.1,0.3,0.1,0.5,0.1,0.5c0,0,0,0.1-0.1,0.1h-0.4c0,0-0.1,0-0.1-0.1c0,0,0-0.1,0-0.2c0-0.1,0-0.2-0.1-0.4
			C15.9,4.4,15.8,4.1,15.9,4.1C15.8,4.1,15.8,4.1,15.9,4.1z"/>
		<path fill="#E73E3D" d="M14.6,4C14.6,4,14.7,3.9,14.6,4H15l0,0v0c0,0,0-0.1,0.1-0.2s0.1-0.2,0.1-0.3C15.3,3.2,15.4,3,15.4,3
			c0,0,0.1-0.1,0.1-0.1l0.3,0c0,0,0.1,0,0,0.1c0,0-0.1,0.3-0.2,0.5C15.6,3.8,15.5,4,15.5,4c0,0-0.1,0.1-0.1,0.1l-0.3,0v0
			c0,0,0,0.3,0.1,0.5c0,0.3,0.1,0.5,0.1,0.5c0,0,0,0.1-0.1,0.1c0,0-0.1,0-0.2,0c0,0-0.1,0-0.1,0c0,0-0.1,0-0.1,0c0,0-0.1,0-0.1-0.1
			c0,0,0-0.3,0-0.5C14.6,4.3,14.6,4,14.6,4z"/>
		<path fill="#E73E3D" d="M14.6,3.4c-0.1,0.2-0.2,0.5-0.2,0.5c0,0-0.1,0.1-0.1,0.1c0,0-0.1,0-0.2,0c0,0-0.1,0-0.1,0c0,0,0,0,0,0v0
			c0,0,0,0.1,0,0.2c0,0.1,0,0.2,0,0.4c0,0.3,0,0.5,0,0.5C14,5,14,5,13.9,5c0,0-0.1,0-0.2,0c-0.1,0-0.2,0-0.2,0c0,0-0.1-0.1-0.1-0.1
			c0,0,0-0.3,0-0.5c0-0.3,0-0.5,0-0.5c0,0,0-0.1,0.1-0.1l0.3,0.1l0,0v0c0,0,0.1-0.2,0.3-0.5c0.1-0.2,0.3-0.5,0.3-0.5
			c0,0,0.1-0.1,0.1-0.1l0.3,0.1c0,0,0,0,0,0.1C14.9,2.9,14.7,3.1,14.6,3.4z"/>
		<path fill="#E73E3D" d="M13.5,3.1c-0.1,0.2-0.3,0.5-0.3,0.5c0,0-0.1,0.1-0.1,0c0,0-0.1,0-0.1,0c-0.1,0-0.1,0-0.1,0v0
			c0,0,0,0.3,0,0.5s0,0.5,0,0.5c0,0,0,0.1-0.1,0.1l-0.3-0.1c0,0-0.1-0.1-0.1-0.1c0,0,0-0.3,0-0.5c0-0.3,0-0.5,0-0.5c0,0,0-0.1,0.1,0
			l0.3,0.1l0,0v0c0,0,0.1-0.2,0.3-0.4c0.1-0.1,0.1-0.2,0.2-0.3c0-0.1,0.1-0.1,0.1-0.1c0,0,0.1-0.1,0.1,0l0.3,0.1c0,0,0,0,0,0.1
			C13.8,2.6,13.7,2.8,13.5,3.1z"/>
		<path fill="#E73E3D" d="M12.5,2.7c-0.2,0.2-0.3,0.4-0.3,0.4c0,0-0.1,0-0.1,0l-0.3-0.1v0c0,0,0,0.3,0,0.5c0,0.3,0,0.5,0,0.5
			c0,0,0,0.1-0.1,0l-0.3-0.1c0,0-0.1-0.1,0-0.1c0,0,0-0.3,0-0.5c0-0.3,0-0.5,0-0.5c0,0,0-0.1,0.1,0L11.7,3l0,0c0,0,0,0,0,0
			c0,0,0.2-0.2,0.3-0.4c0.2-0.2,0.3-0.4,0.3-0.4c0,0,0.1,0,0.1,0l0.3,0.1c0,0,0,0,0,0.1C12.8,2.3,12.6,2.5,12.5,2.7z"/>
		<path fill="#E73E3D" d="M11.3,2.3C11.2,2.5,11,2.8,11,2.8c0,0-0.1,0.1-0.1,0l-0.3-0.1v0c0,0,0,0.3,0,0.5c0,0.3,0,0.5,0,0.5
			c0,0,0,0.1-0.1,0.1c0,0-0.1,0-0.1,0c-0.1,0-0.1,0-0.1,0c0,0-0.1-0.1-0.1-0.1c0,0,0-0.3,0-0.5c0-0.3,0-0.5,0-0.5c0,0,0-0.1,0.1-0.1
			c0,0,0.1,0,0.2,0c0.1,0,0.2,0,0.2,0l0,0v0c0,0,0.1-0.2,0.3-0.5s0.3-0.5,0.3-0.5c0,0,0.1-0.1,0.1,0l0.3,0.1c0,0,0.1,0,0,0.1
			C11.6,1.9,11.5,2.1,11.3,2.3z"/>
		<path fill="#E73E3D" d="M10.2,2C10,2.2,9.9,2.5,9.9,2.5c0,0-0.1,0.1-0.1,0L9.5,2.4v0c0,0,0,0.3,0,0.5c0,0.3,0,0.5,0,0.5
			c0,0,0,0.1-0.1,0.1L9.2,3.5c0,0-0.1,0-0.1-0.1c0,0,0-0.3,0-0.5c0-0.3,0-0.5,0-0.5c0,0,0-0.1,0.1-0.1c0,0,0.1,0,0.2,0
			c0.1,0,0.2,0,0.2,0l0,0v0c0,0,0.1-0.2,0.3-0.5C9.8,1.6,10,1.4,10,1.4c0,0,0.1-0.1,0.1,0l0.3,0.1c0,0,0.1,0,0,0.1
			C10.4,1.5,10.3,1.8,10.2,2z"/>
		<path fill="#E73E3D" d="M9,1.7C8.9,2,8.8,2.2,8.8,2.2c0,0-0.1,0.1-0.1,0.1c0,0-0.1,0-0.2,0c-0.1,0-0.2,0-0.2,0v0
			c0,0,0,0.3,0.1,0.5c0,0.3,0,0.5,0,0.5c0,0,0,0.1-0.1,0.1c0,0-0.1,0-0.1,0c-0.1,0-0.1,0-0.1,0c0,0-0.1,0-0.1-0.1c0,0,0-0.3-0.1-0.5
			c0-0.3-0.1-0.5-0.1-0.5c0,0,0-0.1,0.1-0.1c0,0,0.1,0,0.2,0c0.1,0,0.2,0,0.2,0l0,0v0c0,0,0.1-0.3,0.2-0.5c0.1-0.3,0.2-0.5,0.2-0.5
			c0,0,0.1-0.1,0.1-0.1c0,0,0.1,0,0.2,0c0.1,0,0.2,0,0.2,0c0,0,0.1,0,0,0.1C9.2,1.2,9.1,1.5,9,1.7z"/>
		<path fill="#E73E3D" d="M7.6,2.1c0,0-0.1,0.1-0.1,0.1c0,0-0.1,0-0.2,0c-0.1,0-0.2,0-0.2,0v0c0,0,0.1,0.3,0.1,0.5s0.1,0.5,0.1,0.5
			c0,0,0,0.1,0,0.1c0,0-0.1,0-0.1,0c-0.1,0-0.1,0-0.1,0c0,0-0.1,0-0.1-0.1c0,0-0.1-0.3-0.1-0.5C6.8,2.4,6.7,2.2,6.7,2.2
			c0,0,0-0.1,0-0.1c0,0,0.1,0,0.2,0c0.1,0,0.2,0,0.2,0l0,0v0c0,0,0.1-0.3,0.2-0.5s0.2-0.5,0.2-0.5C7.4,1,7.5,1,7.5,1
			c0,0,0.1,0,0.2,0s0.2,0,0.2,0c0,0,0.1,0,0,0.1c0,0-0.1,0.3-0.2,0.5C7.7,1.8,7.6,2.1,7.6,2.1z"/>
		<path fill="#E73E3D" d="M19.2,18.4C19.1,18.4,19.1,18.3,19.2,18.4c-0.1-0.1,0-0.1,0-0.2c0-0.1,0-0.1,0-0.1c0,0,0-0.1,0.1-0.1
			c0,0,0.3,0,0.5,0c0.3,0,0.5,0,0.5,0c0,0,0.1,0,0.1,0.1c0,0,0,0.1,0,0.2c0,0,0,0,0,0.1c0,0.1-0.1,0.1-0.1,0.2c0,0-0.3,0-0.5,0
			C19.4,18.4,19.2,18.4,19.2,18.4z"/>
		<path fill="#E73E3D" d="M20.4,17.6c0,0,0-0.1,0-0.1s0-0.2,0-0.2h0c0,0-0.3,0-0.5,0.1c-0.3,0-0.5,0-0.5,0c0,0-0.1,0-0.1-0.1l0-0.3
			c0,0,0-0.1,0.1-0.1c0,0,0.3,0,0.5-0.1c0.3,0,0.5-0.1,0.5-0.1c0,0,0.1,0,0.1,0.1c0,0,0,0.1,0,0.2c0,0.1,0,0.2,0,0.2l0,0h0
			c0,0,0.2,0.1,0.4,0.2c-0.1,0.1-0.2,0.3-0.3,0.4C20.6,17.7,20.5,17.7,20.4,17.6C20.5,17.7,20.4,17.6,20.4,17.6z"/>
		<path fill="#E73E3D" d="M20.6,16.5C20.6,16.5,20.5,16.5,20.6,16.5c-0.1-0.1-0.1-0.2-0.1-0.3c0-0.1,0-0.2,0-0.2s0,0,0,0
			c0,0-0.3,0.1-0.5,0.2c-0.3,0.1-0.5,0.1-0.5,0.1c0,0-0.1,0-0.1,0c0,0,0,0,0,0s0,0,0-0.1c0-0.1,0-0.1,0-0.1c0,0,0-0.1,0.1-0.1
			c0,0,0.3-0.1,0.5-0.2c0.2-0.1,0.5-0.2,0.5-0.2c0,0,0.1,0,0.1,0c0,0,0,0.1,0,0.2c0,0.1,0,0.2,0,0.2l0,0h0c0,0,0.3,0,0.5,0.1
			c0.2,0,0.4,0.1,0.5,0.1c-0.1,0.2-0.2,0.3-0.3,0.5c-0.1,0-0.1,0-0.2-0.1C20.9,16.6,20.6,16.5,20.6,16.5z"/>
		<path fill="#E73E3D" d="M18.7,19.2C18.7,19.2,18.6,19.2,18.7,19.2c0-0.1,0-0.1,0-0.2c0-0.1,0-0.1,0-0.1c0,0,0.1,0,0.1,0
			c0,0,0.3,0,0.5,0.1c0.1,0,0.2,0,0.2,0c-0.1,0.1-0.2,0.3-0.4,0.4c0,0,0,0-0.1,0C19,19.3,18.7,19.2,18.7,19.2z"/>
		<path fill="#E73E3D" d="M3.7,18.7C3.8,18.7,3.8,18.7,3.7,18.7c0.1-0.1,0.2,0,0.2,0c0.1,0,0.1,0,0.1,0c0,0,0,0,0,0.1
			c0,0-0.1,0.3-0.2,0.5c0,0.1-0.1,0.3-0.1,0.3c0,0.1,0,0.1,0,0.1l0,0c-0.1-0.1-0.2-0.2-0.3-0.3c0-0.1,0.1-0.2,0.1-0.3
			C3.6,19,3.7,18.7,3.7,18.7z"/>
		<path fill="#E73E3D" d="M4.1,19.9c0,0,0.1,0,0.2,0c0.1,0,0.2,0,0.2,0l0,0v0c0,0,0.1-0.3,0.1-0.5c0-0.3,0.1-0.5,0.1-0.5
			c0,0,0-0.1,0.1-0.1l0.3,0c0,0,0,0,0,0.1c0,0,0,0.3,0,0.5c0,0.3-0.1,0.5-0.1,0.5c0,0,0,0.1-0.1,0.1c0,0-0.1,0-0.2,0
			c-0.1,0-0.2,0-0.2,0v0c0,0,0.1,0.3,0.2,0.5c0,0.1,0,0.1,0.1,0.2c-0.2-0.2-0.5-0.3-0.7-0.5C4.1,20,4,19.9,4.1,19.9
			C4,19.9,4.1,19.8,4.1,19.9z"/>
		<path fill="#E73E3D" d="M3.7,4.1C3.7,4.1,3.7,4.2,3.7,4.1L3.5,4.4c0,0-0.1,0-0.1,0c0,0-0.2-0.1-0.4-0.3C2.9,4,2.8,4,2.7,3.9
			C2.8,3.8,2.9,3.7,3,3.6c0.1,0,0.2,0.1,0.3,0.2C3.5,4,3.7,4.1,3.7,4.1z"/>
		<path fill="#E73E3D" d="M4.5,3.7C4.5,3.7,4.5,3.7,4.5,3.7L4.3,3.9c0,0-0.1,0-0.1,0c0,0-0.2-0.2-0.4-0.4C3.7,3.3,3.5,3.2,3.5,3.1
			C3.6,3,3.7,2.9,3.8,2.8c0,0,0.2,0.2,0.3,0.4C4.3,3.4,4.5,3.7,4.5,3.7z"/>
		<path fill="#E73E3D" d="M19,3.9C19,3.9,19,4,19,3.9L18.6,4c0,0,0,0,0,0c0,0,0.1,0.3,0.2,0.5C19,4.8,19.1,5,19.1,5c0,0,0,0.1,0,0.1
			l-0.3,0c0,0-0.1,0-0.1-0.1c0,0-0.1-0.3-0.2-0.5c-0.1-0.3-0.2-0.5-0.2-0.5c0,0,0-0.1,0-0.1l0.3,0l0,0v0c0,0,0-0.3,0.1-0.5
			c0-0.3,0-0.5,0-0.5c0,0,0-0.1,0.1-0.1c0,0,0,0,0,0C18.9,2.9,19,3,19.1,3.1c0,0.1,0,0.2,0,0.3C19,3.6,19,3.9,19,3.9z"/>
		<path fill="#E73E3D" d="M19.8,3.9l0.5,1c0,0,0,0.1,0,0.1L19.9,5c0,0-0.1,0-0.1-0.1l-0.4-1c0,0,0-0.1,0-0.1H19.8L19.8,3.9L19.8,3.9
			l-0.1-0.2C19.7,3.7,19.8,3.8,19.8,3.9L19.8,3.9C19.8,3.8,19.8,3.8,19.8,3.9z"/>
		<path fill="#E73E3D" d="M6.5,1.6C6.5,1.8,6.4,2.1,6.4,2.1c0,0,0,0.1-0.1,0.1c0,0-0.1,0-0.2,0c-0.1,0-0.2,0-0.2,0s0,0,0,0
			c0,0,0.1,0.3,0.2,0.5C6.3,3,6.4,3.2,6.4,3.2c0,0,0,0.1,0,0.1c0,0-0.1,0-0.1,0c-0.1,0-0.2,0-0.2,0c0,0-0.1,0-0.1-0.1
			c0,0-0.1-0.3-0.2-0.5C5.7,2.5,5.6,2.3,5.6,2.3c0,0,0-0.1,0-0.1c0,0,0.1,0,0.2,0c0.1,0,0.2,0,0.2,0l0,0v0c0,0,0-0.3,0.1-0.5
			c0-0.1,0-0.2,0.1-0.3C6.3,1.2,6.5,1.1,6.7,1c0,0,0,0,0,0C6.7,1,6.6,1.3,6.5,1.6z"/>
		<path fill="#E73E3D" d="M5.2,2.3c0,0-0.1,0-0.1,0c-0.1,0-0.2,0-0.2,0s0,0,0,0c0,0,0.1,0.2,0.3,0.5c0.1,0.2,0.2,0.5,0.2,0.5
			c0,0,0,0.1,0,0.1L5.1,3.5c0,0-0.1,0-0.1,0c0,0-0.1-0.2-0.3-0.5S4.4,2.6,4.4,2.6c0,0,0-0.1,0-0.1c0,0,0.1,0,0.2,0
			c0.1,0,0.2,0,0.2,0l0,0v0c0,0,0-0.1,0-0.3C5,2,5.1,1.9,5.3,1.8C5.3,2,5.3,2.3,5.2,2.3C5.3,2.3,5.2,2.3,5.2,2.3z"/>
	</g>
	<animateTransform attributeName="transform" type="rotate" dur="2s" values="360 11.35 11.4;0 11.35 11.4" repeatCount="indefinite" fill="freeze" begin="0" additive="sum"/>
</g>

<g id="No3">
	<g>
		<path fill="#E83D3D" d="M1.1,0h20.2l1.1,1.1l-3.3,3.3H3.3L0,1.1L1.1,0z M3.3,38.2h15.8l3.3,3.3l-1.1,1.1H1.1L0,41.5L3.3,38.2z
			 M3.1,19.1h7.3l0.5,2.2l-0.5,2.2H3.3l-2.2-2.2L3.1,19.1z M12,19.1h7.1l2.2,2.2l-2.2,2.2H12l-0.5-2.2L12,19.1z M19.7,18.6V4.9
			l3.3-3.3L24,2.7v16.9l-1.1,1.1h-1.1L19.7,18.6z M19.7,37.7V24l2.2-2.2h1.1L24,23v16.8l-1.1,1.1L19.7,37.7z"/>
	</g>
</g>
<g id="No9">
	<g>
		<path fill="#E83D3D" d="M0,19.7V2.7l1.1-1.1l3.3,3.3v13.6l-2.2,2.2H1.1L0,19.7z M2.7,0h20.2L24,1.1l-3.3,3.3H4.9L1.6,1.1L2.7,0z
			 M4.9,38.2h15.8l3.3,3.3l-1.1,1.1H2.7l-1.1-1.1L4.9,38.2z M4.7,19.1H12l0.5,2.2L12,23.5H4.9l-2.2-2.2L4.7,19.1z M13.6,19.1h7.1
			l2.2,2.2l-2.2,2.2h-7.1l-0.5-2.2L13.6,19.1z M21.3,18.6V4.9l3.3-3.3l1.1,1.1v16.9l-1.1,1.1h-1.1L21.3,18.6z M21.3,37.7V24l2.2-2.2
			h1.1l1.1,1.2v16.8l-1.1,1.1L21.3,37.7z"/>
	</g>
</g>
<g id="No2">
	<g>
		<path fill="#E83D3D" d="M0,39.8V22.9l1.1-1.1h1.1L4.4,24v13.6l-3.3,3.3L0,39.8z M2.7,0h20.2L24,1.1l-3.3,3.3H4.9L1.6,1.1L2.7,0z
			 M4.9,38.2h15.8l3.3,3.3l-1.1,1.1H2.7l-1.1-1.1L4.9,38.2z M4.7,19.1H12l0.5,2.2L12,23.5H4.9l-2.2-2.2L4.7,19.1z M13.6,19.1h7.1
			l2.2,2.2l-2.2,2.2h-7.1l-0.5-2.2L13.6,19.1z M21.3,18.6V4.9l3.3-3.3l1.1,1.1v16.9l-1.1,1.1h-1.1L21.3,18.6z"/>
	</g>
</g>
<g id="text">
	<g>
		<g>
			<path fill="#B78D16" d="M7.7,7.2v-2c0-1,0-2.2-1.8-2.2c-2,0-2,1.6-2,2.7v11.1c0,1.4,0.5,2.1,1.8,2.1c1.9,0,1.9-1.4,1.9-2.4v-3.3
				H5.3v-3.2h6.3v11.4H8.3v-1.2c-0.6,0.6-1.5,1.7-3.7,1.7c-1.9,0-4.6-0.8-4.6-4.3v-12C0,3.5,0.2,0,6,0c1,0,2.8,0.1,4,1
				c1.2,0.8,1.6,1.9,1.6,3.2v3.1H7.7z"/>
			<path fill="#B78D16" d="M15.1,0.4H19v15.6c0,1.1,0,2.5,1.8,2.5c1.8,0,1.8-1.4,1.8-2.6V0.4h3.9v16.3c0,2.7-1.2,5.2-5.8,5.2
				c-3.6,0-5.6-1.8-5.6-5.3V0.4z"/>
			<path fill="#B78D16" d="M30.1,0.4h10.2v3.2H34v4.9h5.9v3.2H34v6.5h6.6v3.2H30.1V0.4z"/>
			<path fill="#B78D16" d="M42.9,14h3.9v2.4c0,1.2,0,2.4,1.9,2.4c1.9,0,1.9-1.2,1.9-3.1c0-1.5-0.3-2.1-1.3-2.8l-3.7-2.5
				c-2-1.3-2.5-2.8-2.5-4.9c0-1.6,0.1-3.2,1.5-4.3C45.4,0.6,46.8,0,48.8,0c2.3,0,5.4,0.9,5.4,4.5v2.1h-3.8V5.1c0-1,0-2.1-1.7-2.1
				c-1,0-1.8,0.4-1.8,2.1c0,1.8,0.4,2.1,1.2,2.7l3.8,2.6c0.7,0.5,1.5,1.3,2,2.1c0.6,1,0.6,1.6,0.6,3.3c0,1.9,0,3-0.7,4.1
				c-1.2,1.9-3.6,2.1-5,2.1c-3.3,0-5.8-1.2-5.8-4.8V14z"/>
			<path fill="#B78D16" d="M56.2,0.4h11.6v3H64v18h-3.9v-18h-3.9V0.4z"/>
		</g>
		<g>
			<path fill="#B78D16" d="M169.1,0.4h3.9v8.3h3.5V0.4h3.9v21h-3.9v-9.6H173v9.6h-3.9V0.4z"/>
			<path fill="#B78D16" d="M195.5,17c0,1.5-0.3,2.6-1.1,3.4c-1.2,1.3-3.2,1.5-4.6,1.5c-4.7,0-5.9-2.3-5.9-4.9V5.2
				c0-0.9,0-2.5,1.1-3.6c0.8-0.9,2.4-1.6,4.8-1.6c1.9,0,3.4,0.5,4.4,1.3c1,0.9,1.4,2,1.4,4V17z M191.6,5.6c0-1.1,0-2.6-1.9-2.6
				c-2,0-2,1.6-2,2.8v10.6c0,1.2,0.1,2.6,2,2.6s1.9-1.5,1.9-2.5V5.6z"/>
			<path fill="#B78D16" d="M199.1,0.4h6.3l2.5,14.7l2.5-14.7h6.2v21h-3.8L213,3.2l-3.4,18.2H206l-3.5-18.2l0.3,18.2h-3.8V0.4z"/>
			<path fill="#B78D16" d="M220.3,0.4h10.2v3.2h-6.3v4.9h5.9v3.2h-5.9v6.5h6.6v3.2h-10.4V0.4z"/>
		</g>
		<g>
			<path fill="#B78D16" d="M98.1,10.1h3.8v21h-3.8V10.1z"/>
			<path fill="#B78D16" d="M117.6,31.1h-4.9L109,15.4l0.4,15.7h-3.6v-21h5l3.8,15.4L114,10.1h3.5V31.1z"/>
			<path fill="#B78D16" d="M133.2,31.1h-4.9l-3.7-15.7l0.4,15.7h-3.6v-21h5l3.8,15.4l-0.4-15.4h3.5V31.1z"/>
		</g>
	</g>
</g>
<g id="highlight">
  	<path fill="#FFFFFF" d="M296.6,0v17h0v1.2H0V17V0H296.6z M0,30.1v7.1v0.5h296.6v-0.5h0v-7.1H0z"/>
</g>
<clipPath id="number-clip">
  <polygon fill="#FFFFFF" points="162.1,0 162.1,59.2 162.1,63.4 230.9,63.4 230.9,59.2 230.9,59.2 230.9,0 "/>
</clipPath>
<clipPath id="canvas">
  <polygon points="550,309 0,309 0,0 550,0 "/>
</clipPath>
<path id="flight" fill="none" stroke="#231F20" stroke-width="0.6444" stroke-miterlimit="10" d="M-115.9,9.4C-40-185,267-42,317,135
	c-102-25-77,227-77,227"/>
</defs>
<!--Walk It Off -->
<g id="4-walkoff" clip-path="url(#canvas)">
<use xlink:href="#bg"/>
<g id="jumbotron">
  <g transform="translate(134,41)">
    <use xlink:href="#sign"/>
  </g>
  <g transform="translate(159,97)">
    <use xlink:href="#text"/>
  </g>
  <g transform="translate(160,131)">
    <use xlink:href="#numbers"/>
  </g>
  <g transform="translate(194,139)">
    <use xlink:href="#No2"/>
  </g>
  <g transform="translate(262,150)">
    <use xlink:href="#No9"/>
  </g>
  <g transform="translate(358,139)">
    <use xlink:href="#No2">
      <animate id="two" attributeName="opacity" values="1;0" dur=".3s" repeatCount="0" begin="homerun.end" fill="freeze"/>
      <set attributeName="opacity" to="1" begin="homerun.begin" />
    </use>
  </g>
  <g transform="translate(360,139)">
    <use xlink:href="#No3" opacity="0">
    	<animate id="three" attributeName="opacity" values="0;1" dur=".3s" repeatCount="0" begin="two.end" fill="freeze"/>
    	<set attributeName="opacity" to="0" begin="homerun.begin" />
    </use>
  </g>
</g>
<g transform="translate(-24,0)">
<use xlink:href="#baseball">
  <animateMotion id="homerun" dur="1.2" repeatCount="0" rotate="auto" keySplines="0 0.77 0.88 1; 0 0.77 0.88 1; 0 0.77 0.88 1" keyTimes="0;0.90;0.95;1" calcMode="spline" begin="0;three.end+1.5">
    <mpath xlink:href="#flight"/>
  </animateMotion>
</use>
</g>
</g>
</svg>
