<?xml version="1.0" encoding="utf-8"?>
<svg version="1.1" xmlns="http://www.w3.org/2000/svg" xmlns:xlink="http://www.w3.org/1999/xlink" x="0px" y="0px"
	 viewBox="0 0 550 309" enable-background="new 0 0 550 309" xml:space="preserve">
<defs>
<rect id="bg" x="0" y="0" fill="#0e1741" height="309" width="550" />
<rect id="flash" x="0" y="0" fill="#ffffff" height="309" width="550" />
<g id="glare-animate">
</g>
<g id="sign">
	<g>
		<path fill="#00B4EB" d="M37.3,0h10.1v312.1H37.3V0z M234.8,312.1h10.1V0h-10.1V312.1z M136.1,312.1h10.1V0h-10.1V312.1z"/>
		<g>
			<polygon fill="#00B4EB" points="264.3,32.9 17.9,32.9 0,50.8 0,175.8 17.9,193.7 264.3,193.7 282.2,175.8 282.2,50.8 			"/>
			<polygon fill="#FFCE04" points="264.3,22.2 17.9,22.2 0,40.1 0,165 17.9,182.9 264.3,182.9 282.2,165 282.2,40.1 			"/>
		</g>
		<polygon fill="#FFFFFF" points="264.3,22.2 17.9,22.2 12.4,27.7 260.2,27.7 275.9,43.4 282.2,132.8 282.2,40.1 		"/>
	</g>
</g>
<g id="numbers">
	<g>
		<g>
			<rect fill="#0E1741" width="68.5" height="59.2"/>
			<rect y="59.2" fill="#FFFFFF" width="68.5" height="4.2"/>
		</g>
		<g>
			<rect x="93.8" y="10.8" fill="#0E1741" width="43.3" height="59.2"/>
			<rect x="93.8" y="70" fill="#FFFFFF" width="43.3" height="4.2"/>
		</g>
		<g>
			<rect x="162.1" fill="#0E1741" width="68.7" height="59.2"/>
			<rect x="162.1" y="59.2" fill="#FFFFFF" width="68.7" height="4.2"/>
		</g>
	</g>
</g>
<g id="baseball">
	<g>
		<path fill="#EDEDED" d="M97.4,42L55.9,0.5C53.6,0.2,51.3,0,48.9,0C21.9,0,0,21.9,0,48.9c0,27,21.9,48.9,48.9,48.9
			c27,0,48.9-21.9,48.9-48.9C97.9,46.6,97.7,44.3,97.4,42z"/>
		<path fill="#F4F4F4" d="M61.8,72.2c-19.9,0-36.1-16.2-36.1-36.1c0-17.9,13-32.8,30.1-35.6c21.5,3,38.5,20,41.5,41.5
			C94.5,59.1,79.7,72.2,61.8,72.2z"/>
		<g>
			<path fill="#FFFFFF" d="M97.9,48.9c0-2.3-0.2-4.7-0.5-6.9v0c-3-21.5-20-38.5-41.5-41.5C53.6,0.2,51.3,0,48.9,0
				c-7.8,0-15.1,1.8-21.6,5c5.3-2,11-3,17-3c2.3,0,4.7,0.2,6.9,0.5c21.5,3,38.5,20,41.5,41.5v0c0.3,2.3,0.5,4.6,0.5,6.9
				c0,19.3-11.1,35.9-27.3,43.9C84.6,87.9,97.9,70,97.9,48.9z"/>
		</g>
		<g>
			<path fill="#D3D3D3" d="M14.3,14.8c-6.9,8.4-11,19.2-11,30.9c0,27,21.9,48.9,48.9,48.9c13.5,0,25.5-5.5,34.4-14.4
				c-9,11-22.3,18-37.7,18C21.9,98.2,0,76.3,0,49.3C0,35.8,5.5,23.6,14.3,14.8z"/>
		</g>
	</g>
</g>
<g id="laces">
	<g>
		<ellipse opacity="5.000000e-02" fill="#FFFFFF" cx="49" cy="49.1" rx="49" ry="49.1"/>
		<g>
			<path fill="#E83D3D" d="M2.1,63.9c0.1,0.3,0.2,0.7,0.4,1C2.3,64.6,2.2,64.2,2.1,63.9z"/>
			<path fill="#E83D3D" d="M84.6,64.7c0.4-0.4,0.9-0.8,1.2-1.1c0.3-0.3,0.5-0.5,0.5-0.5c0.1-0.1,0.3-0.1,0.4,0c0,0,0.1,0.1,0.1,0.2
				c0.1,0.1,0.1,0.3,0.2,0.4c0.2,0.3,0.3,0.6,0.3,0.6c0,0,0,0,0,0c0,0,0.1,0,0.1,0c0,0,0.3,0,0.7-0.1c0.4-0.1,1-0.1,1.6-0.2
				C90.9,64,92,64,92,64c0.2,0,0.4,0.2,0.5,0.4l0.5,1.8c0.1,0.2-0.1,0.4-0.3,0.4c0,0-1.2-0.1-2.3-0.2c-1.2,0-2.3,0-2.3,0
				c-0.2,0-0.4-0.1-0.4-0.3c0,0,0-0.1-0.1-0.2c0-0.1-0.1-0.3-0.2-0.4c-0.1-0.3-0.2-0.6-0.2-0.6c0,0-0.1,0.1-0.1,0.1
				c0,0-0.9,0.7-1.9,1.3c-1,0.6-1.9,1.2-1.9,1.2c-0.2,0.1-0.3,0.1-0.4,0c0,0-0.1-0.2-0.2-0.5c-0.1-0.2-0.2-0.4-0.2-0.4
				c-0.1-0.1,0-0.3,0.2-0.4C82.8,66.1,83.7,65.5,84.6,64.7z"/>
			<path fill="#E83D3D" d="M81.2,63c0.2-0.4,0.5-0.9,0.7-1.4c0.5-1,0.9-2.1,0.9-2.1c0.1-0.2,0.3-0.2,0.4-0.1c0,0,0.3,0.2,0.6,0.4
				c0.3,0.2,0.5,0.5,0.5,0.5l0,0c0,0,0,0,0.1-0.1c0,0,1-0.6,2.1-1.1c0.5-0.3,1.1-0.5,1.5-0.7c0.4-0.2,0.7-0.3,0.7-0.3
				c0.2-0.1,0.5,0,0.6,0.2c0,0,0.3,0.4,0.6,0.8c0.3,0.4,0.5,0.8,0.5,0.8c0.1,0.2,0.1,0.4-0.1,0.5c0,0-1.2,0.2-2.3,0.6
				c-0.6,0.2-1.1,0.4-1.5,0.5c-0.4,0.2-0.7,0.3-0.7,0.3c-0.2,0.1-0.4,0-0.6-0.1c0,0-0.2-0.3-0.4-0.5c-0.1-0.1-0.2-0.2-0.3-0.3
				c-0.1-0.1-0.1-0.1-0.1-0.1c0,0,0,0.1,0,0.1c0,0-0.2,0.2-0.4,0.6c-0.2,0.4-0.5,0.8-0.9,1.3c-0.7,0.9-1.4,1.8-1.4,1.8
				c-0.1,0.1-0.3,0.2-0.4,0.1c0,0-0.1-0.2-0.3-0.3C81,64.2,80.8,64,80.8,64c-0.1-0.1-0.1-0.3,0.1-0.4C80.9,63.6,81,63.3,81.2,63z"/>
			<path fill="#E83D3D" d="M78.4,57.4c0-0.2,0.2-0.3,0.3-0.3c0,0,0.3,0.1,0.7,0.2c0.2,0.1,0.3,0.1,0.5,0.2c0.1,0.1,0.2,0.1,0.2,0.1
				l0,0c0,0,0-0.1,0.1-0.1c0,0,0.7-0.9,1.5-1.8c0.8-0.9,1.6-1.7,1.6-1.7c0.2-0.2,0.5-0.2,0.7,0c0,0,1.7,1,1.7,1
				c0.2,0.2,0.2,0.4,0.1,0.5c0,0-0.2,0.2-0.6,0.4c-0.4,0.3-0.8,0.6-1.3,1c-0.9,0.7-1.7,1.6-1.7,1.6c-0.1,0.1-0.4,0.2-0.5,0.1
				c0,0-1.2-0.6-1.2-0.6c0,0,0,0.1,0,0.1c0,0-0.2,1.1-0.5,2.2c-0.1,0.6-0.3,1.1-0.4,1.5c-0.1,0.4-0.2,0.7-0.2,0.7
				c-0.1,0.2-0.2,0.3-0.3,0.2c0,0-0.2-0.1-0.4-0.2c-0.2-0.1-0.4-0.2-0.4-0.2c-0.1-0.1-0.2-0.2-0.2-0.4c0,0,0.2-1.1,0.3-2.2
				C78.4,58.5,78.4,57.4,78.4,57.4z"/>
			<path fill="#E83D3D" d="M73.8,56.4c0,0,0.4,0,0.7,0c0.2,0,0.4,0,0.5,0c0.1,0,0.2,0,0.2,0c0,0,0,0,0,0c0,0,0-0.1,0-0.1
				c0,0,0.4-1.1,0.9-2.1c0.5-1.1,1-2.1,1-2.1c0.1-0.2,0.4-0.3,0.6-0.3l1.8,0.4c0.2,0.1,0.3,0.3,0.2,0.4c0,0-0.2,0.2-0.4,0.6
				c-0.2,0.4-0.6,0.9-0.8,1.4c-0.6,1-1.1,2-1.1,2c-0.1,0.2-0.3,0.3-0.5,0.3c0,0-1.3-0.2-1.3-0.2c0,0,0,0.1,0,0.1
				c0,0,0.2,1.1,0.3,2.3c0,0.6,0.1,1.1,0.1,1.6c0,0.4,0,0.7,0,0.7c0,0.2-0.1,0.3-0.2,0.3l-1.1-0.1c-0.1,0-0.3-0.2-0.3-0.4
				c0,0-0.2-1.1-0.4-2.2c-0.2-1.1-0.5-2.2-0.5-2.2C73.5,56.5,73.6,56.4,73.8,56.4z"/>
			<path fill="#E83D3D" d="M68.8,56.7l1.4-0.2c0,0,0,0,0,0c0,0,0-0.1,0-0.1c0,0,0.2-1.2,0.4-2.3c0.2-1.1,0.5-2.3,0.5-2.3
				c0-0.2,0.3-0.4,0.5-0.4c0,0,0.4,0,0.8,0c0.4,0,0.9,0,0.9,0c0.2,0,0.4,0.2,0.3,0.4c0,0-0.4,1.1-0.7,2.2c-0.3,1.1-0.6,2.2-0.6,2.2
				c0,0.2-0.2,0.4-0.4,0.4l-1.3,0.1c0,0,0,0.1,0.1,0.1c0,0,0.4,1.1,0.7,2.2c0.3,1.1,0.6,2.2,0.6,2.2c0,0.2,0,0.3-0.2,0.4
				c0,0-1.2,0.1-1.2,0.1c-0.2,0-0.3-0.1-0.4-0.3c0,0-0.4-1.1-0.8-2.1c-0.4-1.1-0.9-2.1-0.9-2.1C68.5,56.9,68.6,56.7,68.8,56.7z"/>
			<path fill="#E83D3D" d="M65.2,57.4C65.2,57.4,65.2,57.4,65.2,57.4c0,0,0-0.1,0-0.1c0,0,0-1.2,0.1-2.3c0.1-1.1,0.2-2.3,0.2-2.3
				c0-0.2,0.2-0.4,0.4-0.4c0,0,0.4-0.1,0.8-0.1c0.4-0.1,0.8-0.2,0.8-0.2c0.2,0,0.4,0.1,0.3,0.3c0,0-0.2,1.1-0.3,2.3
				c-0.1,1.2-0.2,2.3-0.2,2.3c0,0.2-0.2,0.4-0.4,0.4l-1.3,0.3c0,0,0,0.1,0.1,0.1c0,0,0.5,1,1,2.1c0.5,1,1,2.1,1,2.1
				c0.1,0.2,0,0.3-0.1,0.4c0,0-0.3,0.1-0.6,0.1c-0.3,0.1-0.6,0.2-0.6,0.2c-0.2,0-0.4-0.1-0.5-0.2c0,0-0.5-1-1.1-2
				c-0.6-1-1.1-2-1.1-2c-0.1-0.2,0-0.4,0.2-0.4L65.2,57.4z"/>
			<path fill="#E83D3D" d="M59.1,59.5c0,0,0.3-0.2,0.6-0.3c0.3-0.1,0.7-0.3,0.7-0.3c0,0,0,0,0,0c0,0,0-0.1,0-0.1
				c0,0-0.2-1.1-0.3-2.3C60,55.3,60,54.1,60,54.1c0-0.2,0.2-0.4,0.4-0.5c0,0,1.7-0.6,1.6-0.5c0.2-0.1,0.4,0.1,0.4,0.3
				c0,0,0,1.2,0,2.3c0,1.2,0.1,2.3,0.1,2.3c0,0.2-0.1,0.4-0.3,0.5c0,0-0.3,0.1-0.6,0.2c-0.3,0.1-0.6,0.2-0.6,0.2c0,0,0.1,0,0.1,0.1
				c0,0,0.7,0.9,1.3,1.9c0.6,1,1.2,1.9,1.2,1.9c0.1,0.2,0.1,0.3-0.1,0.4c0,0-1.1,0.4-1.1,0.4c-0.1,0.1-0.3,0-0.5-0.2
				c0,0-0.7-0.9-1.4-1.8c-0.7-0.9-1.5-1.8-1.5-1.8C58.9,59.7,58.9,59.5,59.1,59.5z"/>
			<path fill="#E83D3D" d="M54.7,62c0,0,0.3-0.2,0.6-0.4c0.3-0.2,0.6-0.4,0.6-0.4l0,0c0,0,0-0.1,0-0.1c0,0-0.4-1.1-0.7-2.2
				c-0.3-1.1-0.6-2.2-0.6-2.2c0-0.2,0.1-0.4,0.3-0.5c0,0,0.4-0.2,0.7-0.4c0.4-0.2,0.7-0.4,0.7-0.4c0.2-0.1,0.4,0,0.4,0.2
				c0,0,0.2,1.2,0.4,2.3c0.2,1.1,0.5,2.3,0.5,2.3c0,0.2,0,0.4-0.2,0.5c0,0-0.3,0.2-0.6,0.3c-0.3,0.2-0.6,0.3-0.6,0.3
				c0,0,0.1,0,0.1,0.1c0,0,0.8,0.8,1.6,1.6c0.8,0.8,1.6,1.7,1.6,1.7c0.1,0.1,0.1,0.3,0,0.4c0,0-0.3,0.1-0.5,0.3
				c-0.3,0.2-0.5,0.3-0.5,0.3c-0.1,0.1-0.4,0.1-0.5-0.1c0,0-0.8-0.8-1.7-1.6c-0.9-0.8-1.7-1.5-1.7-1.5C54.6,62.3,54.6,62.1,54.7,62z
				"/>
			<path fill="#E83D3D" d="M50.7,65l1.1-0.9l0,0c0,0,0-0.1-0.1-0.1c0,0-0.4-1.1-0.9-2.1c-0.4-1.1-0.9-2.1-0.9-2.1
				c-0.1-0.2,0-0.4,0.2-0.6c0,0,0.3-0.2,0.6-0.5c0.3-0.2,0.6-0.5,0.6-0.5c0.2-0.1,0.4-0.1,0.4,0.1c0,0,0.4,1.1,0.8,2.2
				c0.4,1.1,0.8,2.2,0.8,2.2c0.1,0.2,0,0.4-0.1,0.5l-1.1,0.8c0,0,0.1,0,0.1,0.1c0,0,0.9,0.7,1.8,1.4C55.1,66.3,56,67,56,67
				c0.2,0.1,0.2,0.3,0,0.4l-1,0.8c-0.1,0.1-0.4,0.1-0.5,0c0,0-0.9-0.7-1.8-1.4c-0.9-0.7-1.9-1.4-1.9-1.4
				C50.6,65.4,50.6,65.2,50.7,65z"/>
			<path fill="#E83D3D" d="M46.9,68.4l1.1-1l0,0c0,0,0-0.1-0.1-0.1c0,0-0.5-1-1-2.1c-0.5-1-1-2.1-1-2.1c-0.1-0.2,0-0.4,0.1-0.6
				l1.1-1c0.2-0.1,0.4-0.1,0.4,0.1c0,0,0.5,1,1,2.1c0.5,1,1,2.1,1,2.1c0.1,0.2,0,0.4-0.1,0.5c0,0-0.3,0.2-0.5,0.4
				c-0.2,0.2-0.5,0.4-0.5,0.4c0,0,0.1,0,0.1,0c0,0,1,0.6,1.9,1.3c1,0.7,1.9,1.3,1.9,1.3c0.2,0.1,0.2,0.3,0.1,0.4l-1,0.9
				c-0.1,0.1-0.4,0.1-0.5,0c0,0-1-0.6-1.9-1.3c-1-0.6-1.9-1.2-1.9-1.2C46.8,68.7,46.8,68.5,46.9,68.4z"/>
			<path fill="#E83D3D" d="M43.3,71.8l1-1l0,0c0,0,0,0-0.1-0.1L42,66.7c-0.1-0.2-0.1-0.4,0.1-0.6l1.1-1c0.1-0.1,0.3-0.1,0.4,0.1
				l2.2,4.1c0.1,0.2,0.1,0.4-0.1,0.6l-1,0.9c0,0,0.1,0,0.1,0l3.9,2.4c0.2,0.1,0.2,0.3,0.1,0.4l-1,1c-0.1,0.1-0.4,0.1-0.6,0l-3.9-2.4
				C43.1,72.1,43.1,72,43.3,71.8z"/>
			<path fill="#E83D3D" d="M39.6,75.3l1.1-1l0,0c0,0,0,0-0.1-0.1l-2.2-4.1c-0.1-0.2-0.1-0.4,0.1-0.5l1-1c0.1-0.1,0.3-0.1,0.4,0.1
				l2.2,4c0.1,0.2,0.1,0.4-0.1,0.6l-1,0.9c0,0,0.1,0,0.1,0l3.9,2.4c0.2,0.1,0.2,0.3,0.1,0.4l-1.1,1c-0.1,0.1-0.4,0.2-0.6,0l-3.9-2.5
				C39.5,75.6,39.4,75.4,39.6,75.3z"/>
			<path fill="#E83D3D" d="M35.8,78.6l1.1-0.9l0,0c0,0,0-0.1-0.1-0.1c0,0-0.5-1-1-2.1c-0.5-1-1-2.1-1-2.1c-0.1-0.2-0.1-0.4,0.1-0.5
				l1-0.9c0.1-0.1,0.3-0.1,0.4,0.1c0,0,0.5,1,1.1,2c0.5,1,1.1,2,1.1,2c0.1,0.2,0,0.4-0.1,0.5c0,0-0.2,0.2-0.5,0.4
				c-0.3,0.2-0.5,0.4-0.5,0.4c0,0,0.1,0,0.1,0.1c0,0,1,0.6,1.9,1.3c1,0.6,1.9,1.3,1.9,1.3c0.2,0.1,0.2,0.3,0,0.4
				c0,0-0.3,0.2-0.6,0.5c-0.3,0.2-0.6,0.5-0.6,0.5c-0.2,0.1-0.4,0.1-0.6,0c0,0-0.9-0.7-1.9-1.3c-0.9-0.7-1.9-1.3-1.9-1.3
				C35.7,78.9,35.6,78.7,35.8,78.6z"/>
			<path fill="#E83D3D" d="M31.8,81.5l1.2-0.8l0,0c0,0,0-0.1-0.1-0.1c0,0-0.4-1.1-0.8-2.1c-0.4-1.1-0.9-2.1-0.9-2.1
				c-0.1-0.2,0-0.4,0.1-0.5c0,0,0.3-0.2,0.5-0.4c0.3-0.2,0.5-0.4,0.5-0.4c0.1-0.1,0.3-0.1,0.4,0.1c0,0,0.5,1,1,2.1
				c0.5,1.1,0.9,2.1,0.9,2.1c0.1,0.2,0,0.4-0.1,0.5l-1.1,0.8c0,0,0.1,0,0.1,0.1c0,0,0.9,0.7,1.8,1.4c0.9,0.7,1.8,1.4,1.8,1.4
				c0.2,0.1,0.2,0.3,0,0.4L35.9,85c-0.2,0.1-0.4,0.1-0.6,0c0,0-0.9-0.7-1.8-1.5c-0.9-0.8-1.7-1.5-1.7-1.5
				C31.6,81.8,31.6,81.6,31.8,81.5z"/>
			<path fill="#E83D3D" d="M28,83.7c0.3-0.1,0.6-0.3,0.6-0.3l0,0c0,0,0-0.1,0-0.1c0,0-0.2-1.1-0.5-2.2c-0.3-1.1-0.6-2.2-0.6-2.2
				c-0.1-0.2,0-0.4,0.1-0.5l1-0.6c0.1-0.1,0.3,0,0.4,0.2c0,0,0.4,1.1,0.7,2.2c0.4,1.1,0.7,2.2,0.7,2.2c0.1,0.2,0,0.4-0.2,0.5
				c0,0-0.3,0.2-0.6,0.3c-0.3,0.2-0.6,0.3-0.6,0.3c0,0,0.1,0,0.1,0.1c0,0,0.8,0.8,1.6,1.7c0.8,0.8,1.7,1.6,1.7,1.6
				c0.1,0.1,0.1,0.3-0.1,0.4L30.9,88c-0.2,0.1-0.5,0.1-0.6-0.1c0,0-0.8-0.9-1.6-1.7c-0.8-0.9-1.5-1.8-1.5-1.8
				c-0.1-0.2-0.1-0.3,0.1-0.4C27.4,84,27.7,83.8,28,83.7z"/>
			<path fill="#E83D3D" d="M23.3,85.3c0.4-0.1,0.7-0.2,0.7-0.2c0,0,0,0,0,0c0,0,0-0.1,0-0.1c0,0,0-1.2-0.1-2.3
				c-0.1-1.1-0.2-2.3-0.2-2.3c0-0.2,0.1-0.4,0.2-0.4c0,0,0.3-0.1,0.5-0.2c0.1,0,0.3-0.1,0.4-0.1c0.1,0,0.2-0.1,0.2-0.1
				c0.1-0.1,0.3,0,0.3,0.2c0,0,0.2,1.1,0.4,2.3c0.2,1.1,0.3,2.3,0.3,2.3c0,0.2-0.1,0.4-0.3,0.5c0,0-0.3,0.1-0.6,0.2
				c-0.3,0.1-0.6,0.2-0.6,0.2c0,0,0.1,0.1,0.1,0.1c0,0,0.6,1,1.2,2c0.7,1,1.3,1.9,1.3,1.9c0.1,0.2,0,0.4-0.2,0.4c0,0-0.1,0-0.3,0.1
				c-0.2,0-0.4,0.1-0.6,0.2c-0.4,0.1-0.8,0.2-0.8,0.2c-0.2,0.1-0.5,0-0.6-0.2c0,0-0.6-1-1.2-2c-0.6-1-1-2.1-1-2.1
				c-0.1-0.2,0-0.4,0.2-0.4C22.6,85.5,23,85.4,23.3,85.3z"/>
			<path fill="#E83D3D" d="M77.1,17.4c0,0.2-0.2,0.4-0.4,0.4l-1.3,0.1c0,0,0,0.1,0,0.1c0,0,0.4,1.1,0.8,2.2c0.4,1.1,0.8,2.2,0.8,2.2
				c0.1,0.2,0,0.4-0.2,0.4l-1.5,0.1c-0.2,0-0.4-0.1-0.5-0.3c0,0-0.4-1.1-0.7-2.2c-0.4-1.1-0.7-2.2-0.7-2.2c-0.1-0.2,0.1-0.3,0.2-0.3
				l1.4-0.1c0,0,0,0,0,0c0,0,0-0.1,0-0.1c0,0,0.2-1.1,0.4-2.3c0.2-1.1,0.4-2.3,0.4-2.3c0-0.2,0.2-0.4,0.4-0.4l1.3-0.1
				c0.2,0,0.3,0.1,0.3,0.3c0,0-0.2,1.1-0.3,2.3C77.3,16.3,77.1,17.4,77.1,17.4z"/>
			<path fill="#E83D3D" d="M68.5,17.7c0,0,0.4,0,0.7,0.1c0.4,0,0.7,0,0.7,0c0,0,0,0,0,0c0,0,0-0.1,0-0.1c0,0,0.3-1.1,0.7-2.2
				c0.3-1.1,0.6-2.2,0.6-2.2c0-0.2,0.2-0.3,0.4-0.3l1.3,0c0.2,0,0.3,0.2,0.2,0.3c0,0-0.2,1.1-0.5,2.2c-0.3,1.1-0.5,2.2-0.5,2.2
				C72,17.9,71.8,18,71.7,18l-1.3,0c0,0,0,0.1,0,0.1c0,0,0.3,1.1,0.6,2.2c0.3,1.1,0.6,2.2,0.6,2.2c0.1,0.2-0.1,0.3-0.3,0.3l-1.6,0
				c-0.2,0-0.4-0.2-0.5-0.4c0,0-0.1-0.3-0.2-0.7c-0.1-0.4-0.2-1-0.3-1.6c-0.2-1.1-0.4-2.3-0.4-2.3C68.2,17.8,68.3,17.7,68.5,17.7z"
				/>
			<path fill="#E83D3D" d="M63.2,17.3c0-0.2,0.1-0.3,0.3-0.3l1.4,0.3c0,0,0,0,0,0c0,0,0-0.1,0-0.1c0,0,0.1-0.3,0.3-0.7
				c0.2-0.4,0.4-0.9,0.6-1.5c0.4-1.1,0.8-2.2,0.8-2.2c0.1-0.2,0.3-0.3,0.4-0.3l1.3,0.1c0.2,0,0.3,0.2,0.2,0.4c0,0-0.4,1.1-0.7,2.2
				c-0.4,1.1-0.8,2.2-0.8,2.2c-0.1,0.2-0.3,0.3-0.5,0.3l-1.3-0.1c0,0,0,0.1,0,0.1c0,0,0.1,1.1,0.3,2.3c0.2,1.1,0.4,2.3,0.4,2.3
				c0,0.2-0.1,0.3-0.3,0.3c0,0-0.4,0-0.8-0.1c-0.2,0-0.4,0-0.5-0.1c-0.1,0-0.2-0.1-0.2-0.1c-0.2,0-0.4-0.2-0.4-0.4
				c0,0-0.1-1.2-0.2-2.3C63.3,18.4,63.2,17.3,63.2,17.3z"/>
			<path fill="#E83D3D" d="M63.1,14.5c-0.5,1-1,2.1-1,2.1c-0.1,0.2-0.3,0.3-0.5,0.3c0,0-0.3-0.1-0.7-0.1c-0.2,0-0.3-0.1-0.4-0.1
				c-0.1,0-0.2-0.1-0.2-0.1c0,0,0,0.1,0,0.1c0,0,0,0.3,0,0.7c0,0.4,0,1,0,1.6c0.1,1.2,0.1,2.3,0.1,2.3c0,0.2-0.1,0.3-0.4,0.3
				c0,0-0.4-0.1-0.8-0.2c-0.4-0.1-0.7-0.2-0.7-0.2c-0.2-0.1-0.4-0.3-0.4-0.5c0,0,0-1.2,0-2.3c0-1.2,0-2.3,0-2.3
				c0-0.2,0.2-0.3,0.3-0.3l1.4,0.4c0,0,0,0,0,0c0,0,0-0.1,0-0.1c0,0,0.6-1,1.1-2c0.5-1,1.1-2,1.1-2c0.1-0.2,0.3-0.3,0.5-0.3l1.3,0.3
				c0.2,0,0.2,0.2,0.2,0.4C64.1,12.5,63.6,13.5,63.1,14.5z"/>
			<path fill="#E83D3D" d="M58.5,13.3c-0.6,1-1.2,2-1.2,2c-0.1,0.2-0.3,0.3-0.5,0.2c0,0-0.3-0.1-0.6-0.2c-0.3-0.1-0.6-0.2-0.6-0.2
				c0,0,0,0.1,0,0.1c0,0-0.1,1.2-0.1,2.3c0,1.1-0.1,2.3-0.1,2.3c0,0.2-0.2,0.3-0.4,0.3c0,0-1.4-0.5-1.4-0.5
				c-0.2-0.1-0.3-0.3-0.3-0.5c0,0,0.1-1.2,0.2-2.3c0.1-1.2,0.2-2.3,0.2-2.3c0-0.2,0.2-0.3,0.4-0.2l1.3,0.5c0,0,0,0,0,0
				c0,0,0-0.1,0-0.1c0,0,0.6-1,1.3-1.9c0.3-0.5,0.6-1,0.9-1.3c0.2-0.4,0.4-0.6,0.4-0.6c0.1-0.2,0.3-0.3,0.5-0.2l1.3,0.4
				c0.2,0,0.2,0.2,0.1,0.4C59.6,11.3,59,12.3,58.5,13.3z"/>
			<path fill="#E83D3D" d="M53.8,11.7c-0.7,1-1.3,1.9-1.3,1.9c-0.1,0.2-0.4,0.2-0.5,0.2l-1.3-0.5c0,0,0,0.1,0,0.1
				c0,0-0.1,1.1-0.2,2.3c-0.1,1.1-0.2,2.3-0.2,2.3c0,0.2-0.2,0.3-0.4,0.2l-1.3-0.5c-0.2-0.1-0.3-0.3-0.2-0.5c0,0,0.1-1.1,0.2-2.3
				c0.1-1.1,0.2-2.3,0.2-2.3c0-0.2,0.2-0.3,0.3-0.2l1.4,0.5c0,0,0,0,0,0c0,0,0-0.1,0.1-0.1c0,0,0.7-0.9,1.4-1.9
				c0.7-0.9,1.3-1.9,1.3-1.9C53.3,9,53.5,8.9,53.7,9L55,9.4c0.2,0.1,0.2,0.2,0.1,0.4C55.1,9.8,54.5,10.8,53.8,11.7z"/>
			<path fill="#E83D3D" d="M49,10c-0.6,1-1.3,1.9-1.3,1.9c-0.1,0.2-0.3,0.3-0.5,0.2l-1.3-0.4c0,0,0,0.1,0,0.1c0,0,0,1.2-0.1,2.3
				c-0.1,1.1-0.1,2.3-0.1,2.3c0,0.2-0.2,0.3-0.3,0.3c0,0-0.3-0.1-0.6-0.2c-0.3-0.1-0.6-0.2-0.6-0.2c-0.2-0.1-0.3-0.3-0.3-0.4
				c0,0,0-1.1,0-2.3c0-1.1,0-2.3,0-2.3c0-0.2,0.1-0.3,0.3-0.3c0,0,0.3,0.1,0.7,0.2c0.3,0.1,0.7,0.2,0.7,0.2c0,0,0,0,0,0
				c0,0,0-0.1,0-0.1c0,0,0.6-1,1.2-2c0.6-1,1.2-2,1.2-2c0.1-0.2,0.4-0.3,0.5-0.2l1.5,0.5c0.2,0.1,0.3,0.2,0.1,0.4
				C50.3,8.1,49.6,9.1,49,10z"/>
			<path fill="#E83D3D" d="M43.9,8.6c-0.6,1-1.1,2-1.1,2c-0.1,0.2-0.3,0.3-0.5,0.2L41,10.5c0,0,0,0.1,0,0.1c0,0,0,1.2,0.1,2.3
				c0,1.1,0.1,2.3,0.1,2.3c0,0.2-0.1,0.3-0.3,0.3l-1.3-0.3c-0.2,0-0.3-0.2-0.3-0.4c0,0-0.1-1.2-0.1-2.3C39,11.4,39,10.2,39,10.2
				c0-0.2,0.1-0.3,0.3-0.3c0,0,0.4,0.1,0.7,0.1c0.4,0.1,0.7,0.1,0.7,0.1s0,0,0,0c0,0,0-0.1,0-0.1c0,0,0.5-1,1.1-2.1
				c0.5-1,1.1-2,1.1-2c0.1-0.2,0.3-0.3,0.5-0.2l1.5,0.4c0.2,0.1,0.3,0.2,0.2,0.4C45.1,6.6,44.5,7.6,43.9,8.6z"/>
			<path fill="#E83D3D" d="M38.8,7.5c-0.5,1.1-1,2.1-1,2.1c-0.1,0.2-0.3,0.3-0.5,0.3c0,0-0.3-0.1-0.7-0.1c-0.3,0-0.7-0.1-0.7-0.1
				c0,0,0,0.1,0,0.1c0,0,0.1,1.1,0.3,2.3c0.1,1.1,0.2,2.3,0.2,2.3c0,0.2-0.1,0.3-0.3,0.3c0,0-0.3,0-0.6-0.1c-0.3,0-0.6-0.1-0.6-0.1
				c-0.2,0-0.3-0.2-0.4-0.4c0,0-0.2-1.1-0.3-2.3C34.2,10.7,34,9.5,34,9.5c0-0.2,0.1-0.3,0.3-0.3c0,0,0.4,0,0.7,0.1
				c0.4,0,0.7,0.1,0.7,0.1c0,0,0,0,0,0c0,0,0-0.1,0-0.1c0,0,0.4-1.1,0.9-2.1C37.1,6.1,37.5,5,37.5,5c0.1-0.2,0.3-0.3,0.5-0.3
				c0,0,0.4,0.1,0.8,0.1C39.2,4.9,39.6,5,39.6,5c0.2,0,0.3,0.2,0.2,0.4C39.8,5.4,39.3,6.4,38.8,7.5z"/>
			<path fill="#E83D3D" d="M32.8,9c-0.1,0.2-0.3,0.3-0.5,0.3c0,0-0.3,0-0.7,0c-0.3,0-0.7,0-0.7,0c0,0,0,0.1,0,0.1
				c0,0,0.3,1.1,0.5,2.2c0.2,1.1,0.4,2.3,0.4,2.3c0,0.2-0.1,0.3-0.2,0.3c0,0-0.3,0-0.6,0c-0.3,0-0.6,0-0.6,0c-0.2,0-0.3-0.2-0.4-0.4
				c0,0-0.3-1.1-0.5-2.2c-0.3-1.1-0.6-2.2-0.6-2.2C28.9,9.2,29,9,29.2,9c0,0,0.4,0,0.7,0c0.4,0,0.7,0,0.7,0s0,0,0,0c0,0,0-0.1,0-0.1
				c0,0,0.3-1.1,0.7-2.2c0.4-1.1,0.7-2.2,0.7-2.2c0.1-0.2,0.3-0.3,0.5-0.3c0,0,0.4,0,0.8,0c0.4,0,0.8,0.1,0.8,0.1
				c0.2,0,0.3,0.2,0.2,0.4c0,0-0.4,1.1-0.8,2.2C33.2,7.9,32.8,9,32.8,9z"/>
			<path fill="#E83D3D" d="M82.8,79.3c-0.2,0-0.3-0.2-0.3-0.3c0,0,0.1-0.3,0.2-0.6c0.1-0.3,0.2-0.6,0.2-0.6c0-0.2,0.2-0.3,0.4-0.3
				c0,0,1.1,0.1,2.3,0c1.1,0,2.3,0,2.3,0c0.2,0,0.3,0.1,0.3,0.3c0,0-0.1,0.4-0.2,0.7c0,0.1,0,0.2-0.1,0.3c-0.2,0.3-0.4,0.5-0.6,0.8
				c-0.1,0-1.2,0-2.3-0.1C83.9,79.4,82.8,79.3,82.8,79.3z"/>
			<path fill="#E83D3D" d="M88.3,76c0,0,0.1-0.3,0.1-0.6c0-0.3,0.1-0.7,0.1-0.7c0,0-0.1,0-0.1,0c0,0-1.1,0.2-2.3,0.3
				c-1.1,0.1-2.3,0.2-2.3,0.2c-0.2,0-0.3-0.1-0.3-0.3c0,0,0.1-1.1,0.1-1.1c0-0.2,0.2-0.3,0.4-0.3c0,0,1.1-0.2,2.3-0.4
				c1.1-0.2,2.2-0.5,2.2-0.5c0.2,0,0.3,0.1,0.3,0.3c0,0,0,0.4,0,0.7c0,0.4-0.1,0.7-0.1,0.7s0,0,0,0c0,0,0.1,0,0.1,0
				c0,0,0.8,0.3,1.7,0.7c-0.4,0.6-0.8,1.2-1.2,1.8c-0.5-0.2-0.8-0.4-0.8-0.4C88.4,76.4,88.2,76.2,88.3,76z"/>
			<path fill="#E83D3D" d="M88.9,71.4c-0.2-0.1-0.4-0.2-0.4-0.4c0,0,0-0.3,0-0.7c0-0.3-0.1-0.7-0.1-0.7c0,0-0.1,0-0.1,0.1
				c0,0-1.1,0.4-2.2,0.8c-1.1,0.4-2.2,0.6-2.2,0.6c-0.2,0.1-0.4,0-0.4-0.2c0,0,0-0.1,0-0.2c0-0.1,0-0.2,0-0.4c0-0.3-0.1-0.5-0.1-0.5
				c0-0.1,0.1-0.3,0.3-0.4c0,0,1.1-0.4,2.1-0.8c1-0.5,2.1-1,2.1-1c0.2-0.1,0.3,0,0.4,0.2c0,0,0.1,0.4,0.1,0.7
				c0.1,0.4,0.1,0.7,0.1,0.7c0,0,0,0,0,0c0,0,0.1,0,0.1,0c0,0,1.1,0.1,2.3,0.4c1,0.2,1.9,0.4,2.2,0.5c-0.4,0.7-0.7,1.5-1.1,2.2
				c-0.3-0.1-0.6-0.2-1-0.3C90.1,71.7,88.9,71.4,88.9,71.4z"/>
			<path fill="#E83D3D" d="M80.8,83.1c-0.2-0.1-0.3-0.2-0.2-0.3c0,0,0.1-0.3,0.3-0.5c0.1-0.3,0.3-0.5,0.3-0.5
				c0.1-0.1,0.3-0.2,0.5-0.2c0,0,1.1,0.2,2.2,0.4c0.4,0.1,0.7,0.1,1,0.2c-0.5,0.6-1,1.1-1.6,1.7c-0.1,0-0.2,0-0.3-0.1
				C81.9,83.4,80.8,83.1,80.8,83.1z"/>
			<path fill="#E83D3D" d="M16.1,81c0.1-0.2,0.2-0.3,0.4-0.3c0,0,0.3,0.1,0.5,0.1c0.3,0,0.5,0,0.5,0c0.1,0,0.2,0.2,0.2,0.4
				c0,0-0.3,1.1-0.7,2.2c-0.2,0.5-0.4,1.1-0.6,1.5c-0.2,0.4-0.3,0.7-0.3,0.7c0,0-0.1,0.1-0.1,0.1c-0.5-0.5-1-0.9-1.5-1.4
				c0.2-0.3,0.4-0.7,0.6-1.2C15.7,82,16.1,81,16.1,81z"/>
			<path fill="#E83D3D" d="M17.6,85.8c0,0,0.4,0,0.7,0c0.4,0,0.7,0,0.7,0c0,0,0,0,0,0c0,0,0-0.1,0-0.1c0,0,0.3-1.1,0.5-2.2
				c0.2-1.1,0.4-2.3,0.4-2.3c0-0.2,0.2-0.4,0.3-0.4c0,0,1.1-0.1,1.1-0.1c0.1,0,0.2,0.1,0.2,0.3c0,0,0,1.1-0.1,2.3
				c-0.1,1.1-0.3,2.3-0.3,2.3c0,0.2-0.2,0.4-0.4,0.4c0,0-0.3,0-0.7,0.1c-0.3,0-0.7,0-0.7,0c0,0,0,0.1,0,0.1c0,0,0.3,1.1,0.7,2.2
				c0.1,0.3,0.2,0.5,0.3,0.8c-1-0.7-2-1.5-3-2.3c-0.1-0.4-0.1-0.7-0.1-0.7C17.3,85.9,17.5,85.7,17.6,85.8z"/>
			<path fill="#E83D3D" d="M16,17.8c0.2,0.1,0.2,0.3,0.1,0.4c0,0-0.8,0.7-0.8,0.7c-0.1,0.1-0.3,0.1-0.5,0c0,0-0.9-0.6-1.9-1.2
				c-0.4-0.2-0.8-0.5-1.1-0.6c0.4-0.5,0.9-1,1.3-1.5c0.3,0.2,0.7,0.5,1.2,0.8C15.1,17.1,16,17.8,16,17.8z"/>
			<path fill="#E83D3D" d="M19.3,15.8c0.1,0.2,0.1,0.3,0,0.4c0,0-1,0.5-1,0.5c-0.1,0.1-0.3,0-0.5-0.1c0,0-0.8-0.8-1.6-1.7
				c-0.5-0.5-1-1-1.3-1.3c0.5-0.5,1-0.9,1.5-1.4c0,0,0.8,0.9,1.5,1.7C18.7,14.9,19.3,15.8,19.3,15.8z"/>
			<path fill="#E83D3D" d="M82.1,16.8c0,0.2-0.2,0.4-0.4,0.4l-1.3,0.2c0,0,0,0.1,0.1,0.1c0,0,0.5,1.1,0.9,2.1
				c0.5,1.1,0.9,2.1,0.9,2.1c0.1,0.2,0,0.4-0.2,0.4l-1.5,0.2c-0.2,0-0.4-0.1-0.5-0.3c0,0-0.4-1.1-0.9-2.1c-0.4-1.1-0.9-2.1-0.9-2.1
				c-0.1-0.2,0-0.4,0.2-0.4l1.4-0.2c0,0,0,0,0,0c0,0,0-0.1,0-0.1c0,0,0.1-1.1,0.3-2.3c0.1-1.1,0.2-2.3,0.2-2.3
				c0-0.2,0.2-0.4,0.4-0.4c0,0,0.1,0,0.2,0c0.4,0.4,0.9,0.8,1.3,1.2c0,0.4-0.1,0.8-0.1,1.2C82.2,15.6,82.1,16.8,82.1,16.8z"/>
			<path fill="#E83D3D" d="M85.5,16.7l2,4.2c0.1,0.2,0,0.4-0.2,0.4l-1.4,0.3c-0.2,0-0.4-0.1-0.5-0.3L83.4,17c-0.1-0.2,0-0.4,0.2-0.4
				l1.4-0.3c0,0,0,0,0,0c0,0,0-0.1,0-0.1l0-0.4c0.2,0.2,0.4,0.4,0.6,0.7L85.5,16.7C85.4,16.6,85.5,16.6,85.5,16.7z"/>
			<path fill="#E83D3D" d="M28.2,6.7C28,7.8,27.7,9,27.7,9c0,0.2-0.2,0.4-0.4,0.4c0,0-0.3,0-0.7,0c-0.3,0-0.7,0.1-0.7,0.1
				c0,0,0,0.1,0.1,0.1c0,0,0.4,1.1,0.8,2.2c0.4,1.1,0.7,2.2,0.7,2.2c0.1,0.2,0,0.4-0.2,0.4c0,0-0.3,0-0.6,0.1
				c-0.3,0-0.6,0.1-0.6,0.1c-0.2,0-0.3-0.1-0.4-0.3c0,0-0.4-1.1-0.8-2.1c-0.4-1.1-0.9-2.1-0.9-2.1c-0.1-0.2,0-0.4,0.2-0.4
				c0,0,0.4-0.1,0.7-0.1c0.4,0,0.7-0.1,0.7-0.1s0,0,0,0c0,0,0-0.1,0-0.1c0,0,0.2-1.1,0.4-2.3c0.1-0.5,0.2-0.9,0.3-1.3
				c0.8-0.4,1.7-0.8,2.5-1.2c0,0.1,0,0.1,0,0.2C28.8,4.5,28.5,5.6,28.2,6.7z"/>
			<path fill="#E83D3D" d="M22.3,10c0,0-0.3,0.1-0.6,0.2c-0.3,0.1-0.6,0.2-0.6,0.2c0,0,0,0.1,0.1,0.1c0,0,0.6,1,1.1,2
				c0.5,1,1,2.1,1,2.1c0.1,0.2,0,0.3-0.1,0.4L22,15.2c-0.1,0.1-0.3-0.1-0.4-0.2c0,0-0.6-1-1.2-2c-0.6-1-1.3-1.9-1.3-1.9
				c-0.1-0.2-0.1-0.3,0.1-0.4c0,0,0.3-0.1,0.7-0.2c0.3-0.1,0.7-0.2,0.7-0.2c0,0,0,0,0,0c0,0,0-0.1,0-0.1c0,0,0-0.5,0-1.1
				c0.7-0.5,1.5-1,2.2-1.5c-0.1,1.1-0.2,2.1-0.2,2.1C22.7,9.8,22.5,10,22.3,10z"/>
		</g>
	</g>
</g>
<g id="No3">
	<g>
		<path fill="#E83D3D" d="M1.1,0h20.2l1.1,1.1l-3.3,3.3H3.3L0,1.1L1.1,0z M3.3,38.2h15.8l3.3,3.3l-1.1,1.1H1.1L0,41.5L3.3,38.2z
			 M3.1,19.1h7.3l0.5,2.2l-0.5,2.2H3.3l-2.2-2.2L3.1,19.1z M12,19.1h7.1l2.2,2.2l-2.2,2.2H12l-0.5-2.2L12,19.1z M19.7,18.6V4.9
			l3.3-3.3L24,2.7v16.9l-1.1,1.1h-1.1L19.7,18.6z M19.7,37.7V24l2.2-2.2h1.1L24,23v16.8l-1.1,1.1L19.7,37.7z"/>
	</g>
</g>
<g id="No9">
	<g>
		<path fill="#E83D3D" d="M0,19.7V2.7l1.1-1.1l3.3,3.3v13.6l-2.2,2.2H1.1L0,19.7z M2.7,0h20.2L24,1.1l-3.3,3.3H4.9L1.6,1.1L2.7,0z
			 M4.9,38.2h15.8l3.3,3.3l-1.1,1.1H2.7l-1.1-1.1L4.9,38.2z M4.7,19.1H12l0.5,2.2L12,23.5H4.9l-2.2-2.2L4.7,19.1z M13.6,19.1h7.1
			l2.2,2.2l-2.2,2.2h-7.1l-0.5-2.2L13.6,19.1z M21.3,18.6V4.9l3.3-3.3l1.1,1.1v16.9l-1.1,1.1h-1.1L21.3,18.6z M21.3,37.7V24l2.2-2.2
			h1.1l1.1,1.2v16.8l-1.1,1.1L21.3,37.7z"/>
	</g>
</g>
<g id="No2">
	<g>
		<path fill="#E83D3D" d="M0,39.8V22.9l1.1-1.1h1.1L4.4,24v13.6l-3.3,3.3L0,39.8z M2.7,0h20.2L24,1.1l-3.3,3.3H4.9L1.6,1.1L2.7,0z
			 M4.9,38.2h15.8l3.3,3.3l-1.1,1.1H2.7l-1.1-1.1L4.9,38.2z M4.7,19.1H12l0.5,2.2L12,23.5H4.9l-2.2-2.2L4.7,19.1z M13.6,19.1h7.1
			l2.2,2.2l-2.2,2.2h-7.1l-0.5-2.2L13.6,19.1z M21.3,18.6V4.9l3.3-3.3l1.1,1.1v16.9l-1.1,1.1h-1.1L21.3,18.6z"/>
	</g>
</g>
<g id="text">
	<g>
		<g>
			<path fill="#B78D16" d="M7.7,7.2v-2c0-1,0-2.2-1.8-2.2c-2,0-2,1.6-2,2.7v11.1c0,1.4,0.5,2.1,1.8,2.1c1.9,0,1.9-1.4,1.9-2.4v-3.3
				H5.3v-3.2h6.3v11.4H8.3v-1.2c-0.6,0.6-1.5,1.7-3.7,1.7c-1.9,0-4.6-0.8-4.6-4.3v-12C0,3.5,0.2,0,6,0c1,0,2.8,0.1,4,1
				c1.2,0.8,1.6,1.9,1.6,3.2v3.1H7.7z"/>
			<path fill="#B78D16" d="M15.1,0.4H19v15.6c0,1.1,0,2.5,1.8,2.5c1.8,0,1.8-1.4,1.8-2.6V0.4h3.9v16.3c0,2.7-1.2,5.2-5.8,5.2
				c-3.6,0-5.6-1.8-5.6-5.3V0.4z"/>
			<path fill="#B78D16" d="M30.1,0.4h10.2v3.2H34v4.9h5.9v3.2H34v6.5h6.6v3.2H30.1V0.4z"/>
			<path fill="#B78D16" d="M42.9,14h3.9v2.4c0,1.2,0,2.4,1.9,2.4c1.9,0,1.9-1.2,1.9-3.1c0-1.5-0.3-2.1-1.3-2.8l-3.7-2.5
				c-2-1.3-2.5-2.8-2.5-4.9c0-1.6,0.1-3.2,1.5-4.3C45.4,0.6,46.8,0,48.8,0c2.3,0,5.4,0.9,5.4,4.5v2.1h-3.8V5.1c0-1,0-2.1-1.7-2.1
				c-1,0-1.8,0.4-1.8,2.1c0,1.8,0.4,2.1,1.2,2.7l3.8,2.6c0.7,0.5,1.5,1.3,2,2.1c0.6,1,0.6,1.6,0.6,3.3c0,1.9,0,3-0.7,4.1
				c-1.2,1.9-3.6,2.1-5,2.1c-3.3,0-5.8-1.2-5.8-4.8V14z"/>
			<path fill="#B78D16" d="M56.2,0.4h11.6v3H64v18h-3.9v-18h-3.9V0.4z"/>
		</g>
		<g>
			<path fill="#B78D16" d="M169.1,0.4h3.9v8.3h3.5V0.4h3.9v21h-3.9v-9.6H173v9.6h-3.9V0.4z"/>
			<path fill="#B78D16" d="M195.5,17c0,1.5-0.3,2.6-1.1,3.4c-1.2,1.3-3.2,1.5-4.6,1.5c-4.7,0-5.9-2.3-5.9-4.9V5.2
				c0-0.9,0-2.5,1.1-3.6c0.8-0.9,2.4-1.6,4.8-1.6c1.9,0,3.4,0.5,4.4,1.3c1,0.9,1.4,2,1.4,4V17z M191.6,5.6c0-1.1,0-2.6-1.9-2.6
				c-2,0-2,1.6-2,2.8v10.6c0,1.2,0.1,2.6,2,2.6s1.9-1.5,1.9-2.5V5.6z"/>
			<path fill="#B78D16" d="M199.1,0.4h6.3l2.5,14.7l2.5-14.7h6.2v21h-3.8L213,3.2l-3.4,18.2H206l-3.5-18.2l0.3,18.2h-3.8V0.4z"/>
			<path fill="#B78D16" d="M220.3,0.4h10.2v3.2h-6.3v4.9h5.9v3.2h-5.9v6.5h6.6v3.2h-10.4V0.4z"/>
		</g>
		<g>
			<path fill="#B78D16" d="M98.1,10.1h3.8v21h-3.8V10.1z"/>
			<path fill="#B78D16" d="M117.6,31.1h-4.9L109,15.4l0.4,15.7h-3.6v-21h5l3.8,15.4L114,10.1h3.5V31.1z"/>
			<path fill="#B78D16" d="M133.2,31.1h-4.9l-3.7-15.7l0.4,15.7h-3.6v-21h5l3.8,15.4l-0.4-15.4h3.5V31.1z"/>
		</g>
	</g>
</g>
<g id="highlight">
  	<path fill="#FFFFFF" d="M296.6,0v17h0v1.2H0V17V0H296.6z M0,30.1v7.1v0.5h296.6v-0.5h0v-7.1H0z"/>
</g>
<clipPath id="number-clip">
  <polygon fill="#FFFFFF" points="162.1,0 162.1,59.2 162.1,63.4 230.9,63.4 230.9,59.2 230.9,59.2 230.9,0 "/>
</clipPath>
</defs>
<!--Walk It Off -->
<use xlink:href="#bg"/>
<g id="jumbotron" transform="translate(420,200)">
<g transform="translate(-420,-170)">
  <g transform="translate(134,41)">
    <use xlink:href="#sign"/>
  </g>
  <g transform="translate(159,97)">
    <use xlink:href="#text"/>
  </g>
  <g transform="translate(160,131)">
    <use xlink:href="#numbers"/>

    <g clip-path="url(#number-clip)">
      <g transform="translate(-30,100) rotate(-48,0,0)">
        <use xlink:href="#highlight">
          <animate attributeName="opacity" values=".16;.22;.16" dur="1.6s" repeatCount="indefinite" fill="freeze" begin="three.end"/>
          <animateTransform id="glimmer1" attributeName="transform" type="translate" dur="1.6" fill="freeze" values="0,0;0,300" repeatCount="indefinite" begin="three.end" additive="sum"/>
        </use>
      </g>
    </g>



  </g>
  <g transform="translate(194,139)">
    <use xlink:href="#No2"/>
  </g>
  <g transform="translate(262,150)">
    <use xlink:href="#No9"/>
  </g>
  <g transform="translate(358,139)">
    <use xlink:href="#No2">
      <animate id="two" attributeName="opacity" values="1;0" dur=".7s" repeatCount="0" begin="slidehome.end-1.3" fill="freeze"/>
    </use>
  </g>
  <g transform="translate(360,139)">
    <use xlink:href="#No3" visibility="hidden">
      <set attributeName="visibility" from="hidden" to="visible" begin="two.end-.4" />
      <animate id="three" attributeName="opacity" values="0;1" dur=".7s" repeatCount="0" begin="two.end-.4" fill="freeze"/>
    </use>
  </g>
</g>
 <animateTransform id="zoomin" attributeType="xml" attributeName="transform" type="scale" values="1 1;2.3 2.3" dur=".15s" fill="freeze" repeatCount="0" begin=".75" additive="sum"/>
 <animateTransform id="slideguest" attributeName="transform" type="translate" dur=".15s" fill="freeze" values="0,0;60,0;160,0" repeatCount="1" begin="zoomin.end+1" additive="sum"/>
 <animateTransform id="slidehome" attributeName="transform" type="translate" dur="3s" fill="freeze" values="0,0;-160,0" repeatCount="1" begin="flashlight.end-.2" additive="sum"/>

</g>
<use xlink:href="#flash" visibility="hidden">
  <set attributeName="visibility" from="hidden" to="visible" begin="slideguest.end+1" />
  <animate id="flashlight" attributeName="opacity" values="0;.5;1;.9;.8;.7;.6;.5;.4;.3;.2;.1;0" dur="1.5s" repeatCount="0" begin="slideguest.end+1" fill="freeze"/>
</use>
</svg>
