<?xml version="1.0" encoding="utf-8"?>
<!-- Generator: Adobe Illustrator 18.1.1, SVG Export Plug-In . SVG Version: 6.00 Build 0)  -->
<svg version="1.1" xmlns="http://www.w3.org/2000/svg" xmlns:xlink="http://www.w3.org/1999/xlink" x="0px" y="0px"
	 viewBox="0 0 550 309" enable-background="new 0 0 550 309" xml:space="preserve">
<defs>
<rect id="bg" x="0" y="0" height="309" width="550" fill="#00B4EB" />
<g id="right-cloud">
	<g>
		<path fill="#FFFFFF" d="M165.6,0.2c0,0-49.5-6-62.5,53.6c0,0-15.3-7.1-18.9,11c0,0-13.7-10.2-29.6-3.1
			c-15.9,7.1-13.3,25.5-13.3,25.5S12,80,0,114.8h165.6V0.2z"/>
	</g>
</g>
<g id="left-cloud">
	<g>
		<path fill="#FFFFFF" d="M0,0.2c0,0,51.7-6.3,65.3,56c0,0,16-7.4,19.7,11.5c0,0,14.3-10.7,30.9-3.3c16.6,7.4,13.9,26.6,13.9,26.6
			s30.6-7.4,43.1,29l-173,0L0,0.2z"/>
	</g>
</g>
<g id="right-wing">
	<g>
		<path fill="#FFFFFF" d="M75.3,0c-9.1,10.2-18.6-3.2-39.9,1.3C8.8,6.8,1.1,44.9,1.1,44.9l13.2,0c-0.1,0.3,6.9,0.3,6.9,0.3l7.2,2.4
			c0,0,2.9,3.7,9.1,3.9s7.5-5.6,7.5-5.6l2.5-3.6c6.9-2.3,9.4-10.9,9.4-10.9C70.8,26.8,65.7,19,65.7,19C83.5,13.3,75.3,0,75.3,0z"/>
		<path fill="#00B4EB" d="M75.3,0c0,0,7.2,14.8-11.5,15.7C53.1,16.2,44.6,8.6,34.3,17c0,0,7.6-3.4,16.2-0.3
			c3.3,1.2,6.9,2.4,10.4,3.1c0,0.7-0.1,1.6-0.4,2.5l0,0c-4.5,10.5-25.7-1-31.7,5.6c0,0,2.7-2,11.9,0.6c3.4,1,7.2,2.5,10.9,3.1
			c0.6,0.1,1.2,0.2,1.9,0.3C53.3,35.3,51,44.4,30,38.2c5.2,2.5,9.6,4,13.3,4.5c-1.1,2.9-4.4,7.5-13.9,3.8C16.2,41.4,9.6,42,3.1,43.9
			s-0.9,2.2-0.9,2.2s11.3-3.3,24.3,4.2c10.4,6,20.3,1.5,22.3-7.3c6.5-0.7,9.6-5.3,9.8-10.9c2.2-0.3,4.2-1,5.7-2.6
			c3.5-3.7,3.6-7,2.9-9.2c3.4-0.3,6.5-1.6,9.1-4.6C83.2,7.7,75.3,0,75.3,0z"/>
	</g>
</g>
<g id="left-wing">
	<g>
		<path fill="#FFFFFF" d="M3.8,0C13,10.2,22.4-3.2,43.8,1.3c26.5,5.5,34.3,43.6,34.3,43.6l-13.2,0c0.1,0.3-6.9,0.3-6.9,0.3l-7.2,2.4
			c0,0-2.9,3.7-9.1,3.9s-7.5-5.6-7.5-5.6l-2.5-3.6c-6.9-2.3-9.4-10.9-9.4-10.9C8.3,26.8,13.4,19,13.4,19C-4.4,13.3,3.8,0,3.8,0z"/>
		<path fill="#00B4EB" d="M3.8,0c0,0-7.2,14.8,11.5,15.7C26,16.2,34.5,8.6,44.8,17c0,0-7.6-3.4-16.2-0.3c-3.3,1.2-6.9,2.4-10.4,3.1
			c0,0.7,0.1,1.6,0.4,2.5l0,0c4.5,10.5,25.7-1,31.7,5.6c0,0-2.7-2-11.9,0.6c-3.4,1-7.2,2.5-10.9,3.1c-0.6,0.1-1.2,0.2-1.9,0.3
			c0.1,3.4,2.4,12.5,23.4,6.3c-5.2,2.5-9.6,4-13.3,4.5c1.1,2.9,4.4,7.5,13.9,3.8C62.9,41.4,69.5,42,76,43.9c6.5,1.9,0.9,2.2,0.9,2.2
			s-11.3-3.3-24.3,4.2c-10.4,6-20.3,1.5-22.3-7.3c-6.5-0.7-9.6-5.3-9.8-10.9c-2.2-0.3-4.2-1-5.7-2.6c-3.5-3.7-3.6-7-2.9-9.2
			c-3.4-0.3-6.5-1.6-9.1-4.6C-4.1,7.7,3.8,0,3.8,0z"/>
	</g>
</g>
<g id="bench">
	<g>
		<g>
			<g>
				<g>
					<g>

							<rect x="-24.2" y="67.5" transform="matrix(-4.415115e-05 -1 1 -4.415115e-05 -24.1508 122.4703)" fill="#0E1741" width="146.6" height="11.6"/>
						<rect x="12.2" y="106.1" fill="#0E1741" width="11.6" height="64.2"/>
						<rect x="279.5" y="106.1" fill="#0E1741" width="11.6" height="64.2"/>

							<rect x="180.8" y="67.5" transform="matrix(-4.415115e-05 -1 1 -4.415115e-05 180.806 327.4186)" fill="#0E1741" width="146.6" height="11.6"/>
						<rect x="27.2" y="12" fill="#FFCE04" width="248.8" height="59.2"/>
						<polygon fill="#FFCE04" points="303.3,106.1 136.6,112.2 0,106.1 27.2,87.4 276.1,87.4 						"/>
						<rect y="106.1" fill="#B78D16" width="303.3" height="11.6"/>
						<polygon fill="#B78D16" points="276.1,71.2 276.1,62.4 27.2,41.6 27.2,71.2 						"/>
					</g>
				</g>
			</g>
		</g>
		<polygon fill="#FFFFFF" points="27.2,12 27.2,17.4 276.1,23.5 276.1,12 		"/>
	</g>
</g>
<g id="red-finger">
	<g>
		<g>
			<polygon fill="#A32121" points="43.9,0 39.1,30 0,37.5 0,76 7.4,82.5 10.2,97.8 50.7,97.8 52.8,82.3 59.7,75.5 59.7,0 			"/>
		</g>
		<g>
			<polygon fill="#E83D3D" points="11.8,80.3 14.6,93.1 39.7,93.1 41.5,80.3 54.9,72.3 54.9,44 43.7,41.5 27.4,52.9 34.1,58.3
				45,55.9 25,77 27.7,61.1 13.2,62.1 7.1,52.9 14.1,57.1 12.4,40.2 3.5,41.5 3.5,73.4 			"/>
			<polygon fill="#E83D3D" points="47.3,4.7 42.9,35.7 54.9,38.9 54.9,4.7 			"/>
			<polygon fill="#E83D3D" points="16.1,38.9 17.8,55.9 24.2,55.9 26.8,37.1 			"/>
			<polygon fill="#E83D3D" points="30.6,36.2 28.8,48 38.7,40.4 38.7,34.8 			"/>
		</g>
	</g>
</g>
<g id="star3">
	<polygon fill="#FFFFFF" points="15.9,16.6 26.9,14.3 16.1,11.5 13.8,0 10.9,11.4 0,13.6 10.8,16.4 13.1,27.9 	"/>
</g>
<g id="star2">
	<polygon fill="#FFFFFF" points="21.2,22.1 35.8,19.1 21.4,15.3 18.4,0 14.6,15.2 0,18.2 14.4,21.9 17.4,37.3 	"/>
</g>
<g id="star1">
	<polygon fill="#FFFFFF" points="11.7,12.2 19.8,10.6 11.8,8.5 10.2,0 8.1,8.4 0,10 8,12.1 9.6,20.6 	"/>
</g>
<clipPath id="canvas">
  <polygon points="550,309 0,309 0,0 550,0 "/>
</clipPath>
</defs>
<!-- Bench -->
<g id="6-bench" clip-path="url(#canvas)">
<use xlink:href="#bg" />
<g transform="translate(0,190)">
  <use xlink:href="#left-cloud">
  	<animateTransform attributeName="transform" type="translate" dur="8" fill="freeze" values="-50,0;-20,0;0,0;-20,0;-50,0" repeatCount="indefinite" additive="sum"/>
  </use>
</g>
<g transform="translate(385,195)">
  <use xlink:href="#right-cloud">
  	<animateTransform attributeName="transform" type="translate" dur="8" fill="freeze" values="50,0;20,0;0,0;20,0;50,0" repeatCount="indefinite" additive="sum"/>
  </use>
</g>
<g transform="translate(81,76)">
  <use xlink:href="#left-wing">
  	<animateTransform id="" attributeName="transform" type="rotate" dur="3.4s" values="8 57 24;-2 57 24;-8 57 24;-2 57 24;8 57 24" repeatCount="indefinite" additive="sum"/>
 </use>
</g>
<g transform="translate(389,76)">
  <use xlink:href="#right-wing">
  	<animateTransform id="" attributeName="transform" type="rotate" dur="3.4s" values="-8 20 24;2 20 24;8 20 24;2 20 24;-8 20 24" repeatCount="indefinite" additive="sum"/>
 </use>
</g>
<g transform="translate(124,66)">
  <use xlink:href="#bench"/>
  <g transform="translate(122,0)">
    <use xlink:href="#red-finger">
  	  <animateTransform id="drop-2" attributeName="transform" type="translate" dur=".7" fill="freeze" values="0,-25;0,-22;0,0;0,-22;0,-25" repeatCount="indefinite" additive="sum"/>
  	  <animateTransform id="" attributeName="transform" type="rotate" dur="1.4s" values="-8 30 49;8 30 49;-8 30 49" repeatCount="indefinite" additive="sum"/>
    </use>
  </g>
  <animateTransform attributeName="transform" type="translate" dur="3.4s" fill="freeze" values="0,10;0,0;0,10" repeatCount="indefinite" additive="sum"/>
</g>
<g transform="translate(106,138)">
<use xlink:href="#star1">
  <animateTransform attributeName="transform" type="rotate" dur=".6s" values="0 9.9 10.25;360 9.9 10.25" repeatCount="0" begin="0s;fadestar3.end;"/>
  <animate id="fadestar1" attributeName="opacity" values="0;1;0" dur=".6s" repeatCount="0" begin="0s;fadestar3.end" fill="freeze"/>
</use>
</g>
<g transform="translate(185,25)">
<use xlink:href="#star2" visibility="hidden">
  <set attributeName="visibility" from="hidden" to="visible" begin="fadestar1.end" />
  <animateTransform attributeName="transform" type="rotate" dur=".6s" values="0 17.9 18.6;360 17.9 18.6" repeatCount="0" begin="fadestar1.end-.25"/>
  <animate id="fadestar2" attributeName="opacity" values="0;1;0" dur=".6s" repeatCount="0" fill="freeze" begin="fadestar1.end-.25"/>
</use>
</g>
<g transform="translate(434,148)">
  <use xlink:href="#star3" visibility="hidden">
    <set attributeName="visibility" from="hidden" to="visible" begin="fadestar2.end" />
    <animateTransform attributeName="transform" type="rotate" dur=".6s" values="0 13.4 14;360 13.4 14" repeatCount="0" begin="fadestar2.end-.25"/>
    <animate id="fadestar3" attributeName="opacity" values="0;1;0" dur=".6s" repeatCount="0" fill="freeze" begin="fadestar2.end-.25"/>
  </use>
</g>
</g>
</svg>
