<?xml version="1.0" encoding="utf-8"?>
<svg version="1.1" xmlns="http://www.w3.org/2000/svg" xmlns:xlink="http://www.w3.org/1999/xlink" x="0px" y="0px"
	 viewBox="0 0 550 309" enable-background="new 0 0 550 309" xml:space="preserve">
<g id="BG">
	<rect fill="#0E1741" width="550" height="309"/>
</g>
<g id="blue_blast">
	<polygon fill="#00B4EB" points="280.7,31.3 249.9,77.7 185.3,41.3 222.7,109.4 193.8,122.9 226.7,134.2 168.1,171.7 277.4,156.2
		300,116.4 	"/>
</g>
<g id="baseball">
	<g>
		<g>
			<path fill="#FFFFFF" d="M277.4,111c0-1.5-0.2-3.1-0.5-4.6c-1.6-7.2-6.8-12.7-13.2-15.1c-0.1,1.7,0.1,3.5,0.5,5.2
				C265.8,103.5,271,108.9,277.4,111z"/>
			<path fill="#FFFFFF" d="M261.1,97.2c-0.5-2.3-0.7-4.6-0.5-6.8c-2.9-0.6-6-0.6-9.1,0.1c-4.2,1-7.8,3.1-10.5,6c0,0,0,0,0-0.1
				c-0.2,0.2-0.4,0.4-0.5,0.6c-0.2,0.3-0.5,0.6-0.7,0.8c-0.3,0.4-0.6,0.8-0.9,1.2c-0.1,0.1-0.2,0.3-0.3,0.5c-0.3,0.5-0.7,1-0.9,1.5
				c-0.6,1.1-1.1,2.3-1.5,3.5c-1.2,3.5-1.4,7.4-0.5,11.3c2.5,10.8,12.8,17.8,23.7,16.3c0.6-0.1,1.2-0.2,1.8-0.3
				c0.7-0.2,1.3-0.3,2-0.6c0,0,0,0,0,0c0,0,0,0,0,0.1c3.4-1.1,6.3-3.1,8.7-5.6c0,0,0.1-0.1,0.1-0.1c0.6-0.6,1.1-1.2,1.6-1.9
				c0,0,0.1-0.1,0.1-0.1c0.5-0.7,0.9-1.3,1.3-2c0,0,0-0.1,0.1-0.1c1.2-2.2,2.1-4.7,2.5-7.2C269.4,111.9,263,105.6,261.1,97.2z"/>
		</g>
		<g>
			<path fill="#E83D3D" d="M237.3,101c-0.6,1.1-1.2,2.4-1.6,3.6c0.2,0,0.7-0.2,0.9-0.2c10.7-2.4,21.5,4.3,23.9,15
				c1,4.5,0.4,8.9-1.3,12.7c0.6-0.1,1.2-0.2,1.8-0.3c0.7-0.2,1.3-0.3,2-0.6c1.3-3.9,1.7-8.3,0.7-12.6
				C260.9,106.8,249.1,99.1,237.3,101z"/>
			<path fill="#E83D3D" d="M264.2,96.5c-0.4-1.8-0.5-3.5-0.5-5.2c-1-0.4-2.1-0.7-3.1-0.9c-0.2,2.2,0,4.5,0.5,6.8
				c1.9,8.5,8.3,14.8,16.1,17c0.2-1.1,0.2-2.1,0.2-3.2C271,108.9,265.8,103.5,264.2,96.5z"/>
		</g>
	</g>
</g>
<g id="bat">
	<g>
		<path fill="#FFCE04" d="M169.4,259.5c3.6-3.5,7.4-7.9,11.6-11.1l-8.2-5.4l-12.4,11.4c-1.8-1.5-5.1-2.3-6.8-0.7
			c-1.9,1.7-2,4.7-0.2,6.6l5.1,5.5C161.1,262.7,166.5,262.4,169.4,259.5z"/>
		<path fill="#FFCE04" d="M340.9,77.7c-3.7,3.5-34.9,32.5-61.6,57.2c-21.8,20.2-29.4,36.3-66.4,71.3l4.6,7.2L359.4,82.4
			C352.2,74.9,344.6,74.3,340.9,77.7z"/>
		<polygon fill="#FFFFFF" points="217.6,201.9 172.8,243 179.4,249.7 223.6,207.3 		"/>
		<path fill="#B78D16" d="M359.9,82.8c-0.1-0.2-0.3-0.3-0.4-0.5L216.8,213l-40.5,35.9l-17.8,17c0,0,1.5,1.6,3.4,3.7
			c1.9,2.1,5,6.1,8.7,3c3.7-3.1,1.8-7.8,1.8-7.8l49.6-44.6c40.7-34.8,58-40.2,80.2-60.8c26.7-24.7,57.8-53.8,61.6-57.2
			C367.3,98.6,367.2,90.7,359.9,82.8z"/>
		<polygon fill="#00B4EB" points="223.3,207.1 177.5,247.8 184,254.2 230,213.2 		"/>
	</g>
</g>
<g id="red_streak">
	<path fill="#E83D3D" d="M347.3,108.2l-61.1,55.3c123.7,24.2,81.7,107.1,81.7,107.1C442.2,180.7,347.3,108.2,347.3,108.2z"/>
	<path fill="#E83D3D" d="M278,172.1l-15.8,12.2c91,11.1,93.4,47.5,93.4,47.5C353.3,186.6,278,172.1,278,172.1z"/>
	<path fill="#FFFFFF" d="M338.2,116.4l-17.4,15.7c64,20.6,63.2,84.1,63.2,84.1C388,149.7,338.2,116.4,338.2,116.4z"/>
	<path fill="#FFFFFF" d="M310,141.7l-6.9,6.5c0,0,25.1,1.5,45.1,17.1C348.2,165.3,336.4,149.1,310,141.7z"/>
</g>
</svg>
