<?xml version="1.0" encoding="utf-8"?>
<!-- Generator: Adobe Illustrator 18.1.1, SVG Export Plug-In . SVG Version: 6.00 Build 0)  -->
<svg version="1.1" xmlns="http://www.w3.org/2000/svg" xmlns:xlink="http://www.w3.org/1999/xlink" x="0px" y="0px"
	 viewBox="0 0 550 309" enable-background="new 0 0 550 309" xml:space="preserve">
<defs>
<rect id="bg" x="0" y="0" height="309" width="550" fill="#00B4EB" />

<circle id="back-aura" fill="#FFFFFF" cx="129" cy="129" r="129"/>
<circle id="front-aura" fill="#FFFFFF" cx="65" cy="65" r="65"/>

<g id="back-columns">
	<g>
		<g>
			<g>
				<rect x="203.6" fill="#FFFFFF" width="7.6" height="311.8"/>
			</g>
			<g>
				<rect x="213.3" fill="#FFFFFF" width="7.6" height="311.8"/>
			</g>
			<g>
				<rect x="223" fill="#FFFFFF" width="7.6" height="311.8"/>
			</g>
			<g>
				<rect x="232.7" fill="#FFFFFF" width="7.6" height="311.8"/>
			</g>
			<path fill="#FFFFFF" d="M245,324.6l-2.5-7.8c0,0-10.8,1.7-20.6,1.7l0,0v0c-9.8,0-20.6-1.7-20.6-1.7l-2.5,7.8h21.2l0,0H245z"/>
			<g>
				<path fill="#FFFFFF" d="M207.7,304.9l-0.5,2.6C207.2,307.5,208.1,306.5,207.7,304.9z"/>
				<path fill="#FFFFFF" d="M252.1,303.1c-1-3.2-4.4-4.7-7.8-4.7c-0.4,0-0.8,0-1.2,0.1c-0.3,0-0.6,0.1-0.9,0.1
					c-5.8,1.2-5.2,7.3-2.6,8.2c0.8,0.2,1.6,0.1,2.3-0.1c0.1,0,0.3-0.1,0.4-0.2c0.2-0.1,0.3-0.2,0.5-0.2c1.4-0.8,1.8-2.2-0.3-2.6
					c0,0,0.1,0,0.3,0c0.6,0,1.9,0.1,2.3,1.3c0.1,0.2,0.1,0.5,0,0.9c0,0,0,0.1,0,0.1c0,0,0,0.1,0,0.1c0,0-0.1,0.1-0.1,0.1
					c0,0,0,0,0,0.1c0,0.1-0.1,0.1-0.2,0.2c0,0,0,0,0,0c-1.5,1.7-6.6,3.9-20.6,3.9c0,0,0,0,0,0h0c0,0,0,0,0,0c0,0,0,0,0,0
					c0,0,0,0,0,0c-0.4,0-0.7,0-1,0c-0.1,0-0.2,0-0.4,0c0,0,0,0,0,0c-0.2,0-0.4,0-0.6,0c0,0,0,0,0,0v0c-0.5,0-0.9,0-1,0
					c-0.4,0-0.7,0-1.1,0c0,0,0,0,0,0c-18.7,0-21.6-3.9-21.1-5.4c0.5-1.5,2.6-1.2,2.6-1.2c-3.9,0.8,0.9,5,4.3,2.5
					c1.3-1.4,0.6-3.8,0.6-3.8c0.8,0.9,1.2,1.7,1.4,2.4l0.4-1.8c-3.1-6.1-14.2-6.3-16.3,0.1c-2.2,6.8,2.4,12.3,29.7,12.3
					c0.2,0,0.3,0,0.5,0c0.2,0,0.3,0,0.5,0C249.7,315.4,254.3,310,252.1,303.1z"/>
			</g>
			<path fill="#00B4EB" d="M245,305c-0.5-1.5-2.6-1.2-2.6-1.2c3.9,0.8-0.9,5-4.3,2.5c-1.3-1.4-0.6-3.8-0.6-3.8c-2.8,3.1-0.9,5-0.9,5
				s-1.5,0.4-4.1,0.7l-2,0.2c-2.1,0.2-4.7,0.4-7.7,0.4h-1v0h-1c-3,0-5.6-0.2-7.7-0.4l-2-0.2c-2.7-0.3-4.1-0.7-4.1-0.7s2-1.8-0.9-5
				c0,0,0.8,2.3-0.6,3.8c-3.5,2.5-8.2-1.7-4.3-2.5c0,0-2.1-0.3-2.6,1.2s2.3,5.4,21.1,5.4c0,0,0,0,0,0c0.4,0,0.7,0,1.1,0
				c0.4,0,0.7,0,1,0v0c0.3,0,0.6,0,1,0c0.4,0,0.7,0,1.1,0c0,0,0,0,0,0C242.7,310.4,245.6,306.5,245,305z"/>
			<path fill="#00B4EB" d="M244.7,298.4v-1.5c0,0-12,2.6-8.2,11l2.9-1C234.7,305.4,239.2,298.4,244.7,298.4z"/>
			<path fill="#00B4EB" d="M199.1,298.4v-1.5c0,0,12,2.6,8.2,11l-2.9-1C209.1,305.4,204.6,298.4,199.1,298.4z"/>
		</g>
		<g>
			<g>
				<rect x="12.3" fill="#FFFFFF" width="7.6" height="311.8"/>
			</g>
			<g>
				<rect x="22" fill="#FFFFFF" width="7.6" height="311.8"/>
			</g>
			<g>
				<rect x="31.7" fill="#FFFFFF" width="7.6" height="311.8"/>
			</g>
			<g>
				<rect x="41.4" fill="#FFFFFF" width="7.6" height="311.8"/>
			</g>
			<path fill="#FFFFFF" d="M53.7,324.6l-2.5-7.8c0,0-10.8,1.7-20.6,1.7l0,0v0c-9.8,0-20.6-1.7-20.6-1.7l-2.5,7.8h21.2l0,0H53.7z"/>
			<g>
				<path fill="#FFFFFF" d="M16.4,304.9l-0.5,2.6C15.9,307.5,16.9,306.5,16.4,304.9z"/>
				<path fill="#FFFFFF" d="M60.8,303.1c-1-3.2-4.4-4.7-7.8-4.7c-0.4,0-0.8,0-1.2,0.1c-0.3,0-0.6,0.1-0.9,0.1
					c-5.8,1.2-5.2,7.3-2.6,8.2c0.8,0.2,1.6,0.1,2.3-0.1c0.1,0,0.3-0.1,0.4-0.2c0.2-0.1,0.3-0.2,0.5-0.2c1.4-0.8,1.8-2.2-0.3-2.6
					c0,0,0.1,0,0.3,0c0.6,0,1.9,0.1,2.3,1.3c0.1,0.2,0.1,0.5,0,0.9c0,0,0,0.1,0,0.1c0,0,0,0.1,0,0.1c0,0-0.1,0.1-0.1,0.1
					c0,0,0,0,0,0.1c0,0.1-0.1,0.1-0.2,0.2c0,0,0,0,0,0c-1.5,1.7-6.6,3.9-20.6,3.9c0,0,0,0,0,0h0c0,0,0,0,0,0c0,0,0,0,0,0
					c0,0,0,0,0,0c-0.4,0-0.7,0-1,0c-0.1,0-0.2,0-0.4,0c0,0,0,0,0,0c-0.2,0-0.4,0-0.6,0c0,0,0,0,0,0v0c-0.5,0-0.9,0-1,0
					c-0.4,0-0.7,0-1.1,0c0,0,0,0,0,0c-18.7,0-21.6-3.9-21.1-5.4c0.5-1.5,2.6-1.2,2.6-1.2c-3.9,0.8,0.9,5,4.3,2.5
					c1.3-1.4,0.6-3.8,0.6-3.8c0.8,0.9,1.2,1.7,1.4,2.4l0.4-1.8c-3.1-6.1-14.2-6.3-16.3,0.1c-2.2,6.8,2.4,12.3,29.7,12.3
					c0.2,0,0.3,0,0.5,0c0.2,0,0.3,0,0.5,0C58.4,315.4,63.1,310,60.8,303.1z"/>
			</g>
			<path fill="#00B4EB" d="M53.8,305c-0.5-1.5-2.6-1.2-2.6-1.2c3.9,0.8-0.9,5-4.3,2.5c-1.3-1.4-0.6-3.8-0.6-3.8
				c-2.8,3.1-0.9,5-0.9,5s-1.5,0.4-4.1,0.7l-2,0.2c-2.1,0.2-4.7,0.4-7.7,0.4h-1v0h-1c-3,0-5.6-0.2-7.7-0.4l-2-0.2
				c-2.7-0.3-4.1-0.7-4.1-0.7s2-1.8-0.9-5c0,0,0.8,2.3-0.6,3.8c-3.5,2.5-8.2-1.7-4.3-2.5c0,0-2.1-0.3-2.6,1.2s2.3,5.4,21.1,5.4
				c0,0,0,0,0,0c0.4,0,0.7,0,1.1,0c0.4,0,0.7,0,1,0v0c0.3,0,0.6,0,1,0c0.4,0,0.7,0,1.1,0c0,0,0,0,0,0
				C51.4,310.4,54.3,306.5,53.8,305z"/>
			<path fill="#00B4EB" d="M53.4,298.4v-1.5c0,0-12,2.6-8.2,11l2.9-1C43.4,305.4,47.9,298.4,53.4,298.4z"/>
			<path fill="#00B4EB" d="M7.9,298.4v-1.5c0,0,12,2.6,8.2,11l-2.9-1C17.9,305.4,13.4,298.4,7.9,298.4z"/>
		</g>
	</g>
</g>
<polygon id="star" fill="#FFFFFF" points="10.6,11 17.9,9.5 10.7,7.7 9.2,0 7.3,7.6 0,9.1 7.2,10.9 8.7,18.6 	"/>
<g id="one">
	<path fill="#B68D2E" d="M50.9,0L31.2,8.7c-0.1,0.9-1.2,12-7.8,18.4l9.9-4.4l-9.9,4.4c-1.3,1.3-2.9,2.4-4.7,3.2l19.8-8.7
	c1.8-0.8,3.4-1.9,4.7-3.2l0,0C49.7,12,50.9,0.9,50.9,0z"/>
<path fill="none" d="M38.4,21.7l-19.8,8.7C29.4,25.7,31,9.8,31.2,8.7L50.9,0C50.8,1.1,49.2,16.9,38.4,21.7z"/>
<polygon fill="#B68D2E" points="50.8,152.8 31,161.6 31.4,50.8 51.2,42.1 "/>
<polygon fill="#B68D2E" points="50.8,166.9 31,175.6 31.4,79.9 51.2,56.1 "/>
<path fill="#B68D2E" d="M40.8,44.2c-7.6-2.2-13.9-11.1-17.5-17.5c-2-3.6-3.3-6.3-3.4-6.7L0,28.7c0.2,0.4,1.4,3.1,3.4,6.7
	C7.1,41.8,13.4,50.8,21,53c2.4,0.7,5,0.7,7.6-0.5l19.8-8.7C45.7,44.9,43.2,44.9,40.8,44.2z"/>
<path fill="none" d="M48.3,43.7l-19.8,8.7c-2.6,1.1-5.1,1.2-7.6,0.5C9.2,49.6,0.5,29.8,0,28.7L19.8,20c0.5,1,9.2,20.9,21,24.2
	C43.2,44.9,45.7,44.9,48.3,43.7z"/>
<polygon fill="#B68D2E" points="88.1,189 68.3,197.8 11.1,181.4 30.9,172.6 "/>
<polygon fill="#B68D2E" points="30.9,172.6 11.1,181.4 11.2,155.8 31,147.1 "/>
<path fill="#FECF0C" d="M71.1,5.8l-0.6,152.7l17.7,5L88.1,189l-57.2-16.4l0.1-25.6l19.8,5.8l0.4-110.8c-3.6,2.7-7.1,3.1-10.4,2.2
	C29,40.9,20.2,21,19.8,20c1.9,0.9,3.6,1.5,5.2,2C48,28.6,50.8,1.4,50.9,0L71.1,5.8z"/>
</g>
<g id="highlight">
	<path fill="#FFFFFF" d="M411.3,21.1H0V0h411.3V21.1z M411.3,27.5H0v9.8h411.3V27.5z M411.3,81.2H0V97h411.3V81.2z"/>
</g>
<g id="mask">
	<path fill="#FFCE04" d="M51.3,5.8l-0.6,152.7l17.7,5L68.3,189l-57.2-16.4l0.1-25.6l19.8,5.8l0.4-110.8c-3.6,2.7-7.1,3.1-10.4,2.2
		C9.2,40.9,0.5,21,0,20c1.9,0.9,3.6,1.5,5.2,2C28.2,28.6,31,1.4,31.2,0L51.3,5.8z"/>
</g>
<g id="stairs">
	<g>
		<rect x="105.2" y="7.7" fill="#FFFFFF" width="340.8" height="7.7"/>
		<rect x="65.9" y="23.2" fill="#FFFFFF" width="419.4" height="7.7"/>
		<rect x="33.5" y="38.7" fill="#FFFFFF" width="484.2" height="7.7"/>
		<rect x="127.2" fill="#FFFFFF" width="296.8" height="7.7"/>
		<rect x="85.1" y="15.5" fill="#FFFFFF" width="381.1" height="7.7"/>
		<rect x="49.4" y="30.9" fill="#FFFFFF" width="452.5" height="7.7"/>
		<polygon fill="#00B4EB" points="126.3,7.7 424.9,7.7 424.9,3.3 		"/>
		<polygon fill="#00B4EB" points="104.2,15.5 447,15.5 447,11.1 		"/>
		<polygon fill="#00B4EB" points="83.8,23.2 467.3,23.2 467.3,18.8 		"/>
		<polygon fill="#00B4EB" points="64.6,30.9 486.6,30.9 486.6,26.5 		"/>
		<polygon fill="#00B4EB" points="48,38.7 503.2,38.7 503.2,34.3 		"/>
		<polygon fill="#00B4EB" points="32,46.4 519.2,46.4 519.2,42 		"/>
		<polygon fill="#00B4EB" points="424.6,7.7 126,7.7 126,3.3 		"/>
		<polygon fill="#00B4EB" points="446.7,15.5 103.8,15.5 103.8,11.1 		"/>
		<polygon fill="#00B4EB" points="467,23.2 83.6,23.2 83.6,18.8 		"/>
		<polygon fill="#00B4EB" points="486.3,30.9 64.3,30.9 64.3,26.5 		"/>
		<polygon fill="#00B4EB" points="502.9,38.7 47.6,38.7 47.6,34.3 		"/>
		<polygon fill="#00B4EB" points="518.8,46.4 31.7,46.4 31.7,42 		"/>
		<g>
			<rect x="17.1" y="46.4" fill="#FFFFFF" width="517" height="7.7"/>
			<polygon fill="#00B4EB" points="17.1,54.4 534.1,54.4 534.1,49.7 			"/>
			<polygon fill="#00B4EB" points="534.6,54.4 17,54.4 17,49.7 			"/>
		</g>
		<g>
			<rect x="0" y="54.4" fill="#FFFFFF" width="551.1" height="7.7"/>
			<polygon fill="#00B4EB" points="0,62.3 551.1,62.3 551.1,57.7 			"/>
			<polygon fill="#00B4EB" points="551.1,62.3 0,62.3 0,57.7 			"/>
		</g>
	</g>
</g>
<g id="front-columns">
	<g>
		<g>
			<rect x="432.6" y="93.5" fill="#00B4EB" width="29.1" height="231.3"/>
			<g>
				<g>
					<rect x="457.9" y="13" fill="#FFFFFF" width="7.6" height="311.8"/>
				</g>
				<g>
					<rect x="448.2" y="13" fill="#FFFFFF" width="7.6" height="311.8"/>
				</g>
				<g>
					<rect x="438.5" y="13" fill="#FFFFFF" width="7.6" height="311.8"/>
				</g>
				<g>
					<rect x="428.8" y="13" fill="#FFFFFF" width="7.6" height="311.8"/>
				</g>
				<path fill="#FFFFFF" d="M424.1,0.2l2.5,7.8c0,0,10.8-1.7,20.6-1.7l0,0v0c9.8,0,20.6,1.7,20.6,1.7l2.5-7.8l-21.2,0l0,0L424.1,0.2
					z"/>
				<g>
					<path fill="#FFFFFF" d="M461.4,20l0.5-2.6C461.9,17.4,460.9,18.3,461.4,20z"/>
					<path fill="#FFFFFF" d="M417,21.7c1,3.2,4.4,4.7,7.8,4.7c0.4,0,0.8,0,1.2-0.1c0.3,0,0.6-0.1,0.9-0.1c5.8-1.2,5.2-7.3,2.6-8.2
						c-0.8-0.2-1.6-0.1-2.3,0.1c-0.1,0-0.3,0.1-0.4,0.2c-0.2,0.1-0.3,0.2-0.5,0.2c-1.4,0.8-1.8,2.2,0.3,2.6c0,0-0.1,0-0.3,0
						c-0.6,0-1.9-0.1-2.3-1.3c-0.1-0.2-0.1-0.5,0-0.9c0,0,0-0.1,0-0.1c0,0,0-0.1,0-0.1c0,0,0.1-0.1,0.1-0.1c0,0,0,0,0-0.1
						c0-0.1,0.1-0.1,0.2-0.2c0,0,0,0,0,0c1.5-1.7,6.6-3.9,20.6-3.9c0,0,0,0,0,0h0c0,0,0,0,0,0c0,0,0,0,0,0c0,0,0,0,0,0
						c0.4,0,0.7,0,1,0c0.1,0,0.2,0,0.4,0c0,0,0,0,0,0c0.2,0,0.4,0,0.6,0c0,0,0,0,0,0v0c0.5,0,0.9,0,1,0c0.4,0,0.7,0,1.1,0
						c0,0,0,0,0,0c18.7,0,21.6,3.9,21.1,5.4c-0.5,1.5-2.6,1.2-2.6,1.2c3.9-0.8-0.9-5-4.3-2.5c-1.3,1.4-0.6,3.8-0.6,3.8
						c-0.8-0.9-1.2-1.7-1.4-2.4l-0.4,1.8c3.1,6.1,14.2,6.3,16.3-0.1c2.2-6.8-2.4-12.3-29.7-12.3c-0.2,0-0.3,0-0.5,0
						c-0.2,0-0.3,0-0.5,0C419.4,9.4,414.7,14.8,417,21.7z"/>
				</g>
				<path fill="#00B4EB" d="M424,19.8c0.5,1.5,2.6,1.2,2.6,1.2c-3.9-0.8,0.9-5,4.3-2.5c1.3,1.4,0.6,3.8,0.6,3.8c2.8-3.1,0.9-5,0.9-5
					s1.5-0.4,4.1-0.7l2-0.2c2.1-0.2,4.7-0.4,7.7-0.4l1,0v0h1c3,0,5.6,0.2,7.7,0.4l2,0.2c2.7,0.3,4.1,0.7,4.1,0.7s-2,1.8,0.9,5
					c0,0-0.8-2.3,0.6-3.8c3.5-2.5,8.2,1.7,4.3,2.5c0,0,2.1,0.3,2.6-1.2c0.5-1.5-2.3-5.4-21.1-5.4c0,0,0,0,0,0c-0.4,0-0.7,0-1.1,0
					c-0.4,0-0.7,0-1,0v0c-0.3,0-0.6,0-1,0c-0.4,0-0.7,0-1.1,0c0,0,0,0,0,0C426.4,14.4,423.5,18.3,424,19.8z"/>
				<path fill="#00B4EB" d="M424.4,26.4v1.5c0,0,12-2.6,8.2-11l-2.9,1C434.4,19.4,429.9,26.4,424.4,26.4z"/>
				<path fill="#00B4EB" d="M470,26.4v1.5c0,0-12-2.6-8.2-11l2.9,1C459.9,19.4,464.4,26.4,470,26.4z"/>
			</g>
		</g>
		<g>
			<rect x="16.1" y="93.3" fill="#00B4EB" width="29.1" height="231.3"/>
			<g>
				<g>
					<rect x="41.4" y="12.8" fill="#FFFFFF" width="7.6" height="311.8"/>
				</g>
				<g>
					<rect x="31.8" y="12.8" fill="#FFFFFF" width="7.6" height="311.8"/>
				</g>
				<g>
					<rect x="22.1" y="12.8" fill="#FFFFFF" width="7.6" height="311.8"/>
				</g>
				<g>
					<rect x="12.3" y="12.8" fill="#FFFFFF" width="7.6" height="311.8"/>
				</g>
				<path fill="#FFFFFF" d="M7.6,0l2.5,7.8c0,0,10.8-1.7,20.6-1.7l0,0v0c9.8,0,20.6,1.7,20.6,1.7L53.7,0L32.5,0l0,0L7.6,0z"/>
				<g>
					<path fill="#FFFFFF" d="M44.9,19.7l0.5-2.6C45.4,17.1,44.5,18.1,44.9,19.7z"/>
					<path fill="#FFFFFF" d="M0.5,21.4c1,3.2,4.4,4.7,7.8,4.7c0.4,0,0.8,0,1.2-0.1c0.3,0,0.6-0.1,0.9-0.1c5.8-1.2,5.2-7.3,2.6-8.2
						c-0.8-0.2-1.6-0.1-2.3,0.1c-0.1,0-0.3,0.1-0.4,0.2c-0.2,0.1-0.3,0.2-0.5,0.2C8.5,19,8,20.4,10.1,20.8c0,0-0.1,0-0.3,0
						c-0.6,0-1.9-0.1-2.3-1.3c-0.1-0.2-0.1-0.5,0-0.9c0,0,0-0.1,0-0.1c0,0,0-0.1,0-0.1c0,0,0.1-0.1,0.1-0.1c0,0,0,0,0-0.1
						c0-0.1,0.1-0.1,0.2-0.2c0,0,0,0,0,0c1.5-1.7,6.6-3.9,20.6-3.9c0,0,0,0,0,0h0c0,0,0,0,0,0c0,0,0,0,0,0c0,0,0,0,0,0
						c0.4,0,0.7,0,1,0c0.1,0,0.2,0,0.4,0c0,0,0,0,0,0c0.2,0,0.4,0,0.6,0c0,0,0,0,0,0v0c0.5,0,0.9,0,1,0c0.4,0,0.7,0,1.1,0
						c0,0,0,0,0,0c18.7,0,21.6,3.9,21.1,5.4s-2.6,1.2-2.6,1.2c3.9-0.8-0.9-5-4.3-2.5c-1.3,1.4-0.6,3.8-0.6,3.8
						c-0.8-0.9-1.2-1.7-1.4-2.4l-0.4,1.8c3.1,6.1,14.2,6.3,16.3-0.1c2.2-6.8-2.4-12.3-29.7-12.3c-0.2,0-0.3,0-0.5,0
						c-0.2,0-0.3,0-0.5,0C2.9,9.2-1.7,14.6,0.5,21.4z"/>
				</g>
				<path fill="#00B4EB" d="M7.5,19.6c0.5,1.5,2.6,1.2,2.6,1.2c-3.9-0.8,0.9-5,4.3-2.5c1.3,1.4,0.6,3.8,0.6,3.8c2.8-3.1,0.9-5,0.9-5
					s1.5-0.4,4.1-0.7l2-0.2c2.1-0.2,4.7-0.4,7.7-0.4l1,0v0l1,0c3,0,5.6,0.2,7.7,0.4l2,0.2c2.7,0.3,4.1,0.7,4.1,0.7s-2,1.8,0.9,5
					c0,0-0.8-2.3,0.6-3.8c3.5-2.5,8.2,1.7,4.3,2.5c0,0,2.1,0.3,2.6-1.2c0.5-1.5-2.3-5.4-21.1-5.4c0,0,0,0,0,0c-0.4,0-0.7,0-1.1,0
					c-0.4,0-0.7,0-1,0v0c-0.3,0-0.6,0-1,0c-0.4,0-0.7,0-1.1,0c0,0,0,0,0,0C9.9,14.1,7,18.1,7.5,19.6z"/>
				<path fill="#00B4EB" d="M7.9,26.1l0,1.5c0,0,12-2.6,8.2-11l-2.9,1C17.9,19.2,13.4,26.1,7.9,26.1z"/>
				<path fill="#00B4EB" d="M53.5,26.1v1.5c0,0-12-2.6-8.2-11l2.9,1C43.5,19.2,48,26.1,53.5,26.1z"/>
			</g>
		</g>
	</g>
</g>
<clipPath id="highlight-clip">
      <path fill="#FFCE04" d="M71.1,5.8l-0.6,152.7l17.7,5L88.1,189l-57.2-16.4l0.1-25.6l19.8,5.8l0.4-110.8c-3.6,2.7-7.1,3.1-10.4,2.2
	C29,40.9,20.2,21,19.8,20c1.9,0.9,3.6,1.5,5.2,2C48,28.6,50.8,1.4,50.9,0L71.1,5.8z"/>
</clipPath>
</defs>
<!-- Number ONE -->
<use xlink:href="#bg" />
<g transform="translate(274,107)">
  <use xlink:href="#back-aura" x="-129" y="-129">
  	<animate id="fadebackaura" attributeName="opacity" values=".0;.22;.0" dur="6s" repeatCount="1" fill="freeze" begin="0;scalefrontaura.end-.75"/>
    <animateTransform id="scalebackaura" attributeType="xml" attributeName="transform" type="scale" values="0 0;1.5 1.5" dur="4" fill="freeze" repeatCount="6s" begin="0;scalefrontaura.end-.75" additive="sum"/>
  </use>
</g>
<g transform="translate(273,107)">
  <use xlink:href="#front-aura" x="-65" y="-65" visibility="hidden">
  	<set attributeName="visibility" from="hidden" to="visible" begin="fadebackaura.begin+.5" />
  	<animate id="fadefrontaura" attributeName="opacity" values=".0;.22;.0" dur="6s" repeatCount="1" fill="freeze" begin="fadebackaura.begin+.5"/>
    <animateTransform id="scalefrontaura" attributeType="xml" attributeName="transform" type="scale" values=".0 .0;2 2" dur="6s" fill="freeze" repeatCount="1" begin="fadebackaura.begin+.5" additive="sum"/>
  </use>
</g>
<g transform="translate(146,-80)">
  <use xlink:href="#back-columns" />
</g>
<g transform="translate(146,-80)">
  <use xlink:href="#back-columns" />
</g>
<g transform="translate(0,246)">
  <use xlink:href="#stairs" />
</g>
<g transform="translate(37,33)">
  <use xlink:href="#front-columns" />
</g>
<g transform="translate(219,11)">
  <use xlink:href="#one">

  </use>
  <use xlink:href="#mask" x="19.787"/>
  <g clip-path="url(#highlight-clip)">
  <g transform="translate(-230,100) rotate(-48,0,0)">
    <use xlink:href="#highlight">
    	<animate attributeName="opacity" values=".50;1;.50" dur="1.6s" repeatCount="1" fill="freeze" begin="0;glimmer.end+1"/>
    	<animateTransform id="glimmer" attributeName="transform" type="translate" dur="1.6" fill="freeze" values="0,0;0,300" repeatCount="1" begin="0;glimmer.end+1" additive="sum"/>
    </use>
	</g>
  </g>
  <animateTransform attributeName="transform" type="translate" dur="2" fill="freeze" values="0,10;0,0;0,10" repeatCount="indefinite" additive="sum"/>
  </g>



<g transform="translate(220,12)">
<use xlink:href="#star">
  <animateTransform attributeName="transform" type="rotate" dur=".6s" values="0 8.9 9.2;360 8.9 9.2" repeatCount="0" begin="0;fadestar3.end;"/>
  <animate id="fadestar1" attributeName="opacity" values="0;1;0" dur=".6s" repeatCount="0" begin="0s;fadestar3.end" fill="freeze"/>
</use>
</g>
<g transform="translate(295,84)">
<use xlink:href="#star" visibility="hidden">
  <set attributeName="visibility" from="hidden" to="visible" begin="fadestar1.end" />
  <animateTransform attributeName="transform" type="rotate" dur=".6s" values="0 8.9 9.2;360 8.9 9.2" repeatCount="0" begin="fadestar1.end-.25"/>
  <animate id="fadestar2" attributeName="opacity" values="0;1;0" dur=".6s" repeatCount="0" fill="freeze" begin="fadestar1.end-.25"/>
</use>
</g>
<g transform="translate(220,144)">
  <use xlink:href="#star" visibility="hidden">
    <set attributeName="visibility" from="hidden" to="visible" begin="fadestar2.end" />
    <animateTransform attributeName="transform" type="rotate" dur=".6s" values="0 8.9 9.2;360 8.9 9.2" repeatCount="0" begin="fadestar2.end-.25"/>
    <animate id="fadestar3" attributeName="opacity" values="0;1;0" dur=".6s" repeatCount="0" fill="freeze" begin="fadestar2.end-.25"/>
  </use>
</g>


</svg>
