<?xml version="1.0" encoding="utf-8"?>
<svg version="1.1" id="Layer_1" xmlns="http://www.w3.org/2000/svg" xmlns:xlink="http://www.w3.org/1999/xlink" x="0px" y="0px"
	 viewBox="0 0 960 480" enable-background="new 0 0 960 480" xml:space="preserve">
<g>
	<path d="M309.2,173.4h0.3l22.4,27.7l22.3-27.7h0.4v48.6h-4.3v-37.4l-18.3,23h-0.3l-18.1-23v37.4h-4.3V173.4z"/>
	<path d="M374.7,198.1c0-14.1,10.9-24.4,24.4-24.4c13.5,0,24.4,10.3,24.4,24.4c0,14.1-10.9,24.4-24.4,24.4
		C385.6,222.5,374.7,212.2,374.7,198.1z M418.8,198.1c0-11.6-8.3-20.2-19.7-20.2c-11.3,0-19.7,8.7-19.7,20.2
		c0,11.6,8.3,20.2,19.7,20.2C410.5,218.4,418.8,209.7,418.8,198.1z"/>
	<path d="M443.8,174.3h11.9c15.8,0,25.1,9.7,25.1,23.8c0,14.1-9.3,23.8-25.1,23.8h-11.9V174.3z M455.3,217.8
		c14.1,0,20.8-8.1,20.8-19.7c0-11.6-6.7-19.7-20.8-19.7h-6.9v39.3H455.3z"/>
	<path d="M501.2,174.3h28.7v4.1h-24.2v23.8h21.6v4h-21.6v11.7h25.1v4.1h-29.7V174.3z"/>
	<path d="M581,221.9h-5.5l-9.5-12.2c-1.3,0.2-2.5,0.3-3.9,0.3h-5.8v11.9h-4.6v-47.6h10.4c13,0,19.7,7.6,19.7,17.9
		c0,7.6-3.8,13.9-11.1,16.5L581,221.9z M561.9,206.1c10.9,0,15.2-5.8,15.2-13.8s-4.4-13.9-15.2-13.9h-5.5v27.7H561.9z"/>
	<path d="M607.2,184.5v37.5h-4.3v-48.6h0.4l32.1,38.4v-37.5h4.3v48.6h-0.4L607.2,184.5z"/>
	<path d="M176.7,301.9h-4.6l20-48.7h0.3l20.1,48.7h-4.7l-3.3-8.3H180L176.7,301.9z M192.3,263.2l-10.7,26.4h21.3
		C203,289.6,192.3,263.2,192.3,263.2z"/>
	<path d="M261.2,301.9h-5.5l-9.5-12.2c-1.3,0.2-2.5,0.3-3.9,0.3h-5.8v11.9H232v-47.6h10.4c13,0,19.7,7.6,19.7,17.9
		c0,7.6-3.8,13.9-11.1,16.5L261.2,301.9z M242,286.1c10.9,0,15.2-5.8,15.2-13.8s-4.4-13.9-15.2-13.9h-5.5v27.7H242z"/>
	<path d="M279.9,278.1c0-14.1,10.6-24.4,24.1-24.4c8.1,0,14.4,3.3,18.7,8.9l-3.5,2.5c-3.6-4.6-8.6-7.3-15.3-7.3
		c-11.1,0-19.3,8.7-19.3,20.2c0,11.7,8.3,20.2,19.6,20.2c6.9,0,12.4-2.9,16.2-7.9l3.6,2.5c-4.7,6.2-11.3,9.5-19.9,9.5
		C290.5,302.5,279.8,292.3,279.9,278.1z"/>
	<path d="M374.3,254.3h4.6v47.6h-4.6v-15.7h-26v15.7h-4.6v-47.6h4.6v27.9h26V254.3z"/>
	<path d="M402.5,254.3h4.6v47.6h-4.6V254.3z"/>
	<path d="M441.3,258.4h-14.8v-4.1h34v4.1h-14.7v43.5h-4.6V258.4z"/>
	<path d="M479.5,254.3h28.7v4.1h-24.2v23.8h21.6v4h-21.6v11.7h25.1v4.1h-29.7V254.3z"/>
	<path d="M526.2,278.1c0-14.1,10.6-24.4,24.1-24.4c8.1,0,14.4,3.3,18.7,8.9l-3.5,2.5c-3.6-4.6-8.6-7.3-15.3-7.3
		c-11.1,0-19.3,8.7-19.3,20.2c0,11.7,8.3,20.2,19.6,20.2c6.9,0,12.4-2.9,16.2-7.9l3.6,2.5c-4.7,6.2-11.3,9.5-19.9,9.5
		C536.8,302.5,526.2,292.3,526.2,278.1z"/>
	<path d="M599.9,258.4h-14.8v-4.1h34v4.1h-14.7v43.5h-4.6V258.4z"/>
	<path d="M637.8,285.8v-31.4h4.6v31.1c0,8.6,4.8,13,12.3,13c7.5,0,12.3-4.3,12.3-13v-31.1h4.5v31.4c0,11.1-7.2,16.7-16.8,16.7
		C645,302.5,637.8,296.8,637.8,285.8z"/>
	<path d="M723.7,301.9h-5.5l-9.5-12.2c-1.3,0.2-2.5,0.3-3.9,0.3H699v11.9h-4.6v-47.6h10.4c13,0,19.7,7.6,19.7,17.9
		c0,7.6-3.8,13.9-11.1,16.5L723.7,301.9z M704.5,286.1c10.9,0,15.2-5.8,15.2-13.8s-4.4-13.9-15.2-13.9H699v27.7H704.5z"/>
	<path d="M745.5,254.3h28.7v4.1h-24.2v23.8h21.6v4h-21.6v11.7h25.1v4.1h-29.7V254.3z"/>
</g>
</svg>
