<svg id="lebron-james-grid" data-name="lebron-james-grid" xmlns="http://www.w3.org/2000/svg" viewBox="0 0 149 66" width="149" height="66"><path d="M53,61H47V5h6V61ZM60,5H54V61h6V5Zm7,0H61V61h6V5Zm7,0H68V61h6V5ZM12,61h6V5H12V61ZM81,5H75V61h6V5ZM46,5H40V61h6V5ZM25,5H19V61h6V5Zm7,0H26V61h6V5Zm7,0H33V61h6V5ZM88,5H82V61h6V5Zm42,0h-6V61h6V5Zm7,0h-6V61h6V5ZM11,5H8A3,3,0,0,0,5,8V58a3,3,0,0,0,3,3h3V5ZM95,5H89V61h6V5Zm49,3a3,3,0,0,0-3-3h-3V61h3a3,3,0,0,0,3-3V8ZM102,5H96V61h6V5Zm21,0h-6V61h6V5ZM109,5h-6V61h6V5Zm7,0h-6V61h6V5Z" fill="#de1f26"/></svg>