<?xml version="1.0" standalone="no"?>
<!DOCTYPE svg PUBLIC "-//W3C//DTD SVG 1.1//EN" "http://www.w3.org/Graphics/SVG/1.1/DTD/svg11.dtd" >
<svg xmlns="http://www.w3.org/2000/svg" xmlns:xlink="http://www.w3.org/1999/xlink" version="1.1">
<metadata></metadata>
<defs>
<font id="range_monoregular" horiz-adv-x="1343" >
<font-face units-per-em="2048" ascent="1536" descent="-512" />
<missing-glyph horiz-adv-x="500" />
<glyph horiz-adv-x="0" />
<glyph unicode="&#xd;" />
<glyph horiz-adv-x="0" />
<glyph horiz-adv-x="0" />
<glyph unicode=" " />
<glyph unicode="!" d="M530 119q0 53 40.5 93t93.5 40q55 0 95 -40t40 -93t-40 -94t-95 -41q-53 0 -93.5 41t-40.5 94zM582 502v897q0 35 24.5 57.5t57.5 22.5q35 0 59.5 -22.5t24.5 -57.5v-897q0 -35 -24.5 -58.5t-59.5 -23.5q-33 0 -57.5 23.5t-24.5 58.5z" />
<glyph unicode="&#x22;" d="M440 1122v277q0 35 23.5 57.5t58.5 22.5t58.5 -22.5t23.5 -57.5v-277q0 -33 -23.5 -57.5t-58.5 -24.5t-58.5 25t-23.5 57zM717 1122v277q0 35 24.5 57.5t57.5 22.5q35 0 58.5 -22.5t23.5 -57.5v-277q0 -33 -23.5 -57.5t-58.5 -24.5q-33 0 -57.5 25t-24.5 57z" />
<glyph unicode="#" d="M119 406q0 31 23.5 54t52.5 23h131q12 61 25.5 118.5t23.5 121.5h-113q-31 0 -53.5 23.5t-22.5 54.5t22.5 54.5t53.5 23.5h137q12 66 26.5 132t25.5 132q6 31 32.5 48t55.5 13q31 -6 49 -30.5t12 -57.5l-43 -237h303q12 66 26.5 132t24.5 132q6 31 33 48t55 13 q31 -6 49.5 -30.5t12.5 -57.5l-43 -237h100q31 0 54.5 -24t23.5 -54q0 -31 -23.5 -54.5t-54.5 -23.5h-129q-12 -61 -24.5 -118.5t-22.5 -121.5h111q31 0 53 -23.5t22 -53.5q0 -31 -22.5 -54.5t-52.5 -23.5h-138q-12 -66 -26.5 -133.5t-24.5 -133.5q-6 -29 -26.5 -45 t-49.5 -16h-8t-6 2q-31 6 -49 30.5t-12 57.5l47 238h-305q-12 -66 -26.5 -133.5t-25.5 -133.5q-6 -29 -26.5 -45t-48.5 -16h-8.5t-6.5 2q-31 6 -49 30.5t-12 57.5l47 238h-104q-29 0 -52.5 23.5t-23.5 54.5zM479 483h307q12 61 25.5 118.5t24.5 121.5h-308 q-12 -61 -25.5 -118.5t-23.5 -121.5z" />
<glyph unicode="$" d="M154.5 192q-2.5 33 19.5 60q23 25 55.5 29t59.5 -19q10 -6 34.5 -18.5t61.5 -26.5t87 -25.5t110 -17.5v537q-199 53 -306.5 175t-97.5 281q6 57 34 116.5t79 110t122.5 84t168.5 44.5v53q0 35 24.5 58.5t57.5 23.5q35 0 59.5 -23.5t24.5 -58.5v-55q82 -12 143 -39 t104 -55.5t67.5 -54t33.5 -34.5q18 -29 12 -60.5t-35 -53.5q-27 -18 -59.5 -12t-55.5 34q-4 6 -19 20.5t-41 31t-63.5 31.5t-86.5 26v-510q86 -25 163.5 -57.5t136 -82t93.5 -119t35 -167.5q0 -123 -42 -200t-106.5 -121t-139.5 -61.5t-140 -23.5v-73q0 -35 -25 -58.5 t-59 -23.5q-33 0 -57.5 23.5t-24.5 58.5v71q-98 6 -172 25.5t-123 42t-76 41t-29 20.5h2q-27 20 -29.5 53zM340 1151q-6 -59 16.5 -103t58.5 -77t81 -53.5t86 -32.5v473q-68 -10 -113 -32.5t-72.5 -52.5t-41 -62.5t-15.5 -59.5zM748 178q88 8 140 31.5t79.5 55.5t36 71 t8.5 82q0 39 -12.5 73.5t-42 66.5t-81 59.5t-128.5 52.5v-492z" />
<glyph unicode="%" d="M109 1047q0 55 21.5 105t58 88t87 59.5t107.5 21.5q55 0 104.5 -21.5t87 -59.5t59 -88t21.5 -105q0 -57 -21.5 -106.5t-59 -86.5t-87 -58.5t-104.5 -21.5q-57 0 -107.5 21.5t-87 58.5t-58 86t-21.5 107zM210.5 343.5q0.5 33.5 22.5 57.5l793 791q23 25 57.5 25t59.5 -25 q23 -23 22.5 -57.5t-22.5 -57.5l-791 -790v2q-25 -27 -57 -27q-37 0 -62 25q-23 23 -22.5 56.5zM260 1047q0 -49 35 -85t88 -36q49 0 84 35.5t35 85.5q0 51 -35 86.5t-84 35.5q-53 0 -88 -35.5t-35 -86.5zM723 432q0 57 21.5 106.5t58.5 86.5t87 58.5t105 21.5t105.5 -21.5 t88.5 -58.5t59.5 -86.5t21.5 -106.5q0 -55 -21.5 -105.5t-59.5 -88t-88 -59t-106 -21.5q-55 0 -105 21.5t-87 59t-58.5 88t-21.5 105.5zM874 432q0 -51 35 -86t86 -35t87 35t36 86t-35.5 86t-87.5 35q-51 0 -86 -35t-35 -86z" />
<glyph unicode="&#x26;" d="M154 412q0 63 20.5 115.5t54 97.5t76.5 82.5t90 72.5q-31 33 -62.5 72t-57 84t-41 95t-15.5 104q0 94 31 160.5t80 106.5t110.5 58.5t124.5 18.5q106 0 174 -32t106 -81t51 -110.5t13 -120.5q0 -66 -21.5 -120t-56 -100.5t-79.5 -84t-95 -72.5l269 -336q14 47 16 78.5 t2 42.5q0 35 23.5 57.5t58.5 22.5q33 0 57.5 -22.5t24.5 -59.5q0 -55 -14.5 -127t-51.5 -142l113 -139q18 -27 14 -60.5t-26 -54.5q-22 -18 -51 -18q-39 0 -64 31l-84 106q-66 -63 -155 -100t-224 -37q-72 0 -144.5 21.5t-132 69.5t-97 127t-37.5 194zM317 412 q0 -84 28 -134.5t68 -76t82 -32.5t70 -7q104 0 170 28.5t107 73.5l-322 402q-43 -29 -80 -58.5t-64.5 -60.5t-43 -63.5t-15.5 -71.5zM383 1135q0 -35 13.5 -70t35 -68.5t49 -65.5t54.5 -57q88 59 150.5 120t62.5 141q0 59 -15.5 95t-41 55.5t-58.5 25.5t-68 6 q-31 0 -63.5 -7t-59 -27.5t-43 -56.5t-16.5 -91z" />
<glyph unicode="'" d="M578 1122v277q0 35 24.5 57.5t59.5 22.5q33 0 57 -22.5t24 -57.5v-277q0 -33 -24 -57.5t-57 -24.5q-35 0 -59.5 25t-24.5 57z" />
<glyph unicode="(" d="M303 739q0 158 31 287t78 230.5t101 177t102.5 126t82 76t37.5 27.5l-2 -2q29 23 63.5 15.5t53.5 -36.5q18 -29 11 -61.5t-36 -50.5q-4 -2 -31.5 -24.5t-67.5 -65.5t-85 -106.5t-84 -150.5t-64.5 -197t-25.5 -245t25.5 -244.5t64.5 -195.5t84 -150.5t85 -107.5 t67.5 -64.5t31.5 -23.5q29 -20 37 -52t-10 -61q-33 -39 -72 -39q-23 0 -43 11q-4 2 -37.5 28.5t-82 77.5t-103.5 127t-102 177.5t-78 230.5t-31 286z" />
<glyph unicode=")" d="M436 -99.5q8 31.5 37 52.5q4 2 31.5 23.5t67.5 64.5t86.5 107.5t84 150.5t63 196.5t25.5 243.5q0 201 -53 348.5t-119.5 243.5t-123 144.5t-62.5 52.5q-29 18 -36 51t12 61q18 29 53 36t63 -15l-2 2q4 -2 38 -27.5t82 -76t102.5 -126t101.5 -177t77.5 -230.5t30.5 -287 t-30.5 -286.5t-77.5 -230t-102.5 -177.5t-103.5 -127t-82 -76.5t-38 -29.5q-20 -11 -43 -11q-39 0 -72 39q-18 29 -10 60.5z" />
<glyph unicode="*" d="M321.5 1219q-10.5 32 6.5 61q16 31 48 42t62 -5l144 -72v154q0 35 24.5 57.5t57.5 22.5q35 0 59.5 -22.5t24.5 -57.5v-154l141 72q35 16 65.5 5t46.5 -40v-2q14 -29 2 -60.5t-40 -48.5l-166 -84l127 -139q23 -27 20.5 -60.5t-29.5 -56.5q-25 -20 -55 -20q-16 0 -32.5 7 t-26.5 22l-137 149q-31 -35 -68 -75t-68 -74q-25 -29 -57.5 -30t-58.5 21q-23 23 -25 57t19 60l124 139l-165 84q-33 16 -43.5 48z" />
<glyph unicode="+" d="M209 616q0 35 23.5 59.5t58.5 24.5h291v291q0 35 24.5 58.5t57.5 23.5q35 0 59.5 -23.5t24.5 -58.5v-291h290q33 0 57.5 -24.5t24.5 -59.5q0 -33 -24.5 -57t-57.5 -24h-290v-291q0 -33 -25 -57.5t-59 -24.5q-33 0 -57.5 24.5t-24.5 57.5v291h-291q-35 0 -58.5 24.5 t-23.5 56.5z" />
<glyph unicode="," d="M496 100v45q0 4 3 22.5t14 40t34.5 39t66.5 17.5h39q47 0 72 -19.5t36 -43t13 -45t2 -23.5v-98q0 -74 -23.5 -121t-52 -75.5t-55.5 -41t-33 -14.5q-10 -2 -32.5 0t-36.5 16q-31 47 10 82q18 14 33 31q12 14 22 33.5t13 46.5q-41 2 -65 17.5t-38 34.5t-18 35.5t-4 20.5z " />
<glyph unicode="-" d="M289 614q0 35 24.5 59.5t59.5 24.5h569q35 0 59.5 -24.5t24.5 -59.5q0 -33 -24.5 -57.5t-59.5 -24.5h-569q-35 0 -59.5 25t-24.5 57z" />
<glyph unicode="." d="M516 125q0 61 43.5 104t104.5 43t104 -43t43 -104q0 -59 -43 -103.5t-104 -44.5t-104.5 44.5t-43.5 103.5z" />
<glyph unicode="/" d="M322 113l528 1317q12 29 44 42t62 1q31 -12 43.5 -43t1.5 -64q-129 -324 -263 -658.5t-263 -658.5q-10 -18 -31.5 -33.5t-44.5 -15.5q-8 0 -14 1t-16 5h2q-33 14 -46.5 44t-2.5 63z" />
<glyph unicode="0" d="M125 772q0 143 22.5 266t69.5 215q137 279 447 279q133 0 232 -52.5t173 -152.5l-119 -131q-49 78 -115.5 123t-170.5 45q-111 0 -181.5 -46t-117.5 -142v2q-35 -74 -55.5 -178.5t-20.5 -227.5q0 -193 41 -326l-123 -141q-41 102 -61.5 221t-20.5 246zM195 338l104 121 l643 774l109 121q29 -37 45 -71t32 -71q35 -86 54.5 -198.5t19.5 -241.5q0 -49 -4 -110.5t-14 -126t-27.5 -129t-46.5 -123.5q-70 -143 -180.5 -217t-265.5 -74q-135 0 -231.5 52t-168.5 157h2q-43 55 -71 137zM387 311q59 -94 130 -123.5t147 -29.5q109 0 178.5 48 t118.5 148q23 49 38 103.5t23 110t11 108.5t3 96q0 70 -7 143.5t-25 141.5q-158 -190 -308.5 -373.5t-308.5 -372.5z" />
<glyph unicode="1" d="M276 82q0 35 24 59.5t58 24.5h252v1079q-49 -41 -100 -80t-100 -80q-25 -20 -59 -17t-56 30q-23 29 -17.5 61.5t29.5 54.5l334 269q18 16 42 18t44 -8q47 -23 47 -74v-1253h252q35 0 59.5 -24.5t24.5 -59.5q0 -33 -24.5 -57.5t-59.5 -24.5h-668q-35 0 -58.5 24.5 t-23.5 57.5z" />
<glyph unicode="2" d="M173 82.5q1 23.5 9 42.5q4 6 32 40t76 89t115.5 128t153.5 159q180 182 288.5 325.5t108.5 231.5q0 45 -13 87t-48 75.5t-96.5 54t-157.5 20.5q-78 0 -134 -20.5t-93 -46t-55.5 -47t-18.5 -23.5q-18 -37 -50 -53.5t-65 -1.5q-29 16 -41 47t0 61q2 6 31 45t84 85t140 83 t202 37q229 0 356 -102.5t127 -300.5q0 -80 -43 -168t-108.5 -177t-144 -174t-152.5 -157l-76 -76q-57 -55 -103 -100t-75 -80h645q37 0 59.5 -24.5t22.5 -59.5q0 -33 -22.5 -57.5t-59.5 -24.5h-813q-23 0 -42 10t-30 33q-10 16 -9 39.5z" />
<glyph unicode="3" d="M171 1260q-11 32 5 63q2 6 25.5 34.5t74 60.5t130 57.5t196.5 25.5q84 0 167 -20.5t148.5 -63.5t106.5 -109.5t41 -156.5q0 -127 -57.5 -212t-141.5 -138q49 -29 93.5 -66t78 -84t54 -103t20.5 -124q0 -96 -37 -177t-104.5 -139.5t-161.5 -90t-207 -31.5 q-121 0 -202 31.5t-131 69.5t-72.5 70.5t-22.5 37.5l2 -2q-16 33 -3 62.5t44 45.5q33 14 63.5 0t47.5 -45q0 -4 14 -20.5t47 -35t85 -33.5t128 -15q156 0 249 74.5t93 197.5q0 78 -44 133t-103.5 91t-123 53.5t-102.5 17.5q-33 0 -57.5 24.5t-24.5 59.5t25 59.5t57 24.5 q25 0 80.5 9t110.5 38t97 80t42 137q0 55 -35 91t-83 56.5t-99 28.5t-82 8q-78 0 -131 -13t-86 -29.5t-47 -31t-14 -16.5q-16 -29 -49 -39t-64 6q-29 16 -40 48z" />
<glyph unicode="4" d="M96 442q0 23 13 41l657 979q18 29 52 37t63 -12q29 -23 36 -54.5t-12 -60.5l-571 -852h497v385q0 35 25 58.5t59 23.5q33 0 57.5 -23.5t24.5 -58.5v-385h119q33 0 57.5 -23.5t24.5 -58.5t-24.5 -58.5t-57.5 -23.5h-119v-282q0 -33 -24.5 -57.5t-57.5 -24.5 q-35 0 -59.5 24.5t-24.5 57.5v282h-651q-23 0 -43 10.5t-31 32.5q-10 20 -10 43z" />
<glyph unicode="5" d="M183 178.5q1 34.5 24 57.5q25 25 59.5 23.5t61.5 -23.5q2 -2 23.5 -16.5t62.5 -30t101 -27.5t138 -12q92 0 152.5 37.5t96.5 92t50.5 112t14.5 95.5q0 53 -11.5 109.5t-40 102.5t-82 75t-135.5 29q-68 0 -130 -9.5t-111 -20.5t-79 -21l-30 -11q-23 -6 -44 -4t-38 13 q-35 25 -35 69v598q0 35 25 59.5t57 24.5h670q35 0 58.5 -24.5t23.5 -59.5t-23.5 -58.5t-58.5 -23.5h-586v-403q57 14 135 25.5t166 11.5q205 0 318.5 -126t113.5 -356q0 -92 -30.5 -182t-90 -161.5t-148.5 -115.5t-208 -44q-104 0 -187 20.5t-140.5 46t-88 47t-32.5 23.5 q-23 23 -22 57.5z" />
<glyph unicode="6" d="M186 481v187q-6 16 0 32v318q0 209 131 344q66 66 157 102.5t194 36.5q86 0 157.5 -23.5t122.5 -53t81 -55.5t32 -28v2q25 -27 24.5 -60.5t-24.5 -57.5q-23 -25 -58.5 -25t-62.5 29h2q-8 6 -31.5 23.5t-58.5 36t-82 32.5t-102 14q-68 0 -128.5 -23.5t-103.5 -66.5 q-86 -90 -86 -227v-162q63 41 145.5 76t172.5 35q150 0 244 -42t147 -108.5t72.5 -148.5t19.5 -162q0 -264 -135 -400q-129 -129 -348 -129q-469 0 -482 504zM350 483q2 -113 31 -179t74 -102t100 -47.5t113 -11.5q25 0 54.5 3.5t60 12.5t59 25.5t53.5 40.5q90 90 90 281 q0 154 -75.5 224.5t-241.5 70.5q-43 0 -88 -15.5t-88 -39t-80 -50t-62 -47.5v-166z" />
<glyph unicode="7" d="M119 1417q0 35 24.5 59.5t57.5 24.5h921q45 0 70 -41q10 -16 12 -36.5t-6 -39.5l-639 -1337q-12 -23 -33.5 -37t-44.5 -14q-6 0 -15 2t-17 6h2q-33 14 -45.5 45t2.5 64l587 1222h-794q-33 0 -57.5 23.5t-24.5 58.5z" />
<glyph unicode="8" d="M154 418q0 51 10 104t33.5 104.5t59.5 95.5t87 79q-70 59 -108.5 141t-38.5 164q0 72 26.5 142.5t80.5 127t137 91t196 34.5t194.5 -34.5t136 -91t81 -127t26.5 -142.5q0 -86 -37 -167t-112 -140q51 -35 88 -79t59.5 -94.5t33.5 -103.5t11 -104q0 -80 -25.5 -159 t-82 -141.5t-148.5 -101.5t-225 -39q-135 0 -227.5 39t-148.5 101.5t-81.5 141.5t-25.5 159zM317 418q0 -33 9.5 -80t42 -90t96 -74t172.5 -31q106 0 169.5 31t95.5 74t41 90t9 80q0 25 -8 74t-39 98t-94 85t-174 36t-175.5 -36t-96 -85t-40 -98.5t-8.5 -73.5zM362 1106 q0 -39 14.5 -80t47.5 -73.5t85 -53t128 -20.5t127 20.5t84 53t47 73.5t14 80t-14 80t-47 73.5t-84 54t-127 21.5t-128 -21.5t-85 -54t-47.5 -73.5t-14.5 -80z" />
<glyph unicode="9" d="M150 993q0 258 129 385q41 41 87 65.5t93 37t92 16.5t82 4q31 0 79 -2t100 -15.5t105.5 -43t96.5 -82.5t70.5 -136t31.5 -204v-187v-30v-318q0 -111 -37 -203t-106 -161q-66 -66 -155 -104t-185 -38q-88 0 -160 24t-123 53.5t-79.5 54t-30.5 26.5q-27 23 -26 58.5 t26 58.5q25 25 58.5 24.5t59.5 -24.5l20 -18q21 -17 58 -37.5t87 -37t110 -16.5q61 0 118.5 23.5t102.5 69.5q96 96 96 247v160q-66 -41 -148.5 -76t-168.5 -35q-150 0 -244 43t-147.5 110t-72.5 148.5t-19 159.5zM315 995q0 -154 76 -224.5t242 -70.5q43 0 88 15.5t88 39 t80 49t61 48.5v166q-6 111 -38.5 173t-79 95t-99.5 41t-100 8q-57 0 -123 -12t-113 -61q-82 -86 -82 -267z" />
<glyph unicode=":" d="M516 135q0 55 40 94t95 39t95 -39t40 -94q0 -57 -40 -97t-95 -40t-95 40t-40 97zM516 844q0 55 40 95t95 40t95 -40t40 -95t-40 -96t-95 -41t-95 40.5t-40 96.5z" />
<glyph unicode=";" d="M504 109v45q0 4 3 22.5t14 40t35 38.5t67 17h30q47 0 72 -19.5t36 -43t13 -45t2 -23.5v-102q0 -74 -22.5 -121t-50 -74.5t-52 -39t-30.5 -13.5q-10 -2 -33 0t-37 16q-14 20 -12 42t18 36q20 6 37 23q14 12 23.5 34.5t5.5 57.5q-43 0 -67 15.5t-35 35t-14 36.5t-3 22z M508 844q0 55 40 95t95 40t95 -40t40 -95t-40 -96t-95 -41t-95 40.5t-40 96.5z" />
<glyph unicode="&#x3c;" d="M221 608q0 16 9.5 32.5t19.5 29.5l592 526q25 23 58.5 20.5t55.5 -28.5q23 -25 21 -57.5t-27 -55.5l-524 -467l524 -467q23 -23 25 -56.5t-19 -55.5q-24 -31 -59 -31t-57 22h2l-592 527q-10 12 -19.5 28.5t-9.5 32.5z" />
<glyph unicode="=" d="M217 446q0 35 22.5 58.5t57.5 23.5h733q33 0 57.5 -23.5t24.5 -58.5q0 -33 -24.5 -57t-57.5 -24h-733q-35 0 -57.5 24.5t-22.5 56.5zM217 766q0 33 22.5 57.5t57.5 24.5h733q33 0 57.5 -24.5t24.5 -57.5q0 -35 -24.5 -58.5t-57.5 -23.5h-733q-35 0 -57.5 23.5t-22.5 58.5 z" />
<glyph unicode="&#x3e;" d="M293.5 1130.5q-2.5 32.5 19.5 57.5q23 27 56.5 29t58.5 -21l594 -526q10 -12 18.5 -28.5t8.5 -33.5q0 -16 -8.5 -32.5t-18.5 -28.5l-594 -527h2q-22 -22 -55 -22q-37 0 -62 31q-18 23 -17 56.5t23 55.5l527 467l-527 467q-23 23 -25.5 55.5z" />
<glyph unicode="?" d="M271 1214q-13 31 1 62q2 2 21.5 34.5t66 71.5t124 70t196.5 31q137 0 221 -41t132 -99.5t65.5 -120t21.5 -104.5q6 -98 -20.5 -176t-78.5 -135t-124 -94t-152 -56v-153q0 -41 -26.5 -61.5t-54.5 -20.5q-31 0 -55.5 20.5t-24.5 61.5v223q0 27 12 42t29.5 24.5t39 12.5 t40.5 5q6 0 11 1t9 1q29 6 70 25.5t76.5 54.5t61 87t23.5 124q-14 102 -81.5 157.5t-194.5 55.5q-74 0 -122 -15.5t-77.5 -34t-43 -36t-15.5 -21.5q-16 -29 -47 -42t-60 1q-31 14 -44 45zM530 119q0 53 40.5 93t95.5 40q53 0 93 -40t40 -93t-40 -94t-93 -41q-55 0 -95.5 41 t-40.5 94z" />
<glyph unicode="@" d="M139 571q0 135 45 247t119 190.5t166 122t184 43.5q119 0 203 -31t136 -80t77 -109.5t25 -119.5v-535q0 -66 -72 -66q-31 0 -51.5 14.5t-20.5 53.5v6q-35 -39 -88 -56.5t-98 -17.5q-88 0 -152.5 27t-105.5 72t-61.5 101t-20.5 116q0 63 21.5 124.5t64.5 109.5t106.5 78 t147.5 30q51 0 106.5 -35t87.5 -76v54q0 90 -87 139t-218 49q-57 0 -120.5 -28.5t-118 -86t-89 -141.5t-34.5 -195q0 -82 22.5 -161.5t73.5 -143t133 -103.5t201 -40h127q31 0 53.5 -23.5t22.5 -54.5t-22.5 -54.5t-53.5 -23.5h-127q-152 0 -261.5 52.5t-181 137.5 t-105.5 193.5t-34 220.5zM578 549q0 -78 48 -121t138 -43q16 0 46 8t58.5 26.5t50 50.5t21.5 79q0 39 -14.5 73.5t-39 60.5t-56 40t-66.5 14q-47 0 -83 -16t-58.5 -43t-33.5 -60.5t-11 -68.5z" />
<glyph unicode="A" d="M119 88q104 352 181 595t132 399.5t92 241.5t63.5 125t43 46t33.5 6q16 0 33.5 -6t44 -46t63.5 -125t93 -241.5t133 -399.5t181 -595q4 -11 4 -22q0 -20 -12 -40q-18 -32 -51 -42q-31 -8 -61.5 9t-40.5 50l-90 295l-46 156h-501l-45 -156l-90 -295q-10 -29 -33 -45 t-47 -16h-12.5t-12.5 2h2q-33 10 -50 40q-11 19 -11 40q0 12 4 24zM467 657h395q-59 190 -111.5 344t-86.5 242q-37 -96 -87.5 -245.5t-109.5 -340.5z" />
<glyph unicode="B" d="M199 82v1335q0 35 24.5 59.5t59.5 24.5h376q217 0 337 -104.5t124 -290.5v-8q0 -85 -41 -153q-43 -71 -96 -118q96 -57 161.5 -160.5t65.5 -248.5q0 -92 -35.5 -169t-100 -132.5t-154 -86t-193.5 -30.5h-444q-35 0 -59.5 24.5t-24.5 57.5zM365 166h362q68 0 126 18.5 t101 52t66.5 79.5t23.5 102q0 82 -28.5 141t-73.5 98t-101.5 57.5t-113.5 18.5h-362v-567zM365 889h428q10 0 36.5 9t55 33.5t50 66.5t21.5 108q0 229 -297 229h-294v-446z" />
<glyph unicode="C" d="M150 750q0 135 39.5 270t113.5 241.5t179.5 173t238.5 66.5q121 0 202 -25.5t130 -56t70.5 -59.5t25.5 -35q10 -20 10 -40q0 -11 -3 -23q-9 -32 -38 -50q-20 -10 -40 -10q-12 0 -24 3q-32 9 -48 38q-2 2 -15.5 16.5t-46.5 32t-87 30.5t-136 13q-74 0 -146.5 -41 t-131 -116.5t-94.5 -184t-36 -243.5q0 -57 6.5 -124t21.5 -134.5t44 -130t74 -111.5t109.5 -78t152.5 -29q94 0 156.5 23.5t99.5 51.5t52 52l15 23q14 29 47 43q16 7 31.5 7t30.5 -7q31 -14 43 -47t0 -62q-2 -6 -26.5 -46t-80 -85t-145.5 -82t-223 -37q-274 0 -422.5 202 t-148.5 571z" />
<glyph unicode="D" d="M193 82v1335q0 35 24.5 59.5t58.5 24.5h377q135 0 241.5 -65.5t180.5 -171t113 -240.5t39 -274q0 -176 -39 -315.5t-113 -236t-180.5 -147.5t-241.5 -51h-377q-35 0 -59 24.5t-24 57.5zM358 166h295q133 0 213 60.5t123 149.5t57.5 190.5t14.5 183.5q0 106 -28.5 210.5 t-81 187.5t-128 135t-170.5 52h-295v-1169z" />
<glyph unicode="E" d="M221 82v1335q0 35 24.5 59.5t59.5 24.5h778q35 0 59.5 -24.5t24.5 -59.5t-24.5 -58.5t-59.5 -23.5h-694v-501h494q35 0 59.5 -25t24.5 -59q0 -35 -24.5 -58.5t-59.5 -23.5h-494v-502h694q35 0 59.5 -24.5t24.5 -59.5q0 -33 -24.5 -57.5t-59.5 -24.5h-778 q-35 0 -59.5 24.5t-24.5 57.5z" />
<glyph unicode="F" d="M279 59v1358q0 35 24.5 59.5t56.5 24.5h781q33 0 57.5 -24.5t24.5 -59.5t-24.5 -58.5t-57.5 -23.5h-697v-501h496q35 0 58.5 -25t23.5 -59q0 -35 -23.5 -58.5t-58.5 -23.5h-496v-609q0 -33 -24.5 -57.5t-59.5 -24.5q-33 0 -57 25t-24 57z" />
<glyph unicode="G" d="M115 750q0 168 26.5 290.5t70.5 208.5t101.5 140.5t119 84t121.5 40t112 10.5q98 0 169.5 -19.5t121 -44t75 -47t29.5 -29.5q22 -22 22 -54q0 -39 -28 -64q-23 -23 -57.5 -22t-57.5 24q0 2 -16.5 16t-50 30.5t-86 30t-121.5 13.5q-119 0 -194 -56.5t-118 -144.5 t-58 -195.5t-15 -211.5q0 -201 33.5 -320t90 -183.5t129 -84t152.5 -19.5q145 0 229 93q37 39 59.5 89t35 104t16.5 104.5t4 89.5h-342q-33 0 -57.5 24.5t-24.5 57.5q0 35 24.5 60.5t57.5 25.5h422q31 0 55.5 -21.5t26.5 -56.5q0 -4 2 -26.5t2 -61.5q0 -47 -5 -109.5 t-22.5 -130.5t-48 -136.5t-82.5 -123.5q-135 -148 -352 -148q-143 0 -240.5 43t-161 111t-98 154t-50 171t-18.5 162.5t-3 131.5z" />
<glyph unicode="H" d="M147 59v1358q0 35 25 59.5t57 24.5q35 0 58.5 -24.5t23.5 -59.5v-583h705v583q0 35 22.5 59.5t59.5 24.5q33 0 57.5 -24.5t24.5 -59.5v-1358q0 -33 -25 -57.5t-57 -24.5q-37 0 -59.5 25t-22.5 57v609h-705v-609q0 -33 -23.5 -57.5t-58.5 -24.5q-33 0 -57.5 25t-24.5 57z " />
<glyph unicode="I" d="M221 82q0 35 24.5 59.5t57.5 24.5h272v1169h-272q-33 0 -57.5 23.5t-24.5 58.5t24.5 59.5t57.5 24.5h713q35 0 59.5 -24.5t24.5 -59.5t-24.5 -58.5t-59.5 -23.5h-273v-1169h273q35 0 59.5 -24.5t24.5 -59.5q0 -33 -24.5 -57.5t-59.5 -24.5h-713q-33 0 -57.5 24.5 t-24.5 57.5z" />
<glyph unicode="J" d="M154 414q-2 33 20.5 58.5t56.5 27.5h5q32 0 54 -22q23 -23 27 -56q2 -10 10.5 -55t36 -94.5t82 -89.5t146.5 -40q61 0 118.5 12.5t101.5 53.5t70.5 115.5t26.5 201.5v809h-430q-33 0 -57.5 24.5t-24.5 59.5q0 33 24.5 57.5t57.5 24.5h514q33 0 57.5 -24.5t24.5 -57.5 v-893q0 -549 -483 -549q-123 0 -206 47.5t-133 115t-73.5 142t-25.5 132.5z" />
<glyph unicode="K" d="M193 59v1360q0 33 23.5 57.5t57.5 24.5q33 0 57.5 -24.5t24.5 -57.5v-714q166 193 329 384t329 381q22 25 56 29q5 1 11 1q27 0 49 -19q23 -23 25 -56.5t-16 -60.5q-111 -129 -223.5 -260t-223.5 -260l539 -733q16 -23 16 -50q0 -7 -1 -13q-5 -34 -34 -56 q-20 -14 -49 -15q-37 0 -65 33l-516 705l-226 -262v-394q0 -33 -24.5 -57.5t-57.5 -24.5q-35 0 -58 25t-23 57z" />
<glyph unicode="L" d="M244 82v1337q0 33 24.5 57.5t59.5 24.5t59.5 -24.5t24.5 -57.5v-1253h716q35 0 59.5 -24.5t24.5 -59.5q0 -33 -24.5 -57.5t-59.5 -24.5h-800q-35 0 -59.5 24.5t-24.5 57.5z" />
<glyph unicode="M" d="M158 59v1360q0 29 18.5 50.5t42.5 29.5q29 8 54.5 -4t39.5 -39l351 -643q86 160 175 321.5t175 321.5q14 25 40.5 38t53.5 5q25 -8 43 -29.5t18 -50.5v-1360q0 -33 -24.5 -57.5t-59.5 -24.5t-58 25t-23 57v1028q-66 -123 -133.5 -243.5t-133.5 -243.5q-23 -43 -73 -43 q-23 0 -43.5 10.5t-30.5 32.5l-266 487v-1028q0 -33 -24 -57.5t-58 -24.5q-35 0 -59.5 25t-24.5 57z" />
<glyph unicode="N" d="M195 59v1360q0 27 16 48.5t45 31.5q25 6 51.5 -5t40.5 -36l625 -1087v1048q0 33 24.5 57.5t57.5 24.5q35 0 58.5 -24.5t23.5 -57.5v-1360q0 -29 -16.5 -50t-43.5 -29h2q-4 -2 -11 -2.5t-13 -0.5q-20 0 -41 11.5t-31 31.5l-623 1086v-1047q0 -33 -24.5 -57.5t-59.5 -24.5 t-58 25t-23 57z" />
<glyph unicode="O" d="M92 750q0 184 38 328.5t110.5 242.5t179 150.5t244.5 52.5q33 0 88 -7.5t118.5 -34t129 -76.5t117.5 -136t85 -214t33 -306q0 -369 -148.5 -571t-422.5 -202q-178 0 -289 71t-174.5 183.5t-86 248.5t-22.5 270zM256 750q0 -152 23.5 -255.5t60.5 -171t83 -104.5t91 -53 t85 -19.5t65 -3.5q70 0 141.5 25t129.5 91.5t96 184t38 306.5q0 137 -21.5 235t-56.5 166t-79 108.5t-89 62t-86.5 29t-72.5 7.5q-133 0 -213 -62.5t-123 -155.5t-57.5 -198.5t-14.5 -191.5z" />
<glyph unicode="P" d="M231 59v1360q0 33 25 57.5t59 24.5h400q143 0 236 -56t148.5 -138t77 -173.5t21.5 -160.5q0 -70 -21.5 -158t-77 -165t-148.5 -130t-236 -53h-316v-408q0 -33 -24.5 -57.5t-59.5 -24.5t-59.5 25t-24.5 57zM399 633h316q78 0 131 22.5t89 57.5t55.5 76.5t29.5 79.5t12 67 t2 37q0 4 -2 31.5t-11 68.5t-28.5 87t-54.5 85t-89 64.5t-134 25.5h-316v-702z" />
<glyph unicode="Q" d="M92 752q0 369 148.5 570.5t423.5 201.5q33 0 89 -7.5t119.5 -34t128 -76.5t116.5 -136t85 -213t33 -305q0 -186 -40 -332t-116 -246l88 -104q20 -23 20 -51q0 -5 -1 -10q-4 -34 -29 -56q-10 -6 -24.5 -12.5t-26.5 -6.5q-37 0 -66 29l-79 96q-121 -82 -297 -82 q-178 0 -289 71t-174.5 183.5t-86 249.5t-22.5 271zM258 752q0 -152 23.5 -256.5t59.5 -172t82 -104.5t91 -53t85 -19.5t65 -3.5q49 0 95 9.5t93 37.5q-35 43 -71 88.5t-72 86.5q-20 24 -20 53v8q3 33 30 55q25 20 52 20q5 0 9 -1q33 -4 56 -31l137 -164q45 70 70.5 178.5 t25.5 268.5q0 205 -46 325.5t-110.5 183t-134 80t-114.5 17.5q-88 0 -153 -29t-110 -78t-73.5 -111.5t-44 -130t-20.5 -134t-5 -123.5z" />
<glyph unicode="R" d="M182 59v1360q0 33 24.5 57.5t59.5 24.5h400q168 0 264 -51t145 -120.5t61.5 -139.5t12.5 -107q0 -49 -13.5 -108.5t-42 -118.5t-75.5 -112.5t-117 -90.5l240 -559q7 -17 7 -33q0 -17 -6 -31q-14 -30 -44 -44h2q-14 -8 -35 -9q-23 0 -43.5 15.5t-30.5 36.5l-246 577 q-16 -2 -37.5 -3t-41.5 -1h-318v-543q0 -33 -24.5 -57.5t-57.5 -24.5q-35 0 -59.5 25t-24.5 57zM348 768h318q113 0 176 42t95 96.5t39 105.5t7 71q0 43 -12.5 88.5t-48 81t-97 59t-159.5 23.5h-318v-567z" />
<glyph unicode="S" d="M183.5 179.5q2.5 33.5 29.5 56.5q23 19 50 19q7 1 13 -1q34 -6 54 -29q2 -2 18.5 -15t50 -27.5t89 -27t135.5 -12.5q338 0 338 252q0 35 -10.5 75t-47.5 80t-108.5 77t-192.5 65q-78 16 -151.5 54t-130 96.5t-88.5 137.5q-27 67 -28 148q0 15 1 31q4 41 22.5 103.5 t65.5 121t132 99.5t220 41q117 0 195 -31t125 -70t66.5 -71.5t21.5 -34.5q7 -17 7 -33t-6 -30q-14 -30 -44 -46q-29 -14 -59.5 0.5t-47.5 42.5q-6 8 -21.5 25.5t-45 36t-76.5 32t-115 13.5q-127 0 -194.5 -56.5t-79.5 -156.5q0 -72 30.5 -123t73.5 -86t89 -54.5t77 -27.5 q487 -109 487 -459q0 -199 -131.5 -308.5t-373.5 -109.5q-111 0 -190 20.5t-129 46.5t-74.5 48.5t-28.5 28.5q-20 25 -17.5 58.5z" />
<glyph unicode="T" d="M82 1419q0 33 22.5 57.5t59.5 24.5h999q35 0 59.5 -24.5t24.5 -57.5q0 -35 -24.5 -59.5t-59.5 -24.5h-428v-1276q0 -33 -24.5 -57.5t-57.5 -24.5q-35 0 -58.5 25t-23.5 57v1276h-407q-37 0 -59.5 24.5t-22.5 59.5z" />
<glyph unicode="U" d="M203 506v936q0 33 24.5 57.5t59.5 24.5q33 0 57.5 -24.5t24.5 -57.5v-936q0 -123 26.5 -194.5t66.5 -108.5t88 -48.5t91 -11.5h45q45 0 93 11.5t88 48.5t65.5 108.5t25.5 194.5v936q0 33 25 57.5t57 24.5q35 0 60.5 -24.5t25.5 -57.5v-936q0 -172 -46 -276.5t-112.5 -160 t-143 -74t-138.5 -18.5h-45q-61 0 -137 18.5t-143.5 74t-112.5 160t-45 276.5z" />
<glyph unicode="V" d="M96 1411q-4 14 -4 28q0 19 8 37q14 32 45 44q12 4 25 4q20 0 39 -10q31 -16 45 -46l410 -1155l409 1155q14 34 45 48q18 9 37 8q13 0 27 -4q33 -12 46 -44q7 -18 7 -36q0 -14 -4 -29l-490 -1378q-10 -25 -30 -40.5t-47 -15.5q-29 0 -49.5 15.5t-30.5 40.5z" />
<glyph unicode="W" d="M76 1430q-1 6 -1 11q-1 29 17 51q20 26 55 32q5 1 10 1q27 1 49 -19q26 -22 34 -54l129 -999q47 160 98 317.5t98 314.5q10 29 31.5 44.5t50.5 15.5q27 0 48.5 -16.5t31.5 -43.5q27 -84 50.5 -161.5t48 -153.5t49 -154.5t51.5 -164.5l127 1001q5 32 33 54q23 18 51 19 q5 0 10 -1q33 -6 55 -33q18 -23 18 -51q0 -5 -1 -10q-43 -338 -89.5 -690.5t-89.5 -690.5q-4 -29 -24.5 -48t-48.5 -24h-9q-27 0 -48 18.5t-31 43.5l-232 743l-231 -745q-10 -29 -33 -45.5t-55 -14.5q-31 4 -50.5 23.5t-23.5 48.5z" />
<glyph unicode="X" d="M143 41q-2 10 -2 19q0 24 11 44l415 648q-104 162 -207.5 323.5t-207.5 321.5q-11 20 -11 43q0 10 2 20q7 34 35 51q27 16 61.5 9t51.5 -35l375 -582l374 582q20 29 53 37q10 2 19 2q22 0 43 -13q29 -18 35 -52q2 -9 2 -18q0 -24 -12 -44l-416 -645l416 -648 q12 -21 12 -45q0 -9 -2 -17q-6 -34 -35 -52q-23 -12 -43 -13q-20 0 -40.5 10.5t-31.5 28.5q-92 145 -186 291t-188 291l-375 -584q-25 -37 -70 -37q-25 0 -43 13q-29 16 -35 51z" />
<glyph unicode="Y" d="M70 1460q8 35 34 51q27 16 61 7t50 -35l463 -752l463 752q18 29 53 37t61 -9q29 -16 36 -51q2 -12 2 -23q0 -21 -9 -40l-520 -848v-490q0 -33 -25.5 -57.5t-60.5 -24.5q-33 0 -57.5 25t-24.5 57v490l-520 848q-9 18 -9 39q0 12 3 24z" />
<glyph unicode="Z" d="M115 88q2 25 12 43l821 1204h-731q-33 0 -57.5 24.5t-24.5 59.5q0 33 24.5 57.5t57.5 24.5h891q23 0 42 -12t30 -35v2q10 -16 9 -41.5t-11 -44.5q-199 -291 -410 -601t-412 -603h752q33 0 57.5 -23.5t24.5 -58.5t-24.5 -59.5t-57.5 -24.5h-913q-23 0 -42.5 12.5 t-29.5 34.5v-2q-10 18 -8 43z" />
<glyph unicode="[" d="M483 -117v1712q0 37 21 58v-2q25 27 59 26h264q33 0 57.5 -23.5t24.5 -58.5t-24.5 -58.5t-57.5 -23.5h-182v-1548h182q33 0 57.5 -23.5t24.5 -58.5q0 -33 -24.5 -57.5t-57.5 -24.5h-264q-35 0 -57.5 24.5t-22.5 57.5z" />
<glyph unicode="\" d="M287 1366q-10 33 2 63.5t43 43.5q31 12 62.5 -1.5t43.5 -41.5l527 -1317q10 -33 -3.5 -63t-41.5 -44h2q-10 -4 -17.5 -5t-15.5 -1q-23 0 -43.5 15.5t-30.5 33.5q-129 324 -264 658.5t-264 658.5z" />
<glyph unicode="]" d="M420 -117q0 35 24.5 58.5t57.5 23.5h182v1548h-182q-33 0 -57.5 24t-24.5 58q0 35 24.5 58.5t57.5 23.5h264q35 0 59 -26v2q20 -20 21 -58v-1712q0 -33 -22.5 -57.5t-57.5 -24.5h-264q-33 0 -57.5 24.5t-24.5 57.5z" />
<glyph unicode="^" d="M179 987q-7 33 11 62l263 395q25 33 67 33q47 0 72 -33l262 -395q16 -29 10 -62t-35 -53q-10 -8 -22.5 -10t-22.5 -2q-18 0 -36.5 9t-30.5 27l-195 291l-196 -291q-18 -29 -51 -36t-60 12q-29 20 -36 53z" />
<glyph unicode="_" d="M209 -61q0 33 24.5 57t57.5 24h747q35 0 58.5 -24.5t23.5 -56.5q0 -35 -23.5 -58.5t-58.5 -23.5h-747q-33 0 -57.5 23.5t-24.5 58.5z" />
<glyph unicode="`" d="M468 1437.5q-3 30.5 19 53.5q23 25 54.5 27t54.5 -21l158 -147q23 -23 20.5 -59t-26.5 -64q-10 -10 -43 -10q-14 0 -30 5t-26 15h2l-157 147q-23 23 -26 53.5z" />
<glyph unicode="a" d="M160 350q0 63 14 127t60.5 113t132.5 79.5t231 30.5q88 0 164 -12t133 -26v88q0 2 -4 31.5t-25.5 63.5t-68.5 61.5t-131 27.5q-55 0 -101.5 -9.5t-79.5 -19.5q-37 -12 -67 -26q-21 -11 -42 -11q-12 0 -22 3q-32 8 -49 38q-11 19 -11 40q0 11 3 22q8 33 35 49 q2 2 27.5 15.5t69.5 27.5t104.5 25.5t132.5 11.5q109 0 183.5 -35t121.5 -87t68.5 -113.5t21.5 -114.5v-533q0 -23 5 -32t15 -13q8 -6 21 -6h8q35 0 59.5 -24.5t24.5 -59.5t-24.5 -58.5t-59.5 -23.5q-6 0 -36 3t-68 24q-23 10 -43.5 27.5t-34.5 37.5q-63 -31 -166 -61.5 t-232 -30.5q-102 0 -172.5 30.5t-114.5 81t-63.5 113t-19.5 125.5zM326 350q0 -31 8 -63.5t30.5 -59t62.5 -44t103 -17.5q68 0 125.5 10t103.5 24.5t80.5 31t55.5 28.5v229q-47 14 -126 28.5t-171 14.5q-102 0 -157.5 -15t-81 -39.5t-29.5 -57.5t-4 -70z" />
<glyph unicode="b" d="M207 84v1333q0 35 24.5 58.5t59.5 23.5q33 0 57.5 -23.5t24.5 -58.5v-424q59 47 141 77t176 30q229 0 356.5 -144.5t127.5 -404.5q0 -272 -127 -423t-357 -151q-195 0 -317 117v-10q0 -35 -24.5 -59.5t-57.5 -24.5q-35 0 -59.5 24.5t-24.5 59.5zM373 551q0 -57 10 -128 t44 -133.5t96.5 -104.5t166.5 -42t167 42t96.5 104.5t44 133.5t10.5 128q0 63 -12.5 132t-48.5 124t-97.5 91t-159.5 36t-159.5 -36t-97.5 -91t-48 -124t-12 -132z" />
<glyph unicode="c" d="M213 528q0 129 35 234.5t98.5 181.5t152.5 117t197 41q111 0 185.5 -16.5t121 -37t68 -41t27.5 -26.5h-2q18 -23 18 -48q0 -7 -2 -15q-6 -34 -33 -54q-25 -16 -60.5 -11t-55.5 28q-2 2 -14.5 11t-43.5 18.5t-82 17.5t-127 8q-88 0 -149.5 -36t-99 -94t-54 -131 t-16.5 -147q0 -43 9 -108.5t43 -126t96.5 -104.5t170.5 -44q78 0 128 10.5t80 24t42 24.5l12 11q18 31 52 39q11 3 22 3q22 0 41 -11q31 -16 36 -53q1 -8 1 -16q0 -29 -14 -56q-4 -6 -24.5 -28.5t-65.5 -47.5t-121 -45t-189 -20q-111 0 -199.5 38.5t-152 110.5t-97.5 173 t-34 226z" />
<glyph unicode="d" d="M123 551q0 260 127 404.5t356 144.5q96 0 177 -28t141 -81v426q0 35 24.5 58.5t59.5 23.5q33 0 57.5 -23.5t24.5 -58.5v-1333q0 -35 -25 -59.5t-57 -24.5q-35 0 -59.5 24.5t-24.5 59.5v10q-59 -53 -140.5 -85t-177.5 -32q-229 0 -356 151t-127 423zM287 551 q0 -57 11 -128t45 -133.5t96.5 -104.5t166.5 -42t167 42t96.5 104.5t44 133.5t10.5 128q0 63 -12.5 132t-48.5 124t-97 91t-160 36q-98 0 -160.5 -36t-97.5 -91t-48 -124t-13 -132z" />
<glyph unicode="e" d="M184 571v56q0 61 21.5 143t75 154.5t145.5 124t231 51.5q141 0 232.5 -55.5t144.5 -135.5t74.5 -169t21.5 -156q0 -35 -22.5 -58.5t-56.5 -23.5h-697q6 -63 23.5 -123t52.5 -106t91.5 -75.5t140.5 -33.5q19 -1 36 -1q38 0 68 6q43 9 70.5 22.5t41 26.5t17.5 18 q16 27 48 33.5t61 -9.5t38 -48t-6 -60q-2 -2 -19.5 -27t-57 -52.5t-105.5 -50t-160 -22.5h-39q-223 14 -341.5 155.5t-129.5 415.5zM352 664h611q-8 39 -26.5 87t-54.5 89t-90.5 68.5t-134.5 27.5q-92 0 -150 -32t-91 -75t-46.5 -89t-17.5 -76z" />
<glyph unicode="f" d="M199 84q0 33 24.5 57.5t59.5 24.5h247q0 39 1 96t1 126v145.5v156.5v238h-249q-35 0 -59.5 24.5t-24.5 57.5q0 35 24.5 59.5t59.5 24.5h249v53v11q0 79 28 138q30 64 83 113q35 27 76 46.5t83 29.5t83 15t73 5q39 0 65 -3t30 -3h2q33 -6 52 -32.5t17 -59.5 q-6 -35 -35.5 -54.5t-60.5 -15.5q-12 2 -30.5 2h-39.5q-51 0 -110.5 -11t-97.5 -46q-49 -37 -50 -131v-57h273q33 0 57.5 -25t24.5 -59q0 -33 -24.5 -57.5t-57.5 -24.5h-273v-762h250q33 0 57.5 -24.5t24.5 -57.5q0 -35 -24.5 -59.5t-57.5 -24.5h-667q-35 0 -59.5 24.5 t-24.5 59.5z" />
<glyph unicode="g" d="M195 -43q0 37 13 77t35.5 75.5t51.5 63.5t57 44q-23 59 -31 119q-6 49 -6 81v15q-66 59 -87 129t-21 144q0 57 23.5 124.5t74.5 127t134 99.5t202 40q90 0 163 -24.5t130 -100.5v41q0 71 68 71h2q35 0 54 -18t19 -53v-307q0 -70 -27.5 -136.5t-83 -119t-137 -84 t-188.5 -31.5q-39 0 -85 4t-81 12q-2 -18 1 -38.5t16 -41.5q14 2 34.5 3l41 2t40 1h33.5q141 -2 228 -32.5t136.5 -77.5t67 -103.5t17.5 -105.5q0 -68 -33 -121t-92.5 -92t-141.5 -59.5t-182 -20.5q-102 0 -184 20.5t-140.5 59.5t-90 92t-31.5 121zM360 -43 q0 -27 21.5 -51.5t58.5 -44t88.5 -30.5t112.5 -11t113.5 11t90.5 30.5t59.5 44t21.5 51.5q0 37 -13.5 65.5t-46 50t-88 33t-137.5 11.5q-78 0 -132 -11.5t-87 -33t-47.5 -50t-14.5 -65.5zM371 705q0 -96 71.5 -150.5t198.5 -54.5q121 0 199 56t78 149q0 23 -12.5 60.5 t-43.5 74.5t-84 63.5t-137 26.5q-82 0 -134 -26.5t-83 -63.5t-42 -75t-11 -60z" />
<glyph unicode="h" d="M223 82v1327q0 35 23.5 58.5t56.5 23.5q35 0 58.5 -23.5t23.5 -58.5v-451q57 59 133 100.5t178 41.5q63 0 136 -12.5t132.5 -55.5t99.5 -124t40 -218v-608q0 -35 -24.5 -58.5t-57.5 -23.5t-57.5 23.5t-24.5 58.5v608q0 76 -16.5 124t-47 76t-76.5 37t-104 9 q-68 0 -121 -33t-92 -77t-64.5 -88t-33.5 -64v-592q0 -35 -23.5 -58.5t-58.5 -23.5q-33 0 -56.5 23.5t-23.5 58.5z" />
<glyph unicode="i" d="M272 82q0 33 25 57.5t59 24.5h250v768h-250q-35 0 -59.5 24.5t-24.5 57.5q0 35 25 59.5t59 24.5h332q35 0 59.5 -24.5t24.5 -59.5v-850h250q35 0 59.5 -24.5t24.5 -57.5q0 -35 -24.5 -59.5t-59.5 -24.5h-666q-35 0 -59.5 24.5t-24.5 59.5zM539 1370q0 41 31.5 74t74.5 33 t74 -33t31 -74q0 -43 -31 -73.5t-74 -30.5t-74.5 30.5t-31.5 73.5z" />
<glyph unicode="j" d="M270 -207q8 31 35 50.5t60 15.5q10 -2 22 -4q10 -2 24.5 -2h30.5q49 0 111.5 12t110.5 53q84 70 84 232v786h-394q-35 0 -57.5 24.5t-22.5 57.5q0 35 22.5 58.5t57.5 23.5h475q35 0 58.5 -23.5t23.5 -58.5v-868q0 -236 -145 -355q-78 -66 -168 -85t-158 -19 q-31 0 -56.5 2t-37.5 4h-10q-35 8 -52.5 35.5t-13.5 60.5zM684 1364q0 41 30.5 72.5t71.5 31.5t72 -31.5t31 -72.5t-31 -71.5t-72 -30.5t-71.5 30.5t-30.5 71.5z" />
<glyph unicode="k" d="M287 80v1329q0 33 23.5 56.5t58.5 23.5t59.5 -23.5t24.5 -56.5v-721l462 412q23 21 53 21q3 -1 7 -1q35 -2 57 -28q21 -23 21 -54v-6q-2 -35 -29 -57l-295 -262l377 -588q13 -21 13 -44q0 -9 -2 -19q-7 -34 -38 -52q-16 -12 -43 -12q-20 0 -39.5 10t-29.5 27 q-90 141 -181.5 281.5t-183.5 281.5l-149 -131v-387q0 -35 -25 -58.5t-59 -23.5q-35 0 -58.5 23.5t-23.5 58.5z" />
<glyph unicode="l" d="M264 84q0 33 24.5 57.5t57.5 24.5h252v1169h-252q-33 0 -57.5 23.5t-24.5 58.5t24.5 58.5t57.5 23.5h334q35 0 59.5 -23.5t24.5 -58.5v-1251h250q35 0 59.5 -24.5t24.5 -57.5q0 -35 -24.5 -59.5t-59.5 -24.5h-668q-33 0 -57.5 24.5t-24.5 59.5z" />
<glyph unicode="m" d="M125 82v934q0 35 21.5 59.5t56.5 24.5t56.5 -24.5t21.5 -59.5v-27q43 55 86 83t102 28q57 0 91 -17.5t67 -44.5q25 -25 38 -47t19 -39q45 72 96 110t133 38q119 0 187 -70q33 -33 50 -74t25.5 -84t9.5 -87t1 -80v-623q0 -35 -24.5 -58.5t-59.5 -23.5t-58.5 23.5 t-23.5 58.5v623q0 27 -1 57.5t-4 59t-10.5 52t-21.5 39.5q-23 20 -70 21q-45 0 -76.5 -26.5t-54.5 -57.5q-25 -37 -43 -82v-686q0 -35 -24.5 -58.5t-59.5 -23.5q-33 0 -57.5 23.5t-24.5 58.5v641q0 47 -2 79t-6 52t-12 34.5t-23 26.5q-6 6 -19 12.5t-42 6.5 q-35 0 -64.5 -18.5t-54 -44t-42 -55.5t-27.5 -50v-684q0 -35 -21.5 -58.5t-56.5 -23.5t-56.5 23.5t-21.5 58.5z" />
<glyph unicode="n" d="M231 82v936q0 35 24 58.5t56 23.5q35 0 58.5 -23.5t23.5 -58.5v-92q63 78 138.5 126t173.5 48q63 0 134.5 -12.5t130 -54.5t97.5 -123t39 -218v-610q0 -35 -20.5 -58.5t-55.5 -23.5q-33 0 -60.5 23.5t-27.5 58.5v610q0 76 -15.5 124t-46 75t-74.5 36t-101 9 q-68 0 -121.5 -33t-92 -77t-64.5 -87t-34 -63v-594q0 -35 -23.5 -58.5t-58.5 -23.5q-33 0 -56.5 23.5t-23.5 58.5z" />
<glyph unicode="o" d="M188 539q0 266 125 413.5t349 147.5q223 0 348 -147.5t125 -413.5q0 -252 -125 -395.5t-348 -143.5t-348.5 142.5t-125.5 396.5zM352 539q0 -63 12.5 -130t47 -121.5t94 -89t156.5 -34.5q96 0 157.5 34.5t96 89t47 121t12.5 130.5q0 55 -11.5 124.5t-44 130t-95 101.5 t-162.5 41t-162 -41t-94.5 -101.5t-43 -130t-10.5 -124.5z" />
<glyph unicode="p" d="M233 -250v1266q0 35 25 59.5t59 24.5q33 0 56.5 -24.5t23.5 -59.5v-23q59 47 142.5 77t177.5 30q227 0 355 -151.5t128 -422.5q0 -260 -128 -404.5t-355 -144.5q-195 0 -320 117v-344q0 -35 -23.5 -59.5t-56.5 -24.5q-35 0 -59.5 24.5t-24.5 59.5zM397 551 q0 -57 11.5 -128t45 -133.5t96.5 -104.5t167 -42q98 0 159.5 36t97.5 91.5t48 123t12 132.5q0 57 -10 128t-44 133.5t-96.5 104.5t-166.5 42q-98 0 -159.5 -36t-97.5 -91t-49.5 -124t-13.5 -132z" />
<glyph unicode="q" d="M156 526q0 270 127 422t354 152q98 0 179 -28t140 -81v25q0 35 24.5 59.5t59.5 24.5q33 0 56.5 -24.5t23.5 -59.5v-1266q0 -35 -23.5 -59.5t-56.5 -24.5q-35 0 -59.5 24.5t-24.5 59.5v344q-59 -53 -140 -85t-179 -32q-227 0 -354 144.5t-127 404.5zM322 526 q0 -66 12 -133t47 -122.5t96.5 -91.5t159.5 -36q104 0 166.5 42t96.5 104.5t45 133.5t11 128q0 63 -12 132t-48 124t-98.5 91t-160.5 36q-104 0 -165.5 -42t-95.5 -104.5t-44 -133t-10 -128.5z" />
<glyph unicode="r" d="M158 80q0 35 22.5 56.5t57.5 21.5h88v858q0 35 25.5 59.5t58.5 24.5q35 0 54 -24.5t19 -59.5v-76q68 86 147 123t177 37q92 0 156.5 -28t105.5 -61.5t59.5 -62t20.5 -30.5l2 -3q7 -17 7 -33q0 -18 -8 -32q-15 -30 -46 -43q-18 -7 -34 -7q-45 0 -75 52q-2 2 -13 15.5 t-33.5 28.5t-57.5 26.5t-84 11.5q-68 0 -123 -31t-97 -71.5t-68.5 -81.5t-35.5 -62v-530h213q33 0 56.5 -21.5t23.5 -56.5t-23.5 -57.5t-56.5 -22.5h-458q-35 0 -57.5 22.5t-22.5 57.5z" />
<glyph unicode="s" d="M204 165q-3 11 -3 22q0 21 12 40q16 29 53 34q8 1 16 1q28 0 50 -14l28 -16q27 -15 72 -31.5t103.5 -30.5t121.5 -14q102 0 157.5 18.5t81.5 47t30 64.5t4 70q0 12 -5 32t-36 40.5t-96.5 39.5t-186.5 30q-119 8 -193.5 38.5t-116.5 72.5t-57.5 91.5t-15.5 94.5 q0 139 105.5 220t285.5 81q106 0 178 -12.5t117 -28t66.5 -29.5t28.5 -18q23 -25 23.5 -59t-21.5 -56q-23 -23 -57 -24t-56 20q-10 6 -72.5 24.5t-206.5 18.5q-27 0 -65.5 -4t-74.5 -17.5t-61.5 -41t-25.5 -74.5q0 -10 5 -30t27.5 -41.5t70 -39.5t133.5 -27q33 -2 81 -7 t100 -17t104.5 -32.5t93 -53.5t66.5 -80t26 -111q0 -63 -13.5 -128.5t-59.5 -118t-132.5 -85t-231.5 -32.5q-80 0 -151.5 17.5t-129 39t-93 41t-43.5 23.5q-27 18 -36 52z" />
<glyph unicode="t" d="M133 1018q0 35 23.5 58.5t56.5 23.5h246v309q0 35 23.5 58.5t58.5 23.5q33 0 57.5 -23.5t24.5 -58.5v-309h397q33 0 57.5 -23.5t24.5 -58.5q0 -33 -24.5 -57.5t-57.5 -24.5h-397v-617q0 -84 45 -120q23 -18 62.5 -24.5t76.5 -6.5t71.5 4t53.5 8q29 8 59.5 -8t40.5 -49 q6 -31 -9 -60.5t-50 -37.5h2q-8 -4 -60.5 -12.5t-115.5 -8.5q-53 0 -115.5 13.5t-114.5 52.5q-111 82 -110 249v617h-246q-33 0 -56.5 24.5t-23.5 57.5z" />
<glyph unicode="u" d="M221 430v588q0 35 23.5 58.5t56.5 23.5q35 0 58.5 -23.5t23.5 -58.5v-588q0 -59 18.5 -107.5t51 -84t77.5 -55t99 -19.5h65q109 0 176.5 74.5t67.5 191.5v588q0 35 24.5 58.5t57.5 23.5t57.5 -23.5t24.5 -58.5v-588q0 -94 -31 -173t-85 -136.5t-129 -89t-163 -31.5h-65 q-90 0 -165 31.5t-128 89t-84 136.5t-31 173z" />
<glyph unicode="v" d="M159 1045.5q11 31.5 44 48.5q29 14 60.5 1.5t47.5 -40.5l371 -779q94 199 186.5 389.5t186.5 389.5q16 29 48 41t60 -2q31 -16 42.5 -47t-3.5 -62l-444 -938q-12 -18 -32.5 -31.5t-43.5 -13.5t-42 13.5t-32 31.5l-444 938q-16 29 -5 60.5z" />
<glyph unicode="w" d="M92 1004q-1 8 -1 16q1 24 15 46q20 28 54 34q6 1 11 1q29 1 51 -17q26 -20 32 -54l108 -678q57 121 112.5 238t111.5 237q10 23 31.5 36.5t44.5 13.5t43 -14.5t30 -35.5q59 -129 112.5 -237.5t113.5 -237.5q27 174 54 339t54 339q7 36 33 56q20 16 46 15q7 0 15 -1 q33 -6 55 -34q17 -22 16 -47q0 -7 -1 -15l-156 -936q-6 -27 -24.5 -45.5t-46.5 -22.5h-13q-23 0 -43 14.5t-30 32.5q-66 143 -129.5 274.5t-128.5 274.5l-261 -549q-14 -23 -36.5 -37t-49.5 -10q-25 4 -45 23.5t-24 46.5z" />
<glyph unicode="x" d="M211.5 1027.5q5.5 33.5 30.5 53.5q24 19 50 19q6 0 12 -1q32 -5 52 -32l306 -387q78 98 154.5 194.5t154.5 192.5q18 27 52 32q6 1 12 1q27 0 48 -19q27 -20 32 -54t-17 -58l-332 -420l332 -418q18 -25 13 -59.5t-28 -53.5q-25 -18 -49 -18q-39 0 -63 31l-309 387 l-306 -387q-25 -31 -63 -31q-27 0 -51 18q-23 20 -29 54t16 59l332 418l-332 420q-23 25 -17.5 58.5z" />
<glyph unicode="y" d="M139 -201q10 33 39 51q20 12 42 12q10 0 20 -3q8 -2 41.5 -1t81 22.5t103.5 73.5t107 157l-428 870q-9 19 -9 36q0 14 6 27q12 31 40 48q19 9 38 9q14 0 27 -5q32 -11 48 -43v2l371 -750l370 750v-2q16 33 48 44t61 -5h2q31 -16 42 -47q5 -14 5 -28q0 -18 -8 -36 l-447 -905v2q-57 -127 -123.5 -204t-131 -118t-122 -53t-96.5 -12q-27 0 -42 2t-25 4q-33 10 -51 39q-12 19 -12 42q0 10 3 21z" />
<glyph unicode="z" d="M207 1038q0 35 24.5 59.5t57.5 24.5h801q51 0 71 -41q10 -25 9 -51t-17 -43l-688 -821h625q35 0 59.5 -24.5t24.5 -59.5t-25 -58.5t-59 -23.5h-801q-25 0 -44.5 12.5t-29.5 32.5q-10 23 -7 47.5t19 42.5l686 821h-624q-33 0 -57.5 25t-24.5 57z" />
<glyph unicode="{" d="M453 739q0 25 17 46.5t40 31.5q6 2 28.5 13.5t47 34t44 56t19.5 80.5v398q0 82 37 136t91 86t113.5 44t104.5 12q35 0 58.5 -23.5t23.5 -58.5t-23.5 -58.5t-58.5 -23.5q-4 0 -32.5 -2t-61.5 -13t-60.5 -33.5t-27.5 -65.5v-398q0 -96 -37 -158.5t-84 -103.5 q47 -41 84 -103.5t37 -158.5v-397q0 -43 27.5 -65.5t61.5 -34t62.5 -13.5t30.5 -2q35 0 58.5 -23.5t23.5 -58.5q0 -33 -23.5 -57.5t-58.5 -24.5q-45 0 -104.5 12.5t-113.5 44t-91 85t-37 137.5v397q0 51 -21.5 86t-47 56.5t-48.5 32.5l-22 10q-25 8 -41 29.5t-16 47.5z" />
<glyph unicode="|" d="M582 -147v1710q0 35 24.5 57t57.5 22q35 0 59.5 -22.5t24.5 -56.5v-1710q0 -35 -24.5 -59.5t-59.5 -24.5q-33 0 -57.5 24.5t-24.5 59.5z" />
<glyph unicode="}" d="M252 -117q0 35 22.5 58.5t57.5 23.5q2 0 31.5 2t63.5 13.5t61.5 34t27.5 65.5v397q0 92 37 156.5t82 105.5q-45 41 -82 105.5t-37 156.5v398q0 43 -27.5 65.5t-61.5 33.5t-62.5 13t-32.5 2q-35 0 -57.5 24t-22.5 58q0 35 22.5 58.5t57.5 23.5q45 0 105.5 -12t113.5 -44 t91 -86t38 -136v-398q0 -47 20.5 -81.5t45 -56t47 -33t26.5 -13.5q23 -10 40.5 -31.5t17.5 -46.5q0 -27 -16.5 -48t-41.5 -29l-23 -10q-22 -11 -47.5 -32.5t-47 -56.5t-21.5 -86v-397q0 -84 -38 -137.5t-91 -85t-113.5 -44t-105.5 -12.5q-35 0 -57.5 24.5t-22.5 57.5z" />
<glyph unicode="~" d="M240 589q-7 29 10 52q6 6 26.5 27.5t55.5 44t82 41t106 18.5q39 0 67.5 -9t51.5 -22.5t40 -29t32 -29.5q23 -23 37 -33t36 -10q27 0 54.5 11.5t50.5 27.5q27 16 51 39q23 27 56.5 32t58.5 -18q27 -23 29.5 -55.5t-19.5 -63.5l-27.5 -27.5t-58.5 -46t-86.5 -44 t-108.5 -19.5q-39 0 -67.5 8.5t-51 21.5t-40 29.5t-31.5 30.5q-23 23 -37 33t-37 10q-31 0 -55.5 -9t-41.5 -19.5t-27 -20.5l-9 -10v2q-20 -25 -54 -28t-59 14q-27 23 -34 52z" />
<glyph unicode="&#xa0;" />
<glyph unicode="&#xa1;" d="M530 1036q0 53 40 94t94 41q55 0 95 -40.5t40 -94.5q0 -53 -40 -94t-95 -41q-53 0 -93.5 41t-40.5 94zM582 -233v899q0 33 24.5 57.5t57.5 24.5q35 0 59.5 -25t24.5 -57v-899q0 -35 -25 -57.5t-59 -22.5q-33 0 -57.5 22.5t-24.5 57.5z" />
<glyph unicode="&#xa2;" d="M211 680q0 244 113.5 379t308.5 151v103q0 35 23.5 58.5t58.5 23.5q33 0 57.5 -23.5t24.5 -58.5v-105q78 -8 134 -25.5t93 -36t55.5 -34.5t24.5 -25l-2 3q23 -29 16.5 -63t-33.5 -52t-60.5 -15t-53.5 25l-2 2q-2 2 -10.5 8t-29 14.5t-52 16.5t-80.5 14v-696 q41 6 71.5 18.5t53.5 22.5q25 12 43 27q18 27 51.5 34.5t62.5 -8.5q31 -16 38 -50t-9 -62q-4 -4 -21.5 -24.5t-54.5 -44.5t-94 -46.5t-141 -32.5v-123q0 -35 -24.5 -57.5t-57.5 -22.5q-35 0 -58.5 22.5t-23.5 57.5v119q-197 18 -309.5 144t-112.5 362zM379 680 q0 -41 8 -94.5t33.5 -103.5t76 -90t136.5 -52v704q-72 -12 -120 -44.5t-77.5 -81t-43 -109.5t-13.5 -129z" />
<glyph unicode="&#xa3;" d="M190 825q0 35 25 59.5t59 24.5h138v273q-2 84 31.5 156.5t86.5 115.5q49 35 99.5 50.5t97.5 15.5q43 0 83 -10.5t70.5 -25t52.5 -29.5t30 -25q29 -33 39 -66t-25 -66q-27 -20 -57.5 -12t-59.5 37q-12 16 -45 29.5t-74 13.5q-29 0 -54 -6t-48 -29q-27 -23 -43 -60.5 t-16 -84.5v-277h182q33 0 57.5 -24.5t24.5 -59.5q0 -33 -24.5 -57.5t-57.5 -24.5h-182v-54v-28.5v-11.5v-4v-53q0 -104 -28 -185t-60 -135h8q84 0 143 -26.5t90 -55.5h-2q25 -23 53.5 -27.5t59.5 -4.5q35 0 66.5 10t54.5 25q27 16 49 36v-2q25 27 61.5 31t63.5 -18 q27 -23 27.5 -59t-21.5 -64q-2 -2 -23.5 -21.5t-59.5 -42t-93.5 -41t-124.5 -18.5q-84 0 -142.5 25.5t-93.5 54.5q-23 23 -50.5 29t-57.5 6q-37 0 -63.5 -8.5t-45 -17.5t-27.5 -17l-10 -9q-12 -12 -30.5 -20t-37 -9t-36 4t-29.5 17q-31 37 -18.5 71t51.5 75v-2l22 26 q18 20 42 51t44.5 76t35 107.5t14.5 150.5v51v2v7v25.5v53.5h-138q-35 0 -59.5 25t-24.5 57z" />
<glyph unicode="&#xa4;" d="M110.5 107.5q-8.5 27.5 14.5 60.5l143 166q-37 94 -37 217q0 66 8.5 122t28.5 105q-41 43 -51 56.5t-14 17.5h2l-70 86v-2q-23 23 -23.5 53.5t19.5 57.5q23 25 58.5 25.5t66.5 -28.5q25 -29 41 -47t27.5 -30.5t18.5 -20.5t15 -16l4 -2q53 55 124 79.5t163 24.5 q84 0 157 -28.5t128 -77.5q4 6 12 15t12 13q14 14 28.5 29.5t51.5 60.5q31 27 68 27t57 -24q23 -25 22 -55.5t-24 -53.5q-41 -47 -54 -64.5t-24 -29.5h2q-2 -4 -12 -17.5t-43 -48.5q16 -49 26.5 -107.5t10.5 -119.5q0 -125 -37 -219l129 -152q20 -20 13 -48t-26.5 -49.5 t-48 -29.5t-50.5 10l-111 125q-111 -100 -287 -100q-184 0 -291 100l-110 -125q-23 -18 -53.5 -16t-53 17.5t-31 43zM391 555q0 -51 11.5 -104.5t40 -96.5t78.5 -69.5t128 -26.5t127 26.5t78 69.5t39 96.5t10 104.5q0 45 -9 100.5t-36 103.5t-77 79.5t-132 31.5 q-84 0 -134 -31.5t-77.5 -79.5t-37 -103.5t-9.5 -100.5z" />
<glyph unicode="&#xa5;" d="M124 1459.5q9 33.5 38 51.5q27 16 61.5 7t50.5 -35l388 -582l385 582q18 29 53 37t61 -9q29 -18 38 -52t-9 -62l-434 -658h192q35 0 59.5 -23.5t24.5 -58.5t-24.5 -58.5t-59.5 -23.5h-203v-159h203q35 0 59.5 -24.5t24.5 -59.5q0 -33 -24.5 -57.5t-59.5 -24.5l-203 -2 v-187q0 -33 -24.5 -57t-58.5 -24q-35 0 -59.5 24.5t-24.5 56.5v189h-199q-35 0 -59.5 24.5t-24.5 57.5q0 35 24.5 59.5t59.5 24.5h199v159h-199q-35 0 -59.5 24t-24.5 58q0 35 24.5 58.5t59.5 23.5l186 2l-432 656q-18 29 -9 62.5z" />
<glyph unicode="&#xa6;" d="M582 -233v585q0 35 24.5 58.5t57.5 23.5q35 0 59.5 -23.5t24.5 -58.5v-585q0 -35 -25 -57.5t-59 -22.5q-33 0 -57.5 22.5t-24.5 57.5zM582 772v586q0 33 24.5 57.5t57.5 24.5q35 0 59.5 -24.5t24.5 -57.5v-586q0 -35 -25 -57.5t-59 -22.5q-33 0 -57.5 22.5t-24.5 57.5z " />
<glyph unicode="&#xa7;" d="M146.5 -110.5q3.5 34.5 31.5 57.5q29 20 62.5 15t52.5 -28q4 -4 20.5 -17t50 -26.5t86 -24.5t128.5 -11q170 0 250.5 44t80.5 121q0 27 -9 60t-45 64.5t-105.5 63.5t-190.5 58q-78 18 -149.5 46t-126 75t-85 115.5t-24.5 169.5q8 80 46 141t79 96q-29 45 -45 100.5 t-12 125.5q2 41 17 103t61.5 120.5t129 100.5t222.5 42q119 0 195.5 -30.5t121.5 -69.5t63.5 -72t20.5 -35q14 -31 1 -61.5t-46 -46.5q-29 -12 -59.5 1t-44.5 42q-2 4 -13.5 21.5t-39 36t-75.5 33.5t-124 15q-53 0 -101.5 -11t-84 -35.5t-57 -61.5t-21.5 -88 q0 -66 28.5 -110t69.5 -70.5t85 -41t77 -22.5q121 -27 210 -58.5t147 -75.5t86 -106.5t28 -150.5q0 -43 -12.5 -81t-31 -72t-41 -62.5t-42.5 -48.5q63 -76 63 -203q-2 -178 -128.5 -264t-368.5 -86q-111 0 -188 20.5t-125 46t-71.5 48t-27.5 28.5q-23 25 -19.5 59.5z M344 653q0 -57 20.5 -94t53.5 -59.5t71.5 -34.5t75.5 -21l31 -6q92 -23 168 -47t133 -57q29 29 51.5 68.5t22.5 101.5q0 27 -8.5 55.5t-42 57t-102 57t-187.5 55.5q-59 14 -117.5 32.5t-105.5 47.5q-29 -23 -46.5 -62.5t-17.5 -93.5z" />
<glyph unicode="&#xa8;" d="M381 1354q0 41 29.5 71.5t70.5 30.5q47 0 76 -30.5t29 -71.5q0 -43 -29 -74t-76 -31q-41 0 -70.5 31t-29.5 74zM741 1354q0 41 31 71.5t74 30.5q41 0 71.5 -30.5t30.5 -71.5q0 -43 -30.5 -74t-71.5 -31q-43 0 -74 31t-31 74z" />
<glyph unicode="&#xa9;" d="M16 651q0 133 51.5 252t139.5 207t205.5 139t253.5 51q135 0 253.5 -51t206.5 -139t139.5 -207t51.5 -252q0 -135 -51.5 -252.5t-139.5 -207t-206.5 -140.5t-253.5 -51t-253 51t-206 140.5t-139.5 207t-51.5 252.5zM170 655q0 -104 39 -195t106.5 -159t157.5 -106.5 t193 -38.5q102 0 192 38.5t157.5 106.5t106.5 159t39 195q0 102 -39 192.5t-106.5 158t-157.5 106.5t-192 39t-192.5 -39t-158 -106.5t-106.5 -158t-39 -192.5zM330 649q0 88 24.5 161t68.5 125t105.5 79.5t137.5 27.5q74 0 124 -10t80.5 -24.5t46 -26.5t19.5 -16 q14 -31 12 -65t-28 -56q-25 -16 -53.5 -12t-49.5 26q-2 4 -32.5 16.5t-118.5 12.5q-49 0 -84 -20.5t-56.5 -54.5t-32 -77t-10.5 -86q0 -25 5.5 -61.5t24.5 -72.5t55 -60.5t98 -24.5q82 0 111.5 10.5t29.5 12.5q18 37 49 45t59 -6q29 -18 32 -49t-7 -60q-4 -4 -18.5 -21.5 t-46 -36t-82.5 -34t-127 -15.5q-78 0 -139.5 27t-105.5 75t-67.5 116.5t-23.5 154.5z" />
<glyph unicode="&#xaa;" d="M334 1092q0 39 12 75.5t40 66.5t74 47t115 17q59 0 88 -8t46 -16v20q0 2 -3.5 12.5t-13.5 22.5t-29.5 22.5t-50.5 10.5q-27 0 -47 -2t-35 -6l-30 -6q-29 -12 -58 2v-23q-29 43 -31.5 87t19.5 56q4 4 53 20.5t129 16.5q63 0 109.5 -21.5t76 -53t44 -69.5t14.5 -69v-264 q29 -4 48.5 -25.5t19.5 -48.5q0 -29 -20.5 -51t-55.5 -22q-4 0 -23.5 2t-44.5 12h2q-10 4 -18 10t-14 13q-35 -14 -87.5 -25.5t-107.5 -11.5q-61 0 -103 18.5t-68 48t-38 66.5t-12 76zM477 1092q0 -20 15.5 -41t62.5 -21q53 0 91 10.5t63 22.5v78q-49 12 -119 12 q-41 0 -63.5 -5t-33 -13.5t-13.5 -19.5t-3 -23z" />
<glyph unicode="&#xab;" d="M94 520q0 41 25 66v-2q53 61 106.5 121.5t108.5 121.5l141 164q31 29 68 29t57 -27q20 -23 20.5 -53.5t-22.5 -52.5l-160 -189l-151 -178q72 -84 153.5 -178t153.5 -180q23 -20 26 -52t-20 -59l2 2q-10 -16 -28.5 -24.5t-34.5 -8.5q-14 0 -29.5 7.5t-26.5 17.5l-364 418 q-25 29 -25 57zM580 520q0 16 7 31.5t13 26.5q45 53 91 107t93 108l185 211q29 23 60.5 19.5t53.5 -30.5q20 -23 19.5 -53.5t-17.5 -52.5l-309 -367q72 -86 154 -181t153 -181v2q20 -20 21.5 -50t-19.5 -59q-10 -12 -25.5 -21.5t-35.5 -9.5q-33 0 -57 25l-369 424 q-18 29 -18 51z" />
<glyph unicode="&#xac;" d="M285 848q0 33 24.5 57.5t59.5 24.5h571q33 0 57.5 -24.5t24.5 -57.5v-328q0 -33 -24.5 -57.5t-57.5 -24.5q-35 0 -59.5 24.5t-24.5 57.5v246h-487q-35 0 -59.5 23.5t-24.5 58.5z" />
<glyph unicode="&#xad;" d="M289 614q0 35 24.5 59.5t59.5 24.5h569q35 0 59.5 -24.5t24.5 -59.5q0 -33 -24.5 -57.5t-59.5 -24.5h-569q-35 0 -59.5 25t-24.5 57z" />
<glyph unicode="&#xae;" d="M16 651q0 133 51.5 252t139.5 207t205.5 139t253.5 51q135 0 253.5 -51t206.5 -139t139.5 -207t51.5 -252q0 -135 -51.5 -252.5t-139.5 -207t-206.5 -140.5t-253.5 -51t-253 51t-206 140.5t-139.5 207t-51.5 252.5zM170 655q0 -104 39 -195t106.5 -159t157.5 -106.5 t193 -38.5q102 0 192 38.5t157.5 106.5t106.5 159t39 195q0 102 -39 192.5t-106.5 158t-157.5 106.5t-192 39t-192.5 -39t-158 -106.5t-106.5 -158t-39 -192.5zM422 354v609q0 29 19.5 48t47.5 19h189q88 0 140 -27.5t78 -65.5t33 -76t7 -58q0 -25 -4 -53.5t-16.5 -57 t-33 -55.5t-53.5 -47l97 -199q12 -31 2 -58.5t-35 -37.5h2q-6 -4 -12 -6t-17 -2q-16 0 -32.5 12t-26.5 29q-29 57 -54.5 109t-54.5 110h-141v-193q0 -25 -20.5 -46t-47.5 -21q-29 0 -48 21.5t-19 45.5zM557 684h121q43 0 67.5 16.5t36 37t14.5 40t3 25.5q0 31 -22.5 60.5 t-98.5 29.5h-121v-209z" />
<glyph unicode="&#xaf;" d="M289 1763q0 35 24.5 58.5t59.5 23.5h569q35 0 59.5 -23.5t24.5 -58.5q0 -33 -24.5 -57.5t-59.5 -24.5h-569q-35 0 -59.5 25t-24.5 57z" />
<glyph unicode="&#xb0;" d="M387 1227q0 55 21.5 105t59.5 88t88 59.5t106 21.5q57 0 107 -21.5t87 -59.5t58.5 -88t21.5 -105t-21.5 -105.5t-58.5 -87.5t-87 -58.5t-107 -21.5q-55 0 -105.5 21.5t-88.5 58.5t-59.5 87t-21.5 106zM541 1227q0 -49 34.5 -85t86.5 -36q51 0 85.5 36t34.5 85 q0 51 -34.5 87t-85.5 36t-86 -36t-35 -87z" />
<glyph unicode="&#xb1;" d="M233 705q0 35 24 59t58 24h267v269q0 33 24.5 56.5t57.5 23.5q35 0 59.5 -23.5t24.5 -56.5v-269h266q33 0 57.5 -24.5t24.5 -58.5q0 -33 -24.5 -57.5t-57.5 -24.5h-266v-267q0 -33 -25 -57.5t-59 -24.5q-33 0 -57.5 25t-24.5 57v267h-267q-35 0 -58.5 24.5t-23.5 57.5z M262 82q0 35 23.5 58.5t58.5 23.5h627q35 0 58.5 -23.5t23.5 -58.5q0 -33 -23.5 -57.5t-58.5 -24.5h-627q-35 0 -58.5 24.5t-23.5 57.5z" />
<glyph unicode="&#xb2;" d="M283 851.5q-2 20.5 20 43.5v-2q29 33 50.5 54.5t40 37.5t38 33.5t45.5 40.5l96 80l19 14l-2 -2q47 37 76.5 66.5t29.5 58.5q0 20 -4 38.5t-17 33t-39 22.5t-67 8q-47 0 -72.5 -18.5t-41.5 -36.5q-16 -27 -42 -33t-55 4q-27 16 -39 39t11 53q8 12 25.5 32t46 40.5 t69.5 34.5t96 14q131 0 196.5 -55t65.5 -172q0 -63 -47 -123.5t-133 -126.5q-41 -37 -72.5 -62.5t-54.5 -41.5h264q31 0 51.5 -21.5t20.5 -48.5q0 -29 -20.5 -50.5t-51.5 -21.5h-426q-16 0 -35.5 5.5t-35.5 39.5v-2q-4 4 -6 24.5z" />
<glyph unicode="&#xb3;" d="M322 874q-6 23 1 50.5t29 40.5q25 16 51.5 6t36.5 -33q12 -14 37 -24.5t66 -10.5q53 0 86 25.5t33 60.5q0 29 -15.5 47.5t-36 29.5t-44 15t-38.5 4q-23 0 -43 18.5t-20 53.5q0 33 20.5 50.5t42.5 17.5q10 0 30 3t38 12t32.5 26.5t14.5 46.5q0 35 -32.5 45t-65.5 10 q-47 0 -71.5 -13.5t-31.5 -19.5v2q-14 -20 -41.5 -25t-50.5 7q-18 12 -24.5 39.5t4.5 52.5q2 4 13 19.5t35.5 31t64.5 27.5t100 12q43 0 86 -11t76.5 -34.5t54 -59.5t20.5 -83q0 -57 -23.5 -91t-62.5 -57q45 -20 76 -69t31 -109q0 -100 -71 -161.5t-187 -61.5 q-57 0 -98.5 15.5t-68 35t-39.5 36.5t-15 23z" />
<glyph unicode="&#xb4;" d="M467.5 1294.5q3.5 32.5 26.5 55.5l157 147q23 23 54.5 21t54.5 -27q20 -23 18 -53.5t-24 -53.5l-158 -147h2q-10 -10 -25.5 -15t-27.5 -5q-35 0 -58 22q-23 23 -19.5 55.5z" />
<glyph unicode="&#xb5;" d="M236 -229v1038v12t2 10v187q0 35 24.5 58.5t56.5 23.5q35 0 58.5 -23.5t23.5 -58.5v-588q0 -51 15.5 -99t44 -85t71.5 -59.5t97 -22.5h65q109 0 176.5 74.5t67.5 191.5v588q0 35 24.5 58.5t57.5 23.5t57.5 -23.5t24.5 -58.5v-936q0 -35 -24.5 -58.5t-57.5 -23.5 t-57.5 23.5t-24.5 58.5v22q-43 -57 -109.5 -80.5t-134.5 -23.5h-65q-72 0 -126 24.5t-104 79.5v-333q0 -33 -23.5 -56.5t-58.5 -23.5q-33 0 -57 23.5t-24 56.5z" />
<glyph unicode="&#xb6;" horiz-adv-x="1705" d="M279 1034q0 104 24.5 190.5t68.5 148t108.5 95t144.5 33.5h643q35 0 58.5 -24.5t23.5 -57.5q0 -35 -23.5 -58.5t-58.5 -23.5h-76v-1439q0 -33 -24.5 -57.5t-57.5 -24.5q-35 0 -59.5 24.5t-24.5 57.5v1439h-254v-1439q0 -33 -23.5 -57.5t-58.5 -24.5q-33 0 -57.5 24.5 t-24.5 57.5v669q-74 6 -135 43t-104 99.5t-66.5 145.5t-23.5 179z" />
<glyph unicode="&#xb7;" d="M516 702q0 61 43.5 104.5t104.5 43.5t104 -43t43 -105q0 -61 -43 -104t-104 -43t-104.5 43t-43.5 104z" />
<glyph unicode="&#xb8;" d="M594 39q0 29 20.5 49.5t49.5 20.5t49 -20.5t20 -49.5v-47q16 -6 37 -16.5t37 -24.5q20 -18 39.5 -54t19.5 -90q0 -53 -19.5 -88.5t-39.5 -52.5h2q-35 -35 -77 -43t-60 -8h-15q-29 2 -47 25.5t-16 52.5t23.5 48t54.5 17q6 -2 17 0t22 11q2 2 7 10t5 28t-5 26.5t-7 10.5 q-10 10 -23.5 12.5t-19.5 2.5q-33 0 -66 26q-8 12 -8 43v111z" />
<glyph unicode="&#xb9;" d="M319 854q0 35 21.5 56.5t56.5 21.5h95v356l-41 -28q-18 -14 -44 -17.5t-49 23.5q-41 55 15 98q37 29 72.5 59.5t70.5 59.5q35 27 76 8q23 -12 24.5 -23.5t1.5 -27.5v-508h99q37 0 58.5 -21.5t21.5 -56.5t-21.5 -53.5t-58.5 -18.5h-320q-35 0 -56.5 18.5t-21.5 53.5z" />
<glyph unicode="&#xba;" d="M342 1198q0 154 76 241t207 87q133 0 208.5 -87t75.5 -241q0 -147 -75.5 -229t-208.5 -82q-131 0 -207 82t-76 229zM489 1198q0 -29 6.5 -57.5t21.5 -52t41 -39t67 -15.5t66.5 15.5t41 39t21.5 52t6 57.5q0 25 -5 56.5t-19.5 58t-41 45t-69.5 18.5t-70 -18.5t-41 -45 t-19.5 -58t-5.5 -56.5z" />
<glyph unicode="&#xbb;" d="M227.5 941.5q-2.5 31.5 20.5 53.5v-2q23 29 55.5 31t61.5 -20q45 -53 90 -105.5t92 -105.5t93 -105.5t89 -105.5q10 -10 17.5 -27.5t7.5 -34.5q0 -14 -5.5 -26.5t-15.5 -28.5l-366 -420q-25 -25 -58 -25q-20 0 -35.5 9.5t-25.5 21.5q-16 25 -15.5 56.5t15.5 50.5 q78 92 154.5 181t154.5 181l-309 367q-18 23 -20.5 54.5zM713.5 109.5q3.5 31.5 25.5 52.5l308 358q-41 47 -78 89t-76 89l-156 189v-2q-23 23 -23.5 53.5t19.5 54.5q23 27 58.5 27t66.5 -29l141 -164q53 -59 108.5 -121.5t106.5 -121.5v2q25 -25 25 -66q0 -31 -10 -45 l-379 -430q-10 -10 -25.5 -17.5t-29.5 -7.5q-16 0 -35 8.5t-29 24.5l2 -2q-23 27 -19.5 58.5z" />
<glyph unicode="&#xbc;" d="M111 854q0 35 21.5 56.5t55.5 21.5h70v356l-41 -28q-16 -14 -43 -17.5t-49 23.5q-39 55 14 98q37 29 73 59.5t73 59.5q33 27 73 8q23 -12 26 -23.5t3 -27.5v-508h74q35 0 56.5 -21.5t21.5 -56.5t-21.5 -53.5t-56.5 -18.5h-273q-35 0 -56 18.5t-21 53.5zM157 60 q-7 34 9 63l778 1243q16 29 49 37t60 -8l2 -2q27 -18 34 -51t-10 -60l-774 -1243v2q-8 -18 -22.5 -27.5t-28.5 -13.5q-33 -4 -61 6q-29 20 -36 54zM633 286q2 21 12 40l260 413q20 29 46 37t57 -12q31 -23 31.5 -45.5t-15.5 -50.5l-188 -310h172v107q0 74 69 74 q37 0 52.5 -19.5t15.5 -54.5v-107h41q35 0 51 -19.5t18 -51.5q4 -29 -14 -50.5t-55 -21.5h-41v-147q0 -35 -15.5 -54.5t-52.5 -19.5t-53 19.5t-16 54.5v147h-299q-23 0 -38.5 3t-27.5 24q-12 23 -10 44z" />
<glyph unicode="&#xbd;" d="M111 854q0 35 21.5 56.5t55.5 21.5h70v356l-41 -28q-16 -14 -43 -17.5t-49 23.5q-39 55 14 98q37 29 73 59.5t73 59.5q33 27 73 8q23 -12 26 -23.5t3 -27.5v-508h74q35 0 56.5 -21.5t21.5 -56.5t-21.5 -53.5t-56.5 -18.5h-273q-35 0 -56 18.5t-21 53.5zM159 60 q-7 34 9 63l778 1243q16 29 49 37t60 -8l2 -2q27 -18 34 -51t-10 -60l-774 -1243v2q-8 -18 -22.5 -27.5t-28.5 -13.5q-33 -4 -61 6q-29 20 -36 54zM700.5 72.5q-2.5 21.5 18.5 44.5q27 31 48 53.5t39.5 40.5t38 34.5t42.5 35.5q27 23 56.5 45t53.5 45l19 14q43 37 67.5 61.5 t24.5 53.5q0 23 -4 42t-16.5 32.5t-37 20.5t-65.5 7q-45 0 -67.5 -18.5t-38.5 -38.5h-2q-14 -23 -42 -31t-57 2q-27 12 -40 39t7 57q8 12 25.5 35t47.5 45.5t71 40t96 17.5q131 0 204 -57.5t73 -192.5q0 -66 -45.5 -121t-133.5 -123q-45 -37 -78.5 -64.5t-56.5 -44.5h260 q31 0 51.5 -22.5t20.5 -50.5q0 -27 -20.5 -50.5t-51.5 -23.5h-432q-16 0 -35.5 6t-35.5 41q-2 4 -4.5 25.5z" />
<glyph unicode="&#xbe;" d="M88 874q-6 23 1 50.5t30 40.5q25 16 52.5 6t35.5 -33q12 -14 36.5 -24.5t65.5 -10.5q55 0 87 25.5t32 60.5q0 29 -15.5 47.5t-36 29.5t-44 15t-37.5 4q-23 0 -43.5 18.5t-20.5 53.5q0 33 20.5 50.5t43.5 17.5q10 0 29.5 3t38 12t33 26.5t14.5 46.5q0 35 -33 45t-66 10 q-47 0 -71.5 -13.5t-30.5 -19.5v2q-14 -20 -42 -25t-50 7q-18 12 -24.5 39.5t3.5 52.5q2 4 14.5 19.5t37 31t63.5 27.5t98 12q43 0 86 -11t77 -34.5t54.5 -59.5t20.5 -83q0 -57 -23.5 -91t-62.5 -57q45 -20 76.5 -69t31.5 -109q0 -100 -71.5 -161.5t-188.5 -61.5 q-57 0 -98 15.5t-67.5 35t-40 36.5t-15.5 23zM148 60q-7 34 10 63l778 1243q16 29 49 37t59 -8l3 -2q27 -18 33.5 -51t-9.5 -60l-774 -1243v2q-8 -18 -22.5 -27.5t-28.5 -13.5q-33 -4 -62 6q-29 20 -36 54zM633 286q2 21 12 40l260 413q20 29 46 37t57 -12 q29 -23 30.5 -45.5t-14.5 -50.5l-188 -310h172v107q0 74 69 74q37 0 52.5 -19.5t15.5 -54.5v-107h41q35 0 51 -19.5t18 -51.5q4 -29 -15 -50.5t-54 -21.5h-41v-147q0 -35 -15.5 -54.5t-52.5 -19.5t-53 19.5t-16 54.5v147h-299q-23 0 -38.5 3t-27.5 24q-12 23 -10 44z" />
<glyph unicode="&#xbf;" d="M223 51q-6 98 21.5 176t80 134.5t123 94.5t150.5 56v186q0 41 26.5 61.5t55.5 20.5q31 0 55.5 -20.5t24.5 -61.5v-256q0 -27 -12.5 -42t-30 -24t-39 -12.5t-39.5 -5.5q-6 0 -11 -1t-10 -1q-29 -6 -69.5 -25.5t-77.5 -54t-61.5 -87t-22.5 -123.5q14 -100 82 -155.5 t193 -55.5q74 0 123 15t78.5 33.5t43 35t15.5 20.5q14 29 45.5 43t60.5 0q31 -16 44 -47t-1 -64q-2 -4 -21.5 -35.5t-65.5 -69.5t-125 -68.5t-197 -30.5q-135 0 -219.5 41t-132.5 99t-65.5 120.5t-21.5 103.5zM545 1040q0 53 40 93.5t93 40.5q55 0 95 -40t40 -94 q0 -53 -40 -94t-95 -41q-53 0 -93 41t-40 94z" />
<glyph unicode="&#xc0;" d="M119 88q104 352 181 595t132 399.5t92 241.5t63.5 125t43 46t33.5 6q16 0 33.5 -6t44 -46t63.5 -125t93 -241.5t133 -399.5t181 -595q10 -31 -8 -62.5t-51 -41.5q-31 -8 -61.5 9t-40.5 50l-90 295l-46 156h-501l-45 -156l-90 -295q-10 -29 -33 -45t-47 -16h-12.5t-12.5 2 h2q-33 10 -50 40.5t-7 63.5zM467 657h395q-59 190 -111.5 344t-86.5 242q-37 -96 -87.5 -245.5t-109.5 -340.5zM548 1787q-3 32 19 52q23 25 53.5 27t53.5 -21l160 -147q20 -23 18 -58.5t-25 -64.5q-10 -10 -45 -10q-33 0 -53 20h2l-160 150q-20 20 -23 52z" />
<glyph unicode="&#xc1;" d="M119 88q104 352 181 595t132 399.5t92 241.5t63.5 125t43 46t33.5 6q16 0 33.5 -6t44 -46t63.5 -125t93 -241.5t133 -399.5t181 -595q10 -31 -8 -62.5t-51 -41.5q-31 -8 -61.5 9t-40.5 50l-90 295l-46 156h-501l-45 -156l-90 -295q-10 -29 -33 -45t-47 -16h-12.5t-12.5 2 h2q-33 10 -50 40.5t-7 63.5zM467 657h395q-59 190 -111.5 344t-86.5 242q-37 -96 -87.5 -245.5t-109.5 -340.5zM467 1643.5q2 31.5 25 54.5l159 147q23 23 53.5 21t53.5 -27q23 -20 19.5 -52t-23.5 -52l-160 -150h2q-20 -20 -53 -20q-35 0 -58 22q-20 25 -18 56.5z" />
<glyph unicode="&#xc2;" d="M119 88q104 352 181 595t132 399.5t92 241.5t63.5 125t43 46t33.5 6q16 0 33.5 -6t44 -46t63.5 -125t93 -241.5t133 -399.5t181 -595q10 -31 -8 -62.5t-51 -41.5q-31 -8 -61.5 9t-40.5 50l-90 295l-46 156h-501l-45 -156l-90 -295q-10 -29 -33 -45t-47 -16h-12.5t-12.5 2 h2q-33 10 -50 40.5t-7 63.5zM392.5 1636.5q2.5 30.5 27.5 51.5l198 153q47 33 95 0l196 -153q23 -16 27 -48t-12 -59q-25 -31 -62 -31q-25 0 -43 13l-155 123l-150 -119q-27 -18 -57.5 -14.5t-48.5 28.5t-15.5 55.5zM467 657h395q-59 190 -111.5 344t-86.5 242 q-37 -96 -87.5 -245.5t-109.5 -340.5z" />
<glyph unicode="&#xc3;" d="M119 88q104 352 181 595t132 399.5t92 241.5t63.5 125t43 46t33.5 6q16 0 33.5 -6t44 -46t63.5 -125t93 -241.5t133 -399.5t181 -595q10 -31 -8 -62.5t-51 -41.5q-31 -8 -61.5 9t-40.5 50l-90 295l-46 156h-501l-45 -156l-90 -295q-10 -29 -33 -45t-47 -16h-12.5t-12.5 2 h2q-33 10 -50 40.5t-7 63.5zM303 1692q8 18 25.5 41.5t43 44t61.5 35t83 14.5q59 0 109.5 -17.5t91.5 -33.5q35 -16 67.5 -27.5t71.5 -11.5q18 0 35.5 9t30.5 19q14 12 26 29h-2q20 27 51 32t58 -14h-2q29 -16 34 -48.5t-16 -57.5l4 4q0 -2 -16.5 -21.5t-45 -43t-68.5 -42 t-89 -18.5q-59 0 -108.5 17.5t-90.5 33.5q-37 16 -68.5 26.5t-72.5 10.5q-37 0 -49 -12t-14 -16q-16 -35 -48 -50.5t-61 -1.5q-29 10 -40 39t-1 60zM467 657h395q-59 190 -111.5 344t-86.5 242q-37 -96 -87.5 -245.5t-109.5 -340.5z" />
<glyph unicode="&#xc4;" d="M119 88q104 352 181 595t132 399.5t92 241.5t63.5 125t43 46t33.5 6q16 0 33.5 -6t44 -46t63.5 -125t93 -241.5t133 -399.5t181 -595q10 -31 -8 -62.5t-51 -41.5q-31 -8 -61.5 9t-40.5 50l-90 295l-46 156h-501l-45 -156l-90 -295q-10 -29 -33 -45t-47 -16h-12.5t-12.5 2 h2q-33 10 -50 40.5t-7 63.5zM387 1704q0 41 31 72.5t71 31.5q47 0 76 -31.5t29 -72.5q0 -43 -29 -74t-76 -31q-41 0 -71.5 31t-30.5 74zM467 657h395q-59 190 -111.5 344t-86.5 242q-37 -96 -87.5 -245.5t-109.5 -340.5zM750 1704q0 41 30.5 72.5t71.5 31.5q43 0 73.5 -31.5 t30.5 -72.5q0 -43 -30.5 -74t-73.5 -31q-41 0 -71.5 31t-30.5 74z" />
<glyph unicode="&#xc5;" d="M119 88q102 350 178 591t131 398.5t92 243.5t62 127q-35 18 -54.5 55t-19.5 78q0 33 12 61.5t33.5 50t51.5 34t63 12.5t62.5 -12.5t51 -34t33.5 -50t12 -61.5q0 -43 -22.5 -80t-56.5 -55q25 -41 61.5 -127t91.5 -242.5t131 -397.5t180 -591q10 -33 -7 -63.5t-52 -40.5 q-33 -10 -62.5 7t-39.5 52q-35 117 -69 225.5t-69 225.5h-499l-135 -451q-8 -29 -31 -45t-49 -16h-12.5t-12.5 2h2q-33 10 -50 40.5t-7 63.5zM467 657h395q-59 190 -111.5 344t-86.5 242q-37 -96 -87.5 -245.5t-109.5 -340.5zM618 1581q0 -23 14.5 -36t35.5 -13 q20 0 34.5 13.5t14.5 35.5q0 23 -14.5 37t-34.5 14t-35 -14t-15 -37z" />
<glyph unicode="&#xc6;" horiz-adv-x="1705" d="M381 82v946q0 39 22 57v-2q25 27 60 27h762q35 0 59 -27v2q23 -18 23 -57v-946q0 -33 -23.5 -57.5t-58.5 -24.5h-762q-35 0 -58.5 24.5t-23.5 57.5zM545 164h598v782h-598v-782z" />
<glyph unicode="&#xc7;" d="M150 750q0 135 39.5 270t113.5 241.5t179.5 173t238.5 66.5q121 0 202 -25.5t130 -56t70.5 -59.5t25.5 -35q16 -31 7 -63.5t-38 -49.5q-31 -16 -63.5 -7t-48.5 38q-2 2 -15.5 16.5t-46.5 32t-87 30.5t-136 13q-74 0 -146.5 -41t-131 -116.5t-94.5 -184t-36 -243.5 q0 -57 6.5 -124t21.5 -134.5t44 -130t74 -111.5t109.5 -78t152.5 -29q94 0 156.5 23.5t99.5 51.5t52 52l15 23q14 29 47 43t62 0q31 -14 43 -47t0 -62q-2 -6 -24.5 -44t-73.5 -81t-134 -79.5t-206 -42.5q10 -6 21.5 -13.5t21.5 -15.5q20 -18 38.5 -54t18.5 -90 q0 -53 -18.5 -88.5t-38.5 -52.5h2q-35 -35 -77 -43t-60 -8h-15q-29 2 -48 25.5t-17 52.5t24.5 48t55.5 17q4 -2 16 0t23 11q2 2 7 10t5 28t-5 26.5t-7 10.5q-10 10 -23.5 12.5t-19.5 2.5q-33 0 -66 26q-10 10 -10 43v64q-211 47 -323.5 242.5t-112.5 515.5z" />
<glyph unicode="&#xc8;" d="M221 82v1335q0 35 24.5 59.5t59.5 24.5h778q35 0 59.5 -24.5t24.5 -59.5t-24.5 -58.5t-59.5 -23.5h-694v-501h494q35 0 59.5 -25t24.5 -59q0 -35 -24.5 -58.5t-59.5 -23.5h-494v-502h694q35 0 59.5 -24.5t24.5 -59.5q0 -33 -24.5 -57.5t-59.5 -24.5h-778 q-35 0 -59.5 24.5t-24.5 57.5zM484.5 1787q-3.5 32 17.5 52q23 25 54.5 27t53.5 -21l160 -147q20 -23 18 -58.5t-24 -64.5q-10 -10 -45 -10q-33 0 -53 20h2l-160 150q-20 20 -23.5 52z" />
<glyph unicode="&#xc9;" d="M221 82v1335q0 35 24.5 59.5t59.5 24.5h778q35 0 59.5 -24.5t24.5 -59.5t-24.5 -58.5t-59.5 -23.5h-694v-501h494q35 0 59.5 -25t24.5 -59q0 -35 -24.5 -58.5t-59.5 -23.5h-494v-502h694q35 0 59.5 -24.5t24.5 -59.5q0 -33 -24.5 -57.5t-59.5 -24.5h-778 q-35 0 -59.5 24.5t-24.5 57.5zM525 1643.5q3 31.5 26 54.5l158 147q23 23 54.5 21t53.5 -27q20 -20 18.5 -52t-24.5 -52l-158 -150h2q-10 -10 -25.5 -15t-29.5 -5q-33 0 -55 22q-23 25 -20 56.5z" />
<glyph unicode="&#xca;" d="M221 82v1335q0 35 24.5 59.5t59.5 24.5h778q35 0 59.5 -24.5t24.5 -59.5t-24.5 -58.5t-59.5 -23.5h-694v-501h494q35 0 59.5 -25t24.5 -59q0 -35 -24.5 -58.5t-59.5 -23.5h-494v-502h694q35 0 59.5 -24.5t24.5 -59.5q0 -33 -24.5 -57.5t-59.5 -24.5h-778 q-35 0 -59.5 24.5t-24.5 57.5zM412 1636.5q4 30.5 28 51.5l199 153q47 33 94 0l197 -153q23 -16 27 -48t-13 -59q-24 -31 -61 -31q-25 0 -43 13l-156 123l-149 -119q-27 -18 -58 -14.5t-49 28.5q-20 25 -16 55.5z" />
<glyph unicode="&#xcb;" d="M221 82v1335q0 35 24.5 59.5t59.5 24.5h778q35 0 59.5 -24.5t24.5 -59.5t-24.5 -58.5t-59.5 -23.5h-694v-501h494q35 0 59.5 -25t24.5 -59q0 -35 -24.5 -58.5t-59.5 -23.5h-494v-502h694q35 0 59.5 -24.5t24.5 -59.5q0 -33 -24.5 -57.5t-59.5 -24.5h-778 q-35 0 -59.5 24.5t-24.5 57.5zM422 1704q0 41 30.5 72.5t71.5 31.5q47 0 76 -31.5t29 -72.5q0 -43 -29 -74t-76 -31q-41 0 -71.5 31t-30.5 74zM782 1704q0 41 32 72.5t73 31.5q43 0 73.5 -31.5t30.5 -72.5q0 -43 -30.5 -74t-73.5 -31q-41 0 -73 31t-32 74z" />
<glyph unicode="&#xcc;" d="M221 82q0 35 24.5 59.5t57.5 24.5h272v1169h-272q-33 0 -57.5 23.5t-24.5 58.5t24.5 59.5t57.5 24.5h713q35 0 59.5 -24.5t24.5 -59.5t-24.5 -58.5t-59.5 -23.5h-273v-1169h273q35 0 59.5 -24.5t24.5 -59.5q0 -33 -24.5 -57.5t-59.5 -24.5h-713q-33 0 -57.5 24.5 t-24.5 57.5zM456 1787q-3 32 19 52q23 25 53.5 27t53.5 -21l159 -147q20 -23 18.5 -58.5t-24.5 -64.5q-10 -10 -45 -10q-33 0 -53 20h2l-160 150q-20 20 -23 52z" />
<glyph unicode="&#xcd;" d="M221 82q0 35 24.5 59.5t57.5 24.5h272v1169h-272q-33 0 -57.5 23.5t-24.5 58.5t24.5 59.5t57.5 24.5h713q35 0 59.5 -24.5t24.5 -59.5t-24.5 -58.5t-59.5 -23.5h-273v-1169h273q35 0 59.5 -24.5t24.5 -59.5q0 -33 -24.5 -57.5t-59.5 -24.5h-713q-33 0 -57.5 24.5 t-24.5 57.5zM555 1643.5q2 31.5 25 54.5l159 147q23 23 54.5 21t54.5 -27q18 -20 16 -52t-22 -52l-160 -150h2q-20 -20 -53 -20q-35 0 -58 22q-20 25 -18 56.5z" />
<glyph unicode="&#xce;" d="M221 82q0 35 24.5 59.5t57.5 24.5h272v1169h-272q-33 0 -57.5 23.5t-24.5 58.5t24.5 59.5t57.5 24.5h713q35 0 59.5 -24.5t24.5 -59.5t-24.5 -58.5t-59.5 -23.5h-273v-1169h273q35 0 59.5 -24.5t24.5 -59.5q0 -33 -24.5 -57.5t-59.5 -24.5h-713q-33 0 -57.5 24.5 t-24.5 57.5zM388 1636.5q3 30.5 28 51.5l198 153q47 33 95 0l196 -153q23 -16 27 -48t-12 -59q-25 -31 -62 -31q-25 0 -43 13l-153 123l-152 -119q-27 -18 -57.5 -14.5t-49.5 28.5q-18 25 -15 55.5z" />
<glyph unicode="&#xcf;" d="M221 82q0 35 24.5 59.5t57.5 24.5h272v1169h-272q-33 0 -57.5 23.5t-24.5 58.5t24.5 59.5t57.5 24.5h713q35 0 59.5 -24.5t24.5 -59.5t-24.5 -58.5t-59.5 -23.5h-273v-1169h273q35 0 59.5 -24.5t24.5 -59.5q0 -33 -24.5 -57.5t-59.5 -24.5h-713q-33 0 -57.5 24.5 t-24.5 57.5zM381 1704q0 41 29.5 72.5t70.5 31.5q47 0 76 -31.5t29 -72.5q0 -43 -29 -74t-76 -31q-41 0 -70.5 31t-29.5 74zM741 1704q0 41 31 72.5t74 31.5q41 0 71.5 -31.5t30.5 -72.5q0 -43 -30.5 -74t-71.5 -31q-43 0 -74 31t-31 74z" />
<glyph unicode="&#xd0;" d="M18 764q0 33 25 57.5t57 24.5h90v571q0 35 25 59.5t59 24.5h377q135 0 241.5 -65.5t180.5 -171t113 -240.5t39 -274q0 -176 -39 -315.5t-113 -236t-180.5 -147.5t-241.5 -51h-377q-35 0 -59.5 24.5t-24.5 57.5v600h-90q-33 0 -57.5 23.5t-24.5 58.5zM358 166h293 q133 0 214 60.5t124 149.5t56.5 190.5t13.5 183.5q0 106 -27.5 210.5t-81 187.5t-129.5 135t-170 52h-293v-489h314q35 0 58.5 -24.5t23.5 -57.5q0 -35 -23.5 -58.5t-58.5 -23.5h-314v-516z" />
<glyph unicode="&#xd1;" d="M195 59v1360q0 27 16 48.5t45 31.5q25 6 51.5 -5t40.5 -36l625 -1087v1048q0 33 24.5 57.5t57.5 24.5q35 0 58.5 -24.5t23.5 -57.5v-1360q0 -29 -16.5 -50t-43.5 -29h2q-4 -2 -11 -2.5t-13 -0.5q-20 0 -41 11.5t-31 31.5l-623 1086v-1047q0 -33 -24.5 -57.5t-59.5 -24.5 t-58 25t-23 57zM274 1692q8 18 24.5 41.5t43.5 44t62.5 35t80.5 14.5q61 0 110.5 -17.5t90.5 -33.5q37 -16 68.5 -27.5t72.5 -11.5q18 0 35 9t29 19q14 12 29 29h-2q20 27 49.5 32t58.5 -14h-2q27 -16 32 -48.5t-16 -57.5l4 4q0 -2 -16 -21.5t-45 -43t-68 -42t-88 -18.5 q-59 0 -109 17.5t-91 33.5q-37 16 -69 26.5t-73 10.5q-37 0 -49 -12t-14 -16q-16 -35 -48 -50.5t-61 -1.5q-27 10 -38 39t-1 60z" />
<glyph unicode="&#xd2;" d="M92 750q0 184 38 328.5t110.5 242.5t179 150.5t244.5 52.5q33 0 88 -7.5t118.5 -34t129 -76.5t117.5 -136t85 -214t33 -306q0 -369 -148.5 -571t-422.5 -202q-178 0 -289 71t-174.5 183.5t-86 248.5t-22.5 270zM256 750q0 -152 23.5 -255.5t60.5 -171t83 -104.5t91 -53 t85 -19.5t65 -3.5q70 0 141.5 25t129.5 91.5t96 184t38 306.5q0 137 -21.5 235t-56.5 166t-79 108.5t-89 62t-86.5 29t-72.5 7.5q-133 0 -213 -62.5t-123 -155.5t-57.5 -198.5t-14.5 -191.5zM456 1787q-3 32 19 52q23 25 53.5 27t53.5 -21l159 -147q20 -23 18.5 -58.5 t-24.5 -64.5q-10 -10 -45 -10q-33 0 -53 20h2l-160 150q-20 20 -23 52z" />
<glyph unicode="&#xd3;" d="M92 750q0 184 38 328.5t110.5 242.5t179 150.5t244.5 52.5q33 0 88 -7.5t118.5 -34t129 -76.5t117.5 -136t85 -214t33 -306q0 -369 -148.5 -571t-422.5 -202q-178 0 -289 71t-174.5 183.5t-86 248.5t-22.5 270zM256 750q0 -152 23.5 -255.5t60.5 -171t83 -104.5t91 -53 t85 -19.5t65 -3.5q70 0 141.5 25t129.5 91.5t96 184t38 306.5q0 137 -21.5 235t-56.5 166t-79 108.5t-89 62t-86.5 29t-72.5 7.5q-133 0 -213 -62.5t-123 -155.5t-57.5 -198.5t-14.5 -191.5zM512.5 1643.5q3.5 31.5 26.5 54.5l157 147q23 23 54.5 21t54.5 -27q20 -20 18 -52 t-24 -52l-158 -150h2q-10 -10 -25.5 -15t-29.5 -5q-33 0 -56 22q-23 25 -19.5 56.5z" />
<glyph unicode="&#xd4;" d="M92 750q0 184 38 328.5t110.5 242.5t179 150.5t244.5 52.5q33 0 88 -7.5t118.5 -34t129 -76.5t117.5 -136t85 -214t33 -306q0 -369 -148.5 -571t-422.5 -202q-178 0 -289 71t-174.5 183.5t-86 248.5t-22.5 270zM256 750q0 -152 23.5 -255.5t60.5 -171t83 -104.5t91 -53 t85 -19.5t65 -3.5q70 0 141.5 25t129.5 91.5t96 184t38 306.5q0 137 -21.5 235t-56.5 166t-79 108.5t-89 62t-86.5 29t-72.5 7.5q-133 0 -213 -62.5t-123 -155.5t-57.5 -198.5t-14.5 -191.5zM390.5 1636.5q2.5 30.5 27.5 51.5l198 153q47 33 95 0l196 -153q23 -16 27 -48 t-12 -59q-25 -31 -62 -31q-25 0 -43 13l-153 123l-152 -119q-27 -18 -57.5 -14.5t-48.5 28.5t-15.5 55.5z" />
<glyph unicode="&#xd5;" d="M92 750q0 184 38 328.5t110.5 242.5t179 150.5t244.5 52.5q33 0 88 -7.5t118.5 -34t129 -76.5t117.5 -136t85 -214t33 -306q0 -369 -148.5 -571t-422.5 -202q-178 0 -289 71t-174.5 183.5t-86 248.5t-22.5 270zM256 750q0 -152 23.5 -255.5t60.5 -171t83 -104.5t91 -53 t85 -19.5t65 -3.5q70 0 141.5 25t129.5 91.5t96 184t38 306.5q0 137 -21.5 235t-56.5 166t-79 108.5t-89 62t-86.5 29t-72.5 7.5q-133 0 -213 -62.5t-123 -155.5t-57.5 -198.5t-14.5 -191.5zM274 1692q8 18 24.5 41.5t43.5 44t62.5 35t80.5 14.5q61 0 110.5 -17.5 t90.5 -33.5q37 -16 68.5 -27.5t72.5 -11.5q18 0 35 9t29 19q14 12 29 29h-2q20 27 49.5 32t58.5 -14h-2q27 -16 32 -48.5t-16 -57.5l4 4q0 -2 -16 -21.5t-45 -43t-68 -42t-88 -18.5q-59 0 -109 17.5t-91 33.5q-37 16 -69 26.5t-73 10.5q-37 0 -49 -12t-14 -16 q-16 -35 -48 -50.5t-61 -1.5q-27 10 -38 39t-1 60z" />
<glyph unicode="&#xd6;" d="M92 750q0 184 38 328.5t110.5 242.5t179 150.5t244.5 52.5q33 0 88 -7.5t118.5 -34t129 -76.5t117.5 -136t85 -214t33 -306q0 -369 -148.5 -571t-422.5 -202q-178 0 -289 71t-174.5 183.5t-86 248.5t-22.5 270zM256 750q0 -152 23.5 -255.5t60.5 -171t83 -104.5t91 -53 t85 -19.5t65 -3.5q70 0 141.5 25t129.5 91.5t96 184t38 306.5q0 137 -21.5 235t-56.5 166t-79 108.5t-89 62t-86.5 29t-72.5 7.5q-133 0 -213 -62.5t-123 -155.5t-57.5 -198.5t-14.5 -191.5zM381 1704q0 41 29.5 72.5t70.5 31.5q47 0 76 -31.5t29 -72.5q0 -43 -29 -74 t-76 -31q-41 0 -70.5 31t-29.5 74zM741 1704q0 41 31 72.5t74 31.5q41 0 71.5 -31.5t30.5 -72.5q0 -43 -30.5 -74t-71.5 -31q-43 0 -74 31t-31 74z" />
<glyph unicode="&#xd7;" d="M306 343.5q-1 33.5 28 57.5h-2l213 213l-215 215h2q-27 25 -26 59t26 58q25 23 57.5 25t59.5 -25l213 -215l212 215h3q25 23 57.5 22t56.5 -24q23 -25 24 -58.5t-22 -58.5l-215 -213l215 -213q23 -23 23 -57.5t-23 -58.5q-25 -25 -59.5 -26t-59.5 26l-212 213l-211 -213 q-29 -29 -62 -28t-57 28q-25 25 -26 58.5z" />
<glyph unicode="&#xd8;" d="M58 70q-5 34 14 61q27 37 52.5 71t53.5 70q-51 111 -68.5 235t-17.5 243q0 371 147.5 572.5t422.5 201.5q27 0 65.5 -4t84.5 -17.5t97.5 -38t100.5 -67.5l55 76q23 25 54.5 30.5t60.5 -16.5q29 -23 31.5 -54.5t-17.5 -60.5l-76 -104q51 -86 84 -212t33 -306 q0 -369 -148.5 -571t-424.5 -202q-135 0 -228.5 41t-159.5 113l-73 -98q-16 -20 -39.5 -28.5t-46.5 -2.5q-20 4 -29 14h2q-25 20 -30 54zM256 750q0 -98 10 -176t27 -142q156 211 307.5 415t306.5 415q-33 33 -66.5 51t-65.5 28.5t-61 13.5t-52 3q-88 0 -153 -29t-110 -78 t-72.5 -111.5t-44 -130t-21.5 -135t-5 -124.5zM375 266q37 -45 78 -69.5t79.5 -37t72.5 -14.5t57 -2q70 0 141 25t130.5 91.5t97.5 184.5t38 306q0 121 -18.5 213t-44.5 157z" />
<glyph unicode="&#xd9;" d="M203 506v936q0 33 24.5 57.5t59.5 24.5q33 0 57.5 -24.5t24.5 -57.5v-936q0 -123 26.5 -194.5t66.5 -108.5t88 -48.5t91 -11.5h45q45 0 93 11.5t88 48.5t65.5 108.5t25.5 194.5v936q0 33 25 57.5t57 24.5q35 0 60.5 -24.5t25.5 -57.5v-936q0 -172 -46 -276.5t-112.5 -160 t-143 -74t-138.5 -18.5h-45q-61 0 -137 18.5t-143.5 74t-112.5 160t-45 276.5zM456 1787q-3 32 19 52q23 25 53.5 27t53.5 -21l159 -147q20 -23 18.5 -58.5t-24.5 -64.5q-10 -10 -45 -10q-33 0 -53 20h2l-160 150q-20 20 -23 52z" />
<glyph unicode="&#xda;" d="M203 506v936q0 33 24.5 57.5t59.5 24.5q33 0 57.5 -24.5t24.5 -57.5v-936q0 -123 26.5 -194.5t66.5 -108.5t88 -48.5t91 -11.5h45q45 0 93 11.5t88 48.5t65.5 108.5t25.5 194.5v936q0 33 25 57.5t57 24.5q35 0 60.5 -24.5t25.5 -57.5v-936q0 -172 -46 -276.5t-112.5 -160 t-143 -74t-138.5 -18.5h-45q-61 0 -137 18.5t-143.5 74t-112.5 160t-45 276.5zM512.5 1643.5q3.5 31.5 26.5 54.5l157 147q23 23 54.5 21t54.5 -27q20 -20 18 -52t-24 -52l-158 -150h2q-10 -10 -25.5 -15t-29.5 -5q-33 0 -56 22q-23 25 -19.5 56.5z" />
<glyph unicode="&#xdb;" d="M203 506v936q0 33 24.5 57.5t59.5 24.5q33 0 57.5 -24.5t24.5 -57.5v-936q0 -123 26.5 -194.5t66.5 -108.5t88 -48.5t91 -11.5h45q45 0 93 11.5t88 48.5t65.5 108.5t25.5 194.5v936q0 33 25 57.5t57 24.5q35 0 60.5 -24.5t25.5 -57.5v-936q0 -172 -46 -276.5t-112.5 -160 t-143 -74t-138.5 -18.5h-45q-61 0 -137 18.5t-143.5 74t-112.5 160t-45 276.5zM390.5 1636.5q2.5 30.5 27.5 51.5l198 153q47 33 95 0l196 -153q23 -16 27 -48t-12 -59q-25 -31 -62 -31q-25 0 -43 13l-153 123l-152 -119q-27 -18 -57.5 -14.5t-48.5 28.5t-15.5 55.5z" />
<glyph unicode="&#xdc;" d="M203 506v936q0 33 24.5 57.5t59.5 24.5q33 0 57.5 -24.5t24.5 -57.5v-936q0 -123 26.5 -194.5t66.5 -108.5t88 -48.5t91 -11.5h45q45 0 93 11.5t88 48.5t65.5 108.5t25.5 194.5v936q0 33 25 57.5t57 24.5q35 0 60.5 -24.5t25.5 -57.5v-936q0 -172 -46 -276.5t-112.5 -160 t-143 -74t-138.5 -18.5h-45q-61 0 -137 18.5t-143.5 74t-112.5 160t-45 276.5zM381 1704q0 41 29.5 72.5t70.5 31.5q47 0 76 -31.5t29 -72.5q0 -43 -29 -74t-76 -31q-41 0 -70.5 31t-29.5 74zM741 1704q0 41 31 72.5t74 31.5q41 0 71.5 -31.5t30.5 -72.5q0 -43 -30.5 -74 t-71.5 -31q-43 0 -74 31t-31 74z" />
<glyph unicode="&#xdd;" d="M70 1460.5q8 34.5 34 50.5q27 16 61 7t50 -35l463 -752l463 752q18 29 53 37t61 -9q29 -16 36 -51t-7 -63l-520 -848v-490q0 -33 -25.5 -57.5t-60.5 -24.5q-33 0 -57.5 25t-24.5 57v490l-520 848q-14 29 -6 63.5zM525 1643.5q3 31.5 26 54.5l158 147q23 23 54.5 21 t53.5 -27q20 -20 18.5 -52t-24.5 -52l-158 -150h2q-10 -10 -25.5 -15t-29.5 -5q-33 0 -55 22q-23 25 -20 56.5z" />
<glyph unicode="&#xde;" d="M238 59v1360q0 33 25.5 57.5t58.5 24.5q35 0 59.5 -24.5t24.5 -57.5v-172h315q143 0 234.5 -35.5t141.5 -92t68.5 -127t18.5 -140.5q0 -72 -22.5 -140.5t-77 -122.5t-143.5 -88t-220 -34h-315v-408q0 -33 -26 -57.5t-61 -24.5q-33 0 -57 25t-24 57zM406 633h315 q115 0 175 30.5t88 69.5t32 76t4 47q0 12 -2 49t-28.5 76t-88 68.5t-180.5 29.5h-315v-446z" />
<glyph unicode="&#xdf;" horiz-adv-x="1705" d="M383 82v938q0 37 20 57v-2q25 27 58 27h758q35 0 59 -27v2q20 -20 20 -57v-938q0 -35 -22.5 -58.5t-56.5 -23.5h-758q-35 0 -56.5 23.5t-21.5 58.5zM543 164h596v774h-596v-774z" />
<glyph unicode="&#xe0;" d="M162 350q0 63 14 127t60.5 113t132.5 79.5t231 30.5q88 0 164 -12t133 -26v88q0 2 -4 31.5t-25.5 63.5t-68.5 61.5t-131 27.5q-55 0 -101.5 -9.5t-79.5 -19.5q-37 -12 -67 -26q-31 -16 -63.5 -8t-49.5 38q-16 29 -8 62t35 49q2 2 27.5 15.5t69.5 27.5t104.5 25.5 t132.5 11.5q109 0 183.5 -35t121.5 -87t68.5 -113.5t21.5 -114.5v-533q0 -23 5 -32t15 -13q8 -6 21 -6h8q35 0 59.5 -24.5t24.5 -59.5t-24.5 -58.5t-59.5 -23.5q-6 0 -35.5 3t-68.5 24q-23 10 -43.5 27.5t-34.5 37.5q-63 -31 -165.5 -61.5t-232.5 -30.5q-102 0 -172.5 30.5 t-114.5 81t-63.5 113t-19.5 125.5zM328 350q0 -31 8 -63.5t30.5 -59t62.5 -44t103 -17.5q68 0 125.5 10t103.5 24.5t81 31t55 28.5v229q-47 14 -126 28.5t-171 14.5q-102 0 -157.5 -15t-81 -39.5t-29.5 -57.5t-4 -70zM517.5 1427.5q-3.5 30.5 17.5 51.5q23 25 54.5 26.5 t53.5 -20.5l156 -146q23 -23 20.5 -58.5t-26.5 -63.5q-4 -4 -15.5 -7.5t-27.5 -3.5q-33 0 -54 21h2l-157 147q-20 23 -23.5 53.5z" />
<glyph unicode="&#xe1;" d="M162 350q0 63 14 127t60.5 113t132.5 79.5t231 30.5q88 0 164 -12t133 -26v88q0 2 -4 31.5t-25.5 63.5t-68.5 61.5t-131 27.5q-55 0 -101.5 -9.5t-79.5 -19.5q-37 -12 -67 -26q-31 -16 -63.5 -8t-49.5 38q-16 29 -8 62t35 49q2 2 27.5 15.5t69.5 27.5t104.5 25.5 t132.5 11.5q109 0 183.5 -35t121.5 -87t68.5 -113.5t21.5 -114.5v-533q0 -23 5 -32t15 -13q8 -6 21 -6h8q35 0 59.5 -24.5t24.5 -59.5t-24.5 -58.5t-59.5 -23.5q-6 0 -35.5 3t-68.5 24q-23 10 -43.5 27.5t-34.5 37.5q-63 -31 -165.5 -61.5t-232.5 -30.5q-102 0 -172.5 30.5 t-114.5 81t-63.5 113t-19.5 125.5zM328 350q0 -31 8 -63.5t30.5 -59t62.5 -44t103 -17.5q68 0 125.5 10t103.5 24.5t81 31t55 28.5v229q-47 14 -126 28.5t-171 14.5q-102 0 -157.5 -15t-81 -39.5t-29.5 -57.5t-4 -70zM516.5 1285.5q1.5 31.5 24.5 53.5l157 146 q23 23 53.5 20.5t53.5 -26.5q20 -20 18 -51t-24 -54l-156 -147h2q-10 -10 -25.5 -15.5t-29.5 -5.5q-33 0 -55 23q-20 25 -18.5 56.5z" />
<glyph unicode="&#xe2;" d="M162 350q0 63 14 127t60.5 113t132.5 79.5t231 30.5q88 0 164 -12t133 -26v88q0 2 -4 31.5t-25.5 63.5t-68.5 61.5t-131 27.5q-55 0 -101.5 -9.5t-79.5 -19.5q-37 -12 -67 -26q-31 -16 -63.5 -8t-49.5 38q-16 29 -8 62t35 49q2 2 27.5 15.5t69.5 27.5t104.5 25.5 t132.5 11.5q109 0 183.5 -35t121.5 -87t68.5 -113.5t21.5 -114.5v-533q0 -23 5 -32t15 -13q8 -6 21 -6h8q35 0 59.5 -24.5t24.5 -59.5t-24.5 -58.5t-59.5 -23.5q-6 0 -35.5 3t-68.5 24q-23 10 -43.5 27.5t-34.5 37.5q-63 -31 -165.5 -61.5t-232.5 -30.5q-102 0 -172.5 30.5 t-114.5 81t-63.5 113t-19.5 125.5zM328 350q0 -31 8 -63.5t30.5 -59t62.5 -44t103 -17.5q68 0 125.5 10t103.5 24.5t81 31t55 28.5v229q-47 14 -126 28.5t-171 14.5q-102 0 -157.5 -15t-81 -39.5t-29.5 -57.5t-4 -70zM379 1286.5q4 30.5 27 50.5l196 152q47 33 94 0 l195 -152q23 -16 27 -48t-13 -58q-10 -14 -26.5 -21.5t-32.5 -7.5q-31 0 -45 10l-152 123l-149 -118q-27 -18 -57.5 -13.5t-49.5 27.5q-18 25 -14 55.5z" />
<glyph unicode="&#xe3;" d="M162 350q0 63 14 127t60.5 113t132.5 79.5t231 30.5q88 0 164 -12t133 -26v88q0 2 -4 31.5t-25.5 63.5t-68.5 61.5t-131 27.5q-55 0 -101.5 -9.5t-79.5 -19.5q-37 -12 -67 -26q-31 -16 -63.5 -8t-49.5 38q-16 29 -8 62t35 49q2 2 27.5 15.5t69.5 27.5t104.5 25.5 t132.5 11.5q109 0 183.5 -35t121.5 -87t68.5 -113.5t21.5 -114.5v-533q0 -23 5 -32t15 -13q8 -6 21 -6h8q35 0 59.5 -24.5t24.5 -59.5t-24.5 -58.5t-59.5 -23.5q-6 0 -35.5 3t-68.5 24q-23 10 -43.5 27.5t-34.5 37.5q-63 -31 -165.5 -61.5t-232.5 -30.5q-102 0 -172.5 30.5 t-114.5 81t-63.5 113t-19.5 125.5zM287 1350q8 18 25.5 41.5t43 44t61.5 34t81 13.5q59 0 108 -16.5t90 -32.5q35 -16 68 -26.5t72 -10.5q18 0 34.5 8t28.5 18q14 12 29 29h-2q18 27 49 32t57 -14h-2q27 -16 32 -47.5t-13 -58.5l4 4q0 -2 -16.5 -21.5t-45 -42t-67.5 -41 t-88 -18.5q-59 0 -108.5 16.5t-90.5 32.5q-37 16 -68.5 27.5t-70.5 11.5t-50.5 -12t-13.5 -16q-16 -35 -48 -50.5t-60 -1.5q-27 10 -38.5 39t-0.5 58zM328 350q0 -31 8 -63.5t30.5 -59t62.5 -44t103 -17.5q68 0 125.5 10t103.5 24.5t81 31t55 28.5v229q-47 14 -126 28.5 t-171 14.5q-102 0 -157.5 -15t-81 -39.5t-29.5 -57.5t-4 -70z" />
<glyph unicode="&#xe4;" d="M162 350q0 63 14 127t60.5 113t132.5 79.5t231 30.5q88 0 164 -12t133 -26v88q0 2 -4 31.5t-25.5 63.5t-68.5 61.5t-131 27.5q-55 0 -101.5 -9.5t-79.5 -19.5q-37 -12 -67 -26q-31 -16 -63.5 -8t-49.5 38q-16 29 -8 62t35 49q2 2 27.5 15.5t69.5 27.5t104.5 25.5 t132.5 11.5q109 0 183.5 -35t121.5 -87t68.5 -113.5t21.5 -114.5v-533q0 -23 5 -32t15 -13q8 -6 21 -6h8q35 0 59.5 -24.5t24.5 -59.5t-24.5 -58.5t-59.5 -23.5q-6 0 -35.5 3t-68.5 24q-23 10 -43.5 27.5t-34.5 37.5q-63 -31 -165.5 -61.5t-232.5 -30.5q-102 0 -172.5 30.5 t-114.5 81t-63.5 113t-19.5 125.5zM328 350q0 -31 8 -63.5t30.5 -59t62.5 -44t103 -17.5q68 0 125.5 10t103.5 24.5t81 31t55 28.5v229q-47 14 -126 28.5t-171 14.5q-102 0 -157.5 -15t-81 -39.5t-29.5 -57.5t-4 -70zM387 1341q0 43 31 74t71 31q45 0 74 -31t29 -74 q0 -41 -29 -71.5t-74 -30.5q-41 0 -71.5 30.5t-30.5 71.5zM745 1341q0 43 31 74t74 31q41 0 71.5 -31t30.5 -74q0 -41 -30.5 -71.5t-71.5 -30.5q-43 0 -74 30.5t-31 71.5z" />
<glyph unicode="&#xe5;" d="M162 350q0 63 14 127t60.5 113t132.5 79.5t231 30.5q88 0 164 -12t133 -26v88q0 2 -4 31.5t-25.5 63.5t-68.5 61.5t-131 27.5q-55 0 -101.5 -9.5t-79.5 -19.5q-37 -12 -67 -26q-31 -16 -63.5 -8t-49.5 38q-16 29 -8 62t35 49q2 2 27.5 15.5t69.5 27.5t104.5 25.5 t132.5 11.5q109 0 183.5 -35t121.5 -87t68.5 -113.5t21.5 -114.5v-533q0 -23 5 -32t15 -13q8 -6 21 -6h8q35 0 59.5 -24.5t24.5 -59.5t-24.5 -58.5t-59.5 -23.5q-6 0 -35.5 3t-68.5 24q-23 10 -43.5 27.5t-34.5 37.5q-63 -31 -165.5 -61.5t-232.5 -30.5q-102 0 -172.5 30.5 t-114.5 81t-63.5 113t-19.5 125.5zM328 350q0 -31 8 -63.5t30.5 -59t62.5 -44t103 -17.5q68 0 125.5 10t103.5 24.5t81 31t55 28.5v229q-47 14 -126 28.5t-171 14.5q-102 0 -157.5 -15t-81 -39.5t-29.5 -57.5t-4 -70zM508 1341q0 66 46 112t112 46t111.5 -46t45.5 -112 q0 -63 -46 -109t-111 -46q-66 0 -112 46t-46 109zM616 1341q0 -20 14.5 -34.5t35.5 -14.5q20 0 34.5 14.5t14.5 34.5q0 23 -14.5 37.5t-34.5 14.5t-35 -14.5t-15 -37.5z" />
<glyph unicode="&#xe6;" horiz-adv-x="1705" d="M383 82v938q0 37 20 57v-2q25 27 58 27h758q35 0 59 -27v2q20 -20 20 -57v-938q0 -35 -22.5 -58.5t-56.5 -23.5h-758q-35 0 -56.5 23.5t-21.5 58.5zM543 164h596v774h-596v-774z" />
<glyph unicode="&#xe7;" d="M213 528q0 129 35 234.5t98.5 181.5t152.5 117t197 41q111 0 185.5 -16.5t121 -37t68 -41t27.5 -26.5h-2q23 -29 16.5 -62.5t-33.5 -54.5q-25 -16 -60.5 -11t-55.5 28q-2 2 -14.5 11t-43.5 18.5t-82 17.5t-127 8q-88 0 -149.5 -36t-99 -94t-54 -131t-16.5 -147 q0 -43 9 -108.5t43 -126t96.5 -104.5t170.5 -44q78 0 128 10.5t80 24t42 24.5l12 11q18 31 52 39t63 -8q31 -16 36 -53t-13 -72q-4 -4 -21.5 -24.5t-58.5 -44t-108.5 -43t-172.5 -21.5q16 -6 32.5 -15.5t31.5 -21.5q20 -18 38.5 -53t18.5 -88t-18.5 -89t-38.5 -53h2 q-35 -35 -76 -42t-61 -7h-15q-29 2 -47 24.5t-16 51.5t24.5 47t53.5 18q6 -2 18 0t23 11q2 2 6 10t4 29q0 18 -4 24t-6 10q-10 10 -23.5 12.5t-19.5 2.5q-12 -2 -31 6t-35 22q-10 10 -10 41v64q-172 37 -272.5 178t-100.5 358z" />
<glyph unicode="&#xe8;" d="M166 571v56q0 61 21.5 143t74.5 154.5t145.5 124t231.5 51.5q94 0 166 -25.5t124 -68.5t88 -97.5t57.5 -112t30.5 -112.5t9 -100q0 -35 -23.5 -58.5t-58.5 -23.5h-696q6 -63 24.5 -123t53.5 -106t90 -75.5t139 -33.5q61 -4 104.5 5t71 22.5t40.5 26.5l18 18 q16 27 47.5 33.5t60.5 -9.5t39 -48t-6 -60q-2 -2 -19.5 -27t-57.5 -52.5t-105.5 -50t-159.5 -22.5h-39q-223 14 -342 155.5t-129 415.5zM334 664h610q-8 39 -26.5 87t-54.5 89t-90 68.5t-134 27.5q-92 0 -150.5 -32t-91 -75t-46 -89t-17.5 -76zM468 1427.5q-3 30.5 19 51.5 q23 25 53.5 26.5t53.5 -20.5l158 -146q20 -23 18 -58.5t-25 -63.5q-10 -11 -43 -11q-14 0 -29.5 5.5t-25.5 15.5h2l-155 147q-23 23 -26 53.5z" />
<glyph unicode="&#xe9;" d="M166 571v56q0 61 21.5 143t74.5 154.5t145.5 124t231.5 51.5q94 0 166 -25.5t124 -68.5t88 -97.5t57.5 -112t30.5 -112.5t9 -100q0 -35 -23.5 -58.5t-58.5 -23.5h-696q6 -63 24.5 -123t53.5 -106t90 -75.5t139 -33.5q61 -4 104.5 5t71 22.5t40.5 26.5l18 18 q16 27 47.5 33.5t60.5 -9.5t39 -48t-6 -60q-2 -2 -19.5 -27t-57.5 -52.5t-105.5 -50t-159.5 -22.5h-39q-223 14 -342 155.5t-129 415.5zM334 664h610q-8 39 -26.5 87t-54.5 89t-90 68.5t-134 27.5q-92 0 -150.5 -32t-91 -75t-46 -89t-17.5 -76zM467.5 1285.5 q3.5 31.5 26.5 53.5l155 146q23 23 54.5 20.5t54.5 -26.5q18 -20 16 -51t-22 -54l-158 -147h2q-20 -21 -53 -21q-16 0 -30.5 6.5t-25.5 16.5q-23 25 -19.5 56.5z" />
<glyph unicode="&#xea;" d="M166 571v56q0 61 21.5 143t74.5 154.5t145.5 124t231.5 51.5q94 0 166 -25.5t124 -68.5t88 -97.5t57.5 -112t30.5 -112.5t9 -100q0 -35 -23.5 -58.5t-58.5 -23.5h-696q6 -63 24.5 -123t53.5 -106t90 -75.5t139 -33.5q61 -4 104.5 5t71 22.5t40.5 26.5l18 18 q16 27 47.5 33.5t60.5 -9.5t39 -48t-6 -60q-2 -2 -19.5 -27t-57.5 -52.5t-105.5 -50t-159.5 -22.5h-39q-223 14 -342 155.5t-129 415.5zM334 664h610q-8 39 -26.5 87t-54.5 89t-90 68.5t-134 27.5q-92 0 -150.5 -32t-91 -75t-46 -89t-17.5 -76zM366 1286.5q3 30.5 27 50.5 l197 152q47 33 94 0l195 -152q23 -16 26.5 -48t-12.5 -58q-10 -14 -26.5 -21.5t-32.5 -7.5q-31 0 -46 10l-153 123l-148 -118q-27 -18 -57.5 -13.5t-48.5 27.5q-18 25 -15 55.5z" />
<glyph unicode="&#xeb;" d="M166 571v56q0 61 21.5 143t74.5 154.5t145.5 124t231.5 51.5q94 0 166 -25.5t124 -68.5t88 -97.5t57.5 -112t30.5 -112.5t9 -100q0 -35 -23.5 -58.5t-58.5 -23.5h-696q6 -63 24.5 -123t53.5 -106t90 -75.5t139 -33.5q61 -4 104.5 5t71 22.5t40.5 26.5l18 18 q16 27 47.5 33.5t60.5 -9.5t39 -48t-6 -60q-2 -2 -19.5 -27t-57.5 -52.5t-105.5 -50t-159.5 -22.5h-39q-223 14 -342 155.5t-129 415.5zM334 664h610q-8 39 -26.5 87t-54.5 89t-90 68.5t-134 27.5q-92 0 -150.5 -32t-91 -75t-46 -89t-17.5 -76zM358 1341q0 43 31 74t72 31 q45 0 74.5 -31t29.5 -74q0 -41 -29.5 -71.5t-74.5 -30.5q-41 0 -72 30.5t-31 71.5zM717 1341q0 43 31.5 74t72.5 31t72 -31t31 -74q0 -41 -31 -71.5t-72 -30.5t-72.5 30.5t-31.5 71.5z" />
<glyph unicode="&#xec;" d="M272 82q0 33 25 57.5t59 24.5h250v768h-250q-35 0 -59.5 24.5t-24.5 57.5q0 35 25 59.5t59 24.5h332q35 0 59.5 -24.5t24.5 -59.5v-850h250q35 0 59.5 -24.5t24.5 -57.5q0 -35 -24.5 -59.5t-59.5 -24.5h-666q-35 0 -59.5 24.5t-24.5 59.5zM423 1427.5q-3 30.5 19 51.5 q23 25 53.5 26.5t53.5 -20.5l158 -146q20 -23 18 -58.5t-25 -63.5q-10 -11 -43 -11q-14 0 -29.5 5.5t-25.5 15.5h2l-155 147q-23 23 -26 53.5z" />
<glyph unicode="&#xed;" d="M272 82q0 33 25 57.5t59 24.5h250v768h-250q-35 0 -59.5 24.5t-24.5 57.5q0 35 25 59.5t59 24.5h332q35 0 59.5 -24.5t24.5 -59.5v-850h250q35 0 59.5 -24.5t24.5 -57.5q0 -35 -24.5 -59.5t-59.5 -24.5h-666q-35 0 -59.5 24.5t-24.5 59.5zM598 1285.5q2 31.5 25 53.5 l157 146q23 23 53.5 20.5t53.5 -26.5q20 -20 18 -51t-24 -54l-156 -147h2q-10 -10 -25.5 -15.5t-29.5 -5.5q-33 0 -56 23q-20 25 -18 56.5z" />
<glyph unicode="&#xee;" d="M272 82q0 33 25 57.5t59 24.5h250v768h-250q-35 0 -59.5 24.5t-24.5 57.5q0 35 25 59.5t59 24.5h332q35 0 59.5 -24.5t24.5 -59.5v-850h250q35 0 59.5 -24.5t24.5 -57.5q0 -35 -24.5 -59.5t-59.5 -24.5h-666q-35 0 -59.5 24.5t-24.5 59.5zM414 1286.5q4 30.5 28 50.5 l197 152q20 16 46 16t46 -16l197 -152q20 -16 24 -48t-12 -58q-10 -14 -26.5 -21.5t-32.5 -7.5q-29 0 -43 10l-154 123l-149 -118q-25 -18 -57 -13.5t-48 27.5q-20 25 -16 55.5z" />
<glyph unicode="&#xef;" d="M272 82q0 33 25 57.5t59 24.5h250v768h-250q-35 0 -59.5 24.5t-24.5 57.5q0 35 25 59.5t59 24.5h332q35 0 59.5 -24.5t24.5 -59.5v-850h250q35 0 59.5 -24.5t24.5 -57.5q0 -35 -24.5 -59.5t-59.5 -24.5h-666q-35 0 -59.5 24.5t-24.5 59.5zM406 1341q0 43 30.5 74t71.5 31 q45 0 73.5 -31t28.5 -74q0 -41 -28.5 -71.5t-73.5 -30.5q-41 0 -71.5 30.5t-30.5 71.5zM764 1341q0 43 30.5 74t71.5 31q43 0 74 -31t31 -74q0 -41 -31 -71.5t-74 -30.5q-41 0 -71.5 30.5t-30.5 71.5z" />
<glyph unicode="&#xf0;" d="M123 543q0 260 127 400t356 140q57 0 108.5 -12t92.5 -33q-29 39 -70 90.5t-88 92.5l2 -2q-2 0 -6 4l-145 -80q-18 -10 -37 -8t-35 12l-8 6l-6 6q-10 29 -8 56.5t26 44.5l92 51q-53 31 -87 49t-31 14l2 -4q-10 10 -18.5 31.5t7.5 54.5q16 31 43 32t54 -9q20 -8 64 -31 t101 -59l154 90q23 14 52.5 7t41.5 -28q14 -25 5 -51.5t-31 -48.5l-103 -60q51 -45 102.5 -99t94.5 -123.5t70.5 -157t33.5 -197.5q0 -18 1 -37.5t1 -36.5q0 -139 -13 -230t-32.5 -148.5t-41 -88t-36.5 -49.5l-10 -12v2q-63 -70 -147 -107t-195 -37q-229 0 -356 146.5 t-127 419.5zM287 543q0 -57 11 -127t45 -130.5t96.5 -101.5t166.5 -41t167 41t96.5 101.5t44 130t10.5 127.5q0 66 -12.5 132t-48.5 120.5t-97 89.5t-160 35q-98 0 -160.5 -35t-97.5 -89.5t-48 -121t-13 -131.5z" />
<glyph unicode="&#xf1;" d="M231 82v936q0 35 24 58.5t56 23.5q35 0 58.5 -23.5t23.5 -58.5v-92q63 78 138.5 126t173.5 48q63 0 134.5 -12.5t130 -54.5t97.5 -123t39 -218v-610q0 -35 -20.5 -58.5t-55.5 -23.5q-33 0 -60.5 23.5t-27.5 58.5v610q0 76 -15.5 124t-46 75t-74.5 36t-101 9 q-68 0 -121.5 -33t-92 -77t-64.5 -87t-34 -63v-594q0 -35 -23.5 -58.5t-58.5 -23.5q-33 0 -56.5 23.5t-23.5 58.5zM311 1350q8 18 25.5 41.5t43.5 44t61.5 34t80.5 13.5q59 0 108.5 -16.5t90.5 -32.5q37 -16 68.5 -26.5t70.5 -10.5q18 0 35.5 8t30.5 18q14 12 26 29h-2 q20 27 50 32t59 -14h-2q27 -16 32 -47.5t-16 -58.5l4 4q0 -2 -16.5 -21.5t-44 -42t-67.5 -41t-89 -18.5q-59 0 -108.5 16.5t-89.5 32.5q-35 16 -67 27.5t-73 11.5q-37 0 -49 -12t-14 -16q-16 -35 -47 -50.5t-60 -1.5q-29 10 -40 39t-1 58z" />
<glyph unicode="&#xf2;" d="M188 539q0 266 125 413.5t349 147.5q223 0 348 -147.5t125 -413.5q0 -252 -125 -395.5t-348 -143.5t-348.5 142.5t-125.5 396.5zM352 539q0 -63 12.5 -130t47 -121.5t94 -89t156.5 -34.5q96 0 157.5 34.5t96 89t47 121t12.5 130.5q0 55 -11.5 124.5t-44 130t-95 101.5 t-162.5 41t-162 -41t-94.5 -101.5t-43 -130t-10.5 -124.5zM480 1427.5q-3 30.5 20 51.5q23 25 53.5 26.5t52.5 -20.5l158 -146q20 -23 18 -58.5t-24 -63.5q-10 -11 -43 -11q-14 0 -29.5 5.5t-26.5 15.5h3l-156 147q-23 23 -26 53.5z" />
<glyph unicode="&#xf3;" d="M188 539q0 266 125 413.5t349 147.5q223 0 348 -147.5t125 -413.5q0 -252 -125 -395.5t-348 -143.5t-348.5 142.5t-125.5 396.5zM352 539q0 -63 12.5 -130t47 -121.5t94 -89t156.5 -34.5q96 0 157.5 34.5t96 89t47 121t12.5 130.5q0 55 -11.5 124.5t-44 130t-95 101.5 t-162.5 41t-162 -41t-94.5 -101.5t-43 -130t-10.5 -124.5zM480 1285.5q3 31.5 26 53.5l156 146q23 23 54.5 20.5t53.5 -26.5q20 -20 17 -51t-23 -54l-158 -147h2q-20 -21 -53 -21q-16 0 -30.5 6.5t-24.5 16.5q-23 25 -20 56.5z" />
<glyph unicode="&#xf4;" d="M188 539q0 266 125 413.5t349 147.5q223 0 348 -147.5t125 -413.5q0 -252 -125 -395.5t-348 -143.5t-348.5 142.5t-125.5 396.5zM352 539q0 -63 12.5 -130t47 -121.5t94 -89t156.5 -34.5q96 0 157.5 34.5t96 89t47 121t12.5 130.5q0 55 -11.5 124.5t-44 130t-95 101.5 t-162.5 41t-162 -41t-94.5 -101.5t-43 -130t-10.5 -124.5zM391.5 1286.5q3.5 30.5 28.5 50.5l196 152q47 33 95 0l194 -152q20 -16 25.5 -48t-10.5 -58q-23 -29 -62 -29q-29 0 -43 10l-153 123l-150 -118q-25 -18 -55.5 -13.5t-48.5 27.5q-20 25 -16.5 55.5z" />
<glyph unicode="&#xf5;" d="M188 539q0 266 125 413.5t349 147.5q223 0 348 -147.5t125 -413.5q0 -252 -125 -395.5t-348 -143.5t-348.5 142.5t-125.5 396.5zM289 1350q8 18 24.5 41.5t42 44t61.5 34t83 13.5q59 0 108 -16.5t90 -32.5q35 -16 67 -26.5t73 -10.5q18 0 34.5 8t28.5 18q14 12 27 29h-2 q20 27 50 32t58 -14h-2q27 -16 32 -47.5t-13 -58.5l4 4q0 -2 -16.5 -21.5t-45 -42t-67.5 -41t-88 -18.5q-59 0 -108.5 16.5t-90.5 32.5q-37 16 -68.5 27.5t-70.5 11.5t-50.5 -12t-13.5 -16q-16 -35 -48 -50.5t-60 -1.5q-27 10 -38 39t-1 58zM352 539q0 -63 12.5 -130 t47 -121.5t94 -89t156.5 -34.5q96 0 157.5 34.5t96 89t47 121t12.5 130.5q0 55 -11.5 124.5t-44 130t-95 101.5t-162.5 41t-162 -41t-94.5 -101.5t-43 -130t-10.5 -124.5z" />
<glyph unicode="&#xf6;" d="M188 539q0 266 125 413.5t349 147.5q223 0 348 -147.5t125 -413.5q0 -252 -125 -395.5t-348 -143.5t-348.5 142.5t-125.5 396.5zM352 539q0 -63 12.5 -130t47 -121.5t94 -89t156.5 -34.5q96 0 157.5 34.5t96 89t47 121t12.5 130.5q0 55 -11.5 124.5t-44 130t-95 101.5 t-162.5 41t-162 -41t-94.5 -101.5t-43 -130t-10.5 -124.5zM379 1341q0 43 30.5 74t71.5 31q45 0 74 -31t29 -74q0 -41 -29 -71.5t-74 -30.5q-41 0 -71.5 30.5t-30.5 71.5zM737 1341q0 43 31 74t74 31q41 0 71.5 -31t30.5 -74q0 -41 -30.5 -71.5t-71.5 -30.5q-43 0 -74 30.5 t-31 71.5z" />
<glyph unicode="&#xf7;" d="M135 563q0 35 22.5 58.5t59.5 23.5h746q33 0 57 -23.5t24 -58.5t-24.5 -58.5t-56.5 -23.5h-746q-37 0 -59.5 23.5t-22.5 58.5zM485 256q0 43 31 73.5t74 30.5q41 0 72.5 -30.5t31.5 -73.5q0 -41 -31.5 -72.5t-72.5 -31.5q-43 0 -74 31.5t-31 72.5zM485 872q0 41 31 72 t74 31q41 0 72.5 -31t31.5 -72q0 -43 -31.5 -73.5t-72.5 -30.5q-43 0 -74 30.5t-31 73.5z" />
<glyph unicode="&#xf8;" d="M148 77q-1 34 20 58l86 96q-66 125 -66 308q0 266 125 413.5t349 147.5q84 0 157.5 -25.5t130.5 -68.5l60 65q35 41 88 21l-2 2q6 -4 15 -8.5t13 -10.5q25 -23 26 -54.5t-20 -55.5l-73 -82q37 -68 57.5 -156t20.5 -188q0 -252 -125 -395.5t-348 -143.5q-186 0 -306 102 l-65 -75q-25 -29 -58.5 -29t-60.5 22q-23 23 -24 57zM352 539q0 -47 4 -90t17 -84l471 520q-35 27 -78 39t-104 12q-100 0 -162 -41t-94.5 -101.5t-43 -130t-10.5 -124.5zM465 221q70 -57 197 -57q96 0 156.5 34.5t95 89t48 121.5t13.5 130q0 47 -6 103t-29 110z" />
<glyph unicode="&#xf9;" d="M221 430v588q0 35 23.5 58.5t56.5 23.5q35 0 58.5 -23.5t23.5 -58.5v-588q0 -59 18.5 -107.5t51 -84t77.5 -55t99 -19.5h65q109 0 176.5 74.5t67.5 191.5v588q0 35 24.5 58.5t57.5 23.5t57.5 -23.5t24.5 -58.5v-588q0 -94 -31 -173t-85 -136.5t-129 -89t-163 -31.5h-65 q-90 0 -165 31.5t-128 89t-84 136.5t-31 173zM468 1427.5q-3 30.5 19 51.5q23 25 53.5 26.5t53.5 -20.5l158 -146q23 -23 20.5 -58.5t-27.5 -63.5q-10 -11 -43 -11q-14 0 -29.5 5.5t-25.5 15.5h2l-155 147q-23 23 -26 53.5z" />
<glyph unicode="&#xfa;" d="M221 430v588q0 35 23.5 58.5t56.5 23.5q35 0 58.5 -23.5t23.5 -58.5v-588q0 -59 18.5 -107.5t51 -84t77.5 -55t99 -19.5h65q109 0 176.5 74.5t67.5 191.5v588q0 35 24.5 58.5t57.5 23.5t57.5 -23.5t24.5 -58.5v-588q0 -94 -31 -173t-85 -136.5t-129 -89t-163 -31.5h-65 q-90 0 -165 31.5t-128 89t-84 136.5t-31 173zM508 1285.5q2 31.5 24 53.5l158 146q23 23 53.5 20.5t53.5 -26.5q23 -20 19.5 -51t-25.5 -54l-156 -147h2q-10 -10 -25.5 -15.5t-29.5 -5.5q-33 0 -56 23q-20 25 -18 56.5z" />
<glyph unicode="&#xfb;" d="M221 430v588q0 35 23.5 58.5t56.5 23.5q35 0 58.5 -23.5t23.5 -58.5v-588q0 -59 18.5 -107.5t51 -84t77.5 -55t99 -19.5h65q109 0 176.5 74.5t67.5 191.5v588q0 35 24.5 58.5t57.5 23.5t57.5 -23.5t24.5 -58.5v-588q0 -94 -31 -173t-85 -136.5t-129 -89t-163 -31.5h-65 q-90 0 -165 31.5t-128 89t-84 136.5t-31 173zM391.5 1286.5q3.5 30.5 28.5 50.5l196 152q47 33 95 0l194 -152q20 -16 25.5 -48t-10.5 -58q-23 -29 -62 -29q-29 0 -43 10l-153 123l-150 -118q-25 -18 -55.5 -13.5t-48.5 27.5q-20 25 -16.5 55.5z" />
<glyph unicode="&#xfc;" d="M221 430v588q0 35 23.5 58.5t56.5 23.5q35 0 58.5 -23.5t23.5 -58.5v-588q0 -59 18.5 -107.5t51 -84t77.5 -55t99 -19.5h65q109 0 176.5 74.5t67.5 191.5v588q0 35 24.5 58.5t57.5 23.5t57.5 -23.5t24.5 -58.5v-588q0 -94 -31 -173t-85 -136.5t-129 -89t-163 -31.5h-65 q-90 0 -165 31.5t-128 89t-84 136.5t-31 173zM379 1341q0 43 30.5 74t71.5 31q45 0 74 -31t29 -74q0 -41 -29 -71.5t-74 -30.5q-41 0 -71.5 30.5t-30.5 71.5zM737 1341q0 43 31 74t74 31q41 0 71.5 -31t30.5 -74q0 -41 -30.5 -71.5t-71.5 -30.5q-43 0 -74 30.5t-31 71.5z " />
<glyph unicode="&#xfd;" d="M195 -231q10 35 39.5 51t62.5 8h42t81 21.5t103.5 74.5t107.5 160l-430 899q-14 31 -2 61.5t41 47.5q29 16 61.5 2.5t48.5 -41.5q92 -195 186.5 -389.5t186.5 -389.5l369 779q16 29 49 41t61 -2h2q29 -16 41 -47t-4 -62l-444 -936q-57 -123 -125 -198.5t-132.5 -116.5 t-122 -55.5t-93.5 -14.5q-29 0 -44.5 2t-23.5 4q-35 10 -51.5 38t-9.5 63zM572 1285.5q3 31.5 26 53.5l156 146q23 23 54.5 20.5t53.5 -26.5q18 -20 16.5 -51t-22.5 -54l-158 -147h2q-20 -21 -53 -21t-55 23q-23 25 -20 56.5z" />
<glyph unicode="&#xfe;" d="M233 -250v1657q0 35 25 58.5t59 23.5q33 0 56.5 -23.5t23.5 -58.5v-414q59 47 142.5 77t177.5 30q227 0 355 -151.5t128 -422.5q0 -260 -128 -404.5t-355 -144.5q-195 0 -320 117v-344q0 -35 -23.5 -59.5t-56.5 -24.5q-35 0 -59.5 24.5t-24.5 59.5zM397 551 q0 -57 11.5 -128t45 -133.5t96.5 -104.5t167 -42q98 0 159.5 36t97.5 91.5t48 123t12 132.5q0 57 -10 128t-44 133.5t-96.5 104.5t-166.5 42q-98 0 -159.5 -36t-97.5 -91t-49.5 -124t-13.5 -132z" />
<glyph unicode="&#xff;" d="M195 -231q10 35 39.5 51t62.5 8h42t81 21.5t103.5 74.5t107.5 160l-430 899q-14 31 -2 61.5t41 47.5q29 16 61.5 2.5t48.5 -41.5q92 -195 186.5 -389.5t186.5 -389.5l369 779q16 29 49 41t61 -2h2q29 -16 41 -47t-4 -62l-444 -936q-57 -123 -125 -198.5t-132.5 -116.5 t-122 -55.5t-93.5 -14.5q-29 0 -44.5 2t-23.5 4q-35 10 -51.5 38t-9.5 63zM442 1341q0 43 30 74t71 31q47 0 75.5 -31t28.5 -74q0 -41 -28.5 -71.5t-75.5 -30.5q-41 0 -71 30.5t-30 71.5zM801 1341q0 43 30.5 74t71.5 31t73 -31t32 -74q0 -41 -32 -71.5t-73 -30.5 t-71.5 30.5t-30.5 71.5z" />
<glyph unicode="&#x152;" horiz-adv-x="1705" d="M381 82v946q0 39 22 57v-2q25 27 60 27h762q35 0 59 -27v2q23 -18 23 -57v-946q0 -33 -23.5 -57.5t-58.5 -24.5h-762q-35 0 -58.5 24.5t-23.5 57.5zM545 164h598v782h-598v-782z" />
<glyph unicode="&#x153;" horiz-adv-x="1705" d="M383 82v938q0 37 20 57v-2q25 27 58 27h758q35 0 59 -27v2q20 -20 20 -57v-938q0 -35 -22.5 -58.5t-56.5 -23.5h-758q-35 0 -56.5 23.5t-21.5 58.5zM543 164h596v774h-596v-774z" />
<glyph unicode="&#x178;" d="M70 1460.5q8 34.5 34 50.5q27 16 61 7t50 -35l463 -752l463 752q18 29 53 37t61 -9q29 -16 36 -51t-7 -63l-520 -848v-490q0 -33 -25.5 -57.5t-60.5 -24.5q-33 0 -57.5 25t-24.5 57v490l-520 848q-14 29 -6 63.5zM397 1704q0 41 31 72.5t72 31.5q47 0 75.5 -31.5 t28.5 -72.5q0 -43 -28.5 -74t-75.5 -31q-41 0 -72 31t-31 74zM760 1704q0 41 30.5 72.5t71.5 31.5q43 0 74 -31.5t31 -72.5q0 -43 -31 -74t-74 -31q-41 0 -71.5 31t-30.5 74z" />
<glyph unicode="&#x2c6;" d="M391.5 1295.5q3.5 31.5 28.5 52.5l198 153q47 33 95 0l196 -153q23 -16 27 -49t-12 -58q-25 -31 -62 -31q-25 0 -43 13l-155 123l-150 -119q-27 -20 -57.5 -15t-48.5 29q-20 23 -16.5 54.5z" />
<glyph unicode="&#x2dc;" d="M289 1360q8 18 24.5 41.5t43 44t62.5 35t81 14.5q59 0 109 -16.5t91 -32.5q37 -16 69 -27.5t73 -11.5q18 0 34.5 8t28.5 19q14 12 29 28h-2q18 29 49 34t59 -15h-2q27 -16 32 -48t-15 -59l4 4q0 -2 -16.5 -21.5t-45 -42t-67.5 -41t-88 -18.5q-59 0 -109.5 16.5 t-91.5 33.5q-37 16 -68.5 27t-72.5 11q-37 0 -49.5 -12t-14.5 -16q-16 -35 -48 -50.5t-60 -0.5q-27 10 -38 38.5t-1 57.5z" />
<glyph unicode="&#x2000;" horiz-adv-x="933" />
<glyph unicode="&#x2001;" horiz-adv-x="1866" />
<glyph unicode="&#x2002;" horiz-adv-x="933" />
<glyph unicode="&#x2003;" horiz-adv-x="1866" />
<glyph unicode="&#x2004;" horiz-adv-x="622" />
<glyph unicode="&#x2005;" horiz-adv-x="466" />
<glyph unicode="&#x2006;" horiz-adv-x="311" />
<glyph unicode="&#x2007;" horiz-adv-x="311" />
<glyph unicode="&#x2008;" horiz-adv-x="233" />
<glyph unicode="&#x2009;" horiz-adv-x="373" />
<glyph unicode="&#x200a;" horiz-adv-x="103" />
<glyph unicode="&#x2010;" d="M289 614q0 35 24.5 59.5t59.5 24.5h569q35 0 59.5 -24.5t24.5 -59.5q0 -33 -24.5 -57.5t-59.5 -24.5h-569q-35 0 -59.5 25t-24.5 57z" />
<glyph unicode="&#x2011;" d="M289 614q0 35 24.5 59.5t59.5 24.5h569q35 0 59.5 -24.5t24.5 -59.5q0 -33 -24.5 -57.5t-59.5 -24.5h-569q-35 0 -59.5 25t-24.5 57z" />
<glyph unicode="&#x2012;" d="M289 614q0 35 24.5 59.5t59.5 24.5h569q35 0 59.5 -24.5t24.5 -59.5q0 -33 -24.5 -57.5t-59.5 -24.5h-569q-35 0 -59.5 25t-24.5 57z" />
<glyph unicode="&#x2013;" d="M295 614q0 35 24.5 59.5t59.5 24.5h569q35 0 59.5 -24.5t24.5 -59.5q0 -33 -24.5 -57.5t-59.5 -24.5h-569q-35 0 -59.5 25t-24.5 57z" />
<glyph unicode="&#x2014;" d="M209 614q0 35 24.5 59.5t57.5 24.5h747q35 0 58.5 -24.5t23.5 -59.5q0 -33 -23.5 -57.5t-58.5 -24.5h-747q-33 0 -57.5 25t-24.5 57z" />
<glyph unicode="&#x2018;" d="M555 1135q0 90 22.5 152.5t50 102.5t51 58t26.5 20q29 16 61.5 7t50.5 -35q14 -29 5 -63t-38 -52q-2 0 -23.5 -24.5t-35.5 -83.5h23q33 0 57 -25t24 -57q0 -35 -24.5 -58.5t-56.5 -23.5h-111q-35 0 -58.5 23.5t-23.5 58.5z" />
<glyph unicode="&#x2019;" d="M479 1399q0 35 23.5 57.5t58.5 22.5h109q37 0 59.5 -22.5t22.5 -57.5q0 -84 -20.5 -144.5t-46.5 -100.5t-50.5 -61.5t-32.5 -27.5q-23 -12 -41 -12q-45 0 -65 28q-20 35 -13.5 71t37.5 52l-2 -2q6 4 26.5 29.5t35.5 85.5h-19q-35 0 -58.5 23.5t-23.5 58.5z" />
<glyph unicode="&#x201a;" d="M518 82q0 35 23.5 57.5t58.5 22.5h109q35 0 58.5 -22.5t23.5 -57.5q0 -84 -20.5 -144.5t-47.5 -100.5t-50.5 -61.5t-31.5 -27.5q-23 -12 -41 -12q-45 0 -65 28q-20 35 -13.5 71t37.5 52l-2 -2q6 4 26.5 30t34.5 85h-18q-35 0 -58.5 23.5t-23.5 58.5z" />
<glyph unicode="&#x201c;" d="M301 1135q0 90 22.5 152.5t50 102.5t52.5 58t27 20q29 16 61.5 8t48.5 -36q16 -29 8 -61.5t-36 -51.5q-14 -4 -25 -16q-10 -10 -20.5 -33t-16.5 -61h19q37 0 59 -25t22 -57q0 -35 -22.5 -58.5t-58.5 -23.5h-109q-33 0 -57.5 23.5t-24.5 58.5zM672 1135q0 90 22.5 152.5 t50 102.5t52 58t26.5 20q27 16 61 7t50 -35q14 -29 6 -63t-37 -52q-2 0 -24.5 -24.5t-36.5 -83.5h22q35 0 58.5 -25t23.5 -57q0 -35 -23.5 -58.5t-58.5 -23.5h-110q-33 0 -57.5 23.5t-24.5 58.5z" />
<glyph unicode="&#x201d;" d="M309 1399q0 35 24.5 57.5t57.5 22.5h111q35 0 57.5 -22.5t22.5 -57.5q0 -90 -22.5 -153.5t-49.5 -102.5t-50.5 -57.5t-25.5 -20.5q-23 -12 -43 -12t-39.5 11t-29.5 28q-20 31 -11.5 63.5t41.5 48.5l-2 -2q6 4 27.5 29.5t34.5 85.5h-21q-33 0 -57.5 23.5t-24.5 58.5z M680 1399q0 35 24.5 57.5t57.5 22.5h110q35 0 58.5 -22.5t23.5 -57.5q0 -90 -22.5 -152.5t-50 -102.5t-51 -58.5t-25.5 -20.5q-18 -12 -43 -12q-20 0 -40 11t-30 28q-18 31 -9 63.5t40 48.5l-2 -2q6 4 27.5 29.5t33.5 85.5h-20q-33 0 -57.5 23.5t-24.5 58.5z" />
<glyph unicode="&#x201e;" d="M309 82q0 35 24.5 57.5t57.5 22.5h111q35 0 57.5 -22.5t22.5 -57.5q0 -90 -22.5 -153.5t-49.5 -102.5t-50.5 -57.5t-25.5 -20.5q-23 -12 -43 -12t-39.5 11t-29.5 28q-20 31 -11.5 63.5t41.5 48.5l-2 -2q6 4 27.5 30t34.5 85h-21q-33 0 -57.5 23.5t-24.5 58.5zM680 82 q0 35 24.5 57.5t57.5 22.5h110q35 0 58.5 -22.5t23.5 -57.5q0 -90 -22.5 -152.5t-50 -102.5t-51 -58.5t-25.5 -20.5q-18 -12 -43 -12q-20 0 -40 11t-30 28q-18 31 -9 63.5t40 48.5l-2 -2q6 4 27.5 30t33.5 85h-20q-33 0 -57.5 23.5t-24.5 58.5z" />
<glyph unicode="&#x2022;" d="M395 616q0 139 75 214t196 75t194.5 -74.5t73.5 -214.5q0 -133 -73.5 -204.5t-194.5 -71.5t-196 71.5t-75 204.5z" />
<glyph unicode="&#x2026;" d="M55 125q0 53 38 90t91 37q51 0 87 -37t36 -90t-35.5 -89t-87.5 -36q-53 0 -91 36t-38 89zM537 125q0 53 37 90t90 37t88.5 -37t35.5 -90t-35.5 -89t-88.5 -36t-90 36t-37 89zM1020 125q0 53 37 90t90 37t89 -37t36 -90t-36 -89t-89 -36t-90 36t-37 89z" />
<glyph unicode="&#x202f;" horiz-adv-x="373" />
<glyph unicode="&#x2039;" d="M416 520q0 41 24 66v-2q53 61 106.5 121.5t108.5 121.5l142 164q31 29 67.5 29t57.5 -27q20 -23 20 -53.5t-22 -52.5l-160 -189l-152 -178q72 -84 154 -178t153 -180q23 -20 26 -52t-19 -59l2 2q-10 -16 -29 -24.5t-37 -8.5q-12 0 -27.5 7.5t-25.5 17.5l-365 418 q-25 29 -24 57z" />
<glyph unicode="&#x203a;" d="M366.5 109.5q4.5 31.5 24.5 52.5l307 358q-41 47 -77.5 89t-73.5 89l-158 189v-2q-23 23 -22.5 53.5t18.5 54.5q23 27 58.5 27t66.5 -29l141 -164q53 -59 108.5 -121.5t106.5 -121.5v2q25 -25 25 -66q0 -31 -10 -45l-379 -430q-10 -10 -25.5 -17.5t-27.5 -7.5 q-18 0 -37 8.5t-29 24.5l2 -2q-23 27 -18.5 58.5z" />
<glyph unicode="&#x205f;" horiz-adv-x="466" />
<glyph unicode="&#x20ac;" d="M152 614q0 35 24.5 59.5t56.5 24.5h723q35 0 58.5 -24.5t23.5 -59.5q0 -33 -23.5 -57.5t-58.5 -24.5h-723q-33 0 -57 25t-24 57zM152 901q0 35 24.5 59.5t56.5 24.5h789q35 0 58.5 -24.5t23.5 -59.5q0 -33 -23.5 -57.5t-58.5 -24.5h-789q-33 0 -57 24.5t-24 57.5z M299 758q0 135 36 267t104.5 236.5t171 169t235.5 64.5q80 0 138 -7t96 -16.5t59.5 -19.5t29.5 -14q23 -14 40.5 -39t2.5 -60q-14 -27 -44.5 -39t-55.5 -4q-4 0 -6 2t-6 2l-28.5 9.5t-45.5 9.5t-72 7t-108 3q-74 0 -142.5 -38t-122 -111.5t-86 -180t-32.5 -241.5 q0 -86 10 -189.5t48 -193.5t115 -151.5t210 -61.5q74 0 122 3t75.5 7t38.5 8l12 4q57 23 85.5 8.5t39.5 -47.5q10 -35 -3.5 -56t-41.5 -40q-16 -10 -42 -20.5t-65 -17.5t-93 -11t-128 -4q-274 0 -410.5 196.5t-136.5 565.5z" />
<glyph unicode="&#x2122;" d="M123 1372q0 23 17.5 40.5t39.5 17.5h387q23 0 40.5 -17.5t17.5 -40.5t-17.5 -39t-40.5 -16h-118v-443q0 -23 -21.5 -40t-44.5 -17t-43.5 17.5t-20.5 39.5v443h-139q-23 0 -40 16.5t-17 38.5zM737 874v498q0 23 14.5 37t30.5 21q20 2 39 -6.5t27 -24.5l65 -119l50 -90 l116 209q8 14 27.5 23.5t38.5 7.5q16 -8 29.5 -21.5t13.5 -36.5v-498q0 -23 -16.5 -40t-43.5 -17q-23 0 -40 17.5t-17 39.5v277l-63 -119q-6 -6 -17.5 -12t-27.5 -6q-39 0 -50 33l2 -3l-20 39l-27 50q-4 10 -5 13t-7 13v-285q0 -23 -17.5 -40t-39.5 -17q-23 0 -42.5 17.5 t-19.5 39.5z" />
<glyph unicode="&#x25fc;" horiz-adv-x="1095" d="M0 0v1096h1096v-1096h-1096z" />
<glyph unicode="&#xfb01;" horiz-adv-x="1705" d="M383 82v938q0 37 20 57v-2q25 27 58 27h758q35 0 59 -27v2q20 -20 20 -57v-938q0 -35 -22.5 -58.5t-56.5 -23.5h-758q-35 0 -56.5 23.5t-21.5 58.5zM543 164h596v774h-596v-774z" />
<glyph unicode="&#xfb02;" horiz-adv-x="1705" d="M383 82v938q0 37 20 57v-2q25 27 58 27h758q35 0 59 -27v2q20 -20 20 -57v-938q0 -35 -22.5 -58.5t-56.5 -23.5h-758q-35 0 -56.5 23.5t-21.5 58.5zM543 164h596v774h-596v-774z" />
</font>
</defs>
</svg>
