<?xml version="1.0" encoding="utf-8"?>
<!-- Generator: Adobe Illustrator 18.1.1, SVG Export Plug-In . SVG Version: 6.00 Build 0)  -->
<svg version="1.1" id="_x31_-fistbump" xmlns="http://www.w3.org/2000/svg" xmlns:xlink="http://www.w3.org/1999/xlink" x="0px"
	 y="0px" viewBox="0 0 180 180" enable-background="new 0 0 180 180" xml:space="preserve">
<g>
	<polygon fill="#121841" points="138.6,119.6 132.1,104.6 124.3,73.7 131.6,53.7 113.2,62.1 123.8,35.9 99.7,54.6 92.5,41.6 
		85.1,55.2 57.7,28 69.3,61.6 50.5,54.6 61.2,79.6 40.7,120.2 56.1,121.9 51.9,139.6 75.6,130.6 87.3,141.7 96.7,125.6 128.4,152 
		122.8,126.7 	"/>
	<g>
		<polygon fill="#13B3E8" points="160.8,78 154.7,78.6 136.7,69.3 97.4,77.1 92,82.8 95.1,109 103.3,112.2 112.3,108.8 111.1,112 
			120.5,112.7 127.1,106.5 143.4,102.4 159.2,96.7 164.7,88.6 		"/>
		<g>
			<polygon fill="#121841" points="145.6,95.8 148.2,87.6 139,98.1 127.1,103.2 119.9,111.3 111.1,112 120.1,115.6 126.8,110.2 
				143.4,102.4 155.3,102.4 159.2,96.7 			"/>
			<polygon fill="#121841" points="116.3,98.7 127.9,91.6 115.6,95.8 110.7,92.8 109.2,86.4 108.5,92.7 101,101 109.2,96.3 
				113.5,98.5 103.2,110.3 95.1,109 103.3,114 112.3,108.8 			"/>
		</g>
	</g>
	<g>
		<polygon fill="#FECF0C" points="19.2,78 25.3,78.6 43.3,69.3 82.6,77.1 88,82.8 84.9,109 76.7,112.2 67.7,108.8 68.9,112 
			59.5,112.7 52.9,106.5 36.6,102.4 20.8,96.7 15.3,88.6 		"/>
		<g>
			<polygon fill="#121841" points="34.4,95.8 31.8,87.6 41,98.1 52.9,103.2 60.1,111.3 68.9,112 59.9,115.6 53.2,110.2 36.6,102.4 
				24.7,102.4 20.8,96.7 			"/>
			<polygon fill="#121841" points="63.7,98.7 52.1,91.6 64.4,95.8 69.3,92.8 70.8,86.4 71.5,92.7 79,101 70.8,96.3 66.5,98.5 
				76.8,110.3 84.9,109 76.7,114 67.7,108.8 			"/>
		</g>
	</g>
</g>
</svg>
