<?xml version="1.0" encoding="utf-8"?>
<!-- Generator: Adobe Illustrator 18.1.1, SVG Export Plug-In . SVG Version: 6.00 Build 0)  -->
<svg version="1.1" id="_x31_-fistbump" xmlns="http://www.w3.org/2000/svg" xmlns:xlink="http://www.w3.org/1999/xlink" x="0px"
	 y="0px" viewBox="0 0 180 180" enable-background="new 0 0 180 180" xml:space="preserve">
<g>
	<path fill="#121841" d="M128.4,51.6c-0.8-0.8-1.6-1.5-2.4-2.3c-20.4-18.1-51.2-18.1-71.6,0c-0.8,0.7-1.6,1.5-2.4,2.3
		c-0.1,0.1-0.1,0.2-0.2,0.2l0,0c-21.1,21.1-21.1,55.4,0,76.5c21.1,21.1,55.4,21.1,76.5,0l0,0c0.1-0.1,0.2-0.1,0.2-0.2
		C149.5,107,149.5,72.8,128.4,51.6z"/>
	<g>
		<g>
			<g>
				<g>
					<g>
						<path fill="#13B3E8" d="M78.8,80.8c0.3,0,0.6,0,0.9,0c0.1,0,0.2,0,0.3,0c0.2,0,0.4-0.1,0.6-0.1c0.1,0,0.2,0,0.3-0.1
							c0.2,0,0.4-0.1,0.6-0.1c0.1,0,0.2,0,0.3-0.1c0.2-0.1,0.5-0.2,0.7-0.3c0,0,0.1,0,0.1,0c0.3-0.1,0.5-0.2,0.8-0.4
							c0.1,0,0.2-0.1,0.2-0.1c0.2-0.1,0.4-0.2,0.5-0.3c0.1-0.1,0.2-0.1,0.3-0.2c0.2-0.1,0.3-0.2,0.5-0.4c0.1-0.1,0.2-0.1,0.2-0.2
							c0.2-0.2,0.4-0.3,0.5-0.5c0,0,0.1-0.1,0.1-0.1c0,0,0,0,0,0c0.1-0.1,0.1-0.1,0.2-0.2c0.1-0.1,0.2-0.2,0.3-0.4
							c0.1-0.1,0.1-0.2,0.2-0.2c0.1-0.1,0.2-0.2,0.2-0.3c0,0,0,0,0-0.1c0.2-0.3,0.4-0.6,0.6-0.9c0,0,0,0,0-0.1c0-0.1,0-0.1,0.1-0.2
							c0.1-0.2,0.2-0.5,0.3-0.7c0-0.1,0.1-0.1,0.1-0.2c0,0,0-0.1,0-0.1c0.1-0.3,0.2-0.6,0.3-1c0,0,0,0,0-0.1c0,0,0-0.1,0-0.1
							c0-0.2,0.1-0.4,0.1-0.6c0-0.1,0-0.2,0-0.2c0-0.2,0-0.3,0.1-0.5c0,0,0-0.1,0-0.1c0,0,0-0.1,0-0.1c0-0.2,0-0.4,0-0.5
							c0,0,0-0.1,0-0.1c0-0.2,0-0.4,0-0.6c0,0,0,0,0,0c0,0,0-0.1,0-0.1c0-0.1,0-0.2,0-0.3c0-0.1,0-0.1,0-0.2c0-0.1,0-0.2-0.1-0.3
							c0-0.1,0-0.1,0-0.2c0-0.1-0.1-0.2-0.1-0.3c0-0.1,0-0.1-0.1-0.2c0-0.1-0.1-0.2-0.1-0.3c0,0,0-0.1-0.1-0.1
							c-0.1-0.1-0.1-0.2-0.2-0.3c0,0,0,0,0-0.1c-0.1-0.1-0.1-0.2-0.2-0.4c0,0,0-0.1-0.1-0.1c-0.1-0.1-0.1-0.2-0.2-0.2
							c0,0-0.1-0.1-0.1-0.1c-0.1-0.1-0.1-0.1-0.2-0.2c0,0,0,0,0-0.1c0,0,0,0,0,0c-0.1-0.1-0.2-0.2-0.4-0.4l-3.4-3
							c0-0.1,0.1-0.1,0.1-0.2c0,0,0.1-0.1,0.1-0.1c0.1-0.1,0.2-0.2,0.3-0.3c0-0.1,0.1-0.1,0.1-0.2c0.1-0.1,0.2-0.2,0.3-0.3
							c0.1-0.1,0.1-0.1,0.2-0.2c0.1-0.1,0.2-0.2,0.2-0.2c0.1-0.1,0.2-0.2,0.3-0.3c0.1-0.1,0.2-0.2,0.3-0.2c0.1-0.1,0.2-0.2,0.4-0.3
							c0.1-0.1,0.2-0.2,0.3-0.2c0.1-0.1,0.3-0.2,0.4-0.3c0.1-0.1,0.2-0.1,0.3-0.2c0.1-0.1,0.3-0.2,0.4-0.2c0.1-0.1,0.2-0.1,0.4-0.2
							c0.2-0.1,0.3-0.1,0.5-0.2c0.1-0.1,0.2-0.1,0.4-0.2c0.2-0.1,0.4-0.1,0.6-0.2c0.1,0,0.3-0.1,0.4-0.1c0.2-0.1,0.4-0.1,0.7-0.1
							c0.1,0,0.2,0,0.3-0.1c0.4,0,0.7-0.1,1.1-0.1c1.3,0,2.7,0.3,4.3,0.9c0.6,0.3,1.1,0.6,1.6,1l-5.2-4.6c-0.5-0.4-1-0.7-1.6-1
							c-1.6-0.7-3-0.9-4.3-0.9c-0.4,0-0.7,0-1.1,0.1c-0.1,0-0.2,0-0.3,0.1c-0.2,0-0.5,0.1-0.7,0.1c-0.1,0-0.3,0.1-0.4,0.1
							c-0.2,0.1-0.4,0.1-0.6,0.2c-0.1,0-0.3,0.1-0.4,0.2c-0.2,0.1-0.3,0.1-0.5,0.2c-0.1,0.1-0.2,0.1-0.4,0.2
							C81.3,56,81.2,56,81,56.1c-0.1,0.1-0.2,0.1-0.3,0.2c-0.1,0.1-0.3,0.2-0.4,0.3c-0.1,0.1-0.2,0.1-0.3,0.2
							c-0.1,0.1-0.2,0.2-0.4,0.3c-0.1,0.1-0.2,0.2-0.3,0.2c-0.1,0.1-0.2,0.2-0.3,0.3c0,0-0.1,0.1-0.1,0.1c0,0-0.1,0.1-0.1,0.1
							c-0.1,0.1-0.1,0.1-0.2,0.2c-0.1,0.1-0.2,0.2-0.3,0.3c0,0.1-0.1,0.1-0.1,0.2c-0.1,0.1-0.2,0.2-0.3,0.3c0,0-0.1,0.1-0.1,0.1
							c-0.1,0.1-0.2,0.3-0.3,0.4c0,0,0,0,0,0c-0.1,0.1-0.1,0.2-0.2,0.2c0,0-0.1,0.1-0.1,0.1c0,0.1-0.1,0.1-0.1,0.2
							c0,0,0,0.1-0.1,0.1c0,0.1-0.1,0.1-0.1,0.2c0,0,0,0,0,0.1c0,0.1-0.1,0.1-0.1,0.1l5.2,4.6c0,0,0-0.1,0.1-0.1c0,0,0,0,0-0.1
							c0,0,0.1-0.1,0.1-0.2c0,0,0-0.1,0.1-0.1c0-0.1,0.1-0.1,0.1-0.2c0,0,0,0,0-0.1c0,0.1,0,0.1,0.1,0.2c0,0.1,0,0.1,0.1,0.2
							c0,0.1,0.1,0.2,0.1,0.3c0,0.1,0,0.1,0,0.2c0,0.1,0,0.2,0.1,0.3c0,0.1,0,0.1,0,0.2c0,0.1,0,0.2,0,0.3c0,0.1,0,0.1,0,0.2
							c0,0.2,0,0.4,0,0.6c0,0,0,0.1,0,0.1c0,0.2,0,0.4,0,0.5c0,0.1,0,0.2,0,0.2c0,0.2,0,0.3-0.1,0.5c0,0.1,0,0.2,0,0.2
							c0,0.2-0.1,0.4-0.1,0.6c0,0.1,0,0.1,0,0.2c-0.1,0.3-0.2,0.7-0.3,1c0,0.1-0.1,0.2-0.1,0.3c-0.1,0.2-0.2,0.5-0.3,0.7
							c0,0.1-0.1,0.2-0.1,0.2c-0.2,0.3-0.4,0.6-0.6,0.9c-0.1,0.1-0.2,0.2-0.3,0.4c-0.1,0.1-0.1,0.2-0.2,0.2
							c-0.1,0.1-0.2,0.3-0.3,0.4c-0.1,0.1-0.1,0.1-0.2,0.2c0,0-0.1,0.1-0.1,0.1c-0.2,0.2-0.4,0.3-0.5,0.5c-0.1,0.1-0.2,0.1-0.2,0.2
							c-0.2,0.1-0.3,0.2-0.5,0.4c-0.1,0.1-0.2,0.1-0.3,0.2c-0.2,0.1-0.4,0.2-0.5,0.3c-0.1,0-0.2,0.1-0.2,0.1
							c-0.3,0.1-0.5,0.3-0.8,0.4c0,0-0.1,0-0.1,0c-0.2,0.1-0.5,0.2-0.7,0.3c-0.1,0-0.2,0.1-0.3,0.1C76,75.9,75.8,76,75.6,76
							c-0.1,0-0.2,0-0.3,0.1c-0.2,0-0.4,0.1-0.6,0.1c-0.1,0-0.2,0-0.3,0c-0.3,0-0.6,0-0.9,0c-1,0-2.1-0.2-3.1-0.5
							c-1-0.3-1.9-0.9-2.7-1.6l5.2,4.6C74.6,80.2,76.7,80.8,78.8,80.8z"/>
						<path fill="#13B3E8" d="M96.3,88.3c-0.4,0.2-0.8,0.4-1.2,0.5c-0.1,0-0.1,0.1-0.2,0.1c-0.4,0.2-0.7,0.3-1.1,0.5
							c-0.1,0-0.2,0.1-0.3,0.1c-0.4,0.2-0.8,0.3-1.2,0.5c-0.1,0-0.1,0-0.2,0.1c-0.4,0.2-0.9,0.4-1.3,0.5c-0.4,0.2-0.9,0.4-1.3,0.5
							c0,0,0,0,0,0c-0.4,0.2-0.8,0.3-1.2,0.5c-0.1,0-0.2,0.1-0.3,0.1c-0.4,0.2-0.8,0.3-1.2,0.5c0,0,0,0,0,0
							c-0.4,0.2-0.8,0.4-1.2,0.6c-0.1,0-0.2,0.1-0.3,0.1c-0.4,0.2-0.7,0.4-1.1,0.5c0,0-0.1,0-0.1,0.1c-0.4,0.2-0.8,0.4-1.2,0.6
							c-0.1,0.1-0.2,0.1-0.3,0.2c-0.3,0.2-0.7,0.4-1,0.6c-0.1,0-0.1,0.1-0.2,0.1c-0.4,0.2-0.8,0.5-1.1,0.7c-0.1,0.1-0.2,0.1-0.3,0.2
							c-0.3,0.2-0.6,0.4-0.9,0.7c-0.1,0.1-0.1,0.1-0.2,0.2c-0.4,0.3-0.7,0.6-1.1,0.9c-0.1,0.1-0.2,0.1-0.2,0.2
							c-0.3,0.3-0.6,0.5-0.9,0.8c-0.1,0.1-0.1,0.1-0.2,0.2c0,0-0.1,0.1-0.1,0.1c-0.1,0.1-0.2,0.2-0.3,0.3c-0.3,0.3-0.6,0.6-0.8,0.9
							c-0.1,0.2-0.3,0.3-0.4,0.5c-0.2,0.3-0.5,0.6-0.7,0.9c-0.1,0.1-0.1,0.2-0.2,0.3c-0.1,0.1-0.2,0.3-0.3,0.4
							c-0.1,0.2-0.3,0.4-0.4,0.6c-0.2,0.3-0.3,0.5-0.5,0.8c-0.1,0.2-0.2,0.4-0.4,0.6c0,0.1-0.1,0.2-0.1,0.2
							c-0.1,0.2-0.2,0.5-0.3,0.7c-0.1,0.2-0.2,0.4-0.3,0.6c-0.2,0.4-0.3,0.8-0.5,1.2c-0.1,0.2-0.1,0.4-0.2,0.5c0,0,0,0.1,0,0.1
							c-0.2,0.6-0.4,1.1-0.6,1.7c0,0,0,0,0,0l5.2,4.6c0.2-0.6,0.4-1.2,0.6-1.8c0.1-0.2,0.1-0.4,0.2-0.5c0.2-0.4,0.3-0.8,0.5-1.1
							c0.1-0.2,0.2-0.4,0.3-0.6c0.2-0.3,0.3-0.6,0.5-0.9c0.1-0.2,0.2-0.4,0.4-0.6c0.2-0.3,0.3-0.6,0.5-0.8c0.1-0.2,0.3-0.4,0.4-0.6
							c0.2-0.2,0.3-0.5,0.5-0.7c0.2-0.3,0.5-0.6,0.7-0.9c0.1-0.2,0.3-0.4,0.4-0.5c0.3-0.3,0.5-0.6,0.8-0.9c0.1-0.1,0.3-0.3,0.4-0.4
							c0.1-0.1,0.1-0.1,0.2-0.2c0.3-0.3,0.6-0.5,0.9-0.8c0.1-0.1,0.2-0.1,0.2-0.2c0.3-0.3,0.7-0.6,1.1-0.9c0.1-0.1,0.1-0.1,0.2-0.2
							c0.3-0.2,0.6-0.5,1-0.7c0.1-0.1,0.2-0.1,0.3-0.2c0.4-0.3,0.8-0.5,1.1-0.7c0.1,0,0.1-0.1,0.2-0.1c0.3-0.2,0.7-0.4,1-0.6
							c0.1-0.1,0.2-0.1,0.3-0.2c0.4-0.2,0.8-0.4,1.2-0.6c0,0,0.1,0,0.1-0.1c0.4-0.2,0.7-0.4,1.1-0.5c0.1,0,0.2-0.1,0.3-0.1
							c0.4-0.2,0.8-0.4,1.2-0.6c0,0,0,0,0,0c0.4-0.2,0.8-0.4,1.2-0.5c0.1,0,0.2-0.1,0.3-0.1c0.4-0.2,0.8-0.3,1.2-0.5c0,0,0,0,0,0
							c0.5-0.2,0.9-0.4,1.4-0.6c0.4-0.2,0.8-0.3,1.2-0.5c0.1,0,0.2-0.1,0.3-0.1c0.4-0.2,0.8-0.3,1.2-0.5c0.1,0,0.2-0.1,0.3-0.1
							c0.4-0.1,0.7-0.3,1.1-0.5c0.1,0,0.1-0.1,0.2-0.1c0.4-0.2,0.8-0.3,1.2-0.5c0.1,0,0.2-0.1,0.3-0.1c0.3-0.2,0.7-0.3,1-0.5
							c0.1,0,0.1-0.1,0.2-0.1c0.4-0.2,0.7-0.4,1.1-0.6c0.1,0,0.2-0.1,0.3-0.1c0.3-0.2,0.6-0.3,0.9-0.5c0.1,0,0.1-0.1,0.2-0.1
							c0.3-0.2,0.7-0.4,1-0.7c0.1-0.1,0.1-0.1,0.2-0.2c0.3-0.2,0.6-0.4,0.8-0.6c0.1-0.1,0.1-0.1,0.2-0.2c0.3-0.3,0.6-0.5,0.9-0.8
							c0.1-0.1,0.1-0.1,0.2-0.2c0.1-0.1,0.3-0.3,0.4-0.4c0.1-0.1,0.1-0.2,0.2-0.2c0.2-0.2,0.3-0.3,0.5-0.5c0.2-0.2,0.3-0.4,0.5-0.5
							c0.1-0.2,0.3-0.4,0.4-0.5c0.1-0.1,0.2-0.2,0.2-0.3c0.1-0.1,0.2-0.3,0.3-0.4c0.1-0.1,0.1-0.2,0.2-0.3c0.2-0.4,0.5-0.7,0.7-1.1
							c0,0,0,0,0,0c0.3-0.5,0.5-1,0.7-1.5c0.1-0.2,0.1-0.3,0.2-0.5c0.1-0.3,0.3-0.6,0.4-1c0-0.1,0-0.1,0.1-0.2
							c0.1-0.2,0.1-0.4,0.2-0.6c0.1-0.3,0.2-0.7,0.3-1c0.1-0.2,0.1-0.4,0.2-0.6c0-0.2,0.1-0.4,0.1-0.5c0-0.1,0.1-0.3,0.1-0.4
							c0-0.2,0.1-0.4,0.1-0.7c0.1-0.3,0.1-0.6,0.1-0.9c0-0.2,0.1-0.4,0.1-0.7c0-0.1,0-0.2,0-0.3c0-0.2,0-0.3,0-0.5
							c0-0.3,0-0.6,0-0.9c0-0.3,0-0.5,0-0.8c0-0.3,0-0.6,0-0.9c0-0.1,0-0.2,0-0.4c0-0.2,0-0.3-0.1-0.4c0-0.2-0.1-0.5-0.1-0.7
							c0-0.3-0.1-0.6-0.1-0.8c0-0.2-0.1-0.4-0.1-0.7c-0.1-0.3-0.1-0.6-0.2-0.8c-0.1-0.2-0.1-0.4-0.2-0.6c-0.1-0.3-0.2-0.6-0.3-0.8
							c-0.1-0.2-0.1-0.4-0.2-0.6c-0.1-0.3-0.3-0.6-0.4-0.9c-0.1-0.2-0.2-0.3-0.3-0.5c-0.2-0.3-0.4-0.7-0.6-1
							c-0.1-0.1-0.1-0.2-0.2-0.3c-0.3-0.4-0.6-0.8-0.9-1.3c-0.1-0.1-0.2-0.2-0.2-0.3c-0.2-0.3-0.5-0.6-0.7-0.8c0,0,0,0-0.1-0.1
							c-0.4-0.4-0.8-0.8-1.3-1.2l-5.2-4.6c0.4,0.4,0.9,0.8,1.3,1.2c0.3,0.3,0.5,0.6,0.8,0.9c0.1,0.1,0.2,0.2,0.2,0.3
							c0.3,0.4,0.6,0.8,0.9,1.3c0.1,0.1,0.1,0.2,0.2,0.3c0.2,0.3,0.4,0.6,0.6,1c0.1,0.2,0.2,0.3,0.2,0.5c0.1,0.3,0.3,0.6,0.4,0.9
							c0.1,0.2,0.2,0.4,0.2,0.6c0.1,0.3,0.2,0.6,0.3,0.8c0.1,0.2,0.1,0.4,0.2,0.6c0.1,0.3,0.2,0.6,0.2,0.8c0.1,0.2,0.1,0.4,0.1,0.7
							c0.1,0.3,0.1,0.6,0.1,0.8c0,0.2,0.1,0.5,0.1,0.7c0,0.3,0.1,0.5,0.1,0.8c0,0.3,0,0.6,0,0.9c0,0.3,0,0.5,0,0.8
							c0,0.3,0,0.6,0,0.9c0,0.3,0,0.5-0.1,0.8c0,0.2-0.1,0.4-0.1,0.7c0,0.3-0.1,0.6-0.1,0.9c0,0.2-0.1,0.4-0.1,0.7
							c-0.1,0.3-0.1,0.6-0.2,0.9c-0.1,0.2-0.1,0.4-0.2,0.6c-0.1,0.3-0.2,0.7-0.3,1c-0.1,0.2-0.1,0.4-0.2,0.6
							c-0.1,0.4-0.3,0.7-0.4,1.1c-0.1,0.2-0.1,0.3-0.2,0.5c-0.2,0.5-0.5,1.1-0.8,1.6c-0.2,0.4-0.4,0.8-0.7,1.1
							c-0.1,0.1-0.1,0.2-0.2,0.3c-0.2,0.2-0.3,0.5-0.5,0.7c-0.1,0.2-0.3,0.4-0.4,0.5c-0.1,0.2-0.3,0.4-0.5,0.5
							c-0.1,0.2-0.3,0.3-0.5,0.5c-0.2,0.2-0.4,0.4-0.6,0.6c-0.1,0.1-0.1,0.1-0.2,0.2c-0.3,0.3-0.6,0.5-0.9,0.8
							c-0.1,0.1-0.1,0.1-0.2,0.2c-0.3,0.2-0.5,0.4-0.8,0.6c-0.1,0.1-0.1,0.1-0.2,0.2c-0.3,0.2-0.7,0.5-1,0.7c-0.1,0-0.1,0.1-0.2,0.1
							c-0.3,0.2-0.6,0.4-0.9,0.5c-0.1,0-0.2,0.1-0.3,0.1c-0.4,0.2-0.7,0.4-1.1,0.6c-0.1,0-0.1,0.1-0.2,0.1c-0.3,0.2-0.6,0.3-1,0.5
							C96.5,88.2,96.4,88.2,96.3,88.3z"/>
					</g>
					<g>
						<path fill="#FECF0C" d="M85.1,49.2c21.9,0,29.2,16.1,21.8,30.1c-7.4,13.9-30.4,9.1-36.9,30.2c0.2-0.4,3.8-8.6,15.1-8.6
							c2.6,0,5.6,0.5,9,1.6c3.9,1.3,7.2,1.8,9.9,1.8c10.1,0,12.3-7.3,7.9-11.8c0.4,0.1,7.1,2.6,5.7,12.6c-1.4,10-7.1,16.9-22.9,16.9
							c-10.7,0-15.8-6.4-21.7-6.4c-2.8,0-5.8,1.4-9.6,5.7c-0.3-0.8-7.3-17.2,12.6-31.4c23.4-16.7,21.1-31,13.8-34.1
							c-1.6-0.7-3-0.9-4.3-0.9c-5.8,0-8.6,5.3-8.8,5.5c0.4,0,7.7,0.9,5.8,8.8c-1.1,4.5-5.2,7.1-9.2,7.1c-3,0-5.9-1.4-7.6-4.4
							C61.3,63.6,69.1,49.2,85.1,49.2z"/>
					</g>
				</g>
			</g>
		</g>
		<path fill="#13B3E8" d="M123.3,107c0-0.4,0-0.7,0-1c0-0.1,0-0.1,0-0.2c0,0,0-0.1,0-0.1c0-0.4-0.1-0.7-0.1-1c0-0.1,0-0.1,0-0.2
			c0-0.3-0.1-0.5-0.2-0.8c0-0.1,0-0.2-0.1-0.3c-0.1-0.2-0.1-0.4-0.2-0.6c0-0.1-0.1-0.2-0.1-0.2c-0.1-0.3-0.2-0.5-0.3-0.8
			c0,0,0,0,0,0c-0.1-0.2-0.2-0.5-0.3-0.7c0-0.1-0.1-0.1-0.1-0.2c-0.1-0.2-0.2-0.3-0.3-0.4c0-0.1-0.1-0.1-0.1-0.2
			c-0.1-0.2-0.2-0.3-0.3-0.5c0,0,0-0.1-0.1-0.1c-0.1-0.2-0.3-0.3-0.4-0.5c0,0,0,0,0,0c0,0,0,0-0.1-0.1c-0.2-0.2-0.4-0.4-0.6-0.6l0,0
			l-5.2-4.6c0.2,0.2,0.4,0.4,0.6,0.6c0,0,0.1,0.1,0.1,0.1c0.1,0.2,0.3,0.3,0.4,0.5c0,0,0,0.1,0.1,0.1c0.1,0.1,0.2,0.3,0.3,0.5
			c0,0.1,0.1,0.1,0.1,0.2c0.1,0.1,0.2,0.3,0.3,0.4c0,0.1,0.1,0.1,0.1,0.2c0.1,0.2,0.2,0.4,0.3,0.7c0,0,0,0,0,0
			c0.1,0.2,0.2,0.5,0.3,0.8c0,0.1,0.1,0.2,0.1,0.2c0.1,0.2,0.1,0.4,0.2,0.6c0,0.1,0.1,0.2,0.1,0.3c0.1,0.2,0.1,0.5,0.2,0.8
			c0,0.1,0,0.1,0,0.2c0.1,0.3,0.1,0.7,0.1,1c0,0.1,0,0.2,0,0.3c0,0.3,0,0.7,0,1c0,0.1,0,0.2,0,0.3c0,0.4,0,0.9-0.1,1.3
			c0,0.3-0.1,0.7-0.1,1c-0.1,0.4-0.1,0.8-0.2,1.2c0,0.1,0,0.2-0.1,0.3c-0.1,0.3-0.1,0.7-0.2,1c0,0.1,0,0.1,0,0.2
			c-0.1,0.4-0.2,0.8-0.3,1.2c0,0.1-0.1,0.2-0.1,0.3c-0.1,0.4-0.3,0.8-0.4,1.2c0,0.1-0.1,0.1-0.1,0.2c-0.1,0.3-0.2,0.5-0.3,0.8
			c0,0.1-0.1,0.2-0.1,0.3c-0.1,0.3-0.2,0.5-0.4,0.8c0,0.1-0.1,0.1-0.1,0.2c-0.2,0.3-0.3,0.6-0.5,0.9c0,0.1-0.1,0.1-0.1,0.2
			c-0.1,0.2-0.3,0.4-0.4,0.6c-0.1,0.1-0.1,0.2-0.2,0.2c-0.2,0.3-0.4,0.5-0.6,0.8c0,0,0,0-0.1,0.1c-0.2,0.3-0.5,0.5-0.7,0.8
			c-0.1,0.1-0.2,0.2-0.2,0.2c-0.1,0.1-0.3,0.2-0.4,0.4c-0.1,0.1-0.2,0.2-0.3,0.3c-0.1,0.1-0.3,0.2-0.4,0.3c-0.1,0.1-0.2,0.2-0.3,0.2
			c-0.1,0.1-0.3,0.2-0.4,0.3c-0.1,0.1-0.2,0.2-0.3,0.2c-0.2,0.1-0.3,0.2-0.5,0.3c-0.1,0.1-0.2,0.1-0.3,0.2c-0.2,0.1-0.4,0.2-0.6,0.3
			c-0.1,0.1-0.2,0.1-0.3,0.2c-0.3,0.1-0.6,0.3-0.9,0.4c0,0,0,0-0.1,0c-0.3,0.1-0.6,0.3-1,0.4c-0.1,0-0.2,0.1-0.3,0.1
			c-0.2,0.1-0.5,0.2-0.7,0.3c-0.1,0-0.3,0.1-0.4,0.1c-0.2,0.1-0.4,0.1-0.7,0.2c-0.2,0-0.3,0.1-0.5,0.1c-0.2,0.1-0.4,0.1-0.7,0.2
			c-0.2,0-0.3,0.1-0.5,0.1c-0.2,0-0.5,0.1-0.7,0.1c-0.2,0-0.4,0.1-0.5,0.1c-0.2,0-0.5,0.1-0.7,0.1c-0.2,0-0.4,0.1-0.6,0.1
			c-0.3,0-0.5,0.1-0.8,0.1c-0.2,0-0.4,0-0.6,0.1c-0.3,0-0.6,0-0.8,0.1c-0.2,0-0.4,0-0.6,0c-0.3,0-0.7,0-1,0c-0.2,0-0.3,0-0.5,0
			c-0.5,0-1,0-1.5,0c-2.4,0-4.6-0.3-6.5-0.8c-6.6-1.7-10.6-5.6-15.2-5.6c-0.2,0-0.3,0-0.5,0c-0.1,0-0.1,0-0.2,0c-0.1,0-0.2,0-0.3,0
			c-0.1,0-0.1,0-0.2,0c-0.1,0-0.2,0-0.3,0.1c-0.1,0-0.1,0-0.2,0c-0.1,0-0.2,0-0.3,0.1c-0.1,0-0.1,0-0.2,0.1c-0.1,0-0.2,0.1-0.3,0.1
			c-0.1,0-0.1,0-0.2,0.1c-0.1,0-0.2,0.1-0.3,0.1c-0.1,0-0.1,0.1-0.2,0.1c-0.1,0-0.2,0.1-0.3,0.2c-0.1,0-0.1,0.1-0.2,0.1
			c-0.1,0.1-0.3,0.1-0.4,0.2c-0.1,0-0.1,0.1-0.2,0.1c-0.2,0.1-0.4,0.2-0.6,0.3c0,0-0.1,0-0.1,0.1c-0.2,0.1-0.3,0.2-0.5,0.3
			c-0.1,0-0.1,0.1-0.2,0.2c-0.1,0.1-0.3,0.2-0.4,0.3c-0.1,0.1-0.2,0.1-0.2,0.2c-0.1,0.1-0.2,0.2-0.4,0.3c-0.1,0.1-0.2,0.1-0.3,0.2
			c-0.1,0.1-0.2,0.2-0.4,0.3c-0.1,0.1-0.2,0.2-0.3,0.2c-0.1,0.1-0.3,0.2-0.4,0.4c-0.1,0.1-0.2,0.2-0.3,0.3c0,0-0.1,0.1-0.1,0.1
			c-0.1,0.1-0.2,0.2-0.3,0.3c-0.1,0.1-0.1,0.1-0.2,0.2c-0.2,0.2-0.4,0.5-0.7,0.7l5.2,4.6c0.2-0.2,0.4-0.5,0.7-0.7
			c0.1-0.1,0.1-0.1,0.2-0.2c0.1-0.1,0.3-0.3,0.4-0.4c0.1-0.1,0.2-0.2,0.3-0.3c0.1-0.1,0.3-0.2,0.4-0.4c0.1-0.1,0.2-0.2,0.3-0.2
			c0.1-0.1,0.2-0.2,0.4-0.3c0.1-0.1,0.2-0.1,0.3-0.2c0.1-0.1,0.2-0.2,0.4-0.3c0.1-0.1,0.2-0.1,0.2-0.2c0.1-0.1,0.3-0.2,0.4-0.3
			c0.1-0.1,0.1-0.1,0.2-0.2c0.2-0.1,0.3-0.2,0.5-0.3c0,0,0.1,0,0.1-0.1c0.2-0.1,0.4-0.2,0.6-0.3c0.1,0,0.1-0.1,0.2-0.1
			c0.1-0.1,0.3-0.1,0.4-0.2c0.1,0,0.1-0.1,0.2-0.1c0.1-0.1,0.2-0.1,0.3-0.2c0.1,0,0.1-0.1,0.2-0.1c0.1,0,0.2-0.1,0.3-0.1
			c0.1,0,0.1-0.1,0.2-0.1c0.1,0,0.2-0.1,0.3-0.1c0.1,0,0.1,0,0.2-0.1c0.1,0,0.2-0.1,0.3-0.1c0.1,0,0.1,0,0.2,0c0.1,0,0.2,0,0.3-0.1
			c0.1,0,0.1,0,0.2,0c0.1,0,0.2,0,0.3,0c0.1,0,0.1,0,0.2,0c0.2,0,0.3,0,0.5,0c4.3,0,8.3,3.5,14.3,5.3c2.1,0.6,4.6,1.1,7.4,1.1
			c0.5,0,1,0,1.5,0c0.2,0,0.3,0,0.5,0c0.3,0,0.7,0,1,0c0.2,0,0.4,0,0.6,0c0.3,0,0.6,0,0.8-0.1c0.2,0,0.4,0,0.6-0.1
			c0.3,0,0.5-0.1,0.8-0.1c0.2,0,0.4-0.1,0.6-0.1c0.2,0,0.5-0.1,0.7-0.1c0.2,0,0.4-0.1,0.5-0.1c0.2,0,0.5-0.1,0.7-0.1
			c0.2,0,0.3-0.1,0.5-0.1c0.2-0.1,0.5-0.1,0.7-0.2c0.2,0,0.3-0.1,0.5-0.1c0.2-0.1,0.4-0.1,0.7-0.2c0.1,0,0.3-0.1,0.4-0.1
			c0.2-0.1,0.5-0.2,0.7-0.3c0.1,0,0.2-0.1,0.3-0.1c0.3-0.1,0.7-0.3,1-0.4c0,0,0,0,0.1,0c0.3-0.1,0.6-0.3,0.9-0.4
			c0.1-0.1,0.2-0.1,0.3-0.2c0.2-0.1,0.4-0.2,0.6-0.3c0.1-0.1,0.2-0.1,0.3-0.2c0.2-0.1,0.3-0.2,0.5-0.3c0.1-0.1,0.2-0.2,0.3-0.2
			c0.1-0.1,0.3-0.2,0.4-0.3c0.1-0.1,0.2-0.2,0.3-0.2c0.1-0.1,0.3-0.2,0.4-0.3c0.1-0.1,0.2-0.2,0.3-0.3c0.1-0.1,0.3-0.2,0.4-0.4
			c0.1-0.1,0.1-0.1,0.2-0.2c0,0,0.1-0.1,0.1-0.1c0.3-0.3,0.5-0.5,0.7-0.8c0,0,0,0,0.1-0.1c0.2-0.3,0.4-0.5,0.6-0.8
			c0,0,0.1-0.1,0.1-0.1c0,0,0.1-0.1,0.1-0.1c0.1-0.2,0.3-0.4,0.4-0.6c0-0.1,0.1-0.1,0.1-0.2c0.2-0.3,0.3-0.6,0.5-0.9c0,0,0,0,0,0
			c0,0,0-0.1,0.1-0.1c0.1-0.3,0.3-0.5,0.4-0.8c0-0.1,0.1-0.2,0.1-0.3c0.1-0.3,0.2-0.5,0.3-0.8c0-0.1,0-0.1,0.1-0.2c0,0,0,0,0,0
			c0.1-0.4,0.3-0.8,0.4-1.2c0-0.1,0.1-0.2,0.1-0.3c0.1-0.4,0.2-0.8,0.3-1.2c0,0,0,0,0,0c0,0,0-0.1,0-0.1c0.1-0.3,0.1-0.7,0.2-1
			c0-0.1,0-0.2,0.1-0.3c0.1-0.4,0.1-0.8,0.2-1.2c0-0.3,0.1-0.6,0.1-1c0,0,0,0,0-0.1c0-0.5,0.1-0.9,0.1-1.3
			C123.3,107.2,123.3,107.1,123.3,107z"/>
	</g>
	<g>
		<path fill="#FECF0C" d="M64.5,66.4l17-17C70.7,51,64.6,59.3,64.5,66.4z"/>
		<path fill="#FECF0C" d="M85,49.2c-1.2,0-2.4,0.1-3.5,0.3l-17,17c0,1.9,0.4,3.8,1.3,5.4c1.1,1.9,2.6,3.1,4.4,3.8
			c1,0.4,2.1,0.6,3.2,0.6c4,0,8.1-2.5,9.2-7.1c0.6-2.5,0.3-4.2-0.4-5.5c-1.6-2.8-5.1-3.3-5.4-3.3c0.1-0.3,3-5.5,8.8-5.5
			c1.3,0,2.7,0.3,4.3,0.9c0,0,0.1,0,0.1,0.1l5.2-5.2C92.3,49.7,88.9,49.2,85,49.2z"/>
	</g>
	<path fill="#FDEB07" d="M111.9,54.8"/>
	<g>
		<path fill="none" d="M105.1,104.2c8.5-0.5,10.8-6.4,7.8-10.7l-2.9,5.9L105.1,104.2z"/>
		<path fill="#FECF0C" d="M113.1,93l-0.2,0.5c3.1,4.3,0.8,10.3-7.8,10.7l-16.9,16.9c2,0.5,4.1,0.9,6.6,0.9
			c15.8,0,21.5-6.9,22.9-16.9C118.8,97.3,115,94.1,113.1,93z"/>
		<path fill="#FFFFFF" d="M104.1,104.3c-2.7,0-6-0.5-9.9-1.8c-1.7-0.5-3.3-0.9-4.8-1.2l-14.5,14.5c3.9,0.8,7.7,3.8,13.3,5.3
			l16.9-16.9C104.7,104.2,104.4,104.3,104.1,104.3z"/>
		<path fill="#FECF0C" d="M112.8,93.5l0.2-0.5c-0.6-0.3-1-0.5-1.1-0.5C112.3,92.8,112.6,93.1,112.8,93.5z"/>
	</g>
	<g>
		<path fill="#FECF0C" d="M92.5,72.9c-2.7,5-7.8,10.8-16.4,17c-19.9,14.2-12.9,30.7-12.6,31.4c3.9-4.3,6.8-5.7,9.6-5.7
			c0.6,0,1.1,0.1,1.7,0.2l14.5-14.5c-1.5-0.3-3-0.4-4.3-0.4c-11.3,0-15,8.2-15.1,8.6c6.4-21.1,29.5-16.3,36.9-30.2
			c3.8-7.1,3.7-14.8-0.1-20.6L92.5,72.9z"/>
		<path fill="#FFFFFF" d="M95.2,50.6l-5.2,5.2c4.6,2,7,8.5,2.4,17.1l14.2-14.2C104.3,55.1,100.5,52.2,95.2,50.6z"/>
	</g>
</g>
</svg>
