<?xml version="1.0" encoding="utf-8"?>
<!-- Generator: Adobe Illustrator 18.1.1, SVG Export Plug-In . SVG Version: 6.00 Build 0)  -->
<svg version="1.1" id="_x31_-fistbump" xmlns="http://www.w3.org/2000/svg" xmlns:xlink="http://www.w3.org/1999/xlink" x="0px"
	 y="0px" viewBox="0 0 180 180" enable-background="new 0 0 180 180" xml:space="preserve">
<g>
	<path fill="#121841" d="M128.5,114.4c0.1-2,0.1-4-0.1-6.1c0.3-4.2-0.9-9.4-5.5-14.7c-0.9-1-1.9-2-2.9-3c-0.2-0.2-0.4-0.3-0.6-0.5
		c-7-6-14.1-7.9-19.6-8.2l4.4-9.5l2.4-5.8c0,0-5.6-12.2-5.6-12.3c0,0-58.5,13.7-58.5,13.7l0.5,8.4l5.9,13.5l9.6-2.2l0.5,7.4
		l6.4,11.7c0,0,0.2-0.1,0.4-0.2c0.1,0,0.1-0.1,0.2-0.1c0.1,0,0.1-0.1,0.2-0.1c0.1,0,0.1-0.1,0.2-0.1c0.1-0.1,0.2-0.1,0.3-0.2
		c0.1,0,0.2-0.1,0.2-0.1c0.1-0.1,0.3-0.1,0.4-0.2c0.1-0.1,0.2-0.1,0.3-0.2c0.1-0.1,0.3-0.1,0.4-0.2c0.1-0.1,0.3-0.1,0.4-0.2
		c0.2-0.1,0.3-0.1,0.5-0.2c0.1-0.1,0.3-0.1,0.5-0.2c0.2-0.1,0.3-0.1,0.5-0.2c0.4-0.2,0.9-0.3,1.3-0.5c0.1,0,0.3-0.1,0.4-0.1
		c0.4-0.1,0.7-0.3,1.1-0.4c0.2-0.1,0.3-0.1,0.5-0.2c0.5-0.1,0.9-0.3,1.4-0.4c0.1,0,0.1,0,0.2-0.1c0.6-0.2,1.1-0.3,1.7-0.5
		c0.2,0,0.3-0.1,0.5-0.1c0.5-0.1,1-0.2,1.5-0.3c0.2,0,0.4-0.1,0.6-0.1c0.7-0.1,1.4-0.3,2.1-0.4c0.6-0.1,1.2-0.2,1.8-0.2
		c0.6-0.1,1.1-0.1,1.7-0.1c0.3,0,0.6,0,0.8-0.1c0.9,0,1.7,0,2.6,0c0.7,0,1.4,0.1,2.1,0.1c0.2,0,0.3,0,0.5,0c0.7,0.1,1.4,0.2,2.1,0.3
		c0.1,0,0.2,0,0.3,0.1c0.7,0.1,1.3,0.3,2,0.4c0.1,0,0.2,0.1,0.4,0.1c0.7,0.2,1.4,0.4,2.1,0.7c0.2,0.1,0.3,0.1,0.5,0.2
		c0.7,0.3,1.5,0.6,2.2,0.9c2.3,1.1,4.1,2.4,5.3,3.7c-2.8,4.3-10.2,7.8-18.4,8.6c-14.3,1.5-23.3-2.7-23.3-2.7l-1.5,1.5c0,0,0,0,0,0
		c0,0-3,3.2-3,3.2l-6.8,7.3c0,0,0.1,0,0.1,0.1c0,0-0.1,0-0.1-0.1l0,0.2c0,0.1,0,0.2,0,0.4l0,0.5c0,0.2,0,0.4,0,0.7l0.4,5.7
		c0,0.1,0,0.1,0,0.2l0,0.5c0,0.1,0,0.2,0,0.2c0,0.4,4.1,1.7,4.5,1.9c1.4,0.5,3.2,1.2,5.1,1.8c0.1,0,0.2,0.1,0.2,0.1
		c1.6,0.5,3.3,1,5.1,1.5c0,0,0.1,0,0.1,0c0,0,0.1,0,0.1,0c0.8,0.2,1.6,0.4,2.5,0.6c7.7,1.9,15.9,3.1,23.9,2.5c1.7-0.1,3.3-0.3,5-0.5
		c5.8-0.8,11.4-2.7,16.3-6c0,0,0.1,0,0.1-0.1c0.1-0.1,0.2-0.2,0.4-0.3c0.3-0.2,0.6-0.4,0.9-0.7c0.2-0.1,0.4-0.3,0.5-0.4
		C125.4,128.9,128,122.3,128.5,114.4z M102.5,96.8c0.2,0.1,0.4,0.2,0.6,0.4c0,0,0,0,0,0C102.9,97.1,102.7,96.9,102.5,96.8z
		 M60.7,128.4c-2.7-0.9-4.8-1.7-6.1-2.3C56,126.7,58.1,127.6,60.7,128.4C60.7,128.5,60.7,128.5,60.7,128.4z M122.8,121.2
		c-0.3,0.3-0.6,0.7-0.9,1c0,0,0,0,0,0C122.2,121.9,122.5,121.5,122.8,121.2C122.8,121.2,122.8,121.2,122.8,121.2z M123.6,120.1
		c-0.2,0.2-0.3,0.4-0.5,0.6C123.3,120.5,123.5,120.3,123.6,120.1C123.7,120.1,123.6,120.1,123.6,120.1z M124.4,119.1
		c-0.1,0.2-0.2,0.3-0.3,0.5C124.2,119.3,124.3,119.2,124.4,119.1C124.5,119,124.4,119,124.4,119.1z M125,118.1
		c-0.1,0.1-0.1,0.2-0.2,0.3C124.9,118.3,125,118.2,125,118.1C125,118.1,125,118.1,125,118.1z"/>
	<g>
		<g>
			<g enable-background="new    ">
				<g>
					<polygon fill="#806829" points="57,64 57.5,72.4 51.7,59.7 51.2,51.3 					"/>
				</g>
				<g>
					<polygon fill="#806829" points="92.7,55.7 93.3,64 57.5,72.4 57,64 					"/>
				</g>
				<g>
					<polygon fill="#806829" points="115.3,49.9 115.8,58.3 98.4,74.7 97.9,66.3 					"/>
				</g>
				<g>
					<polygon fill="#806829" points="73.5,81.7 74.1,90.1 67.6,78.3 67.1,70 					"/>
				</g>
				<g enable-background="new    ">
					<defs>
						<path id="SVGID_5_" enable-background="new    " d="M116,86.9l0.5,8.4c-0.2-2.9-2.5-5.8-7.4-8.1c-6.5-3.1-13.3-3.3-19.1-2.5
							c-9.1,1.3-15.7,5.1-16,5.3l-0.5-8.4c0.3-0.2,6.9-4,16-5.3c5.9-0.9,12.7-0.6,19.1,2.5C113.5,81.1,115.8,84,116,86.9z"/>
					</defs>
					<clipPath id="SVGID_2_">
						<use xlink:href="#SVGID_5_"  overflow="visible"/>
					</clipPath>
					<g clip-path="url(#SVGID_2_)" enable-background="new    ">
						<path fill="#806829" d="M116,86.9l0.5,8.4c-0.2-2.9-2.5-5.8-7.4-8.1c-4-1.9-8.2-2.7-12.2-2.9l-0.5-8.4c4,0.1,8.1,0.9,12.2,2.9
							C113.5,81.1,115.8,84,116,86.9"/>
						<path fill="#806829" d="M100.6,73.8c-1.9-0.1-7.8,2.2-9.6,2.4c-0.5,0.1-1,0.1-1.5,0.2c-1.6,0.2-3.1,0.5-4.5,0.9
							c-2.7,0.7-5,1.5-6.9,2.2c-2.8,1.1-4.5,2.1-4.7,2.2l0.5,8.4c0.2-0.1,1.9-1.1,4.7-2.2c1.9-0.8,4.2-1.6,6.9-2.2
							c1.4-0.3,2.9-0.6,4.5-0.9c0.5-0.1,1-0.1,1.5-0.2c1.8-0.2,3.6-0.3,5.5-0.2L100.6,73.8z"/>
					</g>
				</g>
				<g enable-background="new    ">
					<defs>
						<path id="SVGID_7_" enable-background="new    " d="M136.9,89.4l0.5,8.4c0.4,5.4-1.6,11-6.4,16.2c-6.1,6.6-14,9.9-22.3,11.1
							c-22.1,3.2-45.4-7.4-46.6-7.9l-0.5-8.4c1.2,0.6,24.6,11.2,46.6,7.9c8.3-1.2,16.2-4.5,22.3-11.1
							C135.4,100.4,137.3,94.8,136.9,89.4z"/>
					</defs>
					<clipPath id="SVGID_4_">
						<use xlink:href="#SVGID_7_"  overflow="visible"/>
					</clipPath>
					<g clip-path="url(#SVGID_4_)" enable-background="new    ">
						<path fill="#94792D" d="M136.9,89.4l0.5,8.4c0,0.1,0,0.3,0,0.4l-0.5-8.4C136.9,89.7,136.9,89.5,136.9,89.4"/>
						<path fill="#806829" d="M136.9,89.8c0.1,2.2-0.2,4.4-0.9,6.7c-1,3.1-2.8,6.2-5.5,9.2c-1.8,2-3.8,3.6-5.9,5l0.5,8.4
							c2.1-1.4,4.1-3.1,5.9-5c2.7-3,4.5-6.1,5.5-9.2c0.7-2.2,1-4.5,0.9-6.7L136.9,89.8z"/>
						<path fill="#806829" d="M124.6,110.6c-15.9,10.7-39.4,6.1-55.6,1.1c-1.1-0.3-2.2-0.8-3.2-1.2c-0.4-0.2-4.3-1.4-4.3-1.8
							l0.5,8.4c0,0.4,4.1,1.7,4.5,1.9c3.5,1.3,7,2.5,10.6,3.4c8.9,2.4,18.6,4,28,3c7-0.7,14.3-2.7,20-6.4L124.6,110.6z"/>
					</g>
				</g>
			</g>
		</g>
		<g>
			<path fill="#FECF0C" d="M99.1,66.1c-0.4,0.1-0.8,0.1-1.2,0.2l17.4-16.4l-5.6-12.2L51.2,51.3L57,64l35.7-8.3L67.1,70l6.4,11.7
				c0.3-0.2,6.9-4,16-5.3c5.9-0.9,12.7-0.6,19.1,2.5c2.3,1.1,4,2.3,5.2,3.6l11.6-11C118.6,67,109.3,64.6,99.1,66.1z"/>
			<path fill="#FECF0C" d="M71.3,98.3l-9.7,10.5c0.7,0.3,8.1,3.7,18.2,6.1L95.5,100C88.6,100.8,80.4,100.4,71.3,98.3z"/>
			<path fill="#FECF0C" d="M104.3,117.1c1.3-0.1,2.6-0.2,3.9-0.4c8.3-1.2,16.2-4.5,22.3-11.1c5.7-6.1,7.3-12.9,6-19L104.3,117.1z"/>
			<path fill="#FDEB07" d="M125.5,71.5l-11.6,11c6.2,6.7-1.7,15.1-17.2,17.3c-0.4,0.1-0.9,0.1-1.3,0.2l-15.7,14.9
				c7.2,1.7,15.9,3,24.6,2.3l32.2-30.5C135.3,80.7,131.3,75.3,125.5,71.5z"/>
		</g>
		<path fill="#FDEB07" d="M99.1,66.1l16.2-16.3l-5.6-12.2l-20,4.7L72.6,60.4l20.1-4.7L67.1,70l6.4,11.7c0,0,15-8.1,30.4-4.7
			L115,66.9C115,66.9,107.7,64,99.1,66.1z"/>
	</g>
</g>
</svg>
