<?xml version="1.0" encoding="utf-8"?>
<!-- Generator: Adobe Illustrator 18.1.1, SVG Export Plug-In . SVG Version: 6.00 Build 0)  -->
<svg version="1.1" id="_x31_-fistbump" xmlns="http://www.w3.org/2000/svg" xmlns:xlink="http://www.w3.org/1999/xlink" x="0px"
	 y="0px" viewBox="0 0 180 180" enable-background="new 0 0 180 180" xml:space="preserve">
<g>
	<polygon fill="#C1CEC5" points="136.9,63.1 136.9,63.1 136.9,63.1 	"/>
	<polygon fill="#D3DDD5" points="117,70.3 117,70.3 117,70.3 	"/>
	<g>
		<path fill="#13B3E8" d="M79.9,35l6.4,2l-3.5-0.2v12.6h-7.9v18.8h41.4V49.4h-4.6V38.5l-4-0.2l4-1.4c12.3,0,15.1-15.6,15.1-15.6h-31
			v0h-31C64.8,21.2,67.6,35,79.9,35z"/>
		<rect x="60.6" y="76.6" fill="#13B3E8" width="70.3" height="67.4"/>
	</g>
	<rect x="118.3" y="76.6" opacity="0.5" fill="#FFFFFF" width="12.6" height="67.4"/>
	<rect x="103.7" y="49.4" opacity="0.5" fill="#FFFFFF" width="12.6" height="18.8"/>
	<rect x="99.1" y="37" opacity="0.5" fill="#FFFFFF" width="12.6" height="11.5"/>
	<path fill="#121841" d="M75.8,144v-13.6l55.1,0v-1.7H75.8v-16.6l55.1,0v-1.7H75.8l0-16.4l55.1-0.2v-1.7H75.8V76.6h55.1l-10-8.4
		H82.4V49.4h3.3h26v-1.9h-26v-6.2l26-2.9v-1.6H90.7c-12.3,0-15.1-15.6-15.1-15.6H64.8c0,0,2.8,15.6,15.1,15.6h0l0,5.1v5.5v1.9h-5
		v18.8h-4.2l-10,8.4h0l0,67.4h-7v14.8h32.7V144H75.8z"/>
	<g opacity="0.5">
		<path fill="#FFFFFF" d="M96.7,36.8c-1.4,0-2,0-2,0S95.4,36.9,96.7,36.8z"/>
		<path fill="#FFFFFF" d="M115,21.2c0,13.6-13.2,15.4-18.4,15.6c2.4,0,7.1,0,15,0c12.5,0,15.1-15.6,15.1-15.6L115,21.2z"/>
	</g>
	<rect x="86.2" y="143.8" fill="#13B3E8" width="50.6" height="15"/>
	<rect x="124.2" y="143.8" opacity="0.5" fill="#FFFFFF" width="12.6" height="15"/>
	<polygon fill="#FECF0C" points="59.5,48.6 67.4,47 59.6,44.9 58,36.7 55.9,44.8 48,46.4 55.8,48.5 57.4,56.8 	"/>
	<polygon fill="#FECF0C" points="133.3,62.6 139.3,61.4 133.4,59.8 132.2,53.5 130.6,59.8 124.6,61 130.5,62.5 131.8,68.8 	"/>
	<polygon fill="#FECF0C" points="49.4,122.6 55.4,121.4 49.5,119.8 48.2,113.6 46.7,119.8 40.7,121 46.6,122.5 47.8,128.8 	"/>
</g>
</svg>
