<?xml version="1.0" encoding="utf-8"?>
<!-- Generator: Adobe Illustrator 18.1.1, SVG Export Plug-In . SVG Version: 6.00 Build 0)  -->
<svg version="1.1" id="_x31_-fistbump" xmlns="http://www.w3.org/2000/svg" xmlns:xlink="http://www.w3.org/1999/xlink" x="0px"
	 y="0px" viewBox="0 0 180 180" enable-background="new 0 0 180 180" xml:space="preserve">
<g>
	<g>
		<path fill="#121841" d="M83.7,149.3L88.9,63l-6.7-2.6l-16.5,80.1C65.7,140.6,78.2,140.4,83.7,149.3z"/>
		<path fill="#13B3E8" d="M114.1,152.2L99.4,74.8L87.4,63L81,158.8C81,158.8,93.5,148.2,114.1,152.2z"/>
		<polygon fill="#121841" points="98.7,70.9 99.4,74.8 81,84.7 84.9,63 		"/>
		<g>
			<g>
				<path fill="#FECF0C" d="M96,27.8c-3.7-3-7.1-5-10.3-6.4c-8-1.2-14.9,1.1-18.7,4.9c-0.9,0.9-1.6,2.1-2.1,3.6
					c-4.2,15.7,26.3,36.6,48.3,40.5C113.2,70.5,112.7,41.6,96,27.8z"/>
				<path fill="#FECF0C" d="M104.2,30.5c-6.2-5.4-12.6-8.1-18.4-9c3.2,1.3,6.7,3.3,10.3,6.4c16.6,13.8,17.2,42.7,17.2,42.7
					S123.9,47.5,104.2,30.5z"/>
			</g>
			<path fill="#121841" d="M70.5,46.3C66,40.9,63.6,35.2,65,30c-4.1,11.7,3.6,33.8,26.8,39.7c6.1,1.5,13.2,2,21.5,0.8
				C98.4,67.9,79.8,57.6,70.5,46.3z"/>
		</g>
		<path fill="#121841" d="M65.7,140.6c0,0,4.1,0,6.9,1l4.7-54.3L65.7,140.6z"/>
		<path fill="#121841" d="M88.9,154.4l1.3-74.6l4.7-2.5l8,74.1C102.8,151.3,95.5,151.7,88.9,154.4z"/>
	</g>
	<g>
		<path fill="#FFFFFF" d="M102.6,34.7c0,0-6.7-1.5-11.6,5c0.6,1.1,1.7,1.9,2.5,2.5c2.2-1.7,7-5.1,11.3-4.6
			C104.9,37.6,104.7,35.6,102.6,34.7z"/>
		<path fill="#FFFFFF" d="M100.2,32.1c0,0-0.2-2.1-2.3-2.9c0,0-7.9-2-12,5.5c0,0,0.4,1.5,2.2,2.4C89.3,35.6,94,30.8,100.2,32.1z"/>
		<path fill="#FFFFFF" d="M94.9,27.6c0,0-0.2-1.2-1.2-1.7c0,0-5.8-3.1-11.6,3.8c0,0,0.2,1.5,1.7,2.4C85,30.7,89.2,26.4,94.9,27.6z"
			/>
	</g>
</g>
</svg>
