<?xml version="1.0" encoding="utf-8"?>
<!-- Generator: Adobe Illustrator 18.1.1, SVG Export Plug-In . SVG Version: 6.00 Build 0)  -->
<svg version="1.1" id="_x31_-fistbump" xmlns="http://www.w3.org/2000/svg" xmlns:xlink="http://www.w3.org/1999/xlink" x="0px"
	 y="0px" viewBox="0 0 180 180" enable-background="new 0 0 180 180" xml:space="preserve">
<g>
	<path fill="#13B3E8" d="M90,26.1c-35.3,0-63.9,28.6-63.9,63.9c0,3.6,0.3,7.1,0.9,10.5c4.4,26.5,25.1,47.6,51.5,52.4
		c3.7,0.7,7.6,1.1,11.5,1.1c35.3,0,63.9-28.6,63.9-63.9C153.9,54.7,125.3,26.1,90,26.1z"/>
	<path fill="#121841" d="M121.2,85.4c-2.3-8.4-7.4-15.4-14-20.2l0,0c-0.7-0.5-1.3-0.9-2-1.4c-0.2,0.5-0.4,1.1-0.5,1.7
		c-0.4-0.2-0.8-0.4-1.2-0.5c0.4,0.1,0.8,0.3,1.2,0.5c0.2-0.6,0.4-1.1,0.5-1.7c-8.5-5.4-19.2-7.3-29.7-4.4c-1.4,0.4-2.8,0.9-4.2,1.4
		c0.1-0.1,0.2-0.2,0.4-0.3c-7.9,3.1-14.2,8.7-18.3,15.6c-0.4,0.7-0.9,1.5-1.2,2.2c-4,8-5.2,17.4-2.7,26.7c0,0,0,0,0,0.1c0,0,0,0,0,0
		c4.5,16.1,18.8,26.8,34.7,27.3c1.1,0,2.2,0,3.3-0.1h0c2.6-0.1,5.2-0.6,7.8-1.3c1.6-0.4,3.2-1,4.7-1.6c6.9-2.8,12.5-7.5,16.4-13.4
		c1.1-1.7,2.2-3.6,3-5.4c1.9-4.1,2.9-8.7,3.1-13.4c0-0.5,0-0.9,0-1.4c0-0.1,0-0.3,0-0.4C122.5,92.2,122.1,88.8,121.2,85.4z M57.8,84
		L57.8,84c0,0,0.1,0,0.1,0C57.9,84,57.9,84,57.8,84z M59.6,82.7c0.3-0.4,0.6-0.8,1-1.4h0C60.3,81.9,59.9,82.3,59.6,82.7z M59.4,77.2
		c1.1-1.6,2.3-2.3,2.7-1.6C61.7,74.9,60.5,75.6,59.4,77.2z M62.8,83.4c0.1-0.3,0.2-0.6,0.3-1h0C63,82.8,62.9,83.1,62.8,83.4z
		 M64.4,80c-0.9-0.4-1.8-0.7-2.6-1h0C62.6,79.3,63.5,79.6,64.4,80c0.9-1.5,1.9-2.4,2.6-2.3C66.3,77.6,65.3,78.5,64.4,80z M68.4,84.9
		c-0.6-0.3-1.2-0.6-1.9-0.9C67.2,84.3,67.8,84.6,68.4,84.9L68.4,84.9z M69.7,82.4c-0.9-0.4-1.7-0.9-2.6-1.2l0,0
		C68,81.5,68.8,81.9,69.7,82.4c0.6-1,1.3-1.7,1.8-2.1C70.9,80.7,70.3,81.4,69.7,82.4z M72.7,80.2c0.1,0.2,0.2,0.6,0.2,1
		C72.9,80.8,72.9,80.4,72.7,80.2c-0.1-0.1-0.1-0.2-0.2-0.2C72.6,80.1,72.7,80.1,72.7,80.2z M72.7,89c0.1-0.4,0.3-0.8,0.6-1.3l0,0
		C73.1,88.2,72.9,88.6,72.7,89z M90.4,97.5c-0.3,0.7-1.2,1.5-2.2,2.3h0C89.3,99,90.1,98.2,90.4,97.5z M88.3,111.7
		c0.1,0.6,0.1,1.2,0.1,1.7c-0.3,0-0.6,0.1-0.9,0.2c0.3-0.1,0.6-0.1,0.9-0.2C88.4,112.9,88.3,112.3,88.3,111.7z M76.3,92.9
		c0.2-0.6,0.6-1.3,1.1-2.1l0,0C76.9,91.5,76.5,92.3,76.3,92.9z M82.8,87.2c-0.4-0.7-1.9-0.1-3.5,1.5C81,87.1,82.5,86.5,82.8,87.2z
		 M83,87.5c0,0.7-0.5,1.9-1.4,3.1h0C82.4,89.4,83,88.3,83,87.5z M79.8,97.8c0.4,0.5,1.8,0.1,3.4-1.1C81.5,97.9,80.2,98.3,79.8,97.8z
		 M82.5,91.6c0.3,0.3,0.6,0.6,0.9,1c1.2-0.9,2.3-1.4,3-1.4c-0.7,0-1.8,0.5-3,1.4C83.1,92.2,82.8,91.9,82.5,91.6z M83.9,105.6
		c0.1-0.2,0.2-0.5,0.5-0.7C84.1,105.1,83.9,105.4,83.9,105.6z M84.9,110c0,0.1-0.1,0.2-0.1,0.3C84.8,110.2,84.9,110.1,84.9,110
		c0-0.1,0.1-0.1,0.1-0.2C85,109.9,84.9,109.9,84.9,110z M85.2,114.7c-0.1,0.1-0.1,0.2-0.1,0.3C85.1,114.9,85.1,114.8,85.2,114.7
		c0.1-0.1,0.2-0.2,0.3-0.3C85.3,114.5,85.2,114.6,85.2,114.7z M85.1,104.3c0.4-0.3,0.9-0.6,1.5-0.8l0,0
		C86,103.7,85.5,104,85.1,104.3z M87.8,108.4L87.8,108.4c-0.6,0.2-1.1,0.3-1.5,0.5C86.8,108.8,87.3,108.6,87.8,108.4z M88.3,118.2
		c-0.7,0-1.4,0.1-1.9,0.2C86.9,118.3,87.6,118.2,88.3,118.2L88.3,118.2z M88.4,117.4c0-0.3,0.1-0.7,0.1-1c-0.3,0-0.6-0.1-0.8-0.1
		c0.3,0,0.5,0.1,0.8,0.1C88.4,116.7,88.4,117,88.4,117.4z M89.3,102.5L89.3,102.5c0.6-0.2,1.1-0.2,1.6-0.3
		C90.4,102.2,89.9,102.3,89.3,102.5z M91.2,118.4c0.1-0.7,0.1-1.4,0.1-2.1h0C91.3,117,91.2,117.7,91.2,118.4c0.3,0,0.6,0.1,0.8,0.2
		C91.7,118.5,91.5,118.5,91.2,118.4z M93.1,103c0,0.2-0.1,0.4-0.3,0.5C92.9,103.3,93,103.2,93.1,103c0-0.1,0-0.2,0-0.2
		C93.1,102.8,93.1,102.9,93.1,103z M94.5,109.2c-0.1,0.1-0.1,0.2-0.3,0.4C94.3,109.4,94.4,109.3,94.5,109.2c0.1-0.1,0.1-0.3,0-0.4
		C94.5,108.9,94.5,109.1,94.5,109.2z M101.9,72.1c-0.7-0.6-1.2-1.2-1.4-1.7C100.7,70.9,101.2,71.5,101.9,72.1z M99.4,81.3
		c-0.1-0.2-0.1-0.3,0-0.5C99.3,81,99.3,81.1,99.4,81.3c0,0.1,0.1,0.2,0.1,0.2C99.5,81.4,99.4,81.4,99.4,81.3z M102,80.4L102,80.4
		c0-0.8,0-1.6,0.1-2.4C102.1,78.8,102.1,79.6,102,80.4z M102.4,75.4c-1.8-0.6-3-0.5-2.7,0.4c0,0,0,0.1,0.1,0.1c0,0,0-0.1-0.1-0.1
		C99.4,74.9,100.6,74.8,102.4,75.4c0.1-0.9,0.2-1.7,0.4-2.6h0C102.6,73.6,102.5,74.5,102.4,75.4z M106.9,66.1
		c-0.1,0.2-0.1,0.4-0.2,0.6h0C106.7,66.5,106.8,66.3,106.9,66.1z M105.4,71.5c1.2,0.9,2.1,1.9,2.3,2.5c0,0.1,0,0.2,0,0.3
		c0-0.1,0-0.2,0-0.3C107.6,73.4,106.7,72.4,105.4,71.5L105.4,71.5z M105,74.1L105,74.1c-0.1,0.6-0.2,1.2-0.3,1.9
		C104.8,75.3,104.9,74.7,105,74.1z M104.6,76.4c0.3,0.2,0.6,0.4,0.9,0.6C105.3,76.8,104.9,76.6,104.6,76.4L104.6,76.4z M104.3,81.1
		c1.3,0.5,2.3,1.2,2.6,1.8C106.6,82.3,105.6,81.6,104.3,81.1L104.3,81.1z M104.5,86.1L104.5,86.1c-0.1-0.8-0.1-1.5-0.2-2.3
		C104.3,84.6,104.4,85.3,104.5,86.1z M104.1,94c0.1,0.3,0.2,0.5,0.3,0.8C104.3,94.6,104.2,94.3,104.1,94L104.1,94z M103.5,97.9
		c0.3-0.4,0.9-0.9,1.6-1.3C104.4,97.1,103.8,97.5,103.5,97.9z M104.9,88.9c1.5,0,2.5-0.4,2.4-1C107.4,88.5,106.4,88.9,104.9,88.9
		c0.1,0.7,0.3,1.5,0.5,2.2c1.3,0.1,2.4,0.4,2.8,1c0.1,0.1,0.1,0.2,0.1,0.3c0-0.1-0.1-0.2-0.1-0.3c-0.4-0.5-1.5-0.9-2.8-1
		C105.2,90.3,105,89.6,104.9,88.9z M107.3,93.5c0.2-0.1,0.4-0.2,0.5-0.3C107.7,93.3,107.6,93.4,107.3,93.5c-0.3,0.1-0.7,0.2-1.1,0.3
		C106.7,93.8,107,93.6,107.3,93.5z M106.3,93.9c0,0.1,0.1,0.2,0.1,0.3c0.2,0.6,0.5,1.2,0.7,1.8c0.3-0.1,0.6-0.1,0.9-0.1
		c-0.3,0-0.6,0.1-0.9,0.1c-0.3-0.6-0.5-1.2-0.7-1.8C106.4,94.1,106.3,94,106.3,93.9z M107.6,101.8L107.6,101.8
		c-0.2-0.4-0.4-0.8-0.6-1.2C107.2,101,107.4,101.4,107.6,101.8z M106.9,104.9c0.4,0,0.9-0.1,1.4-0.3
		C107.8,104.9,107.3,105,106.9,104.9z M108.4,98.6c0.3,0.7,0.7,1.3,1,2c0.9-0.4,1.7-0.6,2.2-0.4c-0.5-0.2-1.3,0-2.2,0.4
		C109,99.9,108.7,99.3,108.4,98.6L108.4,98.6z M109.8,105.3c0.2,0.3,0.5,0.7,0.7,1c-0.2,0.3-0.4,0.6-0.6,0.9
		c0.2-0.3,0.4-0.6,0.6-0.9C110.3,106,110.1,105.6,109.8,105.3z M109.8,109.5c-0.2-0.1-0.3-0.3-0.4-0.5
		C109.4,109.2,109.5,109.4,109.8,109.5c0.2,0.1,0.5,0.1,0.8,0C110.2,109.6,110,109.6,109.8,109.5z M110.9,103c0,0.1,0.1,0.1,0.1,0.2
		C111,103.1,110.9,103.1,110.9,103c0.8-0.7,1.2-1.5,1.3-2C112.1,101.5,111.6,102.3,110.9,103z M114.7,108.1c-0.3-0.3-0.6-0.7-0.8-1
		h0C114.1,107.4,114.4,107.8,114.7,108.1L114.7,108.1z M114.5,106.1c0.3-0.5,0.4-0.9,0.4-1.3C114.9,105.1,114.7,105.6,114.5,106.1z"
		/>
	<g>
		<g>
			<path fill="#FECF0C" d="M134.4,71.5c-2.3-8.4-7.4-15.4-14-20.2c-0.2,0.5-0.3,1-0.5,1.5c1.3,0.9,2.2,1.9,2.4,2.6
				c0.2,0.9-1.2,0.8-3.1-0.1c-0.2,0.8-0.4,1.5-0.6,2.3c1.2,0.9,2.1,1.9,2.3,2.5c0.2,0.9-1,0.8-2.8,0c-0.1,0.8-0.2,1.5-0.3,2.3
				c1.3,0.8,2.3,1.7,2.5,2.3c0.3,0.9-0.9,1-2.8,0.3c0,0.7-0.1,1.3-0.1,2c1.3,0.5,2.3,1.2,2.6,1.8c0.4,0.8-0.8,1.2-2.6,0.9
				c0,0.8,0.1,1.5,0.2,2.3c1.3,0.3,2.4,0.9,2.7,1.5c0.4,0.8-0.6,1.3-2.3,1.3c0.1,0.7,0.3,1.5,0.5,2.2c1.3,0.1,2.4,0.4,2.8,1
				c0.5,0.7-0.3,1.5-2,1.8c0,0.1,0.1,0.2,0.1,0.3c0.2,0.6,0.5,1.2,0.7,1.8c1.2-0.2,2.2-0.2,2.7,0.2c0.6,0.6,0,1.6-1.5,2.4
				c0.3,0.7,0.7,1.3,1,2c1-0.5,2-0.7,2.5-0.4c0.7,0.4,0.2,1.6-1,2.8c0.4,0.6,0.8,1.2,1.2,1.8c1-0.7,1.9-1,2.4-0.8
				c0.7,0.3,0.4,1.7-0.7,3.1c0.4,0.5,0.8,0.9,1.2,1.4c0.9-0.9,1.8-1.4,2.4-1.2c0.7,0.3,0.5,1.7-0.4,3.2c0.4,0.4,0.8,0.8,1.2,1.2
				c0.4-0.4,0.7-0.8,1.1-1.1C135.9,89.1,136.9,80.2,134.4,71.5z"/>
			<path fill="#FECF0C" d="M100.9,109c0.1-0.6,0.2-1.1,0.3-1.7c-2.3-0.4-3.7-1.2-3.1-2c0.4-0.5,1.8-0.9,3.5-0.9
				c0.1-0.6,0.1-1.2,0.1-1.9c-2.3-0.2-3.7-0.9-3.3-1.7c0.4-0.6,1.6-1,3.3-1.3c0-0.7-0.1-1.4-0.2-2.2c-2.3,0.1-3.7-0.4-3.4-1.3
				c0.3-0.6,1.4-1.2,2.9-1.6c-0.1-0.7-0.3-1.5-0.5-2.2c-2.2,0.5-3.7,0.3-3.5-0.6c0.2-0.6,1.2-1.5,2.7-2.2c-0.2-0.6-0.4-1.2-0.7-1.8
				c0-0.1-0.1-0.2-0.1-0.3c-2,1-3.6,1.1-3.6,0.2c0-0.7,0.9-1.8,2.3-2.8c-0.4-0.7-0.8-1.3-1.3-2c-1.8,1.3-3.4,1.7-3.5,0.8
				c-0.1-0.7,0.6-1.9,1.7-3.1c-0.5-0.6-1.1-1.2-1.7-1.7c-1.7,1.6-3.2,2.1-3.5,1.3c-0.2-0.6,0.3-1.9,1.3-3.2
				c-0.6-0.5-1.1-0.9-1.7-1.4c-1.4,1.8-2.8,2.6-3.3,1.8c-0.3-0.6,0-2,0.8-3.5c-0.7-0.5-1.5-0.9-2.3-1.4c-1.2,1.9-2.5,2.8-3,2.1
				c-0.4-0.6-0.2-2,0.4-3.5c-0.8-0.4-1.7-0.8-2.5-1.2c-1.3,2.1-2.7,3.2-3.2,2.4c-0.4-0.6-0.2-2,0.5-3.6c-0.9-0.4-1.7-0.7-2.6-1.1
				c-1.3,2.1-2.7,3.1-3.2,2.4c-0.4-0.6-0.2-1.9,0.4-3.4c-0.6-0.2-1.3-0.4-1.9-0.6c-1.3,2.1-2.7,3.1-3.2,2.3
				c-0.4-0.5-0.2-1.8,0.3-3.3c-0.3-0.1-0.6-0.2-0.9-0.3c-4,8-5.2,17.4-2.7,26.7c4.5,16.1,18.8,26.8,34.7,27.3
				c0.3-0.7,0.7-1.4,1.1-2.3c-1.9-0.7-3-1.7-2.3-2.3c0.5-0.5,1.8-0.6,3.4-0.4c0.2-0.6,0.4-1.2,0.6-1.8c-2.2-0.6-3.4-1.6-2.7-2.2
				C97.9,109.1,99.2,108.9,100.9,109z"/>
			<path fill="#FECF0C" d="M126.5,99.6c-0.7-0.3-0.5-1.7,0.4-3.2c-0.5-0.5-0.9-1-1.4-1.6c-1,0.8-2,1.1-2.5,0.9
				c-0.7-0.4-0.4-1.7,0.8-3.2c-0.5-0.7-0.9-1.3-1.4-2c-1.1,0.6-2.2,0.8-2.7,0.5c-0.7-0.5-0.2-1.8,1.2-3c-0.4-0.8-0.9-1.6-1.3-2.4
				c-1.2,0.3-2.4,0.2-2.9-0.2c-0.6-0.6,0.1-1.7,1.7-2.5c-0.4-0.9-0.7-1.7-1-2.7c-1.4-0.1-2.5-0.4-3-1c-0.5-0.7,0.4-1.5,2.1-1.8
				c-0.2-0.9-0.4-1.8-0.6-2.7c-1.4-0.3-2.5-0.9-2.9-1.5c-0.4-0.8,0.6-1.3,2.5-1.3c-0.1-0.9-0.2-1.7-0.2-2.6
				c-1.3-0.5-2.4-1.3-2.7-1.9c-0.4-0.8,0.8-1.2,2.7-0.9c0-0.8,0-1.6,0.1-2.4c-1.3-0.8-2.2-1.6-2.4-2.3c-0.3-0.8,0.9-1,2.7-0.4
				c0.1-0.9,0.2-1.7,0.4-2.6c-1.3-0.9-2.2-1.9-2.4-2.6c-0.2-0.9,1.1-0.8,2.9,0c0.2-0.8,0.4-1.6,0.6-2.4c-1.1-0.9-2-1.8-2.1-2.4
				c-0.2-0.9,1-0.8,2.8,0c0.2-0.6,0.4-1.1,0.5-1.7c-8.5-5.4-19.2-7.3-29.7-4.4c-9.6,2.7-17.3,8.9-22,16.8c0.2,0.1,0.5,0.1,0.7,0.2
				l0,0c1.3-2.3,2.8-3.4,3.3-2.6c0.4,0.6,0.2,1.9-0.4,3.5c0.6,0.2,1.3,0.4,1.9,0.6c1.3-2.1,2.7-3.2,3.2-2.4c0.4,0.6,0.2,1.9-0.4,3.4
				c0.9,0.3,1.7,0.7,2.6,1c1.2-1.9,2.5-2.8,3-2.1c0.4,0.5,0.2,1.8-0.3,3.3c0.9,0.4,1.7,0.8,2.6,1.2c1.2-2,2.6-2.9,3.1-2.2
				c0.4,0.6,0.2,2-0.4,3.6c0.8,0.5,1.7,1,2.5,1.5c1.4-1.8,2.8-2.6,3.2-1.8c0.3,0.6,0,2-0.8,3.4c0.7,0.5,1.4,1.1,2.1,1.6
				c1.7-1.6,3.3-2.3,3.6-1.4c0.2,0.7-0.4,2-1.4,3.4c0.7,0.6,1.3,1.3,1.9,2c1.9-1.4,3.5-1.8,3.7-0.9c0.1,0.7-0.6,2-1.8,3.2
				c0.5,0.7,1.1,1.5,1.5,2.3c2.1-1.1,3.8-1.2,3.8-0.3c0,0.7-1,1.8-2.4,2.9c0.4,0.9,0.8,1.8,1.1,2.6c2.3-0.6,4-0.4,3.8,0.5
				c-0.2,0.7-1.3,1.6-2.9,2.3c0.2,0.9,0.4,1.8,0.6,2.7c2.5-0.2,4.1,0.4,3.7,1.2c-0.3,0.6-1.6,1.3-3.3,1.7c0.1,0.8,0.1,1.7,0.2,2.5
				c2.4,0.1,3.9,0.9,3.4,1.7c-0.4,0.6-1.7,1.1-3.4,1.3c0,0.7-0.1,1.4-0.1,2.1c2.3,0.4,3.7,1.2,3.1,2c-0.4,0.5-1.8,0.9-3.5,0.9
				c-0.1,0.7-0.2,1.3-0.4,2c2.3,0.6,3.7,1.6,3,2.3c-0.5,0.5-2,0.7-3.7,0.6c-0.2,0.7-0.4,1.3-0.6,1.9c2.3,0.7,3.6,1.8,2.9,2.5
				c-0.5,0.5-2.1,0.6-3.9,0.4c-0.2,0.5-0.4,1-0.6,1.5c2.6-0.1,5.2-0.6,7.8-1.3c9-2.5,16.2-8,21-15.2c0-0.6,0.3-1.4,0.7-2.3
				c-0.5-0.4-0.9-0.9-1.4-1.3C127.9,99.3,127,99.8,126.5,99.6z"/>
		</g>
		<g>
			<path fill="#B68D2E" d="M132.7,86.7c-0.7,1.6-1.6,3.1-2.5,4.6c-4.2,6.2-10.5,11.1-18.3,13.2c-2.3,0.6-4.5,1-6.8,1.1
				c-1,0.1-1.9,0.1-2.9,0C88.4,105.2,76,96,72.1,82c-2.2-8.1-1.2-16.3,2.3-23.2c0.3-0.7,0.7-1.3,1.1-1.9c2.3-3.9,5.5-7.4,9.4-10.1
				c-7.9,3.1-14.2,8.7-18.3,15.6c-0.4,0.7-0.9,1.5-1.2,2.2c-4,8-5.2,17.4-2.7,26.7c4.5,16.1,18.8,26.8,34.7,27.3
				c1.1,0,2.2,0,3.3-0.1c2.6-0.1,5.2-0.6,7.8-1.3c9.1-2.3,16.3-7.8,21.1-15c1.1-1.7,2.2-3.6,3-5.4c2.8-6.2,3.8-13.3,2.8-20.3
				C135.1,80,134.2,83.5,132.7,86.7z"/>
		</g>
		<g>
			<path fill="#121841" d="M102.6,88.6c-0.3-0.9-0.7-1.8-1.1-2.6c1.4-1.1,2.4-2.2,2.4-2.9c0-0.9-1.6-0.8-3.8,0.3
				c-0.5-0.8-1-1.6-1.5-2.3c1.2-1.3,2-2.6,1.8-3.3c-0.2-0.9-1.8-0.5-3.7,0.9c-0.6-0.7-1.2-1.3-1.9-2c1-1.4,1.6-2.7,1.4-3.4
				c-0.3-0.9-1.8-0.2-3.6,1.4c-0.7-0.6-1.4-1.1-2.1-1.6c0.7-1.5,1.1-2.8,0.8-3.4c-0.4-0.8-1.8,0-3.2,1.8c-0.8-0.5-1.7-1-2.5-1.5
				c0.6-1.6,0.8-3,0.4-3.6c-0.5-0.8-1.8,0.2-3.1,2.2c-0.9-0.4-1.7-0.9-2.6-1.2c0.5-1.5,0.7-2.7,0.3-3.3c-0.5-0.8-1.8,0.2-3,2.1
				c-0.9-0.4-1.8-0.7-2.6-1c0.6-1.5,0.7-2.8,0.4-3.4c-0.5-0.8-1.9,0.3-3.2,2.4c-0.7-0.2-1.3-0.4-1.9-0.6c0.6-1.5,0.8-2.9,0.4-3.5
				c-0.5-0.8-2,0.4-3.3,2.6l0,0c-0.2-0.1-0.5-0.1-0.7-0.2c-0.4,0.7-0.9,1.5-1.2,2.2c0.3,0.1,0.6,0.2,0.9,0.3
				c-0.5,1.4-0.7,2.7-0.3,3.3c0.5,0.8,1.9-0.3,3.2-2.3c0.6,0.2,1.2,0.4,1.9,0.6c-0.6,1.5-0.7,2.8-0.4,3.4c0.5,0.8,1.9-0.3,3.2-2.4
				c0.9,0.3,1.7,0.7,2.6,1.1c-0.6,1.6-0.8,3.1-0.5,3.6c0.5,0.8,1.9-0.3,3.2-2.4c0.8,0.4,1.7,0.8,2.5,1.2c-0.6,1.5-0.8,2.9-0.4,3.5
				c0.5,0.7,1.8-0.2,3-2.1c0.8,0.4,1.5,0.9,2.3,1.4c-0.8,1.5-1.1,2.9-0.8,3.5c0.4,0.8,1.8,0,3.3-1.8c0.6,0.4,1.2,0.9,1.7,1.4
				c-0.9,1.3-1.5,2.6-1.3,3.2c0.3,0.9,1.8,0.3,3.5-1.3c0.6,0.6,1.1,1.1,1.7,1.7c-1.1,1.2-1.8,2.4-1.7,3.1c0.2,0.9,1.7,0.5,3.5-0.8
				c0.5,0.6,0.9,1.3,1.3,2c-1.4,1-2.3,2.1-2.3,2.8c0,0.9,1.6,0.8,3.6-0.2c0,0.1,0.1,0.2,0.1,0.3c0.2,0.6,0.5,1.2,0.7,1.8
				c-1.5,0.7-2.5,1.5-2.7,2.2c-0.2,0.9,1.3,1.1,3.5,0.6c0.2,0.7,0.3,1.5,0.5,2.2c-1.5,0.4-2.7,1-2.9,1.6c-0.4,0.8,1.1,1.3,3.4,1.3
				c0.1,0.7,0.1,1.5,0.2,2.2c-1.6,0.2-2.9,0.7-3.3,1.3c-0.5,0.8,1,1.5,3.3,1.7c0,0.6-0.1,1.3-0.1,1.9c-1.7,0-3.1,0.4-3.5,0.9
				c-0.6,0.7,0.8,1.6,3.1,2c-0.1,0.6-0.2,1.2-0.3,1.7c-1.6-0.1-3,0.1-3.5,0.6c-0.6,0.7,0.6,1.6,2.7,2.2c-0.2,0.6-0.4,1.2-0.6,1.8
				c-1.6-0.2-2.9,0-3.4,0.4c-0.6,0.6,0.4,1.6,2.3,2.3c-0.4,0.9-0.7,1.6-1.1,2.3c1.1,0,2.2,0,3.3-0.1c0.2-0.5,0.4-1,0.6-1.5
				c1.8,0.3,3.4,0.2,3.9-0.4c0.7-0.7-0.6-1.7-2.9-2.5c0.2-0.6,0.4-1.2,0.6-1.9c1.7,0.1,3.2-0.1,3.7-0.6c0.7-0.7-0.7-1.7-3-2.3
				c0.1-0.6,0.3-1.3,0.4-2c1.7,0,3.1-0.4,3.5-0.9c0.6-0.7-0.8-1.6-3.1-2c0.1-0.7,0.1-1.4,0.1-2.1c1.7-0.2,3-0.7,3.4-1.3
				c0.5-0.8-1-1.5-3.4-1.7c0-0.8-0.1-1.6-0.2-2.5c1.7-0.4,3-1,3.3-1.7c0.4-0.9-1.2-1.4-3.7-1.2c-0.2-0.9-0.4-1.8-0.6-2.7
				c1.6-0.7,2.8-1.6,2.9-2.3C106.6,88.2,104.9,88,102.6,88.6z"/>
			<path fill="#121841" d="M120,52.9c0.2-0.5,0.3-1,0.5-1.5c-0.7-0.5-1.3-0.9-2-1.4c-0.2,0.5-0.4,1.1-0.5,1.7c-1.8-0.8-3-0.8-2.8,0
				c0.1,0.6,1,1.5,2.1,2.4c-0.2,0.8-0.4,1.6-0.6,2.4c-1.8-0.9-3.1-0.9-2.9,0c0.1,0.7,1.1,1.7,2.4,2.6c-0.2,0.8-0.3,1.7-0.4,2.6
				c-1.8-0.6-3-0.5-2.7,0.4c0.2,0.6,1.2,1.5,2.4,2.3c-0.1,0.8-0.1,1.6-0.1,2.4c-1.9-0.3-3,0-2.7,0.9c0.3,0.6,1.4,1.4,2.7,1.9
				c0,0.8,0.1,1.7,0.2,2.6c-1.8-0.1-2.9,0.5-2.5,1.3c0.3,0.6,1.5,1.2,2.9,1.5c0.2,0.9,0.4,1.8,0.6,2.7c-1.7,0.3-2.6,1.1-2.1,1.8
				c0.4,0.6,1.6,0.9,3,1c0.3,0.9,0.7,1.8,1,2.7c-1.6,0.8-2.3,1.9-1.7,2.5c0.5,0.4,1.6,0.5,2.9,0.2c0.4,0.8,0.8,1.6,1.3,2.4
				c-1.4,1.2-1.9,2.5-1.2,3c0.5,0.3,1.6,0.1,2.7-0.5c0.5,0.7,0.9,1.4,1.4,2c-1.1,1.4-1.5,2.8-0.8,3.2c0.5,0.3,1.5-0.1,2.5-0.9
				c0.4,0.6,0.9,1.1,1.4,1.6c-1,1.6-1.2,3-0.4,3.2c0.5,0.2,1.5-0.3,2.4-1.2c0.5,0.5,0.9,0.9,1.4,1.3c-0.4,0.9-0.7,1.7-0.7,2.3
				c1.1-1.7,2.1-3.4,2.9-5.3c-0.3,0.3-0.7,0.6-1.1,1.1c-0.4-0.4-0.8-0.8-1.2-1.2c1-1.6,1.2-3,0.4-3.2c-0.5-0.2-1.5,0.3-2.4,1.2
				c-0.4-0.4-0.8-0.9-1.2-1.4c1.1-1.4,1.4-2.7,0.7-3.1c-0.5-0.3-1.5,0.1-2.4,0.8c-0.4-0.6-0.8-1.2-1.2-1.8c1.2-1.2,1.7-2.4,1-2.8
				c-0.5-0.3-1.4-0.1-2.5,0.4c-0.4-0.6-0.7-1.3-1-2c1.4-0.8,2.1-1.8,1.5-2.4c-0.5-0.4-1.5-0.5-2.7-0.2c-0.3-0.6-0.5-1.2-0.7-1.8
				c0-0.1-0.1-0.2-0.1-0.3c1.6-0.3,2.5-1.1,2-1.8c-0.4-0.5-1.5-0.9-2.8-1c-0.2-0.7-0.4-1.5-0.5-2.2c1.7,0,2.7-0.5,2.3-1.3
				c-0.3-0.6-1.4-1.2-2.7-1.5c-0.1-0.8-0.1-1.5-0.2-2.3c1.8,0.3,2.9-0.1,2.6-0.9c-0.3-0.6-1.3-1.3-2.6-1.8c0-0.7,0-1.3,0.1-2
				c1.8,0.6,3,0.5,2.8-0.3c-0.2-0.7-1.2-1.6-2.5-2.3c0.1-0.8,0.2-1.6,0.3-2.3c1.7,0.8,3,0.8,2.8,0c-0.1-0.7-1.1-1.6-2.3-2.5
				c0.2-0.8,0.4-1.6,0.6-2.3c1.9,1,3.3,1,3.1,0.1C122.2,54.8,121.2,53.8,120,52.9z"/>
		</g>
	</g>
</g>
</svg>
