<?xml version="1.0" encoding="utf-8"?>
<!-- Generator: Adobe Illustrator 18.1.1, SVG Export Plug-In . SVG Version: 6.00 Build 0)  -->
<svg version="1.1" id="_x31_-fistbump" xmlns="http://www.w3.org/2000/svg" xmlns:xlink="http://www.w3.org/1999/xlink" x="0px"
	 y="0px" viewBox="0 0 180 180" enable-background="new 0 0 180 180" xml:space="preserve">
<g>
	<g>
		<g>
			<g>
				<g>
					<path fill="#121841" d="M144,107.6c0.7,16.4-8.3,32.3-24.2,39.6c-20.8,9.5-45.5,0.4-55-20.4c-9.5-20.8-0.4-45.5,20.4-55
						c1.5-0.7,3-1.2,4.5-1.7c0.5-0.2,1.1-0.3,1.6-0.5c-2.5,0.4-5,1-7.5,1.8c-1.7,0.5-3.4,1.2-5,1.9C55.5,83.9,45.3,111.5,56,134.8
						c10.7,23.3,38.3,33.6,61.6,22.9C137.2,148.7,147.5,127.8,144,107.6z"/>
					<path fill="#13B3E8" d="M85.3,71.7c-20.8,9.5-30,34.2-20.4,55c9.5,20.8,34.2,30,55,20.4c15.8-7.3,24.9-23.2,24.2-39.6
						c-0.7-3.9-1.8-7.7-3.6-11.5c-0.8-1.7-1.6-3.2-2.5-4.8c-9.8-16.2-28.3-24.6-46.6-21.8c-0.5,0.2-1.1,0.3-1.6,0.5
						C88.3,70.5,86.8,71,85.3,71.7z"/>
				</g>
				<path fill="#121841" d="M135.2,103.9c-6.5-5.5-10.7-5.5-17.9-3.3l0,0c-1.9-3.7-3.8-6.8-5.6-9.4c0.2,0.3,0.5,0.7,0.7,1
					c0,0,14.8-7.8,23.5-4c0,0-1.4-1.9-1.6-2.1c0,0-8.7-3-23,4.6c0,0,0.1,0.1,0.1,0.2c-2.2-3.2-4.3-5.6-6-7.4c0,0,0,0,0,0
					c12.1-5.2,8.6-11.9,8.6-11.9c-0.8-0.3-1.7-0.6-1.7-0.6c1.4,6.4-4,9.1-5.7,10c-1.6,0.9-3.9-0.2-3.9-0.2l0,0
					c-1-0.9-1.7-1.5-1.8-1.7c-0.6-1.1-8.9-7.5-17.2-8c0,0-2.4,0.8-2.8,1c0,0,9.5-1,20,9.2l0,0c0,0,0.2,0.2-0.7,2.1
					c-0.9,1.9-6.5,3.8-18.1,3.9c-17.1,0.2-26.4,9-26.8,10c-0.4,0.9-1.5,4.1-1.5,4.1c3.7-6.1,14.3-12.4,28.3-12.5
					c16.1-0.1,21.3-4.8,21.4-4.9c1.1,1.2,2.2,2.6,3.2,4.1c0.9,1.2,1.7,2.4,2.5,3.5c-0.1,0-51,26.2-51.4,46.7c0,0,0.8,1.3,1,1.6
					c0,0-2.6-18.7,51.4-46.8c2,3,3.7,5.8,5.1,8.3c-3.5,2-5.2,3.7-8.2,7.8c-2.6,3.6-8.1,17.5-12.9,31.7s-10.2,18.5-10.2,18.5l1.8,0.5
					c7.9-6.9,18.6-40.3,20.5-44.8c1.9-4.4,5.4-8.3,7.9-9.7c2.6-1.4,3.5,0.6,3.5,0.7c3.4,7.1,4.7,12.2,5.9,16.1
					c2,6.7,4.3,24.5-4.5,34.4c0,0,2.6-1.5,3.2-1.8c0,0,11.2-11.6,1.5-39.3c-1.5-4.3-3.1-8.2-4.7-11.6l0,0c0,0-0.7-1.3,0.9-2.2
					c1-0.5,8.3-3.9,17.4,6.1c0,0,5.5,6,6.9,13.5c0,0,0.3-2.3,0.3-2.7C144.6,119.1,141.7,109.4,135.2,103.9z M109.7,92.4
					c0.2,0.3,0.3,0.5,0.5,0.8L109.7,92.4z"/>
			</g>
			<g>
				<polygon fill="#FECF0C" points="50.8,90.7 40.3,57.7 78.9,80.8 				"/>
				<polygon fill="#FECF0C" points="120.1,66.4 108.3,32.2 91.5,76.3 				"/>
				<polygon fill="#FECF0C" points="63.1,86.3 64.6,23 111.4,69.4 				"/>
			</g>
		</g>
		<polygon fill="#121841" points="61.6,86.9 59.6,99.2 102.6,72.5 		"/>
		<polygon fill="#B68D2E" points="64.6,23 75,82.2 50.8,90.7 40.3,57.7 63.7,71.7 		"/>
		<circle fill="#FECF0C" cx="64.6" cy="23" r="5"/>
		<circle fill="#B68D2E" cx="40.3" cy="57.7" r="5"/>
		<circle fill="#FECF0C" cx="108.3" cy="32.2" r="5"/>
	</g>
	<polygon fill="#B68D2E" points="98.9,56.9 105.2,63.3 106.6,36.9 	"/>
</g>
</svg>
