<?xml version="1.0" encoding="utf-8"?>
<!-- Generator: Adobe Illustrator 18.1.1, SVG Export Plug-In . SVG Version: 6.00 Build 0)  -->
<svg version="1.1" id="_x31_-fistbump" xmlns="http://www.w3.org/2000/svg" xmlns:xlink="http://www.w3.org/1999/xlink" x="0px"
	 y="0px" viewBox="0 0 180 180" enable-background="new 0 0 180 180" xml:space="preserve">
<g>
	<g>
		<path fill="#121841" d="M146.3,97.6c0-31.1-25.2-56.3-56.3-56.3c-31.1,0-56.3,25.2-56.3,56.3c0,27.7,20,50.7,46.4,55.4v-29.7h23.5
			v29C128.1,146.2,146.3,124,146.3,97.6z"/>
		<path fill="#13B3E8" d="M80.1,123.3V153c3.2,0.6,6.6,0.9,9.9,0.9c4.7,0,9.2-0.6,13.5-1.6v-29H80.1z"/>
	</g>
	<g>
		<polygon fill="#B68D2E" points="106,26.1 101,58.2 59.1,66.2 59.1,107.4 67,114.3 70,130.8 113.4,130.8 115.6,114.2 123,106.9 
			123,26.1 		"/>
	</g>
	<g>
		<polygon fill="#FECF0C" points="71.7,112 74.7,125.7 101.5,125.7 103.5,112 117.9,103.5 117.9,73.2 105.9,70.5 88.4,82.7 
			95.5,88.5 107.2,86 85.9,108.5 88.7,91.5 73.2,92.5 66.7,82.7 74.2,87.2 72.3,69.1 62.9,70.5 62.9,104.7 		"/>
		<polygon fill="#FECF0C" points="109.7,31.1 105,64.3 117.9,67.8 117.9,31.1 		"/>
		<polygon fill="#FECF0C" points="76.4,67.8 78.1,86 85,86 87.7,65.8 		"/>
		<polygon fill="#FECF0C" points="91.8,64.8 90,77.4 100.5,69.3 100.5,63.3 		"/>
	</g>
	<polyline fill="#121841" points="70,130.8 113.4,130.8 111.4,135 67.6,138.6 	"/>
</g>
</svg>
