<?xml version="1.0" encoding="utf-8"?>
<!-- Generator: Adobe Illustrator 18.1.1, SVG Export Plug-In . SVG Version: 6.00 Build 0)  -->
<svg version="1.1" id="_x31_-fistbump" xmlns="http://www.w3.org/2000/svg" xmlns:xlink="http://www.w3.org/1999/xlink" x="0px"
	 y="0px" viewBox="0 0 180 180" enable-background="new 0 0 180 180" xml:space="preserve">
<g>
	<polygon fill="#121841" points="53.2,153.8 16.3,90 53.2,26.2 126.8,26.2 163.7,90 126.8,153.8 	"/>
	<g>
		<g>
			<path fill="#FECF0C" d="M119.6,83.1l1.8,1.7c-0.5,3.9,1.8,5.9,5,6.2c3,0.3,4.8-1.3,5.4-4.2c1.8,1.5,2.3,6-2.4,7.9l0,0
				c-4,2-10.8,2.9-15.6,7.4c-8.1,7.5,0.3,14.1,4.6,11.5c4.3-2.6,1.5-6.3,1.5-6.3c-0.2,1.9-4.3,2.3-4.5-0.2
				c0.2-9.9,23.8-4.6,23.3-18.6C138.2,75.3,123.9,78.3,119.6,83.1z"/>
		</g>
		<g>
			<g>
				<g>
					<path fill="#13B3E8" d="M60.4,83.6l-1.8,1.7c0.4,4-1.9,5.8-5.1,6.1c-3,0.3-4.8-1.4-5.3-4.3c-1.8,1.5-2.4,5.9,2.3,8l0,0
						c4,2,10.7,3.1,15.4,7.6c7.9,7.6-0.5,14.1-4.8,11.4c-4.3-2.7-1.5-6.3-1.5-6.3c0.2,2,4.4,2.3,4.6-0.1c0-9.9-23.7-4.9-23-19
						C41.9,75.4,56.1,78.7,60.4,83.6z"/>
				</g>
			</g>
		</g>
		<g>
			<path fill="#DCC966" d="M106.6,108.6l-1-0.4l-0.1,1C105.8,109,106.2,108.8,106.6,108.6z"/>
			<path fill="#FECF0C" d="M106.2,109.6c3.4-1.9-2.3-7.5,1.8-9.8l-2.4,8.4L90,102.1v0l-16.6,6.5c5.6,2.8,9.2,7.4,10.8,12
				c2.7,8-0.8,16.4-10.8,16.4l5.6,2.1l12.1-1.5l9.5,2.2l5.9-3.8C95.7,136.1,92.4,117.1,106.2,109.6z"/>
		</g>
		<g>
			<path fill="#FECF0C" d="M127.7,72.4c1.2-5.7,1.5-9.7,1.5-9.7S116.6,49.6,90,49.6c-26.6,0-39.2,13.1-39.2,13.1s0.3,4,1.5,9.7
				c4-3.3,16.4-11.8,37.7-11.8S123.7,69,127.7,72.4z"/>
			<path fill="#FECF0C" d="M90,114.1c25.6,0,34.7-26.8,37.7-41.7c-4-3.3-16.4-11.8-37.7-11.8S56.3,69,52.3,72.4
				C55.3,87.3,64.4,114.1,90,114.1z"/>
			<g>
				<path fill="#13B3E8" d="M58.2,69c-4.8,2.2-4.2,1.9-5.9,3.3c3.1,14.9,12,42.2,37.8,41.7C68.5,109,62.8,88,58.2,69z"/>
			</g>
		</g>
		<g>
			<path fill="#13B3E8" d="M127,75.8c0.2-1,0.7-2.9,0.9-3.8c-4-3.3-16.4-11.4-37.8-11.4S56.3,69,52.3,72.3c0.2,0.9,3.5,4.2,3.7,5.1
				c4.6-3.6,13.6-13.6,34-13.6S122.4,72.2,127,75.8z"/>
		</g>
		<rect x="73.4" y="136.1" fill="#FECF0C" width="33.1" height="5.2"/>
		<g>
			<circle fill="#121841" cx="90.1" cy="86" r="17.8"/>
			<polygon fill="#FFFFFF" points="90.1,75.8 93.5,82.6 100.9,83.6 95.5,88.9 96.8,96.3 90.1,92.8 83.5,96.3 84.8,88.9 79.4,83.6 
				86.8,82.6 			"/>
		</g>
	</g>
	<path fill="#13B3E8" d="M73.8,63.8c-9.1,3.8-11.5,5.9-11.5,5.9L56,72.4c0,0,1.4,3,1.2,5.1l10.5,20.2c-6.5-12.5-3.6-33.9,21.6-33.9
		C114.6,63.8,82.9,60.1,73.8,63.8z"/>
	<path fill="#13B3E8" d="M84.2,113.3L72,108.4c11.5,7.8,17.9,27.6,1.5,27.6h11.4C84.8,136.1,91.7,124,84.2,113.3z"/>
	<path fill="#13B3E8" d="M80.2,111.7c0,0,1.5,2.6,1.7,3.2s2.3,5.6,2.3,5.6l0.6,15.5h5.2c0-7.8,0-22,0-22L80.2,111.7z"/>
	<path fill="#13B3E8" d="M85,118.9c0.1-0.2-4.2-6.1-4.9-6.5s-1.7-2.2-4.6-4.1c-3-1.9-4.6-3-6.3-4.3s-2.7-1.8-2.7-1.8l-0.8,3.3
		c0,0,13.9,5,17.2,18.7S84.9,119.1,85,118.9z"/>
	<path fill="#13B3E8" d="M50.8,62.7c0,0,0.6,9.2,2.8,15.4c2.2,6.2,4.7,1.9,4.7,1.9l2.1-4.6c0,0-2.3-10-1.7-18.4
		C58.7,57,53.7,59.6,50.8,62.7z"/>
	<path fill="#FFFFFF" d="M90,49.6l0,3.4c24.2,0,38.8,13.5,38.8,13.5c0.3-2.1,0.4-3.8,0.4-3.8C123.1,57.2,111.5,49.6,90,49.6z"/>
</g>
</svg>
