<?xml version="1.0" encoding="utf-8"?>
<!-- Generator: Adobe Illustrator 18.1.1, SVG Export Plug-In . SVG Version: 6.00 Build 0)  -->
<svg version="1.1" id="_x31_-fistbump" xmlns="http://www.w3.org/2000/svg" xmlns:xlink="http://www.w3.org/1999/xlink" x="0px"
	 y="0px" viewBox="0 0 180 180" enable-background="new 0 0 180 180" xml:space="preserve">
<g>
	<g>
		<g>
			<g>
				<rect x="49.9" y="56.1" fill="#121841" width="5.4" height="71.9"/>
				<rect x="35.4" y="109.2" fill="#121841" width="5.4" height="29.8"/>
				<rect x="138.3" y="109.2" fill="#121841" width="5.4" height="29.8"/>
				<rect x="123.9" y="56.1" fill="#121841" width="5.4" height="71.9"/>
				<rect x="42.4" y="65.6" fill="#FECF0C" width="94.4" height="27.5"/>
				<polygon fill="#FECF0C" points="149.4,109.2 93.1,112 29.8,109.2 42.4,100.6 136.7,100.6 				"/>
				<rect x="29.8" y="109.2" fill="#B68D2E" width="119.6" height="5.4"/>
				<polygon fill="#B68D2E" points="136.7,93 136.7,89 42.4,79.3 42.4,93 				"/>
			</g>
		</g>
	</g>
	<polygon fill="#13B3E8" points="68.2,51.3 75,49.9 68.3,48.1 66.9,41 65.1,48 58.3,49.4 65,51.2 66.4,58.3 	"/>
	<polygon fill="#13B3E8" points="151.1,94.2 156.2,93.2 151.2,91.9 150.1,86.6 148.8,91.8 143.7,92.9 148.7,94.2 149.8,99.5 	"/>
	<polygon fill="#13B3E8" points="29.3,85.1 33,84.3 29.3,83.4 28.5,79.4 27.6,83.3 23.8,84.1 27.5,85 28.3,89 	"/>
</g>
</svg>
