<?xml version="1.0" encoding="utf-8"?>
<!-- Generator: Adobe Illustrator 18.1.1, SVG Export Plug-In . SVG Version: 6.00 Build 0)  -->
<svg version="1.1" id="_x31_-fistbump" xmlns="http://www.w3.org/2000/svg" xmlns:xlink="http://www.w3.org/1999/xlink" x="0px"
	 y="0px" viewBox="0 0 180 180" enable-background="new 0 0 180 180" xml:space="preserve">
<g>
	<g>
		<path fill="#121841" d="M83.8,38.5c-26.7,0-48.5,21.7-48.5,48.5s21.7,48.5,48.5,48.5s48.5-21.7,48.5-48.5S110.5,38.5,83.8,38.5z"
			/>
	</g>
	<polygon fill="#13B3E8" points="111.7,72 102.1,29.5 86.7,52.6 54.5,34.5 73.1,68.5 58.7,75.2 75.1,80.8 45.8,99.6 100.4,91.8 
		115,70.7 	"/>
	<g>
		<g>
			<path fill="#FFFFFF" d="M100.4,69.3c0-0.8-0.1-1.5-0.3-2.3c-0.8-3.6-3.4-6.3-6.6-7.6c0,0.9,0,1.7,0.2,2.6
				C94.6,65.6,97.2,68.2,100.4,69.3z"/>
			<path fill="#FFFFFF" d="M92.3,62.4C92,61.2,91.9,60.1,92,59c-1.5-0.3-3-0.3-4.5,0c-2.1,0.5-3.9,1.6-5.3,3c0,0,0,0,0,0
				c-0.1,0.1-0.2,0.2-0.3,0.3c-0.1,0.1-0.2,0.3-0.4,0.4c-0.2,0.2-0.3,0.4-0.5,0.6c-0.1,0.1-0.1,0.2-0.1,0.2
				c-0.2,0.2-0.3,0.5-0.5,0.7c-0.3,0.6-0.6,1.1-0.8,1.8c-0.6,1.8-0.7,3.7-0.3,5.6c1.2,5.4,6.4,8.9,11.8,8.1c0.3,0,0.6-0.1,0.9-0.2
				c0.3-0.1,0.7-0.2,1-0.3c0,0,0,0,0,0c0,0,0,0,0,0c1.7-0.6,3.2-1.5,4.3-2.8c0,0,0,0,0,0c0.3-0.3,0.5-0.6,0.8-0.9c0,0,0,0,0.1-0.1
				c0.2-0.3,0.5-0.7,0.7-1c0,0,0,0,0,0c0.6-1.1,1.1-2.3,1.3-3.6C96.4,69.7,93.2,66.6,92.3,62.4z"/>
		</g>
		<g>
			<path fill="#13B3E8" d="M80.4,64.3c-0.3,0.6-0.6,1.2-0.8,1.8C79.7,66,80,66,80,66c5.4-1.2,10.7,2.1,11.9,7.5
				c0.5,2.2,0.2,4.4-0.7,6.4c0.3,0,0.6-0.1,0.9-0.2c0.3-0.1,0.7-0.2,1-0.3c0.7-2,0.8-4.1,0.3-6.3C92.2,67.2,86.3,63.4,80.4,64.3z"/>
			<path fill="#13B3E8" d="M93.8,62c-0.2-0.9-0.3-1.7-0.2-2.6c-0.5-0.2-1-0.3-1.6-0.4c-0.1,1.1,0,2.3,0.3,3.4c1,4.2,4.2,7.4,8,8.5
				c0.1-0.5,0.1-1.1,0.1-1.6C97.2,68.2,94.6,65.6,93.8,62z"/>
		</g>
	</g>
	<path fill="#FECF0C" d="M46.5,143.4c1.8-1.8,3.7-3.9,5.8-5.5l-4.1-2.7l-6.2,5.7c-0.9-0.8-2.5-1.2-3.4-0.4c-0.9,0.9-1,2.3-0.1,3.3
		l2.6,2.8C42.4,145,45,144.9,46.5,143.4z"/>
	<path fill="#FECF0C" d="M132.1,52.7c-1.9,1.7-17.4,16.2-30.7,28.6c-10.9,10.1-14.7,18.1-33.2,35.6l2.3,3.6L141.4,55
		C137.8,51.3,134,51,132.1,52.7z"/>
	<polygon fill="#FFFFFF" points="70.5,114.7 48.2,135.2 51.5,138.5 73.5,117.4 	"/>
	<path fill="#B68D2E" d="M141.6,55.2c-0.1-0.1-0.1-0.1-0.2-0.2l-71.2,65.2l-20.2,17.9l-8.9,8.5c0,0,0.7,0.8,1.7,1.9
		c0.9,1.1,2.5,3,4.3,1.5c1.8-1.5,0.9-3.9,0.9-3.9l24.7-22.3c20.3-17.4,29-20.1,40-30.3c13.3-12.3,28.9-26.8,30.7-28.6
		C145.3,63.1,145.3,59.2,141.6,55.2z"/>
	<polygon fill="#121841" points="73.4,117.2 50.6,137.6 53.8,140.8 76.8,120.3 	"/>
</g>
</svg>
