<?xml version="1.0" encoding="utf-8"?>
<!-- Generator: Adobe Illustrator 18.1.1, SVG Export Plug-In . SVG Version: 6.00 Build 0)  -->
<svg version="1.1" id="_x31_-fistbump" xmlns="http://www.w3.org/2000/svg" xmlns:xlink="http://www.w3.org/1999/xlink" x="0px"
	 y="0px" viewBox="0 0 180 180" enable-background="new 0 0 180 180" xml:space="preserve">
<g>
	<circle fill="#FECF0C" cx="83" cy="90" r="58.4"/>
	<path fill="#FFFFFF" d="M84,87.3"/>
	<path fill="#B68D2E" d="M109.7,63.3c-14.8-14.8-38.7-14.8-53.4,0c-14.8,14.8-14.8,38.7,0,53.4c14.8,14.8,38.7,14.8,53.4,0
		C124.5,102,124.5,78,109.7,63.3z"/>
	<polygon fill="#FFFFFF" points="58.2,65.3 67.5,63.3 58.3,60.9 56.4,51.1 53.9,60.8 44.6,62.7 53.8,65.1 55.7,75 	"/>
	<polygon fill="#FFFFFF" points="106.9,122 112.4,120.9 106.9,119.5 105.8,113.7 104.3,119.4 98.9,120.5 104.3,122 105.4,127.7 	"/>
	<g>
		<circle fill="#FECF0C" cx="83.2" cy="90.1" r="19.2"/>
		<g>
			<path fill="#121841" d="M102.1,70.9c-10.5-10.5-27.6-10.5-38.1,0s-10.5,27.6,0,38.1s27.6,10.5,38.1,0
				C112.6,98.5,112.6,81.5,102.1,70.9z M96.8,103.7c-7.5,7.5-19.6,7.5-27.1,0c-7.5-7.5-7.5-19.6,0-27.1c7.5-7.5,19.6-7.5,27.1,0
				S104.2,96.2,96.8,103.7z"/>
		</g>
	</g>
	<g opacity="0.5">
		<path fill="#FFFFFF" d="M135.9,63.6c-5-10.5-13.3-19.5-24.3-25.3L83,90.3L135.9,63.6z"/>
	</g>
	<g opacity="0.5">
		<path fill="#FFFFFF" d="M30.4,117c5.4,10.3,13.6,19,24.3,24.9L83,90.4L30.4,117z"/>
	</g>
	<g>
		<polyline fill="none" stroke="#13B3E8" stroke-width="4" stroke-miterlimit="10" points="129.1,105.7 148.4,80.2 148.4,55.2 		"/>
		<line fill="none" stroke="#13B3E8" stroke-width="10" stroke-miterlimit="10" x1="132.1" y1="101.7" x2="124.2" y2="112.2"/>
		<circle fill="#13B3E8" cx="148.4" cy="55.2" r="7"/>
	</g>
</g>
</svg>
