<?xml version="1.0" encoding="utf-8"?>
<!-- Generator: Adobe Illustrator 18.1.1, SVG Export Plug-In . SVG Version: 6.00 Build 0)  -->
<svg version="1.1" id="_x31_-fistbump" xmlns="http://www.w3.org/2000/svg" xmlns:xlink="http://www.w3.org/1999/xlink" x="0px"
	 y="0px" viewBox="0 0 180 180" enable-background="new 0 0 180 180" xml:space="preserve">
<g>
	<path fill="#FECF0C" d="M86.5,32.3c-13.4,0.8-26.6,6.3-37,16.4c-22.8,22.4-23.1,58.9-0.7,81.7c22.4,22.8,58.9,23.1,81.7,0.8
		c9.8-9.6,15.4-21.9,16.9-34.6c0.7-6.4,0.4-12.9-1-19.2c-1-4.6-2.6-9.1-4.7-13.4c-2.6-5.3-6.1-10.2-10.5-14.6
		C119,37.1,102.6,31.4,86.5,32.3z"/>
	<path fill="#121841" d="M48.8,130.5c22.4,22.8,58.9,23.1,81.7,0.8l-81-82.5C26.7,71.1,26.4,107.7,48.8,130.5z"/>
	<path fill="#13B3E8" d="M124.3,51.3c-9-8-20.8-12.9-33.8-13C61.9,38,38.6,61,38.3,89.5C38,118.1,61,141.4,89.5,141.7
		c12.3,0.1,23.6-4.1,32.6-11.2c4.5-3.6,8.4-7.9,11.5-12.7c2.3-3.5,4.1-7.4,5.5-11.5c1.7-5,2.6-10.3,2.6-15.9
		C141.9,74.9,135.1,60.9,124.3,51.3z"/>
	<g>
		<g>
			<g>
				<g enable-background="new    ">
					<g enable-background="new    ">
						<defs>
							<path id="SVGID_1_" enable-background="new    " d="M85.9,58.8l-9.5,4.2c5.2-2.3,5.9-9.9,6-10.4l9.5-4.2
								C91.8,48.9,91.1,56.5,85.9,58.8z"/>
						</defs>
						<use xlink:href="#SVGID_1_"  overflow="visible" fill="#121841"/>
						<clipPath id="SVGID_2_">
							<use xlink:href="#SVGID_1_"  overflow="visible"/>
						</clipPath>
					</g>
					<g>
						<polygon fill="#121841" points="91.8,109.7 82.3,113.8 82.3,72.4 92,68.5 						"/>
					</g>
					<g enable-background="new    ">
						<defs>
							<path id="SVGID_3_" enable-background="new    " d="M90.6,69.3l-9.5,4.2c-1.2,0.5-2.5,0.6-3.6,0.2
								c-5.6-1.6-9.8-11.1-10.1-11.6l9.5-4.2c0.2,0.5,4.4,10,10.1,11.6C88.2,69.9,89.4,69.9,90.6,69.3z"/>
						</defs>
						<use xlink:href="#SVGID_3_"  overflow="visible" fill="#121841"/>
						<clipPath id="SVGID_4_">
							<use xlink:href="#SVGID_3_"  overflow="visible"/>
						</clipPath>
						<path clip-path="url(#SVGID_4_)" fill="#121841" d="M87,69.6c-3.6-1-6.7-5.3-8.4-8.4c-1-1.7-1.6-3-1.6-3.2l-9.5,4.2
							c0.1,0.2,0.7,1.5,1.6,3.2c1.8,3.1,4.8,7.4,8.4,8.4c1.2,0.3,2.4,0.3,3.6-0.2l9.5-4.2C89.4,69.9,88.2,69.9,87,69.6z"/>
					</g>
					<g>
						<path fill="#FECF0C" d="M101.5,51.1l-0.3,61.3l8.5,2.4l-0.1,12.3l-27.4-7.9l0.1-12.3l9.5,2.8L92,68.5c-1.7,1.3-3.4,1.5-5,1
							c-5.6-1.6-9.8-11.1-10.1-11.6c0.9,0.4,1.7,0.7,2.5,0.9c11,3.2,12.4-9.9,12.4-10.5L101.5,51.1z"/>
					</g>
					<g>
						<polygon fill="#121841" points="109.7,127 100.2,131.2 72.8,123.3 82.3,119.2 						"/>
					</g>
					<g>
						<polygon fill="#121841" points="82.3,119.2 72.8,123.3 72.8,111.1 82.3,106.9 						"/>
					</g>
				</g>
			</g>
		</g>
		<polygon fill="#FFFFFF" points="91.9,80 91.9,96.2 101.4,86.5 101.5,70.2 		"/>
		<polygon fill="#FFFFFF" points="101.3,112.4 101.3,107.6 88,120.8 96.7,123.3 106.2,113.8 		"/>
	</g>
</g>
</svg>
